<svg viewBox="0 0 24 24" fill="none" xmlns="http://www.w3.org/2000/svg">
<path d="M3.99817 2H14.4124L19.9982 7.58579V22H3.99817V2ZM5.99817 4V20H17.9982V9H12.9982V4H5.99817ZM14.9982 5.41421V7H16.584L14.9982 5.41421Z" fill="#161513"/>
<path d="M11.5585 10.7454C11.9285 9.90468 11.5379 9.46148 11.5211 9.46705C11.4829 9.48016 11.0025 10.1654 11.5585 10.7454ZM10.7151 15.8372C11.53 15.5148 12.4159 15.2334 13.248 15.0343C12.722 14.411 12.1956 13.6327 11.7577 12.8306C11.479 13.814 11.1109 14.8757 10.7151 15.8372ZM15.2739 15.8221C15.3647 15.8221 15.6248 15.8181 15.7453 15.6468C15.8034 15.5637 15.8264 15.5104 15.8349 15.4818C15.787 15.456 15.7234 15.4035 15.3768 15.4035C15.1799 15.4039 14.9327 15.4127 14.6707 15.4468C14.9881 15.6961 15.0657 15.8221 15.2739 15.8221ZM8.15582 18.3032C8.15192 18.3398 8.1414 18.436 8.32387 18.5783C8.38197 18.5596 8.72118 18.4018 9.35321 17.2125C8.51999 17.6899 8.18039 18.0822 8.15582 18.3032ZM7.93828 19.1208C7.53239 18.81 7.4778 18.4646 7.50354 18.2293C7.5745 17.5825 8.35937 16.9048 9.83711 16.2148C10.4235 14.9047 10.9815 13.2905 11.3141 11.9418C10.9249 11.0785 10.5467 9.95836 10.8224 9.30131C10.9191 9.07117 11.0396 8.89468 11.2645 8.81837C11.3534 8.78816 11.578 8.75 11.6607 8.75C11.8572 8.75 12.0299 9.00797 12.1527 9.16696C12.2678 9.31642 12.5282 9.63321 12.0069 11.8707C12.5325 12.9773 13.2772 14.1045 13.9907 14.8765C14.5019 14.7823 14.9417 14.7342 15.3 14.7342C15.9106 14.7342 16.281 14.8792 16.4315 15.1782C16.5567 15.4254 16.5052 15.7144 16.2799 16.0367C16.0623 16.3464 15.7628 16.5101 15.4139 16.5101C14.9398 16.5101 14.3877 16.2049 13.772 15.6019C12.6658 15.8376 11.3741 16.2581 10.3299 16.7236C10.004 17.4287 9.69167 17.9967 9.4008 18.4133C9.00115 18.9837 8.65648 19.25 8.31532 19.25C8.17963 19.25 8.0494 19.2055 7.93828 19.1208Z" fill="#161513"/>
</svg>
