<svg viewBox="0 0 24 24" fill="none" xmlns="http://www.w3.org/2000/svg">
<path d="M3.99817 2H14.4124L19.9982 7.58579V22H3.99817V2ZM5.99817 4V20H17.9982V9H12.9982V4H5.99817ZM14.9982 5.41421V7H16.584L14.9982 5.41421Z" fill="#161513"/>
<path d="M6.99817 12H16.9982V19H6.99817V12ZM7.99817 13V14H9.99817V13H7.99817ZM10.9982 13V14H12.9982V13H10.9982ZM13.9982 13V14H15.9982V13H13.9982ZM15.9982 15H13.9982V16H15.9982V15ZM15.9982 17H13.9982V18H15.9982V17ZM12.9982 18V17H10.9982V18H12.9982ZM9.99817 18V17H7.99817V18H9.99817ZM7.99817 16H9.99817V15H7.99817V16ZM10.9982 15V16H12.9982V15H10.9982Z" fill="#161513"/>
</svg>
