<svg viewBox="0 0 24 24" fill="none" xmlns="http://www.w3.org/2000/svg">
<path d="M3.99817 2H14.4124L19.9982 7.58579V10H17.9982V9H12.9982V4H5.99817V20H17.9982V19H19.9982V22H3.99817V2ZM14.9982 5.41421V7H16.584L14.9982 5.41421Z" fill="#161513"/>
<path d="M13.1097 15.9347V16.8057C12.9355 16.8861 12.7322 16.9531 12.5 17.0067C12.2722 17.0648 12.0198 17.0938 11.7429 17.0938C10.9612 17.0938 10.3694 16.8727 9.96738 16.4305C9.56538 15.9838 9.36438 15.3429 9.36438 14.5076C9.36438 13.9939 9.46264 13.554 9.65918 13.1877C9.85571 12.817 10.1349 12.5333 10.4967 12.3368C10.8585 12.1358 11.2895 12.0353 11.7898 12.0353C12.0265 12.0353 12.2454 12.0599 12.4464 12.109C12.6474 12.1581 12.8238 12.2207 12.9757 12.2966V13.181C12.7389 13.0917 12.5335 13.0291 12.3593 12.9934C12.1895 12.9577 12.0243 12.9398 11.8635 12.9398C11.4034 12.9398 11.0505 13.076 10.8049 13.3485C10.5592 13.621 10.4364 14.0073 10.4364 14.5076C10.4364 15.0481 10.557 15.4657 10.7982 15.7605C11.0394 16.0508 11.3945 16.196 11.8635 16.196C12.0511 16.196 12.2409 16.1759 12.433 16.1357C12.6295 16.091 12.8551 16.024 13.1097 15.9347Z" fill="#161513"/>
<path d="M13.7027 16.8258V15.8945C14.2163 16.0866 14.7099 16.1826 15.1834 16.1826C15.4648 16.1826 15.6859 16.1357 15.8467 16.0419C16.0075 15.9481 16.0879 15.8186 16.0879 15.6533C16.0879 15.5372 16.0365 15.4411 15.9338 15.3652C15.831 15.2848 15.6323 15.1955 15.3375 15.0972L14.8283 14.923C14.4129 14.7801 14.1091 14.5969 13.9171 14.3736C13.7295 14.1458 13.6357 13.8555 13.6357 13.5026C13.6357 13.1989 13.7116 12.9376 13.8635 12.7187C14.0198 12.4998 14.2387 12.3323 14.5201 12.2162C14.8015 12.0956 15.1365 12.0353 15.5251 12.0353C15.7707 12.0353 16.0119 12.0599 16.2487 12.109C16.4899 12.1537 16.6998 12.2162 16.8785 12.2966V13.2279C16.6507 13.1386 16.4184 13.0716 16.1817 13.0269C15.9449 12.9778 15.7261 12.9532 15.5251 12.9532C14.9712 12.9532 14.6943 13.1162 14.6943 13.4423C14.6943 13.5674 14.7456 13.6701 14.8484 13.7505C14.9556 13.8264 15.1543 13.9135 15.4447 14.0118L15.9539 14.186C16.3916 14.3379 16.702 14.5232 16.8852 14.7421C17.0683 14.9565 17.1599 15.2491 17.1599 15.6198C17.1599 16.0754 16.9968 16.435 16.6708 16.6985C16.3492 16.962 15.8936 17.0938 15.304 17.0938C15.1119 17.0938 14.9109 17.0826 14.701 17.0603C14.4955 17.038 14.3034 17.0067 14.1248 16.9665C13.9506 16.9263 13.8099 16.8794 13.7027 16.8258Z" fill="#161513"/>
<path d="M19.1428 17L17.3472 12.1291H18.5264L19.6654 15.7136L20.8178 12.1291H21.9501L20.1545 17H19.1428Z" fill="#161513"/>
</svg>
