<svg viewBox="0 0 24 24" fill="none" xmlns="http://www.w3.org/2000/svg">
<path d="M3.99823 12C3.99823 7.58172 7.57995 4 11.9982 4C16.4165 4 19.9982 7.58172 19.9982 12C19.9982 16.4183 16.4165 20 11.9982 20C7.57995 20 3.99823 16.4183 3.99823 12ZM11.9982 2C6.47538 2 1.99823 6.47715 1.99823 12C1.99823 17.5228 6.47538 22 11.9982 22C17.5211 22 21.9982 17.5228 21.9982 12C21.9982 6.47715 17.5211 2 11.9982 2ZM7.99823 9.78947H9.99823C10.0162 8.71326 10.7022 7.68421 11.9982 7.68421C12.9522 7.68421 13.9982 8.21305 13.9982 9.13768C13.9982 9.90862 13.2009 10.4363 12.5205 10.8865L12.3982 10.9676C11.6792 11.4383 11.1062 11.8349 10.9982 13.1537V14H12.9262L12.9982 13.2589C13.1602 12.3663 13.8242 11.7903 14.5982 11.3053C15.3712 10.8051 15.9982 10.3958 15.9982 8.92547C15.9982 7.75747 15.3992 6 11.9982 6C9.37023 6 8.05223 7.62274 7.99823 9.78947ZM12.9982 18V16H10.9982V18H12.9982Z" fill="#161513"/>
</svg>
