<svg viewBox="0 0 24 24" fill="none" xmlns="http://www.w3.org/2000/svg">
<path d="M8.99823 2H14.9982V4.58433C15.0393 4.60084 15.0803 4.6177 15.1211 4.63489L16.9482 2.80779L21.1904 7.05L19.3633 8.8771C19.3805 8.91792 19.3974 8.95888 19.4139 9H21.9982V15H19.4145C19.398 15.041 19.3812 15.0819 19.3641 15.1227L21.1916 16.9501L16.9481 21.1921L15.1211 19.3651C15.0803 19.3823 15.0393 19.3992 14.9982 19.4157V22H8.99823V19.4157C8.95711 19.3992 8.91615 19.3823 8.87533 19.3651L7.04823 21.1922L2.80602 16.95L4.63312 15.1229C4.61593 15.0821 4.59907 15.0411 4.58256 15H1.99823V9H4.58256C4.59907 8.95888 4.61593 8.91792 4.63312 8.8771L2.80602 7.05L7.04823 2.80779L8.87533 4.63489C8.91615 4.6177 8.95711 4.60084 8.99823 4.58433V2ZM10.9982 4V6.04033L10.2827 6.25267C9.88163 6.37171 9.50019 6.5286 9.14458 6.72126L8.48864 7.07662L7.04823 5.63621L5.63444 7.05L7.07485 8.49041L6.71949 9.14635C6.52683 9.50196 6.36994 9.8834 6.2509 10.2845L6.03856 11H3.99823V13H6.03856L6.2509 13.7155C6.36994 14.1166 6.52683 14.498 6.71949 14.8536L7.07485 15.5096L5.63444 16.95L7.04823 18.3638L8.48864 16.9234L9.14458 17.2787C9.50019 17.4714 9.88163 17.6283 10.2827 17.7473L10.9982 17.9597V20H12.9982V17.9597L13.7137 17.7473C14.1148 17.6283 14.4963 17.4714 14.8519 17.2787L15.5078 16.9234L16.9484 18.3639L18.3629 16.9499L16.9226 15.5096L17.278 14.8536C17.47 14.4991 17.6264 14.1173 17.7471 13.7136L17.9604 13H19.9982V11H17.9579L17.7456 10.2845C17.6265 9.8834 17.4696 9.50196 17.277 9.14635L16.9216 8.49041L18.362 7.05L16.9482 5.63621L15.5078 7.07662L14.8519 6.72126C14.4963 6.5286 14.1148 6.37171 13.7137 6.25267L12.9982 6.04033V4H10.9982ZM11.9982 11C11.4459 11 10.9982 11.4477 10.9982 12C10.9982 12.5523 11.4459 13 11.9982 13C12.5505 13 12.9982 12.5523 12.9982 12C12.9982 11.4477 12.5505 11 11.9982 11ZM8.99823 12C8.99823 10.3431 10.3414 9 11.9982 9C13.6551 9 14.9982 10.3431 14.9982 12C14.9982 13.6569 13.6551 15 11.9982 15C10.3414 15 8.99823 13.6569 8.99823 12Z" fill="#161513"/>
</svg>
