<svg width="2713" height="8" viewBox="0 0 2713 8" fill="none" xmlns="http://www.w3.org/2000/svg">
<g clip-path="url(#clip0_18386_7952)">
<rect x="0.5" width="1356" height="8" fill="#C7A55D"/>
<mask id="mask0_18386_7952" style="mask-type:alpha" maskUnits="userSpaceOnUse" x="0" y="0" width="1357" height="8">
<rect x="0.5" width="1356" height="8" fill="#0B171F"/>
</mask>
<g mask="url(#mask0_18386_7952)">
<path d="M653.917 -29.5588C653.524 -29.5029 653.164 -29.4285 652.837 -29.3541C639.256 -26.7108 632.711 -18.9299 630.714 -11.2421C628.064 -1.04137 631.696 9.55022 637.587 19.1925C649.499 38.626 669.134 57.7245 700.583 68.7629C715.833 74.1239 733.44 77.3628 751.373 77.9212C760.242 78.2005 769.274 77.7351 777.914 76.5624C785.899 75.4641 794.767 73.7888 799.512 69.6936C810.541 60.2002 793.949 49.106 784.819 41.6044C773.627 32.4088 762.336 23.2505 750.359 14.39C737.138 4.61743 723.164 -4.85735 707.718 -13.5317C694.104 -21.1636 676.203 -32.0345 655.128 -29.6705C654.735 -29.6705 654.342 -29.6146 653.917 -29.5588Z" fill="#F0CC71"/>
<path d="M850.707 9.53383C847.605 4.57348 842.384 -0.0549976 835.229 -3.4434C827.152 -7.26846 817.755 -9.08494 807.345 -9.62639C800.804 -9.95825 794.201 -9.81849 787.629 -9.92328C782.163 -10.0106 776.328 -10.2726 771.292 -8.82292C761.434 -5.99342 762.232 0.434032 764.966 5.60397C769.173 15.0356 779.676 23.0002 791.56 30.039C799.299 34.6325 807.529 38.999 815.698 43.3481C819.137 45.182 822.976 46.946 827.951 46.9984C832.68 47.0683 836.979 45.6885 840.265 43.8196C847.421 39.7151 850.922 33.2527 852.672 27.6985C854.545 21.6728 854.33 15.3325 850.707 9.53383Z" fill="#D5B364"/>
<path d="M31.712 -7.84856C36.1048 1.91402 47.0708 10.158 59.4797 17.4438C67.56 22.1985 76.1532 26.7182 84.6823 31.2199C88.2735 33.1182 92.2816 34.9441 97.476 34.9984C102.414 35.0707 106.903 33.6424 110.334 31.708C117.805 27.4595 121.46 20.7703 123.288 15.0212C125.244 8.78399 125.019 2.22137 121.236 -3.78081C117.997 -8.9152 112.546 -13.706 105.075 -17.2133C96.6423 -21.1726 86.8306 -23.0529 75.9608 -23.6133C69.1311 -23.9568 62.2373 -23.8122 55.3755 -23.9206C49.668 -24.011 43.5758 -24.2822 38.3173 -22.7817C28.0246 -19.8529 28.8582 -13.1999 31.712 -7.84856Z" fill="#D5B364"/>
<path d="M887.409 -22.0501C887.134 -21.8772 886.919 -21.6869 886.735 -21.514C880.362 -16.7059 878.892 -10.6007 878.401 -4.7204C878.003 -0.102602 876.839 5.03403 879.749 9.47887C884.07 16.0683 895.192 18.628 906.866 18.9566C912.35 19.1123 917.835 18.8183 923.258 18.4205C926.016 18.2129 928.774 17.9881 931.531 17.7459C933.737 17.5557 935.545 17.4 936.862 17.3136C940.815 17.0887 944.706 16.9331 947.433 15.0825C950.497 13.0071 950.13 10.1188 949.057 7.66291C946.729 2.23225 942.654 -3.07737 937.598 -7.86811C931.868 -13.2988 924.545 -18.2625 916.027 -22.3614C911.86 -24.3677 907.295 -26.1317 901.565 -25.9934C896.448 -25.8723 891.699 -24.4887 888.145 -22.4479C887.9 -22.3268 887.655 -22.1885 887.409 -22.0328L887.409 -22.0501Z" fill="#D5B364"/>
<path d="M600.424 -6.28756C600.166 -12.3674 599.779 -18.7373 597.286 -24.7326C596.942 -25.5787 596.555 -26.4127 596.104 -27.2346C592.902 -33.254 586.69 -38.379 579.684 -43.1897C571.796 -48.6048 563.307 -53.778 555.162 -59.0843C539.558 -69.2738 520.409 -78.0007 499.905 -84.8783C483.765 -90.2934 465.69 -94.6568 446.626 -94.9832C438.137 -95.1282 429.089 -94.3063 422.19 -91.3208C414.087 -87.8155 408.392 -82.0379 405.985 -76.5261C403.406 -70.6276 404.309 -64.3906 407.747 -58.6613C411.68 -52.0979 418.321 -46.1873 424.576 -40.2525C429.863 -35.2364 434.462 -30.063 438.588 -24.7326C439.556 -23.4876 440.523 -22.2306 441.425 -20.9614C446.197 -14.3256 450.517 -7.593 455.524 -1.01759C457.953 2.17342 460.553 5.30402 463.433 8.37417C469 14.2244 475.684 19.7602 483.894 24.5468C492.211 29.3937 501.947 33.6121 511.962 37.2866C522.171 41.0458 533.089 44.2368 544.544 46.6179C554.732 48.7332 566.918 51.0177 577.836 49.5189C588.302 48.0926 593.675 42.8347 595.674 37.2504C596.749 34.2165 597.114 31.1222 597.587 28.052C598.167 24.305 598.705 20.558 599.177 16.811C600.145 9.12356 600.746 1.39985 600.402 -6.31176L600.424 -6.28756Z" fill="#D5B364"/>
<path d="M1243.27 -3.50226C1243.04 -3.24066 1242.89 -2.95727 1242.77 -2.69567C1237.93 4.36754 1237.43 14.8098 1244.6 21.3062C1249.53 25.7534 1257.5 27.0832 1266.35 26.996C1277.26 26.887 1288.21 26.6036 1299.13 26.3856C1306.79 26.2548 1315.72 26.7126 1323.35 25.4046C1324.57 25.1866 1325.8 24.9468 1326.98 24.6198C1335.83 22.1782 1337.2 16.5974 1332.55 11.9976C1330.11 9.5778 1326.83 7.26699 1323.39 5.10879C1321.1 3.66998 1318.78 2.2748 1316.49 0.966794C1310.3 -2.56481 1303.4 -5.85662 1295.65 -8.23282C1279.21 -13.2686 1253.23 -14.6421 1243.31 -3.50226L1243.27 -3.50226Z" fill="#F0CC71"/>
<path d="M310.357 37.039C327.964 39.6449 346.788 39.71 364.326 36.8957C385.285 33.5341 403.81 25.8208 415.174 15.2149C421.142 9.63838 425.343 3.14976 424.356 -3.4561C423.415 -9.77531 418.433 -15.5082 412.786 -20.8632C404.683 -28.5375 395.799 -35.9772 386.364 -43.1694C380.097 -47.9381 373.601 -52.6156 366.897 -57.1629C358.335 -62.987 349.359 -68.6157 340.039 -74.0489C330.604 -79.5472 320.618 -84.6808 310.702 -89.8926C302.529 -94.1792 295.688 -99.3779 286.185 -102.805C281.754 -104.407 276.589 -105.463 271.286 -104.798C265.777 -104.094 262.402 -101.541 261.071 -98.557C259.533 -95.0652 259.303 -91.3127 258.546 -87.7427C257.696 -83.7167 256.847 -79.6906 256.021 -75.6645C255.263 -72.0163 254.643 -68.3942 253.082 -64.8372C251.636 -61.5277 249.8 -58.2704 248.767 -54.9088C248.285 -53.3453 248.353 -51.6906 247.619 -50.1792C246.724 -48.2899 245.622 -46.4138 244.635 -44.5245C244.405 -44.0815 244.175 -43.6254 243.946 -43.1694C237.404 -30.3746 232.055 -16.9024 237.266 -3.65159C245.254 16.622 275.602 31.9054 310.334 37.039L310.357 37.039Z" fill="#D5B364"/>
<path d="M963.324 -15.165C974.071 12.0073 1014.9 32.4913 1061.62 39.3717C1085.3 42.8643 1110.63 42.9516 1134.22 39.1796C1162.41 34.6742 1187.33 24.3362 1202.62 10.1214C1210.65 2.64727 1216.3 -6.04928 1214.97 -14.903C1213.71 -23.3725 1207.01 -31.0561 1199.41 -38.2334C1187.15 -49.8113 1173.56 -60.9875 1159.05 -71.7447C1152.13 -76.8788 1145 -81.943 1137.68 -86.885C1126.16 -94.6909 1114.09 -102.235 1101.55 -109.517C1088.86 -116.886 1075.42 -123.767 1062.08 -130.752C1051.09 -136.497 1041.89 -143.465 1029.1 -148.058C1023.14 -150.205 1016.19 -151.62 1009.06 -150.729C1001.65 -149.786 997.108 -146.364 995.317 -142.365C993.248 -137.685 992.939 -132.655 991.92 -127.87C990.777 -122.474 989.635 -117.078 988.523 -111.682C987.504 -106.793 986.67 -101.938 984.57 -97.1706C982.625 -92.7351 980.154 -88.3694 978.765 -83.8639C978.116 -81.7684 978.209 -79.5506 977.221 -77.5249C976.294 -75.5865 975.213 -73.6656 974.194 -71.7447C973.885 -71.1509 973.546 -70.5573 973.237 -69.9461C964.034 -52.2736 956.067 -33.5534 963.324 -15.165Z" fill="#D5B364"/>
<path d="M154.001 -30.5845C153.576 -30.5291 153.217 -30.4551 152.89 -30.3628C135.438 -27.0551 129.033 -16.4486 131.778 -6.78447C134.262 1.97425 143.739 9.99387 156.55 15.02C162.956 17.533 170.374 19.1776 178.12 19.7504C185.538 20.2863 195.277 20.1754 201.225 17.2558C209.134 13.3569 204.984 7.18516 202.533 2.36232C199.657 -3.27357 196.16 -8.79858 192.14 -14.2127C188.937 -18.5182 185.702 -23.0638 179.819 -26.4454C173.348 -30.1965 164.23 -31.6747 155.243 -30.7138C154.851 -30.7138 154.459 -30.6769 154.034 -30.603L154.001 -30.5845Z" fill="#F0CC71"/>
</g>
<rect x="1356.5" width="1356" height="8" fill="#C7A55D"/>
<mask id="mask1_18386_7952" style="mask-type:alpha" maskUnits="userSpaceOnUse" x="1356" y="0" width="1357" height="8">
<rect x="1356.5" width="1356" height="8" fill="#0B171F"/>
</mask>
<g mask="url(#mask1_18386_7952)">
<path d="M2009.92 -29.5588C2009.52 -29.5029 2009.16 -29.4285 2008.84 -29.3541C1995.26 -26.7108 1988.71 -18.9299 1986.71 -11.2421C1984.06 -1.04137 1987.7 9.55022 1993.59 19.1925C2005.5 38.626 2025.13 57.7245 2056.58 68.7629C2071.83 74.1239 2089.44 77.3628 2107.37 77.9212C2116.24 78.2005 2125.27 77.7351 2133.91 76.5624C2141.9 75.4641 2150.77 73.7888 2155.51 69.6936C2166.54 60.2002 2149.95 49.106 2140.82 41.6044C2129.63 32.4088 2118.34 23.2505 2106.36 14.39C2093.14 4.61743 2079.16 -4.85735 2063.72 -13.5317C2050.1 -21.1636 2032.2 -32.0345 2011.13 -29.6705C2010.73 -29.6705 2010.34 -29.6146 2009.92 -29.5588Z" fill="#D5B364"/>
<path d="M2206.71 9.53383C2203.61 4.57348 2198.38 -0.0549976 2191.23 -3.4434C2183.15 -7.26846 2173.76 -9.08494 2163.35 -9.62639C2156.8 -9.95825 2150.2 -9.81849 2143.63 -9.92328C2138.16 -10.0106 2132.33 -10.2726 2127.29 -8.82292C2117.43 -5.99342 2118.23 0.434032 2120.97 5.60397C2125.17 15.0356 2135.68 23.0002 2147.56 30.039C2155.3 34.6325 2163.53 38.999 2171.7 43.3481C2175.14 45.182 2178.98 46.946 2183.95 46.9984C2188.68 47.0683 2192.98 45.6885 2196.27 43.8196C2203.42 39.7151 2206.92 33.2527 2208.67 27.6985C2210.55 21.6728 2210.33 15.3325 2206.71 9.53383Z" fill="#D5B364"/>
<path d="M1387.71 -7.84856C1392.1 1.91402 1403.07 10.158 1415.48 17.4438C1423.56 22.1985 1432.15 26.7182 1440.68 31.2199C1444.27 33.1182 1448.28 34.9441 1453.48 34.9984C1458.41 35.0707 1462.9 33.6424 1466.33 31.708C1473.8 27.4595 1477.46 20.7703 1479.29 15.0212C1481.24 8.78399 1481.02 2.22137 1477.24 -3.78081C1474 -8.9152 1468.55 -13.706 1461.07 -17.2133C1452.64 -21.1726 1442.83 -23.0529 1431.96 -23.6133C1425.13 -23.9568 1418.24 -23.8122 1411.38 -23.9206C1405.67 -24.011 1399.58 -24.2822 1394.32 -22.7817C1384.02 -19.8529 1384.86 -13.1999 1387.71 -7.84856Z" fill="#D5B364"/>
<path d="M2243.41 -22.0501C2243.13 -21.8772 2242.92 -21.6869 2242.73 -21.514C2236.36 -16.7059 2234.89 -10.6007 2234.4 -4.7204C2234 -0.102602 2232.84 5.03403 2235.75 9.47887C2240.07 16.0683 2251.19 18.628 2262.87 18.9566C2268.35 19.1123 2273.83 18.8183 2279.26 18.4205C2282.02 18.2129 2284.77 17.9881 2287.53 17.7459C2289.74 17.5557 2291.54 17.4 2292.86 17.3136C2296.81 17.0887 2300.71 16.9331 2303.43 15.0825C2306.5 13.0071 2306.13 10.1188 2305.06 7.66291C2302.73 2.23225 2298.65 -3.07737 2293.6 -7.86811C2287.87 -13.2988 2280.54 -18.2625 2272.03 -22.3614C2267.86 -24.3677 2263.29 -26.1317 2257.56 -25.9934C2252.45 -25.8723 2247.7 -24.4887 2244.14 -22.4479C2243.9 -22.3268 2243.65 -22.1885 2243.41 -22.0328L2243.41 -22.0501Z" fill="#D5B364"/>
<path d="M1956.42 -6.28756C1956.17 -12.3674 1955.78 -18.7373 1953.29 -24.7326C1952.94 -25.5787 1952.56 -26.4127 1952.1 -27.2346C1948.9 -33.254 1942.69 -38.379 1935.68 -43.1897C1927.8 -48.6048 1919.31 -53.778 1911.16 -59.0843C1895.56 -69.2738 1876.41 -78.0007 1855.91 -84.8783C1839.76 -90.2934 1821.69 -94.6568 1802.63 -94.9832C1794.14 -95.1282 1785.09 -94.3063 1778.19 -91.3208C1770.09 -87.8155 1764.39 -82.0379 1761.98 -76.5261C1759.41 -70.6276 1760.31 -64.3906 1763.75 -58.6613C1767.68 -52.0979 1774.32 -46.1873 1780.58 -40.2525C1785.86 -35.2364 1790.46 -30.063 1794.59 -24.7326C1795.56 -23.4876 1796.52 -22.2306 1797.43 -20.9614C1802.2 -14.3256 1806.52 -7.593 1811.52 -1.01759C1813.95 2.17342 1816.55 5.30402 1819.43 8.37417C1825 14.2244 1831.68 19.7602 1839.89 24.5468C1848.21 29.3937 1857.95 33.6121 1867.96 37.2866C1878.17 41.0458 1889.09 44.2368 1900.54 46.6179C1910.73 48.7332 1922.92 51.0177 1933.84 49.5189C1944.3 48.0926 1949.68 42.8347 1951.67 37.2504C1952.75 34.2165 1953.11 31.1222 1953.59 28.052C1954.17 24.305 1954.7 20.558 1955.18 16.811C1956.14 9.12356 1956.75 1.39985 1956.4 -6.31176L1956.42 -6.28756Z" fill="#D5B364"/>
<path d="M2599.27 -3.50226C2599.04 -3.24066 2598.89 -2.95727 2598.77 -2.69567C2593.93 4.36754 2593.43 14.8098 2600.6 21.3062C2605.53 25.7534 2613.5 27.0832 2622.35 26.996C2633.26 26.887 2644.21 26.6036 2655.13 26.3856C2662.8 26.2548 2671.72 26.7126 2679.35 25.4046C2680.58 25.1866 2681.8 24.9468 2682.98 24.6198C2691.83 22.1782 2693.2 16.5974 2688.55 11.9976C2686.11 9.5778 2682.83 7.26699 2679.39 5.10879C2677.1 3.66998 2674.78 2.2748 2672.49 0.966794C2666.31 -2.56481 2659.4 -5.85662 2651.65 -8.23282C2635.21 -13.2686 2609.23 -14.6421 2599.31 -3.50226L2599.27 -3.50226Z" fill="#F0CC71"/>
<path d="M1666.36 37.039C1683.96 39.6449 1702.79 39.71 1720.33 36.8957C1741.29 33.5341 1759.81 25.8208 1771.17 15.2149C1777.14 9.63838 1781.34 3.14976 1780.36 -3.4561C1779.42 -9.77531 1774.43 -15.5082 1768.79 -20.8632C1760.68 -28.5375 1751.8 -35.9772 1742.36 -43.1694C1736.1 -47.9381 1729.6 -52.6156 1722.9 -57.1629C1714.34 -62.987 1705.36 -68.6157 1696.04 -74.0489C1686.6 -79.5472 1676.62 -84.6808 1666.7 -89.8926C1658.53 -94.1792 1651.69 -99.3779 1642.19 -102.805C1637.75 -104.407 1632.59 -105.463 1627.29 -104.798C1621.78 -104.094 1618.4 -101.541 1617.07 -98.557C1615.53 -95.0652 1615.3 -91.3127 1614.55 -87.7427C1613.7 -83.7167 1612.85 -79.6906 1612.02 -75.6645C1611.26 -72.0163 1610.64 -68.3942 1609.08 -64.8372C1607.64 -61.5277 1605.8 -58.2704 1604.77 -54.9088C1604.29 -53.3453 1604.35 -51.6906 1603.62 -50.1792C1602.72 -48.2899 1601.62 -46.4138 1600.64 -44.5245C1600.41 -44.0815 1600.18 -43.6254 1599.95 -43.1694C1593.4 -30.3746 1588.06 -16.9024 1593.27 -3.65159C1601.25 16.622 1631.6 31.9054 1666.33 37.039L1666.36 37.039Z" fill="#D5B364"/>
<path d="M2319.32 -15.165C2330.07 12.0073 2370.9 32.4913 2417.62 39.3717C2441.3 42.8643 2466.63 42.9516 2490.22 39.1796C2518.41 34.6742 2543.33 24.3362 2558.62 10.1214C2566.65 2.64727 2572.3 -6.04928 2570.97 -14.903C2569.71 -23.3725 2563.01 -31.0561 2555.41 -38.2334C2543.15 -49.8113 2529.56 -60.9875 2515.05 -71.7447C2508.13 -76.8788 2501 -81.943 2493.68 -86.885C2482.16 -94.6909 2470.09 -102.235 2457.55 -109.517C2444.86 -116.886 2431.42 -123.767 2418.08 -130.752C2407.09 -136.497 2397.89 -143.465 2385.1 -148.058C2379.14 -150.205 2372.19 -151.62 2365.06 -150.729C2357.65 -149.786 2353.11 -146.364 2351.32 -142.365C2349.25 -137.685 2348.94 -132.655 2347.92 -127.87C2346.78 -122.474 2345.63 -117.078 2344.52 -111.682C2343.5 -106.793 2342.67 -101.938 2340.57 -97.1706C2338.62 -92.7351 2336.15 -88.3694 2334.76 -83.8639C2334.12 -81.7684 2334.21 -79.5506 2333.22 -77.5249C2332.29 -75.5865 2331.21 -73.6656 2330.19 -71.7447C2329.89 -71.1509 2329.55 -70.5573 2329.24 -69.9461C2320.03 -52.2736 2312.07 -33.5534 2319.32 -15.165Z" fill="#D5B364"/>
<path d="M1510 -30.5845C1509.58 -30.5291 1509.22 -30.4551 1508.89 -30.3628C1491.44 -27.0551 1485.03 -16.4486 1487.78 -6.78447C1490.26 1.97425 1499.74 9.99387 1512.55 15.02C1518.96 17.533 1526.37 19.1776 1534.12 19.7504C1541.54 20.2863 1551.28 20.1754 1557.23 17.2558C1565.13 13.3569 1560.98 7.18516 1558.53 2.36232C1555.66 -3.27357 1552.16 -8.79858 1548.14 -14.2127C1544.94 -18.5182 1541.7 -23.0638 1535.82 -26.4454C1529.35 -30.1965 1520.23 -31.6747 1511.24 -30.7138C1510.85 -30.7138 1510.46 -30.6769 1510.03 -30.603L1510 -30.5845Z" fill="#F0CC71"/>
</g>
</g>
<defs>
<clipPath id="clip0_18386_7952">
<rect width="2712" height="8" fill="white" transform="translate(0.5)"/>
</clipPath>
</defs>
</svg>
