<svg width="2713" height="8" viewBox="0 0 2713 8" fill="none" xmlns="http://www.w3.org/2000/svg">
<rect width="2712" height="8" transform="translate(0.5)" fill="#9E9892"/>
<mask id="mask0_18386_8398" style="mask-type:alpha" maskUnits="userSpaceOnUse" x="0" y="0" width="1357" height="8">
<rect x="0.5" width="1356" height="8" fill="#8F520A"/>
</mask>
<g mask="url(#mask0_18386_8398)">
<path d="M653.917 -39.4117C653.524 -39.3373 653.164 -39.238 652.837 -39.1387C639.256 -35.6144 632.711 -25.2398 630.714 -14.9895C628.064 -1.38849 631.696 12.7336 637.587 25.59C649.499 51.5014 669.134 76.966 700.583 91.6838C715.833 98.8318 733.44 103.15 751.373 103.895C760.242 104.267 769.274 103.647 777.914 102.083C785.899 100.619 794.767 98.3851 799.512 92.9248C810.541 80.267 793.949 65.4747 784.819 55.4725C773.627 43.2118 762.336 31.0007 750.359 19.1867C737.138 6.15656 723.164 -6.47647 707.718 -18.0423C694.104 -28.2182 676.203 -42.7127 655.128 -39.5606C654.735 -39.5606 654.342 -39.4862 653.917 -39.4117Z" fill="#BCB6B1"/>
<path d="M850.707 12.7103C847.605 6.09651 842.384 -0.0747975 835.229 -4.59267C827.152 -9.69275 817.755 -12.1147 807.345 -12.8367C800.804 -13.2791 794.201 -13.0928 787.629 -13.2325C782.163 -13.349 776.328 -13.6983 771.292 -11.7654C761.434 -7.9927 762.232 0.57724 764.966 7.47049C769.173 20.046 779.676 30.6654 791.56 40.0505C799.299 46.1752 807.529 51.9972 815.698 57.7959C819.137 60.2412 822.976 62.5933 827.951 62.6631C832.68 62.7563 836.979 60.9165 840.265 58.4247C847.421 52.952 850.922 44.3355 852.672 36.9299C854.545 28.8955 854.33 20.4419 850.707 12.7103Z" fill="#BCB6B1"/>
<path d="M31.712 -10.4662C36.1048 2.55056 47.0708 13.5426 59.4797 23.2569C67.56 29.5966 76.1532 35.6229 84.6823 41.625C88.2735 44.1561 92.2816 46.5907 97.476 46.663C102.414 46.7594 106.903 44.8551 110.334 42.2759C117.805 36.6111 121.46 27.6922 123.288 20.0268C125.244 11.7105 125.019 2.96036 121.236 -5.04255C117.997 -11.8884 112.546 -18.2762 105.075 -22.9526C96.6423 -28.2316 86.8306 -30.7386 75.9608 -31.4859C69.1311 -31.9439 62.2373 -31.751 55.3755 -31.8956C49.668 -32.0162 43.5758 -32.3777 38.3173 -30.377C28.0246 -26.472 28.8582 -17.6013 31.712 -10.4662Z" fill="#7A736E"/>
<path d="M887.409 -29.3992C887.134 -29.1686 886.919 -28.9149 886.735 -28.6843C880.362 -22.2736 878.892 -14.1333 878.401 -6.29289C878.003 -0.135828 876.839 6.71302 879.749 12.6395C884.07 21.4254 895.192 24.8383 906.866 25.2765C912.35 25.484 917.835 25.092 923.258 24.5616C926.016 24.2849 928.774 23.9851 931.531 23.6622C933.737 23.4086 935.545 23.201 936.862 23.0857C940.815 22.7859 944.706 22.5785 947.433 20.111C950.497 17.3438 950.13 13.4927 949.057 10.2182C946.729 2.97731 942.654 -4.10218 937.598 -10.4898C931.868 -17.7307 924.545 -24.349 916.027 -29.8143C911.86 -32.4892 907.295 -34.8413 901.565 -34.6568C896.448 -34.4954 891.699 -32.6506 888.145 -29.9295C887.9 -29.7681 887.655 -29.5837 887.409 -29.3761L887.409 -29.3992Z" fill="#7A736E"/>
<path d="M600.424 -8.38488C600.166 -16.4913 599.779 -24.9846 597.286 -32.9782C596.942 -34.1064 596.555 -35.2184 596.104 -36.3143C592.902 -44.3402 586.69 -51.1735 579.684 -57.5877C571.796 -64.8078 563.307 -71.7055 555.162 -78.7805C539.558 -92.3665 520.409 -104.002 499.905 -113.173C483.765 -120.393 465.69 -126.211 446.626 -126.646C438.137 -126.839 429.089 -125.743 422.19 -121.763C414.087 -117.089 408.392 -109.385 405.985 -102.036C403.406 -94.1716 404.309 -85.8556 407.747 -78.2165C411.68 -69.4654 418.321 -61.5846 424.576 -53.6715C429.863 -46.9833 434.462 -40.0855 438.588 -32.9783C439.556 -31.3183 440.523 -29.6422 441.425 -27.95C446.197 -19.1022 450.517 -10.1255 455.524 -1.35825C457.953 2.89644 460.553 7.07057 463.433 11.1641C469 18.9643 475.684 26.3455 483.894 32.7276C492.211 39.1902 501.947 44.8147 511.962 49.7141C522.171 54.7262 533.089 58.9809 544.544 62.1558C554.732 64.9761 566.918 68.0221 577.836 66.0237C588.302 64.122 593.675 57.1114 595.674 49.6657C596.749 45.6206 597.114 41.4948 597.587 37.4013C598.167 32.4052 598.705 27.4092 599.177 22.4132C600.145 12.1633 600.746 1.865 600.402 -8.41714L600.424 -8.38488Z" fill="#8B8580"/>
<path d="M1243.27 -4.66967C1243.04 -4.32087 1242.89 -3.94302 1242.77 -3.59422C1237.93 5.82339 1237.43 19.7464 1244.6 28.4082C1249.53 34.3379 1257.5 36.111 1266.35 35.9947C1277.26 35.8494 1288.21 35.4715 1299.13 35.1808C1306.79 35.0064 1315.72 35.6168 1323.35 33.8728C1324.57 33.5821 1325.8 33.2624 1326.98 32.8264C1335.83 29.571 1337.2 22.1299 1332.55 15.9968C1330.11 12.7704 1326.83 9.68932 1323.39 6.81172C1321.1 4.89331 1318.78 3.03306 1316.49 1.28906C1310.3 -3.41975 1303.4 -7.80882 1295.65 -10.9771C1279.21 -17.6915 1253.23 -19.5228 1243.31 -4.66967L1243.27 -4.66967Z" fill="#BCB6B1"/>
<path d="M310.357 49.3853C327.964 52.8598 346.788 52.9467 364.326 49.1942C385.285 44.7121 403.81 34.4277 415.174 20.2866C421.142 12.8512 425.343 4.19967 424.356 -4.60814C423.415 -13.0338 418.433 -20.6776 412.786 -27.8177C404.683 -38.05 395.799 -47.9696 386.364 -57.5592C380.097 -63.9175 373.601 -70.1542 366.897 -76.2172C358.335 -83.9826 349.359 -91.4876 340.039 -98.7319C330.604 -106.063 320.618 -112.908 310.702 -119.857C302.529 -125.572 295.688 -132.504 286.185 -137.073C281.754 -139.21 276.589 -140.617 271.286 -139.731C265.777 -138.793 262.402 -135.388 261.071 -131.409C259.533 -126.754 259.303 -121.75 258.546 -116.99C257.696 -111.622 256.847 -106.254 256.021 -100.886C255.263 -96.0218 254.643 -91.1922 253.082 -86.4496C251.636 -82.037 249.8 -77.6939 248.767 -73.2118C248.285 -71.1271 248.353 -68.9208 247.619 -66.9056C246.724 -64.3866 245.622 -61.885 244.635 -59.366C244.405 -58.7754 244.175 -58.1673 243.946 -57.5592C237.404 -40.4995 232.055 -22.5365 237.266 -4.86879C245.254 22.1627 275.602 42.5406 310.334 49.3853L310.357 49.3853Z" fill="#BCB6B1"/>
<path d="M963.324 -20.22C974.071 16.0097 1014.9 43.3218 1061.62 52.4956C1085.3 57.1524 1110.63 57.2688 1134.22 52.2395C1162.41 46.2322 1187.33 32.4482 1202.62 13.4952C1210.65 3.52969 1216.3 -8.06571 1214.97 -19.8706C1213.71 -31.1633 1207.01 -41.4082 1199.41 -50.9778C1187.15 -66.415 1173.56 -81.3167 1159.05 -95.6596C1152.13 -102.505 1145 -109.257 1137.68 -115.847C1126.16 -126.255 1114.09 -136.313 1101.55 -146.023C1088.86 -155.848 1075.42 -165.022 1062.08 -174.336C1051.09 -181.996 1041.89 -191.286 1029.1 -197.41C1023.14 -200.274 1016.19 -202.16 1009.06 -200.972C1001.65 -199.715 997.108 -195.152 995.317 -189.819C993.248 -183.579 992.939 -176.874 991.92 -170.494C990.777 -163.299 989.635 -156.104 988.523 -148.91C987.504 -142.39 986.67 -135.917 984.57 -129.561C982.625 -123.647 980.154 -117.826 978.765 -111.819C978.116 -109.025 978.209 -106.067 977.221 -103.367C976.294 -100.782 975.213 -98.2208 974.194 -95.6596C973.885 -94.8679 973.546 -94.0764 973.237 -93.2614C964.034 -69.6982 956.067 -44.7379 963.324 -20.22Z" fill="#BCB6B1"/>
<path d="M154.001 -40.7808C153.576 -40.7069 153.217 -40.6083 152.89 -40.4851C135.438 -36.075 129.033 -21.933 131.778 -9.04743C134.262 2.63086 143.739 13.3237 156.55 20.0252C162.956 23.3759 170.374 25.5686 178.12 26.3324C185.538 27.0469 195.277 26.8991 201.225 23.0063C209.134 17.8077 204.984 9.57875 202.533 3.14829C199.657 -4.36622 196.16 -11.7329 192.14 -18.9518C188.937 -24.6924 185.702 -30.7532 179.819 -35.2619C173.348 -40.2634 164.23 -42.2344 155.243 -40.9533C154.851 -40.9533 154.459 -40.904 154.034 -40.8054L154.001 -40.7808Z" fill="#BCB6B1"/>
</g>
<mask id="mask1_18386_8398" style="mask-type:alpha" maskUnits="userSpaceOnUse" x="1356" y="0" width="1357" height="8">
<rect x="1356.5" width="1356" height="8" fill="#99C2A6"/>
</mask>
<g mask="url(#mask1_18386_8398)">
<path d="M2009.92 -39.4117C2009.52 -39.3373 2009.16 -39.238 2008.84 -39.1387C1995.26 -35.6144 1988.71 -25.2398 1986.71 -14.9895C1984.06 -1.38849 1987.7 12.7336 1993.59 25.59C2005.5 51.5014 2025.13 76.966 2056.58 91.6838C2071.83 98.8318 2089.44 103.15 2107.37 103.895C2116.24 104.267 2125.27 103.647 2133.91 102.083C2141.9 100.619 2150.77 98.3851 2155.51 92.9248C2166.54 80.267 2149.95 65.4747 2140.82 55.4725C2129.63 43.2118 2118.34 31.0007 2106.36 19.1867C2093.14 6.15656 2079.16 -6.47647 2063.72 -18.0423C2050.1 -28.2182 2032.2 -42.7127 2011.13 -39.5606C2010.73 -39.5606 2010.34 -39.4862 2009.92 -39.4117Z" fill="#BCB6B1"/>
<path d="M2206.71 12.7103C2203.61 6.09651 2198.38 -0.0747975 2191.23 -4.59267C2183.15 -9.69275 2173.76 -12.1147 2163.35 -12.8367C2156.8 -13.2791 2150.2 -13.0928 2143.63 -13.2325C2138.16 -13.349 2132.33 -13.6983 2127.29 -11.7654C2117.43 -7.9927 2118.23 0.57724 2120.97 7.47049C2125.17 20.046 2135.68 30.6654 2147.56 40.0505C2155.3 46.1752 2163.53 51.9972 2171.7 57.7959C2175.14 60.2412 2178.98 62.5933 2183.95 62.6631C2188.68 62.7563 2192.98 60.9165 2196.27 58.4247C2203.42 52.952 2206.92 44.3355 2208.67 36.9299C2210.55 28.8955 2210.33 20.4419 2206.71 12.7103Z" fill="#BCB6B1"/>
<path d="M1387.71 -10.4662C1392.1 2.55056 1403.07 13.5426 1415.48 23.2569C1423.56 29.5966 1432.15 35.6229 1440.68 41.625C1444.27 44.1561 1448.28 46.5907 1453.48 46.663C1458.41 46.7594 1462.9 44.8551 1466.33 42.2759C1473.8 36.6111 1477.46 27.6922 1479.29 20.0268C1481.24 11.7105 1481.02 2.96036 1477.24 -5.04255C1474 -11.8884 1468.55 -18.2762 1461.07 -22.9526C1452.64 -28.2316 1442.83 -30.7386 1431.96 -31.4859C1425.13 -31.9439 1418.24 -31.751 1411.38 -31.8956C1405.67 -32.0162 1399.58 -32.3777 1394.32 -30.377C1384.02 -26.472 1384.86 -17.6013 1387.71 -10.4662Z" fill="#BCB6B1"/>
<path d="M2243.41 -29.3992C2243.13 -29.1686 2242.92 -28.9149 2242.73 -28.6843C2236.36 -22.2736 2234.89 -14.1333 2234.4 -6.29289C2234 -0.135828 2232.84 6.71302 2235.75 12.6395C2240.07 21.4254 2251.19 24.8383 2262.87 25.2765C2268.35 25.484 2273.83 25.092 2279.26 24.5616C2282.02 24.2849 2284.77 23.9851 2287.53 23.6622C2289.74 23.4086 2291.54 23.201 2292.86 23.0857C2296.81 22.7859 2300.71 22.5785 2303.43 20.111C2306.5 17.3438 2306.13 13.4927 2305.06 10.2182C2302.73 2.97731 2298.65 -4.10218 2293.6 -10.4898C2287.87 -17.7307 2280.54 -24.349 2272.03 -29.8143C2267.86 -32.4892 2263.29 -34.8413 2257.56 -34.6568C2252.45 -34.4954 2247.7 -32.6506 2244.14 -29.9295C2243.9 -29.7681 2243.65 -29.5837 2243.41 -29.3761L2243.41 -29.3992Z" fill="#BCB6B1"/>
<path d="M1956.42 -8.38488C1956.17 -16.4913 1955.78 -24.9846 1953.29 -32.9782C1952.94 -34.1064 1952.56 -35.2184 1952.1 -36.3143C1948.9 -44.3402 1942.69 -51.1735 1935.68 -57.5877C1927.8 -64.8078 1919.31 -71.7055 1911.16 -78.7805C1895.56 -92.3665 1876.41 -104.002 1855.91 -113.173C1839.76 -120.393 1821.69 -126.211 1802.63 -126.646C1794.14 -126.839 1785.09 -125.743 1778.19 -121.763C1770.09 -117.089 1764.39 -109.385 1761.98 -102.036C1759.41 -94.1716 1760.31 -85.8556 1763.75 -78.2165C1767.68 -69.4654 1774.32 -61.5846 1780.58 -53.6715C1785.86 -46.9833 1790.46 -40.0855 1794.59 -32.9783C1795.56 -31.3183 1796.52 -29.6422 1797.43 -27.95C1802.2 -19.1022 1806.52 -10.1255 1811.52 -1.35825C1813.95 2.89644 1816.55 7.07057 1819.43 11.1641C1825 18.9643 1831.68 26.3455 1839.89 32.7276C1848.21 39.1902 1857.95 44.8147 1867.96 49.7141C1878.17 54.7262 1889.09 58.9809 1900.54 62.1558C1910.73 64.9761 1922.92 68.0221 1933.84 66.0237C1944.3 64.122 1949.68 57.1114 1951.67 49.6657C1952.75 45.6206 1953.11 41.4948 1953.59 37.4013C1954.17 32.4052 1954.7 27.4092 1955.18 22.4132C1956.14 12.1633 1956.75 1.865 1956.4 -8.41714L1956.42 -8.38488Z" fill="#BCB6B1"/>
<path d="M2599.27 -4.66967C2599.04 -4.32087 2598.89 -3.94302 2598.77 -3.59422C2593.93 5.82339 2593.43 19.7464 2600.6 28.4082C2605.53 34.3379 2613.5 36.111 2622.35 35.9947C2633.26 35.8494 2644.21 35.4715 2655.13 35.1808C2662.8 35.0064 2671.72 35.6168 2679.35 33.8728C2680.58 33.5821 2681.8 33.2624 2682.98 32.8264C2691.83 29.571 2693.2 22.1299 2688.55 15.9968C2686.11 12.7704 2682.83 9.68932 2679.39 6.81172C2677.1 4.89331 2674.78 3.03306 2672.49 1.28906C2666.31 -3.41975 2659.4 -7.80882 2651.65 -10.9771C2635.21 -17.6915 2609.23 -19.5228 2599.31 -4.66967L2599.27 -4.66967Z" fill="#BCB6B1"/>
<path d="M1666.36 49.3853C1683.96 52.8598 1702.79 52.9467 1720.33 49.1942C1741.29 44.7121 1759.81 34.4277 1771.17 20.2866C1777.14 12.8512 1781.34 4.19967 1780.36 -4.60814C1779.42 -13.0338 1774.43 -20.6776 1768.79 -27.8177C1760.68 -38.05 1751.8 -47.9696 1742.36 -57.5592C1736.1 -63.9175 1729.6 -70.1542 1722.9 -76.2172C1714.34 -83.9826 1705.36 -91.4876 1696.04 -98.7319C1686.6 -106.063 1676.62 -112.908 1666.7 -119.857C1658.53 -125.572 1651.69 -132.504 1642.19 -137.073C1637.75 -139.21 1632.59 -140.617 1627.29 -139.731C1621.78 -138.793 1618.4 -135.388 1617.07 -131.409C1615.53 -126.754 1615.3 -121.75 1614.55 -116.99C1613.7 -111.622 1612.85 -106.254 1612.02 -100.886C1611.26 -96.0218 1610.64 -91.1922 1609.08 -86.4496C1607.64 -82.037 1605.8 -77.6939 1604.77 -73.2118C1604.29 -71.1271 1604.35 -68.9208 1603.62 -66.9056C1602.72 -64.3866 1601.62 -61.885 1600.64 -59.366C1600.41 -58.7754 1600.18 -58.1673 1599.95 -57.5592C1593.4 -40.4995 1588.06 -22.5365 1593.27 -4.86879C1601.25 22.1627 1631.6 42.5406 1666.33 49.3853L1666.36 49.3853Z" fill="#BCB6B1"/>
<path d="M2319.32 -20.22C2330.07 16.0097 2370.9 43.3218 2417.62 52.4956C2441.3 57.1524 2466.63 57.2688 2490.22 52.2395C2518.41 46.2322 2543.33 32.4482 2558.62 13.4952C2566.65 3.52969 2572.3 -8.06571 2570.97 -19.8706C2569.71 -31.1633 2563.01 -41.4082 2555.41 -50.9778C2543.15 -66.415 2529.56 -81.3167 2515.05 -95.6596C2508.13 -102.505 2501 -109.257 2493.68 -115.847C2482.16 -126.255 2470.09 -136.313 2457.55 -146.023C2444.86 -155.848 2431.42 -165.022 2418.08 -174.336C2407.09 -181.996 2397.89 -191.286 2385.1 -197.41C2379.14 -200.274 2372.19 -202.16 2365.06 -200.972C2357.65 -199.715 2353.11 -195.152 2351.32 -189.819C2349.25 -183.579 2348.94 -176.874 2347.92 -170.494C2346.78 -163.299 2345.63 -156.104 2344.52 -148.91C2343.5 -142.39 2342.67 -135.917 2340.57 -129.561C2338.62 -123.647 2336.15 -117.826 2334.76 -111.819C2334.12 -109.025 2334.21 -106.067 2333.22 -103.367C2332.29 -100.782 2331.21 -98.2208 2330.19 -95.6596C2329.89 -94.8679 2329.55 -94.0764 2329.24 -93.2614C2320.03 -69.6982 2312.07 -44.7379 2319.32 -20.22Z" fill="#BCB6B1"/>
<path d="M1510 -40.7808C1509.58 -40.7069 1509.22 -40.6083 1508.89 -40.4851C1491.44 -36.075 1485.03 -21.933 1487.78 -9.04743C1490.26 2.63086 1499.74 13.3237 1512.55 20.0252C1518.96 23.3759 1526.37 25.5686 1534.12 26.3324C1541.54 27.0469 1551.28 26.8991 1557.23 23.0063C1565.13 17.8077 1560.98 9.57875 1558.53 3.14829C1555.66 -4.36622 1552.16 -11.7329 1548.14 -18.9518C1544.94 -24.6924 1541.7 -30.7532 1535.82 -35.2619C1529.35 -40.2634 1520.23 -42.2344 1511.24 -40.9533C1510.85 -40.9533 1510.46 -40.904 1510.03 -40.8054L1510 -40.7808Z" fill="#8B8580"/>
</g>
</svg>
