<svg width="1356" height="8" viewBox="0 0 1356 8" fill="none" xmlns="http://www.w3.org/2000/svg">
<rect width="1356" height="8" fill="#9E9892"/>
<mask id="mask0_17_136" style="mask-type:alpha" maskUnits="userSpaceOnUse" x="0" y="0" width="1356" height="8">
<rect width="1356" height="8" fill="#8F520A"/>
</mask>
<g mask="url(#mask0_17_136)">
<path d="M653.417 -39.4118C653.024 -39.3374 652.664 -39.2381 652.337 -39.1388C638.756 -35.6145 632.211 -25.2399 630.214 -14.9896C627.564 -1.38858 631.196 12.7335 637.087 25.5899C648.999 51.5013 668.634 76.9659 700.083 91.6838C715.333 98.8317 732.94 103.15 750.873 103.895C759.742 104.267 768.774 103.647 777.413 102.083C785.399 100.619 794.267 98.385 799.012 92.9247C810.041 80.2669 793.449 65.4746 784.319 55.4724C773.126 43.2117 761.836 31.0006 749.859 19.1866C736.638 6.15647 722.664 -6.47656 707.217 -18.0424C693.604 -28.2183 675.703 -42.7128 654.627 -39.5607C654.235 -39.5607 653.842 -39.4863 653.417 -39.4118Z" fill="#BCB6B1"/>
<path d="M850.207 12.7104C847.105 6.09658 841.885 -0.074723 834.729 -4.5926C826.653 -9.69268 817.255 -12.1147 806.845 -12.8366C800.304 -13.2791 793.701 -13.0927 787.129 -13.2324C781.663 -13.3489 775.828 -13.6982 770.792 -11.7653C760.934 -7.99263 761.733 0.577315 764.466 7.47057C768.673 20.0461 779.176 30.6655 791.06 40.0506C798.799 46.1753 807.029 51.9973 815.198 57.796C818.637 60.2413 822.476 62.5933 827.451 62.6632C832.18 62.7564 836.48 60.9166 839.766 58.4248C846.921 52.9521 850.422 44.3356 852.172 36.93C854.046 28.8956 853.831 20.442 850.207 12.7104Z" fill="#BCB6B1"/>
<path d="M31.2118 -10.4661C35.6046 2.55064 46.5706 13.5426 58.9795 23.257C67.0598 29.5967 75.653 35.6229 84.1821 41.6251C87.7733 44.1562 91.7814 46.5908 96.9758 46.6631C101.914 46.7595 106.403 44.8552 109.834 42.2759C117.305 36.6112 120.96 27.6923 122.788 20.0269C124.744 11.7106 124.519 2.96044 120.736 -5.04247C117.497 -11.8883 112.046 -18.2761 104.575 -22.9525C96.1422 -28.2315 86.3305 -30.7386 75.4606 -31.4858C68.6309 -31.9438 61.7371 -31.7509 54.8753 -31.8956C49.1679 -32.0161 43.0757 -32.3777 37.8171 -30.3769C27.5244 -26.4719 28.3581 -17.6013 31.2118 -10.4661Z" fill="#7A736E"/>
<path d="M886.909 -29.399C886.634 -29.1684 886.419 -28.9147 886.235 -28.6841C879.862 -22.2734 878.391 -14.1331 877.901 -6.29264C877.503 -0.135584 876.338 6.71326 879.249 12.6397C883.57 21.4256 894.692 24.8386 906.366 25.2767C911.85 25.4842 917.335 25.0922 922.758 24.5618C925.516 24.2851 928.273 23.9853 931.031 23.6625C933.237 23.4088 935.045 23.2013 936.362 23.086C940.315 22.7862 944.206 22.5787 946.933 20.1113C949.997 17.344 949.629 13.493 948.557 10.2184C946.228 2.97755 942.153 -4.10194 937.098 -10.4896C931.368 -17.7305 924.045 -24.3488 915.527 -29.814C911.36 -32.489 906.795 -34.8411 901.065 -34.6566C895.948 -34.4952 891.199 -32.6504 887.645 -29.9293C887.4 -29.7679 887.154 -29.5834 886.909 -29.3759L886.909 -29.399Z" fill="#7A736E"/>
<path d="M599.924 -8.38479C599.666 -16.4913 599.279 -24.9845 596.786 -32.9782C596.442 -34.1063 596.055 -35.2183 595.604 -36.3142C592.402 -44.3401 586.19 -51.1734 579.184 -57.5877C571.296 -64.8077 562.807 -71.7054 554.662 -78.7804C539.058 -92.3664 519.909 -104.002 499.405 -113.172C483.265 -120.393 465.19 -126.21 446.126 -126.646C437.637 -126.839 428.589 -125.743 421.69 -121.762C413.587 -117.089 407.892 -109.385 405.485 -102.036C402.906 -94.1715 403.809 -85.8555 407.247 -78.2164C411.18 -69.4653 417.821 -61.5845 424.076 -53.6714C429.363 -46.9832 433.962 -40.0854 438.088 -32.9782C439.056 -31.3182 440.023 -29.6421 440.925 -27.9499C445.697 -19.1021 450.017 -10.1254 455.024 -1.35816C457.453 2.89652 460.053 7.07065 462.933 11.1642C468.5 18.9644 475.184 26.3456 483.394 32.7276C491.711 39.1902 501.447 44.8148 511.462 49.7141C521.671 54.7263 532.589 58.981 544.044 62.1559C554.232 64.9762 566.418 68.0222 577.336 66.0238C587.802 64.122 593.175 57.1115 595.174 49.6658C596.249 45.6206 596.614 41.4949 597.087 37.4013C597.667 32.4053 598.205 27.4093 598.677 22.4133C599.645 12.1634 600.246 1.86509 599.902 -8.41706L599.924 -8.38479Z" fill="#8B8580"/>
<path d="M1242.77 -4.66975C1242.54 -4.32095 1242.39 -3.9431 1242.27 -3.5943C1237.43 5.82331 1236.93 19.7463 1244.1 28.4082C1249.03 34.3378 1257 36.1109 1265.85 35.9946C1276.76 35.8493 1287.71 35.4714 1298.63 35.1808C1306.29 35.0064 1315.22 35.6167 1322.85 33.8727C1324.07 33.5821 1325.3 33.2624 1326.48 32.8264C1335.33 29.5709 1336.7 22.1298 1332.05 15.9967C1329.61 12.7703 1326.33 9.68924 1322.89 6.81164C1320.6 4.89324 1318.28 3.03299 1315.99 1.28898C1309.81 -3.41982 1302.9 -7.80889 1295.15 -10.9772C1278.71 -17.6916 1252.73 -19.5228 1242.81 -4.66975L1242.77 -4.66975Z" fill="#BCB6B1"/>
<path d="M309.857 49.3853C327.464 52.8597 346.288 52.9466 363.827 49.1941C384.785 44.7121 403.311 34.4276 414.674 20.2865C420.642 12.8511 424.843 4.1996 423.856 -4.60822C422.915 -13.0338 417.933 -20.6777 412.286 -27.8177C404.183 -38.0501 395.299 -47.9697 385.864 -57.5593C379.597 -63.9176 373.101 -70.1543 366.398 -76.2173C357.835 -83.9827 348.859 -91.4876 339.539 -98.7319C330.104 -106.063 320.119 -112.908 310.202 -119.857C302.029 -125.572 295.189 -132.504 285.685 -137.073C281.254 -139.21 276.089 -140.617 270.787 -139.731C265.277 -138.793 261.903 -135.388 260.571 -131.409C259.033 -126.754 258.804 -121.75 258.046 -116.99C257.197 -111.622 256.347 -106.254 255.521 -100.886C254.763 -96.0218 254.144 -91.1923 252.583 -86.4496C251.136 -82.037 249.3 -77.694 248.267 -73.2119C247.785 -71.1272 247.854 -68.9209 247.119 -66.9057C246.224 -64.3867 245.122 -61.8851 244.135 -59.3661C243.905 -58.7754 243.676 -58.1673 243.446 -57.5593C236.904 -40.4996 231.555 -22.5366 236.766 -4.86886C244.755 22.1626 275.102 42.5405 309.834 49.3853L309.857 49.3853Z" fill="#BCB6B1"/>
<path d="M962.824 -20.22C973.571 16.0096 1014.4 43.3217 1061.12 52.4955C1084.8 57.1523 1110.13 57.2687 1133.72 52.2394C1161.91 46.2322 1186.83 32.4482 1202.12 13.4951C1210.15 3.52961 1215.8 -8.06579 1214.47 -19.8707C1213.21 -31.1634 1206.51 -41.4082 1198.91 -50.9779C1186.65 -66.4151 1173.06 -81.3168 1158.55 -95.6596C1151.63 -102.505 1144.5 -109.257 1137.18 -115.847C1125.66 -126.255 1113.59 -136.313 1101.05 -146.023C1088.36 -155.848 1074.92 -165.022 1061.58 -174.336C1050.59 -181.996 1041.39 -191.286 1028.6 -197.41C1022.64 -200.274 1015.69 -202.16 1008.56 -200.972C1001.15 -199.715 996.608 -195.152 994.817 -189.82C992.748 -183.579 992.439 -176.874 991.42 -170.494C990.277 -163.299 989.135 -156.105 988.023 -148.91C987.004 -142.39 986.17 -135.917 984.07 -129.561C982.125 -123.647 979.654 -117.826 978.265 -111.819C977.616 -109.025 977.709 -106.068 976.721 -103.367C975.794 -100.782 974.713 -98.2209 973.694 -95.6597C973.385 -94.868 973.046 -94.0764 972.737 -93.2615C963.534 -69.6982 955.567 -44.7379 962.824 -20.22Z" fill="#BCB6B1"/>
<path d="M153.501 -40.7807C153.076 -40.7068 152.717 -40.6082 152.39 -40.4851C134.938 -36.0749 128.533 -21.9329 131.278 -9.04735C133.762 2.63095 143.239 13.3238 156.05 20.0252C162.456 23.376 169.875 25.5687 177.62 26.3325C185.039 27.047 194.778 26.8992 200.726 23.0064C208.634 17.8078 204.484 9.57883 202.033 3.14838C199.157 -4.36614 195.66 -11.7328 191.64 -18.9517C188.437 -24.6923 185.202 -30.7532 179.319 -35.2619C172.849 -40.2633 163.73 -42.2343 154.743 -40.9532C154.351 -40.9532 153.959 -40.9039 153.534 -40.8054L153.501 -40.7807Z" fill="#BCB6B1"/>
</g>
</svg>
