<svg width="16" height="17" viewBox="0 0 16 17" fill="none" xmlns="http://www.w3.org/2000/svg">
	<g clip-path="url(#a)" fill-rule="evenodd" clip-rule="evenodd" fill="#161513">
		<path d="M11.6673 15.3835c2.3933 0 4.3334-1.9401 4.3334-4.3334 0-2.3932-1.9401-4.3333-4.3334-4.3333-2.39322 0-4.33332 1.9401-4.33332 4.3333 0 2.3933 1.9401 4.3334 4.33332 4.3334Zm-.7477-3.015v.1124h1.2535v-.1124c.0022-.2161.0298-.398.0827-.5458.0551-.1477.1378-.2778.2481-.3902.1124-.1125.2557-.2205.4299-.3242.2073-.1235.387-.2613.5392-.4134.1521-.1544.2701-.3308.3539-.5292.086-.20067.129-.42999.129-.68798 0-.38587-.096-.71552-.2878-.98894s-.4564-.48179-.7938-.62512c-.3374-.14553-.7254-.21829-1.1642-.21829-.3991 0-.7641.07166-1.0948.21499-.3308.14112-.5965.3561-.79713.64496-.20065.28665-.30649.65047-.31752 1.09147h1.34945c.0066-.18081.0507-.33185.1323-.45312.0816-.12349.1863-.21609.3142-.27783.1279-.06395.2635-.09592.4068-.09592.1478 0 .2823.03087.4036.09261.1234.06174.2216.14994.2943.2646.0728.11466.1092.24806.1092.4002 0 .14333-.032.27342-.0959.39029-.064.11468-.15.21938-.258.31418-.1081.0948-.2305.1864-.3672.2746-.183.1146-.3395.2425-.4696.3836s-.2293.3264-.2977.5557c-.0661.2293-.1003.5369-.1025.9228Zm.0893 1.9977c.1565.1544.3451.2315.5656.2315.1411 0 .2712-.0353.3902-.1058.1191-.0728.215-.1687.2878-.2878.075-.1212.1135-.2546.1158-.4002-.0023-.2161-.0827-.4013-.2415-.5556-.1588-.1544-.3429-.2316-.5523-.2316-.2205 0-.4091.0772-.5656.2316-.1544.1543-.2305.3395-.2282.5556-.0023.2183.0738.4057.2282.5623Z" />
		<path d="M5.82218.943775c-.21821-.138612-.49689-.138572-.71506.000101L.970952 3.57284c-.190698.12259-.304936.33628-.304936.56442v4.26667c0 .22814.114238.44183.304936.56442L5.1191 11.635c.21206.1363.48177.1363.69383 0l.20431-.1313c-.01185-.1496-.01789-.3009-.01789-.4536 0-.4083.04318-.8065.12523-1.19031l-.00671.00432V7.17232l2.84444-1.82857v.72508c.407-.22137.84414-.39432 1.30369-.5111V4.13726c0-.22814-.1142-.44183-.30492-.56442L5.82218.943775ZM2.5525 4.14352l2.91212-1.84778 2.91352 1.84867-2.91212 1.87208L2.5525 4.14352Zm-.58278 3.89202V5.34375l2.84444 1.82857v2.69179L1.96972 8.03554Z" />
	</g>
	<defs>
		<clipPath id="a">
			<path fill="#fff" transform="translate(0 .050293)" d="M0 0h16v16H0z" />
		</clipPath>
	</defs>
</svg>