<svg width="16" height="17" viewBox="0 0 16 17" fill="none" xmlns="http://www.w3.org/2000/svg">
	<g clip-path="url(#a)" fill="#161513">
		<path d="m10.4936 5.12674-2.47141 2.4714-2.47141-2.4714.94281-.94281.86193.86193V.584116h1.33333V5.04586l.86193-.86193.94282.94281Z" />
		<path fill-rule="evenodd" clip-rule="evenodd" d="m10.1111 7.39572.8114.52162-2.92328 1.87922-2.92324-1.87922.8404-.54026-.95863-.95862-1.45359.93445c-.1907.12259-.30494.33629-.30494.56443V12.184c0 .2281.11424.4418.30494.5644l4.14814 2.6667c.21206.1363.48177.1363.69383 0l4.14817-2.6667c.1907-.1226.3049-.3363.3049-.5644V7.91734c0-.22814-.1142-.44184-.3049-.56443l-1.4246-.91581-.9586.95862Zm-5.60818 1.7281v2.69178l2.84445 1.8286v-2.6918L4.50292 9.12382Zm4.14815 1.82858v2.6918l2.84443-1.8286V9.12382L8.65107 10.9524Z" />
	</g>
	<defs>
		<clipPath id="a">
			<path fill="#fff" transform="translate(0 .250488)" d="M0 0h16v16H0z" />
		</clipPath>
	</defs>
</svg>