<svg width="16" height="17" viewBox="0 0 16 17" fill="none" xmlns="http://www.w3.org/2000/svg">
	<g clip-path="url(#a)">
		<path fill-rule="evenodd" clip-rule="evenodd" d="M8.85586 6.22994 7.16223 4.53843l-.94303.94072 2.63667 2.63639 4.96973-4.96975-.9428-.9428-4.02694 4.02695ZM12.8828.317383 8.85586 4.34434 7.16223 2.65075l-2.82844 2.8284 4.52209 4.52195 6.85542-6.85532L12.8828.317383ZM5.78584 11.3522v2.6918l4.14814-2.6273v1.1671c0 .2282-.11423.4419-.30493.5645L5.4809 15.8149c-.21206.1364-.48177.1364-.69383 0L.638921 13.1483c-.190698-.1226-.304937-.3363-.304937-.5645V8.31717c0-.22814.114239-.44183.304937-.56442L3.07777 6.18492 3.9481 7.2003 2.21074 8.31717l2.92324 1.87923.89116-.57288.87032 1.01538-1.10962.7133Zm-4.14815.8632V9.52366l2.84444 1.82854v2.6918l-2.84444-1.8286Z" fill="#161513" />
	</g>
	<defs>
		<clipPath id="a">
			<path fill="#fff" transform="translate(0 .150391)" d="M0 0h16v16H0z" />
		</clipPath>
	</defs>
</svg>