<svg width="16" height="17" viewBox="0 0 16 17" fill="none" xmlns="http://www.w3.org/2000/svg">
	<path fill-rule="evenodd" clip-rule="evenodd" d="M2.41395 14.5743c.61878.2367 1.37718.4042 2.20785.486.37903.0373.77363.0568 1.17755.0568.40542 0 .79991-.0196 1.17755-.0568.83066-.0818 1.58907-.2493 2.20785-.486.44751-.1712.85745-.3919 1.16775-.6726.2229-.2015.4253-.4642.5215-.7849.2993-.0023.5908-.0183.8708-.0467.6667-.0675 1.2761-.206 1.7741-.402.36-.1418.6913-.3252.9428-.5593.2509-.2336.4714-.5675.4714-.9917V5.51709c0-.42421-.2205-.75815-.4714-.99172-.2515-.23411-.5828-.41748-.9428-.55925-.7242-.28513-1.6857-.44903-2.7191-.44903-.85979 0-1.66896.11344-2.33295.31524-.77807-.20244-1.69638-.31524-2.6675-.31524-1.12775 0-2.18483.15212-3.03385.42047-.12146.03839-.23879.07919-.35155.12233-.44751.17117-.85742.39192-1.16777.67258-.309443.27984-.580164.67862-.580164 1.18462v6.80001c0 .506.270721.9048.580164 1.1846.31035.2807.72026.5014 1.16777.6726Zm-.25179-8.79602c.13945-.12611.3804-.27168.73719-.40815.70856-.27102 1.7337-.45304 2.9-.45304s2.19144.18202 2.89999.45304c.35679.13647.59775.28204.7372.40815.0798.07217.10698.11883.11566.13881-.00868.01998-.03586.06664-.11566.13881-.13945.12611-.38041.27168-.7372.40815-.70855.27102-1.73369.45304-2.89999.45304-1.01995 0-1.93279-.13922-2.62041-.35596-.09803-.0309-.19134-.06332-.27959-.09708-.35679-.13647-.59774-.28204-.73719-.40815-.0798-.07217-.10698-.11883-.11566-.13881.00868-.01998.03586-.06664.11566-.13881Zm7.27438 2.54429c.09134-.08261.11374-.13179.11836-.1458v-.56026c-.11923.05664-.24306.10917-.37015.15778-.90002.34426-2.09711.5428-3.3854.5428-1.28829 0-2.48538-.19854-3.3854-.5428-.12709-.04861-.25093-.10114-.37016-.15778v.56026c.00463.01401.02703.0632.11837.1458.13945.1261.3804.27168.7372.40815.08824.03375.18155.06618.27958.09708.68762.21674 1.60046.35596 2.62041.35596 1.1663 0 2.19144-.18202 2.89999-.45304.35679-.13648.59775-.28205.7372-.40815Zm0 2.26663c.09133-.0826.11373-.1318.11836-.1458v-.56023c-.11923.05665-.24306.10918-.37015.15783-.90002.3442-2.09711.5428-3.3854.5428-1.28829 0-2.48538-.1986-3.3854-.5428-.12709-.04865-.25093-.10118-.37016-.15783v.56023c.00463.014.02703.0632.11837.1458.13945.1261.3804.2717.73719.4082.4868.1862 1.12402.3307 1.85532.4027.19905.0196.40437.0338.61474.042.14095.0055.28438.0083.42994.0083.16343 0 .32447-.0036.48259-.0105.19201-.0084.37969-.0218.56208-.0398.73131-.072 1.36853-.2165 1.85532-.4027.35679-.1365.59775-.2821.7372-.4082Zm-3.18601 2.253c.24773-.009.49033-.0254.72637-.0486.83066-.0818 1.58907-.2493 2.20785-.486.12709-.0486.25092-.1011.37015-.1578v.5603c-.00463.014-.02703.0632-.11836.1458-.13945.1261-.38041.2717-.7372.4082-.48679.1862-1.12401.3307-1.85532.4027-.1824.018-.37007.0313-.56208.0398-.15812.0069-.31916.0105-.48259.0105-.14556 0-.28899-.0028-.42993-.0083-.21038-.0082-.41571-.0224-.61475-.042-.7313-.072-1.36852-.2165-1.85531-.4027-.3568-.1365-.59775-.2821-.7372-.4082-.09134-.0826-.11374-.1318-.11837-.1458v-.5603c.11923.0567.24307.1092.37016.1578.61878.2367 1.37719.4042 2.20785.486.21018.0207.42556.0359.64513.0454.17526.0076.35291.0114.53242.0114.15204 0 .30254-.0027.45118-.0082Zm4.10197-8.10973-.0038-.00348c.1469-.00782.2975-.0119.4511-.0119.9303 0 1.7466.1495 2.3093.37107.2834.11159.4728.22989.5812.33077.0516.04808.0738.08097.0829.09816-.0091.01719-.0313.05009-.0829.09816-.1084.10088-.2978.21918-.5812.33077-.5357.21092-1.3016.35653-2.1764.37004v-.39897c0-.506-.2707-.90478-.5802-1.18462Zm3.1664 2.33559c.0883-.0348.1748-.07204.2587-.11184v.41821c-.0049.01226-.0239.04841-.0873.10749-.1084.10088-.2978.21918-.5812.33077-.5357.21091-1.3016.35653-2.1764.37004v-.66655c.9826-.01346 1.8933-.17529 2.5862-.44812Zm-2.2924 2.97174c-.0964.0048-.1945.0081-.2938.0096v-.66656c.9826-.01345 1.8933-.17528 2.5862-.44812.0883-.03479.1748-.07203.2587-.11183v.4182c-.0049.01227-.0239.04842-.0873.1075-.1084.10087-.2978.21918-.5812.33077-.3865.15216-.8936.27071-1.4765.32984-.1321.0133-.2677.0236-.4061.0306Zm2.2924.7616c.0883-.0348.1748-.072.2587-.1118v.4182c-.0049.0122-.0239.0484-.0873.1075-.1084.1008-.2978.2191-.5812.3307-.3865.1522-.8935.2707-1.4765.3298-.1054.0107-.2131.0194-.323.0261-.123.0074-.2489.0122-.3769.0142v-.6666c.2786-.0038.5506-.0195.8121-.046.6667-.0676 1.2761-.206 1.7741-.4021Z" fill="#161513" />
</svg>