<svg width="16" height="16" viewBox="0 0 16 16" fill="none" xmlns="http://www.w3.org/2000/svg">
	<path fill-rule="evenodd" clip-rule="evenodd" d="M2.4146 13.7238c.61878.2367 1.37719.4042 2.20785.486.37903.0373.77363.0568 1.17755.0568.40542 0 .79991-.0196 1.17755-.0568.83066-.0818 1.58907-.2493 2.20785-.486.44751-.1711.8574-.3919 1.1678-.6726.2228-.2015.4253-.4641.5214-.7849.2993-.0022.5909-.0182.8709-.0466.6666-.0676 1.2761-.206 1.774-.4021.3601-.1418.6913-.3251.9428-.5593.2509-.2335.4715-.5675.4715-.9917V4.66663c0-.42421-.2206-.75815-.4715-.99173-.2515-.2341-.5827-.41747-.9428-.55924-.7241-.28513-1.6856-.44903-2.719-.44903-.85984 0-1.669.11343-2.333.31524-.77807-.20245-1.69638-.31524-2.6675-.31524-1.12774 0-2.18482.15212-3.03385.42047-.12146.03839-.23878.07919-.35155.12232-.44751.17118-.85742.39193-1.16777.67258-.309441.27984-.580162.67863-.580162 1.18463v6.79997c0 .506.270721.9048.580162 1.1846.31035.2807.72026.5015 1.16777.6726Zm-.25179-8.79598c.13945-.12611.38041-.27168.7372-.40815.70855-.27103 1.73369-.45304 2.89999-.45304s2.19144.18201 2.9.45304c.35679.13647.59774.28204.73719.40815.0798.07216.10698.11883.11566.13881-.00868.01998-.03586.06664-.11566.13881-.13945.1261-.3804.27167-.73719.40815-.70856.27102-1.7337.45304-2.9.45304-1.01995 0-1.93279-.13922-2.62041-.35596-.09803-.0309-.19133-.06333-.27958-.09708-.35679-.13648-.59775-.28205-.7372-.40815-.0798-.07217-.10698-.11883-.11566-.13881.00868-.01998.03586-.06665.11566-.13881ZM9.43719 7.4721c.09134-.0826.11374-.13178.11837-.1458v-.56026c-.11923.05665-.24306.10918-.37016.15779-.90002.34426-2.09711.5428-3.3854.5428-1.28829 0-2.48538-.19854-3.3854-.5428-.12709-.04862-.25092-.10114-.37015-.15779v.56026c.00463.01402.02703.0632.11836.1458.13945.12611.38041.27168.7372.40815.08825.03376.18155.06619.27958.09709.68762.21673 1.60046.35595 2.62041.35595 1.1663 0 2.19144-.18202 2.9-.45304.35679-.13647.59774-.28204.73719-.40815Zm0 2.26667c.09134-.0826.11374-.13178.11837-.1458v-.56026c-.11923.05665-.24306.10917-.37016.15778-.90002.34426-2.09711.5428-3.3854.5428-1.28829 0-2.48538-.19854-3.3854-.5428-.12709-.04861-.25092-.10113-.37015-.15778v.56026c.00463.01401.02703.0632.11836.1458.13945.12611.38041.27163.7372.40813.48679.1862 1.12401.3308 1.85532.4028.19904.0196.40436.0337.61474.0419.14094.0055.28437.0084.42993.0084.16343 0 .32447-.0036.48259-.0106.19201-.0084.37969-.0218.56209-.0397.7313-.072 1.36852-.2166 1.85532-.4028.35679-.1365.59774-.28202.73719-.40813ZM6.25118 11.9918c.24773-.009.49034-.0254.72637-.0487.83066-.0817 1.58907-.2493 2.20785-.4859.12709-.0487.25093-.1012.37016-.1578v.5602c-.00463.0141-.02704.0632-.11837.1458-.13945.1261-.3804.2717-.73719.4082-.4868.1862-1.12402.3307-1.85532.4027-.18241.018-.37008.0314-.56209.0398-.15812.0069-.31916.0105-.48259.0105-.14556 0-.28899-.0028-.42993-.0083-.21038-.0082-.4157-.0224-.61474-.042-.73131-.072-1.36853-.2165-1.85532-.4027-.35679-.1365-.59775-.2821-.7372-.4082-.09133-.0826-.11373-.1317-.11836-.1458v-.5602c.11923.0566.24306.1091.37015.1578.61878.2366 1.37719.4042 2.20785.4859.21018.0207.42557.036.64514.0455.17525.0075.35291.0114.53241.0114.15204 0 .30254-.0028.45118-.0082ZM10.3532 3.882l-.0039-.00348c.147-.00782.2976-.01189.4512-.01189.9302 0 1.7465.1495 2.3092.37106.2834.11159.4729.2299.5812.33077.0517.04808.0738.08097.0829.09817-.0091.01719-.0312.05008-.0829.09816-.1083.10087-.2978.21918-.5812.33077-.5356.21091-1.3015.35653-2.1764.37004v-.39897c0-.506-.2707-.90479-.5801-1.18463Zm3.1663 2.33559c.0884-.03479.1749-.07203.2587-.11183v.4182c-.0048.01227-.0238.04842-.0873.1075-.1083.10087-.2978.21918-.5812.33077-.5356.21091-1.3015.35652-2.1764.37004v-.66656c.9827-.01345 1.8933-.17528 2.5862-.44812Zm-2.2924 2.97174c-.0963.00484-.1944.00807-.2938.0096v-.66655c.9827-.01345 1.8933-.17529 2.5862-.44812.0884-.0348.1749-.07204.2587-.11184v.41821c-.0048.01227-.0238.04841-.0873.10749-.1083.10088-.2978.21918-.5812.33077-.3864.15217-.8935.27072-1.4765.32981-.1321.01338-.2676.02367-.4061.03063Zm2.2924.76159c.0884-.03479.1749-.07203.2587-.11183v.41821c-.0048.0123-.0238.0484-.0873.1075-.1083.1009-.2978.2192-.5812.3308-.3864.1521-.8935.2707-1.4765.3298-.1053.0106-.2131.0194-.323.026-.123.0074-.2488.0122-.3769.0142v-.6666c.2787-.0038.5506-.0195.8122-.046.6666-.0675 1.2761-.206 1.774-.40208Z" fill="#161513" fill-opacity=".4" />
</svg>