<svg width="16" height="17" viewBox="0 0 16 17" fill="none" xmlns="http://www.w3.org/2000/svg">
	<g clip-path="url(#a)" fill-rule="evenodd" clip-rule="evenodd" fill="#161513">
		<path d="M10.9993 16.2834c2.3933 0 4.3334-1.9401 4.3334-4.3334 0-2.3932-1.9401-4.3333-4.3334-4.3333-2.39318 0-4.33328 1.9401-4.33328 4.3333 0 2.3933 1.9401 4.3334 4.33328 4.3334Zm-.7477-3.015v.1124h1.2535v-.1124c.0022-.2161.0298-.398.0827-.5458.0552-.1477.1378-.2778.2481-.3902.1124-.1125.2558-.2205.43-.3242.2072-.1235.3869-.2613.5391-.4134.1521-.1544.2701-.3308.3539-.5292.086-.2007.129-.43.129-.688 0-.38585-.0959-.7155-.2878-.98892-.1918-.27342-.4564-.48179-.7938-.62511-.3373-.14553-.7254-.2183-1.1642-.2183-.3991 0-.764.07166-1.09479.21499-.33075.14112-.59645.35611-.79711.64496-.20065.28665-.30649.65048-.31752 1.09148h1.34942c.0067-.1808.0508-.3319.1323-.4531.0816-.12351.1864-.21612.3143-.27786.1278-.06395.2635-.09592.4068-.09592.1477 0 .2822.03087.4035.09261.1235.06174.2216.14994.2944.26457.0727.1147.1091.2481.1091.4002 0 .1434-.032.2735-.0959.3903-.064.1147-.15.2194-.258.3142-.108.0948-.2304.1864-.3671.2746-.183.1146-.3396.2425-.4697.3836s-.2293.3264-.2977.5557c-.0661.2293-.1003.5369-.1025.9228Zm.0893 1.9977c.1566.1544.3451.2315.5656.2315.1411 0 .2712-.0352.3903-.1058.119-.0728.215-.1687.2877-.2878.075-.1212.1136-.2546.1158-.4002-.0022-.2161-.0827-.4013-.2415-.5556-.1587-.1544-.3428-.2316-.5523-.2316-.2205 0-.409.0772-.5656.2316-.1543.1543-.2304.3395-.2282.5556-.0022.2183.0739.4058.2282.5623Z" />
		<path d="M3.95579 13.8269c-.83067-.0818-1.58908-.2493-2.20786-.486-.44751-.1712-.857419-.3919-1.167765-.6726C.270721 12.3885 0 11.9897 0 11.4837V4.68369c0-.506.270721-.90478.580165-1.18462.310346-.28066.720255-.50141 1.167765-.67258.11277-.04313.23009-.08394.35155-.12233.84903-.26834 1.90611-.42047 3.03385-.42047.97112 0 1.88943.1128 2.6675.31524.664-.2018 1.47316-.31524 2.33297-.31524 1.0334 0 1.9949.1639 2.7191.44904.36.14176.6913.32514.9427.55924.2509.23357.4715.56751.4715.99172v3.03609c-.5017-.35462-1.0635-.62976-1.6673-.8071.1982-.09096.3375-.18318.4244-.26416.0635-.05908.0825-.09523.0874-.10749v-.41821c-.0839.0398-.1704.07704-.2587.11184-.693.27283-1.6036.43466-2.5862.44812v.04793c-.48079.06212-.94265.18449-1.37781.35929v-.30689c-.11923.05664-.24306.10917-.37016.15778-.90002.34426-2.0971.5428-3.3854.5428-1.28829 0-2.48537-.19854-3.3854-.5428-.12709-.04861-.25092-.10114-.37015-.15778v.56026c.00463.01401.02703.0632.11837.1458.13944.1261.3804.27168.73719.40815.08825.03375.18155.06618.27959.09708.68761.21674 1.60045.35596 2.6204.35596.77002 0 1.4785-.07934 2.07497-.21125-.49772.44842-.91554.98382-1.22951 1.58225-.27577.01914-.55835.029-.84546.029-1.28829 0-2.48537-.19854-3.3854-.5428-.12709-.04861-.25092-.10114-.37015-.15778v.56026c.00463.01401.02703.0632.11837.1458.13944.1261.3804.27167.73719.40815.4868.1862 1.12402.33071 1.85532.40271.19904.0196.40436.0338.61474.042.14095.0055.28437.0083.42993.0083.16022 0 .31814-.0034.47327-.0101-.14461.4477-.23503.9197-.26352 1.4084-.06957.0011-.13949.0017-.20975.0017-.1795 0-.35716-.0038-.53241-.0114-.21957-.0094-.43496-.0247-.64513-.0454-.83067-.0818-1.58908-.2493-2.20786-.486-.12709-.0486-.25092-.1011-.37015-.1578v.5603c.00463.014.02703.0632.11837.1458.13944.1261.3804.2717.73719.4082.4868.1862 1.12402.3307 1.85532.4027.19904.0196.40436.0338.61474.042.14095.0055.28437.0083.42993.0083.07538 0 .15025-.0008.22456-.0023.04497.4838.15076.95.30966 1.3908-.17556.0076-.35381.0115-.53422.0115-.40392 0-.79852-.0195-1.17754-.0568ZM2.23334 4.13673c-.35679.13647-.59775.28205-.73719.40815-.07981.07217-.10699.11883-.11566.13881.00867.01998.03585.06664.11566.13881.13944.12611.3804.27168.73719.40815.08825.03376.18155.06618.27959.09709.68761.21673 1.60045.35595 2.6204.35595 1.16631 0 2.19144-.18202 2.9-.45304.35679-.13647.59774-.28204.73719-.40815.0798-.07217.10698-.11883.11566-.13881-.00868-.01998-.03586-.06664-.11566-.13881-.13945-.1261-.3804-.27168-.73719-.40815-.70856-.27102-1.73369-.45304-2.9-.45304-1.1663 0-2.19144.18202-2.89999.45304Zm7.44931-.64114.00385.00348c.30944.27984.5802.67862.5802 1.18462v.39897c.8748-.01351 1.6407-.15912 2.1764-.37003.2834-.1116.4728-.2299.5811-.33077.0517-.04808.0739-.08097.083-.09817-.0091-.01719-.0313-.05008-.083-.09816-.1083-.10088-.2977-.21918-.5811-.33077-.5628-.22157-1.3791-.37107-2.3093-.37107-.1536 0-.3042.00408-.45115.0119Z" />
	</g>
	<defs>
		<clipPath id="a">
			<path fill="#fff" transform="translate(0 .950195)" d="M0 0h16v16H0z" />
		</clipPath>
	</defs>
</svg>