<svg xmlns="http://www.w3.org/2000/svg" viewBox="0 0 20 20">
    <path fill="#161513"
          d="M5.832 3.332V1.668H7.5v1.664h5V1.668h1.664v1.664h4.168v15H1.664v-15Zm0 1.668h-2.5v11.668h13.332V5h-2.5v1.668H12.5V5h-5v1.668H5.832Zm0 5H4.164V8.332h1.668Zm2.5-1.668V10H6.664V8.332Zm2.5 1.668H9.164V8.332h1.668Zm2.5-1.668V10h-1.668V8.332Zm2.5 1.668h-1.668V8.332h1.668Zm-10 2.5H4.164v-1.668h1.668Zm2.5-1.668V12.5H6.664v-1.668Zm2.5 1.668H9.164v-1.668h1.668Zm2.5-1.668V12.5h-1.668v-1.668Zm2.5 1.668h-1.668v-1.668h1.668Zm-10 2.5H4.164v-1.668h1.668Zm2.5-1.668V15H6.664v-1.668Zm2.5 1.668H9.164v-1.668h1.668Zm2.5-1.668V15h-1.668v-1.668Zm2.5 1.668h-1.668v-1.668h1.668Zm0 0"/>
</svg>