<svg xmlns="http://www.w3.org/2000/svg" viewBox="0 0 20 20">
    <path fill="#161513"
          d="M3.332 10a6.667 6.667 0 1 1 13.332 0 6.666 6.666 0 0 1-8.656 6.363 4.898 4.898 0 0 0 .324-1.781 4.581 4.581 0 0 0-5-4.562ZM10 1.668A8.333 8.333 0 0 0 1.664 10v2.227l1.113-.395c.301-.105.63-.164.973-.164a2.914 2.914 0 0 1 2.914 2.914c0 .676-.184 1.273-.512 1.727l-.593.816.918.43c1.07.5 2.265.777 3.523.777a8.332 8.332 0 0 0 0-16.664ZM8.332 8.332a1.666 1.666 0 1 0 0-3.332 1.667 1.667 0 1 0 0 3.332Zm6.668 0a1.667 1.667 0 1 1-3.334.002A1.667 1.667 0 0 1 15 8.332ZM11.664 15a1.667 1.667 0 1 0 .002-3.334A1.667 1.667 0 0 0 11.664 15Zm0 0"/>
</svg>