<svg xmlns="http://www.w3.org/2000/svg" xmlns:xlink="http://www.w3.org/1999/xlink">
    <symbol viewBox="0 0 20 20" id="ADD" xmlns="http://www.w3.org/2000/svg">
        <path d="M9.164 9.168v-7.5h1.668v7.5h7.5v1.664h-7.5v7.5H9.164v-7.5h-7.5V9.168Zm0 0"/>
    </symbol>
    <symbol viewBox="0 0 20 20" id="CALCULATE" xmlns="http://www.w3.org/2000/svg">
        <path d="M2.5 1.668h15v16.664h-15Zm1.668 1.664v13.336h11.664V3.332ZM7.5 11.668H5.832V10H7.5Zm3.332 0H9.168V10h1.664ZM12.5 15v-5h1.668v5Zm-5 0H5.832v-1.668H7.5Zm3.332 0H9.168v-1.668h1.664Zm0 0"/>
        <path d="M5.832 5h8.336v3.332H5.832Zm0 0"/>
    </symbol>
    <symbol viewBox="0 0 20 20" id="CALENDAR" xmlns="http://www.w3.org/2000/svg">
        <path d="M5.832 3.332V1.668H7.5v1.664h5V1.668h1.664v1.664h4.168v15H1.664v-15Zm0 1.668h-2.5v11.668h13.332V5h-2.5v1.668H12.5V5h-5v1.668H5.832Zm0 5H4.164V8.332h1.668Zm2.5-1.668V10H6.664V8.332Zm2.5 1.668H9.164V8.332h1.668Zm2.5-1.668V10h-1.668V8.332Zm2.5 1.668h-1.668V8.332h1.668Zm-10 2.5H4.164v-1.668h1.668Zm2.5-1.668V12.5H6.664v-1.668Zm2.5 1.668H9.164v-1.668h1.668Zm2.5-1.668V12.5h-1.668v-1.668Zm2.5 1.668h-1.668v-1.668h1.668Zm-10 2.5H4.164v-1.668h1.668Zm2.5-1.668V15H6.664v-1.668Zm2.5 1.668H9.164v-1.668h1.668Zm2.5-1.668V15h-1.668v-1.668Zm2.5 1.668h-1.668v-1.668h1.668Zm0 0"/>
    </symbol>
    <symbol viewBox="0 0 20 20" id="CHECKMARK" xmlns="http://www.w3.org/2000/svg">
        <path d="m16.086 6.59-7.5 7.5-.586.59-4.09-4.09 1.176-1.18L8 12.32l6.91-6.91Zm0 0"/>
    </symbol>
    <symbol viewBox="0 0 20 20" id="COLORPICKER" xmlns="http://www.w3.org/2000/svg">
        <path d="M3.332 10a6.667 6.667 0 1 1 13.332 0 6.666 6.666 0 0 1-8.656 6.363 4.898 4.898 0 0 0 .324-1.781 4.581 4.581 0 0 0-5-4.562ZM10 1.668A8.333 8.333 0 0 0 1.664 10v2.227l1.113-.395c.301-.105.63-.164.973-.164a2.914 2.914 0 0 1 2.914 2.914c0 .676-.184 1.273-.512 1.727l-.593.816.918.43c1.07.5 2.265.777 3.523.777a8.332 8.332 0 0 0 0-16.664ZM8.332 8.332a1.666 1.666 0 1 0 0-3.332 1.667 1.667 0 1 0 0 3.332Zm6.668 0a1.667 1.667 0 1 1-3.334.002A1.667 1.667 0 0 1 15 8.332ZM11.664 15a1.667 1.667 0 1 0 .002-3.334A1.667 1.667 0 0 0 11.664 15Zm0 0"/>
    </symbol>
    <symbol viewBox="0 0 20 20" id="DROPDOWN" xmlns="http://www.w3.org/2000/svg">
        <path d="m5 7.5 4.977 5L15 7.5Zm0 0"/>
    </symbol>
    <symbol viewBox="0 0 20 20" id="OPEN" xmlns="http://www.w3.org/2000/svg">
        <path d="M1.664 1.668h7.5v1.664H3.332v13.336h13.332v-5.836h1.668v7.5H1.664Zm13.824 1.664h-3.824V1.668h6.668v6.664h-1.668v-3.82L8.086 13.09 6.91 11.91Zm0 0"/>
    </symbol>
    <symbol viewBox="0 0 20 20" id="PENCIL" xmlns="http://www.w3.org/2000/svg">
        <path d="m14.648 1.672 3.692 3.691L5.355 18.332h-3.69v-3.687Zm-1.753 4.11 1.332 1.331 1.753-1.75-1.332-1.332Zm.152 2.511-1.332-1.332-8.383 8.375v1.332h1.336Zm0 0"/>
    </symbol>
    <symbol viewBox="0 0 20 20" id="POPUP" xmlns="http://www.w3.org/2000/svg">
        <path d="M10 8.82 5.586 4.41 4.41 5.59 10 11.18l5.586-5.59-1.176-1.18Zm0 5L5.586 9.41 4.41 10.59 10 16.18l5.586-5.59-1.176-1.18Zm0 0"/>
    </symbol>
    <symbol viewBox="0 0 20 20" id="PREVIEW" xmlns="http://www.w3.org/2000/svg">
        <path d="M3.438 10.004C5.636 14.078 8.832 15 10 15h.035l.04.004c1.488.137 2.894-.621 4.109-1.781 1.074-1.028 1.906-2.293 2.394-3.239C14.691 5.95 11.336 5 10 5c-1.535 0-2.973.816-4.191 1.96a13.13 13.13 0 0 0-2.372 3.044Zm1.23-4.258C6.039 4.461 7.868 3.332 10 3.332c1.957 0 6.117 1.332 8.266 6.34l.144.344-.156.336c-.52 1.117-1.535 2.75-2.918 4.074-1.367 1.308-3.215 2.422-5.375 2.242-1.871-.02-5.754-1.39-8.207-6.297L1.566 10l.188-.371c.523-1.047 1.535-2.59 2.914-3.883ZM10 8.332a1.667 1.667 0 1 0-.002 3.334A1.667 1.667 0 0 0 10 8.332ZM6.664 10a3.333 3.333 0 0 1 6.668 0 3.333 3.333 0 0 1-6.668 0Zm0 0"/>
    </symbol>
    <symbol viewBox="0 0 20 20" id="REFRESH" xmlns="http://www.w3.org/2000/svg">
        <path d="M8.75 5a5.418 5.418 0 0 0-5.418 5.418 5.415 5.415 0 0 0 5.418 5.414A5.398 5.398 0 0 0 12 14.75l1 1.332a7.084 7.084 0 1 1 2.832-5.664v.902l1.078-1.078 1.176 1.18L15 14.512l-3.09-3.09 1.176-1.18 1.078 1.078v-.902A5.414 5.414 0 0 0 8.75 5Zm0 0"/>
    </symbol>
    <symbol viewBox="0 0 20 20" id="SPELLCHECK" xmlns="http://www.w3.org/2000/svg">
        <path d="M6.703 12.063a1.242 1.242 0 0 1-.3-.036l-.075-.023V10.28c.184-.215.399-.324.649-.324a.55.55 0 0 1 .488.262c.113.172.172.422.172.742 0 .734-.313 1.101-.934 1.101Zm.535-2.805c-.3 0-.558.078-.785.234l-.11.086V7.914H5.329v4.64c.184.067.402.126.66.173.258.046.5.07.727.07.406 0 .754-.074 1.043-.219.289-.148.508-.36.664-.637.156-.273.234-.597.234-.972 0-.547-.12-.969-.37-1.266-.247-.297-.595-.445-1.048-.445Zm3.59 2.789c.14 0 .29-.016.438-.05a4.24 4.24 0 0 0 .472-.142v.762l-.144.047a3.108 3.108 0 0 1-.914.133c-1.168 0-1.754-.602-1.754-1.805 0-.539.16-.96.484-1.27.324-.308.766-.464 1.328-.464.309 0 .61.05.903.148v.746l-.133-.054a1.624 1.624 0 0 0-.586-.106c-.313 0-.555.086-.723.25-.168.164-.254.414-.254.75 0 .324.075.582.227.77.148.191.367.285.656.285Zm-7.316-.07a.884.884 0 0 0 .308-.293v-.551h-.472l-.133.004a.847.847 0 0 0-.406.125.416.416 0 0 0-.188.363c0 .309.16.46.484.46a.773.773 0 0 0 .407-.108Zm-.903-2.649c.239-.047.48-.07.723-.07.465 0 .816.101 1.059.305.242.203.363.492.363.87v2.29h-.66l-.133-.477-.078.098a1.228 1.228 0 0 1-.395.304 1.394 1.394 0 0 1-.64.149c-.364 0-.653-.098-.864-.29-.21-.19-.316-.456-.316-.792 0-.352.14-.633.418-.84.281-.203.66-.305 1.133-.305H3.8v-.12l-.004-.09c-.016-.137-.063-.231-.145-.278-.097-.055-.25-.082-.46-.082a3.47 3.47 0 0 0-1.204.242v-.734l.137-.051c.145-.05.309-.094.484-.129Zm12.98 3.152 3.333-3.199-1.18-1.133L15 10.781 13.922 9.75l-1.18 1.129 1.668 1.601.59.567Zm0 0"/>
    </symbol>
    <symbol viewBox="0 0 20 20" id="TIMER" xmlns="http://www.w3.org/2000/svg">
        <path d="M3.332 1.668h13.332v3.715L11.277 10l5.387 4.617v3.715H3.332v-3.715L8.719 10 3.332 5.383ZM10 8.902l5-4.285V3.332H5v1.285Zm0 2.196-5 4.285v1.285h10v-1.285Zm0 0"/>
    </symbol>
	<symbol viewBox="0 0 20 20" id="UNROLLTABS" xmlns="http://www.w3.org/2000/svg">
		<path fill-rule="evenodd" d="M 1.667969 9.167969 L 1.667969 1.667969 L 18.332031 1.667969 L 18.332031 9.167969 Z M 3.332031 5 L 16.667969 5 L 16.667969 7.5 L 3.332031 7.5 Z M 1.667969 18.332031 L 1.667969 10.832031 L 18.332031 10.832031 L 18.332031 18.332031 Z M 3.332031 14.167969 L 16.667969 14.167969 L 16.667969 16.667969 L 3.332031 16.667969 Z M 3.332031 14.167969 "/>
	</symbol>
	<symbol viewBox="0 0 20 20" id="ROLLTABS" xmlns="http://www.w3.org/2000/svg">
		<path fill-rule="evenodd" d="M 1.667969 1.667969 L 1.667969 18.332031 L 18.332031 18.332031 L 18.332031 1.667969 Z M 16.667969 5 L 3.332031 5 L 3.332031 16.667969 L 16.667969 16.667969 Z M 6.667969 12.5 L 10 8.332031 L 13.332031 12.5 Z M 6.667969 12.5 " />
	</symbol>
	<symbol viewBox="0 0 20 20" id="COLLAPSE" xmlns="http://www.w3.org/2000/svg">
		<path d="M18.922 2.258 13.676 7.5h4.656v1.668h-7.5v-7.5H12.5V6.32l5.242-5.242ZM1.664 10.832h7.5v7.5H7.5V13.68l-5.246 5.242-1.18-1.18L6.32 12.5H1.664Zm0 0" />
	</symbol>
	<symbol viewBox="0 0 20 20" id="EXPAND" xmlns="http://www.w3.org/2000/svg">
		<path d="M1.664 6.668h6.668v5h10v1.664H1.664Zm5 5V8.332H3.332v3.336Zm2.5-5h4.168v4.164H9.164Zm1.668 1.664v.836h.832v-.836Zm3.332-1.664h4.168v4.164h-4.168Zm1.668 1.664v.836h.832v-.836Zm0 0" />
	</symbol>
	<symbol viewBox="0 0 20 20" id="LIST" xmlns="http://www.w3.org/2000/svg">
		<path d="M1.664 1.668h5v5h-5Zm1.668 1.664V5H5V3.332Zm15 1.668h-10V3.332h10ZM1.664 7.5h5v5h-5Zm1.668 1.668v1.664H5V9.168Zm15 1.664h-10V9.168h10Zm-16.668 2.5h5v5h-5ZM3.332 15v1.668H5V15Zm15 1.668h-10V15h10Zm0 0" />
	</symbol>
	<symbol viewBox="0 0 20 20" id="PRINT" xmlns="http://www.w3.org/2000/svg">
		<path d="M5 1.668h10v5h3.332V15H15v3.332H5V15H1.664V6.668H5Zm1.664 5h6.668V3.332H6.664ZM3.332 8.332v5H5V10h10v3.332h1.664v-5Zm3.332 3.336v5h6.668v-5Zm0 0"/>
	</symbol>
	<symbol viewBox="0 0 20 20" id="MAP" xmlns="http://www.w3.org/2000/svg">
		<path d="m9.332 17.992.656.832.66-.8a34.542 34.542 0 0 0 4.582-7.215 6.697 6.697 0 0 0 .45-4.34 6.74 6.74 0 0 0-2.305-3.703 5.761 5.761 0 0 0-3.387-1.102 5.758 5.758 0 0 0-3.383 1.102 6.74 6.74 0 0 0-2.304 3.703 6.697 6.697 0 0 0 .449 4.34 34.858 34.858 0 0 0 4.582 7.183ZM12.5 7.5a2.5 2.5 0 1 1-5 0 2.5 2.5 0 0 1 5 0Zm0 0" />
	</symbol>
	<symbol viewBox="0 0 20 20" id="CLOSE" xmlns="http://www.w3.org/2000/svg">
		<path d="M8.82 10 4.105 5.285l1.18-1.176L10 8.82l4.71-4.71 1.18 1.175L11.177 10l4.715 4.715-1.18 1.18L10 11.18l-4.715 4.715-1.18-1.18Zm0 0" />
	</symbol>
	<symbol viewBox="0 0 20 20" id="SEARCH" xmlns="http://www.w3.org/2000/svg">
		<path d="M8.332 3.332a5 5 0 1 0 0 10 5 5 0 0 0 0-10Zm-6.668 5a6.666 6.666 0 0 1 6.668-6.664 6.666 6.666 0 0 1 5.266 10.754l4.488 4.488-1.176 1.18-4.492-4.488a6.667 6.667 0 0 1-10.754-5.27Zm0 0" />
	</symbol>
	<symbol viewBox="0 0 20 20" id="CHEVRON_DOWN" xmlns="http://www.w3.org/2000/svg">
		<path d="M9.99857 11.3215 5.58783 6.91074 4.40932 8.08926l5.58926 5.58924 5.58922-5.58924-1.1785-1.17852-4.41073 4.41076Z" />
	</symbol>
</svg>