<!--
  - Copyright © 2025, Oracle and/or its affiliates.
  -->

<svg xmlns="http://www.w3.org/2000/svg">
	<svg viewBox="0 0 24 24" id="ADD" xmlns="http://www.w3.org/2000/svg">
		<path fill-rule="evenodd" clip-rule="evenodd" d="M21.2053 6.70712L8.99818 18.9142L2.29108 12.2071L3.70529 10.7929L8.99818 16.0858L19.7911 5.29291L21.2053 6.70712Z" />
	</svg>
	<svg viewBox="0 0 24 24" id="COPY" xmlns="http://www.w3.org/2000/svg">
		<path d="M1.99817 2H17.9982V6H15.9982V4H3.99817V16H5.99817V18H1.99817V2ZM7.99817 8H21.9982V22H7.99817V8ZM9.99817 10V20H19.9982V10H9.99817Z"/>
	</svg>
	<svg viewBox="0 0 24 24" id="INSERT" xmlns="http://www.w3.org/2000/svg">
		<path d="M10.9982 11V2H12.9982V11H21.9982V13H12.9982V22H10.9982V13H1.99823V11H10.9982Z" />
	</svg>
	<svg viewBox="0 0 24 24" id="REMOVE" xmlns="http://www.w3.org/2000/svg">
		<path fill-rule="evenodd" clip-rule="evenodd" d="M6.99823 2H16.9982V6H21.9982V8H19.9982V22H3.99823V8H1.99823V6H6.99823V2ZM8.99823 6H14.9982V4H8.99823V6ZM5.99823 8V20H17.9982V8H5.99823ZM8.99823 18V10H10.9982V18H8.99823ZM12.9982 18V10H14.9982V18H12.9982Z" />
	</svg>
	<svg viewBox="0 0 24 24" id="CLEAR" xmlns="http://www.w3.org/2000/svg">
		<path d="M10.5839 12.0001L4.927 6.34317L6.34122 4.92896L11.9981 10.5859L17.655 4.92896L19.0692 6.34317L13.4123 12.0001L19.0691 17.6569L17.6549 19.0711L11.9981 13.4143L6.34132 19.0711L4.92711 17.6569L10.5839 12.0001Z" />
	</svg>
	<svg viewBox="0 0 24 24" id="UP" xmlns="http://www.w3.org/2000/svg">
		<path d="M12 9.41421L19.2928 16.7071L20.7071 15.2929L12 6.58578L3.29285 15.2929L4.70706 16.7071L12 9.41421Z" />
	</svg>
	<svg viewBox="0 0 24 24" id="DOWN" xmlns="http://www.w3.org/2000/svg">
		<path d="M12 14.5858L4.70706 7.29289L3.29285 8.70711L12 17.4142L20.7071 8.70711L19.2928 7.29289L12 14.5858Z" />
	</svg>
	<svg viewBox="0 0 24 24" id="TOP" xmlns="http://www.w3.org/2000/svg">
		<path d="M11.9982 13.4142L17.2911 18.7071L18.7053 17.2929L11.9982 10.5858L5.29106 17.2929L6.70527 18.7071L11.9982 13.4142ZM18.9982 8L4.99817 8L4.99817 6L18.9982 6V8Z" />
	</svg>
	<svg viewBox="0 0 24 24" id="BOTTOM" xmlns="http://www.w3.org/2000/svg">
		<path d="M11.9982 10.5858L6.70528 5.29289L5.29106 6.70711L11.9982 13.4142L18.7053 6.70711L17.2911 5.29289L11.9982 10.5858ZM4.99817 16H18.9982V18H4.99817V16Z" />
	</svg>
	<svg viewBox="0 0 24 24" id="ADD_CHILD" xmlns="http://www.w3.org/2000/svg">
		<path d="M16.7053 17.7071L22.4124 12L16.7053 6.29288L15.2911 7.70709L18.584 11L3.99817 11L3.99817 7.99999L1.99817 7.99999L1.99817 13L18.584 13L15.2911 16.2929L16.7053 17.7071Z" />
	</svg>
	<svg viewBox="0 0 20 20" id="ALTERNATIVE_ITEMS" xmlns="http://www.w3.org/2000/svg">
		<path d="M5.83129 18.3333H14.1646V10.8333H18.5203L9.99796 1.24567L1.47559 10.8333H5.83129V18.3333ZM7.49796 16.6667V9.16667H5.18699L9.99796 3.75433L14.8089 9.16667H12.498V16.6667H7.49796Z" />
	</svg>
</svg>