<svg width="16" height="17" viewBox="0 0 16 17" fill="none" xmlns="http://www.w3.org/2000/svg">
	<path d="M6.66536 3.11702c-2.20913 0-4 1.79087-4 4 0 2.20914 1.79087 3.99998 4 3.99998 2.20914 0 4.00004-1.79084 4.00004-3.99998 0-2.20913-1.7909-4-4.00004-4Zm-5.33333 4c0-2.94551 2.38782-5.33333 5.33333-5.33333 2.94552 0 5.33334 2.38782 5.33334 5.33333 0 1.23248-.4181 2.36731-1.1201 3.27048l3.5915 3.5915-.9428.9428-3.59151-3.5915c-.90312.702-2.03795 1.1201-3.27043 1.1201-2.94551 0-5.33333-2.3879-5.33333-5.33338Z" fill="#161513" />
</svg>