<svg xmlns="http://www.w3.org/2000/svg" viewBox="0 0 20 20">
    <path fill="#161513"
          d="M3.438 10.004C5.636 14.078 8.832 15 10 15h.035l.04.004c1.488.137 2.894-.621 4.109-1.781 1.074-1.028 1.906-2.293 2.394-3.239C14.691 5.95 11.336 5 10 5c-1.535 0-2.973.816-4.191 1.96a13.13 13.13 0 0 0-2.372 3.044Zm1.23-4.258C6.039 4.461 7.868 3.332 10 3.332c1.957 0 6.117 1.332 8.266 6.34l.144.344-.156.336c-.52 1.117-1.535 2.75-2.918 4.074-1.367 1.308-3.215 2.422-5.375 2.242-1.871-.02-5.754-1.39-8.207-6.297L1.566 10l.188-.371c.523-1.047 1.535-2.59 2.914-3.883ZM10 8.332a1.667 1.667 0 1 0-.002 3.334A1.667 1.667 0 0 0 10 8.332ZM6.664 10a3.333 3.333 0 0 1 6.668 0 3.333 3.333 0 0 1-6.668 0Zm0 0"/>
</svg>