<svg width="16" height="17" viewBox="0 0 16 17" fill="none" xmlns="http://www.w3.org/2000/svg">
	<path d="M10.666 3.51693H5.33268V2.18359H10.666v1.33334Zm.6038 2.45343 1.5915-1.5915.9428.9428-1.5915 1.5915c.702.90313 1.1201 2.03796 1.1201 3.27044 0 2.9455-2.3878 5.3333-5.33335 5.3333-2.94552 0-5.33333-2.3878-5.33333-5.3333 0-2.94553 2.38781-5.33334 5.33333-5.33334 1.23247 0 2.36735.41805 3.27045 1.1201Zm-3.27045.21323c-2.20914 0-4 1.79086-4 4.00001 0 2.2091 1.79086 4 4 4 2.20915 0 3.99995-1.7909 3.99995-4 0-2.20915-1.7908-4.00001-3.99995-4.00001ZM5.52794 8.655l.94281-.94281 1.80474 1.80474H10.666v1.33337H7.72321L5.52794 8.655Z" fill="#161513" />
</svg>