<?xml version="1.0" encoding="utf-8"?>
<!-- Generator: Adobe Illustrator 24.1.3, SVG Export Plug-In . SVG Version: 6.00 Build 0)  -->
<svg version="1.1" id="Layer_1" xmlns="http://www.w3.org/2000/svg" xmlns:xlink="http://www.w3.org/1999/xlink" x="0px" y="0px"
	 viewBox="0 0 39.5 32.1" style="enable-background:new 0 0 39.5 32.1;" xml:space="preserve">
<style type="text/css">
	.st0{fill:none;stroke:#1B3B3F;stroke-miterlimit:10;}
</style>
<g id="Layer_2_1_">
</g>
<g id="Layer_1_1_" focusable="false">
	<path class="st0" d="M34.3,30.5h-8.5V7.2c0-1.1,1.1-2.1,2.1-2.1h4.2c1.1,0,2.1,1.1,2.1,2.1V30.5z"/>
	<path class="st0" d="M23.8,30.5h-8.5V16.8c0-1.1,1.1-2.1,2.1-2.1h4.2c1.1,0,2.1,1.1,2.1,2.1V30.5z"/>
	<path class="st0" d="M13.2,21v9.5H4.7V21c0-1.1,1.1-2.1,2.1-2.1H11C12.1,18.9,13.2,19.9,13.2,21z"/>
	<path class="st0" d="M24.6,1.2l-8.3,1.6c-0.8,0-1.1,0.8-0.5,1.6l1.6,1.8C15.5,7.8,12.3,10,6.8,11c-1.1,0-1.8,1.1-1.6,2.1
		c0,1.1,1.1,1.7,1.8,1.7h0.3c6.4-1.1,10.3-3.8,12.4-5.7l1.5,1.8c0.6,0.6,1.4,0.5,1.7-0.3l2.9-8c0.2-1.1-0.3-1.5-1.3-1.4L24.6,1.2z"
		/>
</g>
</svg>
