<svg xmlns="http://www.w3.org/2000/svg" xmlns:xlink="http://www.w3.org/1999/xlink"><symbol viewBox="0 0 24 24" id="AI_SPARKLE" xmlns="http://www.w3.org/2000/svg"><path d="M4.2 10.055v-2.11c2.648 0 3.777-.562 4.347-1.113.57-.547 1.195-1.883 1.195-4.434h2.113c0 2.551.63 3.887 1.2 4.434.57.55 1.695 1.113 4.343 1.113v2.11c-2.648 0-3.773.562-4.343 1.113-.57.547-1.2 1.883-1.2 4.434H9.742c0-2.551-.625-3.887-1.195-4.434-.57-.55-1.7-1.113-4.348-1.113m15.347-2.856h-1.293c0-.937-.16-1.488-.48-1.847-.325-.368-.938-.668-2.172-.793V3.242c1.234-.125 1.847-.43 2.171-.793.32-.36.48-.91.48-1.847h1.294c0 .933.16 1.488.48 1.847.328.364.942.668 2.172.793V4.56c-1.234.125-1.847.425-2.172.793-.32.359-.48.91-.48 1.847m0 0"/><path d="M0 2.398h6v2.403H2.398v16.8h.586l3-4.203H22.2v2.403H7.22L4.22 24H0Zm20.45 7.204h1.1c.102.796.348 1.398.7 1.793.344.382 1.05.62 1.75.62v1.169c-.7 0-1.406.238-1.75.62-.352.395-.598.997-.7 1.798h-1.1c-.102-.801-.348-1.403-.7-1.797-.344-.383-1.05-.621-1.75-.621v-1.168c.7 0 1.406-.239 1.75-.621.352-.395.598-.997.7-1.793m0 0"/></symbol><symbol viewBox="0 0 24 24" id="ICO_ACCOUNTS_PAYABLE" xmlns="http://www.w3.org/2000/svg"><path d="m18 3.586 3.707 3.707-1.414 1.414L19 7.414V11h-2V7.414l-1.293 1.293-1.414-1.414zM2 5h11v2H4v10h16v-5h2v7H2zm8 6H6V9h4zm6 4H6v-2h10z"/></symbol><symbol viewBox="0 0 24 24" id="ICO_ADAPTER" xmlns="http://www.w3.org/2000/svg"><path fill-rule="evenodd" d="M18 6v2h4v2h-4v4h4v2h-4v2h-6a6 6 0 0 1-5.197-3H2V9h4.803A6 6 0 0 1 12 6zm-2 2h-4a4 4 0 0 0-3.586 2.225l-.076.176A4 4 0 0 0 8 12l.001-.072L8 12v.072a4 4 0 0 0 .338 1.527l.072.167A4 4 0 0 0 12 16h4zm-9.917 3H4v2h2.083a6 6 0 0 1-.074-.663v-.026l-.002-.025A6 6 0 0 1 6 12l.002.089L6 12a6 6 0 0 1 .007-.286l.003-.051A6 6 0 0 1 6.083 11"/></symbol><symbol viewBox="0 0 24 24" id="ICO_ADD_COLUMN_ALT" xmlns="http://www.w3.org/2000/svg"><path d="M3 2h18v12h-2V4h-6v16h1v2H3zm8 18V4H5v16zm7-2v-2h2v2h2v2h-2v2h-2v-2h-2v-2z"/></symbol><symbol viewBox="0 0 24 24" id="ICO_ADD_CREATE_PAGE" xmlns="http://www.w3.org/2000/svg"><path d="M4 2h10.414L20 7.586V15h-2V9h-5V4H6v16h9v2H4zm11 3.414V7h1.586zM19 19v-2h2v2h2v2h-2v2h-2v-2h-2v-2z"/></symbol><symbol viewBox="0 0 24 24" id="ICO_ADD_EDIT_PAGE" xmlns="http://www.w3.org/2000/svg"><path d="M4 2h10.414L20 7.586V10h-2V9h-5V4H6v16h4v2H4zm11 3.414V7h1.586zm2.293 6.879a1 1 0 0 1 1.414 0l3 3a1 1 0 0 1 0 1.414L16.414 22H12v-4.414zM14 18.414V20h1.586l4-4L18 14.414z"/></symbol><symbol viewBox="0 0 24 24" id="ICO_ADD_LEVEL" xmlns="http://www.w3.org/2000/svg"><path d="M2 2h20v9H2zm2 2v5h16V4zm-2 9h13v2H4v5h9v2H2zm15 5v-2h2v2h2v2h-2v2h-2v-2h-2v-2z"/></symbol><symbol viewBox="0 0 24 24" id="ICO_ADD_NODE" xmlns="http://www.w3.org/2000/svg"><path d="M8 2h8v8h-3v1h5v2H7v1h3v8H2v-8h3v-3h6v-1H8zm2 2v4h4V4zM4 16v4h4v-4zm13 2v-2h2v2h2v2h-2v2h-2v-2h-2v-2z"/></symbol><symbol viewBox="0 0 24 25" id="ICO_ADD_ROW" xmlns="http://www.w3.org/2000/svg"><path d="M2 3h20v11h-2v-1H4v6h10v2H2zm2 8h16V5H4zm14 7v-2h2v2h2v2h-2v2h-2v-2h-2v-2z"/></symbol><symbol viewBox="0 0 24 24" id="ICO_ANGLE" xmlns="http://www.w3.org/2000/svg"><path d="M21 20H.8L14.2 4.3l1.5 1.3-6.1 7.1c.9.5 1.7 1.3 2.1 2.4.4.9.3 1.9-.1 2.9H21zM5.2 18h4.3c.5-.9.6-1.7.5-2.2-.2-.7-.9-1.1-1.5-1.5z"/></symbol><symbol viewBox="0 0 24 24" id="ICO_ARROW_CIRCLE_DOWN" xmlns="http://www.w3.org/2000/svg"><path fill-rule="evenodd" d="M2 12C2 6.486 6.486 2 12 2s10 4.486 10 10-4.486 10-10 10S2 17.514 2 12m2 0c0 4.412 3.59 8 8 8s8-3.588 8-8-3.59-8-8-8-8 3.588-8 8m2.293-.293 1.414-1.414L11 13.586V7h2v6.586l3.293-3.293 1.414 1.414L12 17.414z"/></symbol><symbol viewBox="0 0 24 24" id="ICO_ARROW_CIRCLE_UP" xmlns="http://www.w3.org/2000/svg"><path fill-rule="evenodd" d="M22 12c0 5.514-4.486 10-10 10S2 17.514 2 12 6.486 2 12 2s10 4.486 10 10m-2 0c0-4.412-3.59-8-8-8s-8 3.588-8 8 3.59 8 8 8 8-3.588 8-8m-2.293.293-1.414 1.414L13 10.414V17h-2v-6.586l-3.293 3.293-1.414-1.414L12 6.586z"/></symbol><symbol viewBox="0 0 24 24" id="ICO_ARROW_DOWN" xmlns="http://www.w3.org/2000/svg"><path d="m17.705 16.707-5.707 5.707-5.707-5.707 1.414-1.414 3.293 3.293V3h2v15.586l3.293-3.293z"/></symbol><symbol viewBox="0 0 24 24" id="ICO_ARROW_DOWN_RIGHT" xmlns="http://www.w3.org/2000/svg"><path d="M19.364 11.293v8.07h-8.071v-2h4.657L4.929 6.344 6.343 4.93l11.021 11.02v-4.656h2z"/></symbol><symbol viewBox="0 0 24 24" id="ICO_ARROW_LEFT" xmlns="http://www.w3.org/2000/svg"><path d="M7.294 17.707 1.587 12l5.707-5.707 1.414 1.414L5.416 11H21v2H5.416l3.292 3.293z"/></symbol><symbol viewBox="0 0 24 24" id="ICO_ARROW_RIGHT" xmlns="http://www.w3.org/2000/svg"><path d="M16.707 6.292 22.414 12l-5.707 5.708-1.414-1.415L18.586 13H3v-2h15.586l-3.293-3.292 1.414-1.415z"/></symbol><symbol viewBox="0 0 24 24" id="ICO_ARROW_UP" xmlns="http://www.w3.org/2000/svg"><path d="M6.293 7.293 12 1.586l5.707 5.707-1.414 1.414L13 5.414V21h-2V5.414L7.707 8.707z"/></symbol><symbol viewBox="0 0 24 24" id="ICO_ARROW_UP_RIGHT" xmlns="http://www.w3.org/2000/svg"><path d="M19.364 12.706V4.635h-8.071v2h4.657L4.929 17.655l1.414 1.415L17.364 8.05v4.656z"/></symbol><symbol viewBox="0 0 24 24" id="ICO_BACK_PARENT" xmlns="http://www.w3.org/2000/svg"><path d="M22 19H10V5.4l-5.3 5.3-1.4-1.4L11 1.6l7.7 7.7-1.4 1.4L12 5.4V17h10z"/></symbol><symbol viewBox="0 0 24 24" id="ICO_BANK" xmlns="http://www.w3.org/2000/svg"><path fill-rule="evenodd" d="M23.001 21v2h-22v-2zm-18-11v9h-2v-9zm12 0v9h-2v-9zm4 0v9h-2v-9zm-8 0v9h-2v-9zm-4 0v9h-2v-9zm2.553-8.894a1 1 0 0 1 .895 0l10 5C23.393 6.577 23.057 8 22 8H2C.946 8 .611 6.577 1.554 6.106zm.447 2.012L6.236 6h11.53z"/></symbol><symbol viewBox="0 0 24 24" id="ICO_BAR_CHART" xmlns="http://www.w3.org/2000/svg"><path fill-rule="evenodd" d="M22 2v20H2V2zm-2 2H4v16h2v-7h2v7h3V8h2v12h3V10h2v10h2z"/></symbol><symbol viewBox="0 0 24 24" id="ICO_BINARY" xmlns="http://www.w3.org/2000/svg"><path fill-rule="evenodd" d="M12 2c2.206 0 4 1.794 4 4a4.01 4.01 0 0 1-3 3.873V11h6v3.127c1.724.445 3 2.012 3 3.873 0 2.206-1.794 4-4 4s-4-1.794-4-4a4.01 4.01 0 0 1 3-3.874V13H7v1.127c1.724.445 3 2.012 3 3.873 0 2.206-1.794 4-4 4s-4-1.794-4-4a4.01 4.01 0 0 1 3-3.874V11h6V9.874A4.01 4.01 0 0 1 8 6c0-2.206 1.794-4 4-4M6 16c-1.103 0-2 .897-2 2s.897 2 2 2 2-.897 2-2-.897-2-2-2m12 0c-1.103 0-2 .897-2 2s.897 2 2 2 2-.897 2-2-.897-2-2-2M12 4c-1.103 0-2 .897-2 2s.897 2 2 2 2-.897 2-2-.897-2-2-2"/></symbol><symbol viewBox="0 0 24 24" id="ICO_BOOK" xmlns="http://www.w3.org/2000/svg"><path fill-rule="evenodd" d="M9 19H3a1 1 0 0 1-1-1V3a1 1 0 0 1 1-1h5a4.99 4.99 0 0 1 4 2 5 5 0 0 1 3.743-1.994L16 2h5a1 1 0 0 1 .993.883L22 3v15a1 1 0 0 1-.883.993L21 19h-6a2 2 0 0 0-1.995 1.85L13 21a1 1 0 0 1-2 0 2 2 0 0 0-2-2M8 4H4v13h5c.729 0 1.412.195 2 .535V7a3 3 0 0 0-3-3m12 0h-4a3 3 0 0 0-2.995 2.824L13 7v10.535a4 4 0 0 1 1.729-.526L15 17h5z"/></symbol><symbol viewBox="0 0 24 24" id="ICO_BUILD" xmlns="http://www.w3.org/2000/svg"><path d="m16.8 3.5-.4 1.3-7-2.5C5.1.9 2.3 6.4 2.1 6.6L1 8.9 3.4 8c.8-.3 3.7-1 4.4.3 0 0 .4.8 0 2.1L3 20l7.5 2.3 2.8-10.2q.3-.9 1.2-1.2l-.5 1.5 5.5 1.7 2.8-8.9zM9.1 19.7l-3.2-1 3.4-6.8 1.8.6zm6-10.8c-1.3 0-2.6.6-3.3 1.7L9.9 10c.2-1.6-.3-2.6-.4-2.7C8.7 5.8 7 5.5 5.3 5.6c.9-1 2.1-1.9 3.5-1.5l7 2.5zm3.1 2.7-1.7-.5L18.1 6l1.7.5z"/></symbol><symbol viewBox="0 0 24 24" id="ICO_BUILDER" xmlns="http://www.w3.org/2000/svg"><path d="M7.16 2.486 19.675 7H22v2h-3v1h1v2h-1v1.17A3.001 3.001 0 1 1 15 16h2a1 1 0 1 0 1-1h-1v-3h-1v-2h1V9h-6v11h2v2H2v-2h2V9H2.034zM6 9v11h3V9zm7.78-2L7.84 4.857 6.153 7z"/></symbol><symbol viewBox="0 0 24 24" id="ICO_CALCULATOR" xmlns="http://www.w3.org/2000/svg"><path d="M3 2h18v20H3zm2 2v16h14V4zm4 10H7v-2h2zm4 0h-2v-2h2zm2 4v-6h2v6zm-6 0H7v-2h2zm4 0h-2v-2h2z"/><path d="M7 6h10v4H7z"/></symbol><symbol viewBox="0 0 24 24" id="ICO_CALENDAR" xmlns="http://www.w3.org/2000/svg"><path fill-rule="evenodd" d="M9.001 1v2H15V1h2.001v2H23v20H1V3h6.001V1zm-6 4L3 21h18V5h-3.999v1.999H15V5H9.001v1.999h-2V5zm4 10v2H5v-2zm3 0v2H8v-2zm3 0v2h-2v-2zm3 0v2h-2v-2zm3 0v2h-2v-2zM7 12v2H5v-2zm3 0v2H8v-2zm3 0v2h-2v-2zm3 0v2h-2v-2zm3 0v2h-2v-2zM7 9v2H5V9zm3 0v2H8V9zm3 0v2h-2V9zm3 0v2h-2V9zm3 0v2h-2V9z"/></symbol><symbol viewBox="0 0 24 24" id="ICO_CALENDAR_ADD" xmlns="http://www.w3.org/2000/svg"><path fill-rule="evenodd" d="M20 16v2h2v2h-2v2h-2v-2h-2v-2h2v-2zM9 2v2h6V2h2v2h5v10h-2V6h-3v2h-2V6H9v2H7V6H4v14h9v2H2V4h5V2zM7 15v2H5v-2zm3 0v2H8v-2zm3 0v2h-2v-2zm-6-3v2H5v-2zm3 0v2H8v-2zm3 0v2h-2v-2zm3 0v2h-2v-2zm3 0v2h-2v-2zM7 9v2H5V9zm3 0v2H8V9zm3 0v2h-2V9zm3 0v2h-2V9zm3 0v2h-2V9z"/></symbol><symbol viewBox="0 0 24 24" id="ICO_CALL" xmlns="http://www.w3.org/2000/svg"><path fill-rule="evenodd" d="M9.341 15.504c.596.559 1.215 1.07 1.848 1.525l3.72-3.721 6.304.9v5.525l-.293.293c-2.193 2.193-6.264 1.684-10.224-.91a20.3 20.3 0 0 1-3.21-2.626 20.3 20.3 0 0 1-2.626-3.21C2.265 9.32 1.757 5.248 3.95 3.055l.293-.293h5.524l.9 6.303-3.72 3.72a18.5 18.5 0 0 0 1.952 2.29zm3.585 2.616c2.615 1.412 4.997 1.657 6.287.739v-2.916l-3.596-.514zm-7.07-7.07 2.69-2.692-.514-3.596H5.117c-.918 1.29-.674 3.672.738 6.287z"/></symbol><symbol viewBox="0 0 24 24" id="ICO_CAMERA" xmlns="http://www.w3.org/2000/svg"><path fill-rule="evenodd" d="m15.535 2 2 3H22v17H2V5h4.465l2-3zm-1.07 2H9.536L7.535 6.999H4v13h16V7h-3.535zM12 8c2.757 0 5 2.243 5 5s-2.243 5-5 5-5-2.243-5-5 2.243-5 5-5m0 2c-1.654 0-3 1.346-3 3s1.346 3 3 3 3-1.346 3-3-1.346-3-3-3"/></symbol><symbol viewBox="0 0 24 24" id="ICO_CANCEL" xmlns="http://www.w3.org/2000/svg"><path fill-rule="evenodd" d="M12 2c5.514 0 10 4.486 10 10s-4.486 10-10 10S2 17.514 2 12 6.486 2 12 2m0 2c-4.412 0-8 3.588-8 8s3.588 8 8 8 8-3.588 8-8-3.588-8-8-8m3.498 3L17 8.502 13.502 12 17 15.498 15.498 17 12 13.502 8.502 17 7 15.498 10.498 12 7 8.502 8.502 7 12 10.498z"/></symbol><symbol viewBox="0 0 24 24" id="ICO_CARET_DOWN" xmlns="http://www.w3.org/2000/svg"><path d="m6 9 5.975 6L18 9z"/></symbol><symbol viewBox="0 0 24 24" id="ICO_CARET_UP" xmlns="http://www.w3.org/2000/svg"><path d="M6 15s6.043-6 6-6 6 6 6 6z"/></symbol><symbol viewBox="0 0 24 24" id="ICO_CASH_IN_TRANSIT" xmlns="http://www.w3.org/2000/svg"><path d="m12 1.586 3.707 3.707-1.414 1.414L13 5.414V9h-2V5.414L9.707 6.707 8.293 5.293zM2 7h7v2H4v11h16V9h-5V7h7v15H2zm9 3.5V10h2v.5h2v2h-2v1h.5a2.5 2.5 0 0 1 0 5H13v.5h-2v-.5H9v-2h2v-1h-.5a2.5 2.5 0 0 1 0-5zm0 2h-.5a.5.5 0 0 0 0 1h.5zm2 3v1h.5a.5.5 0 1 0 0-1z"/></symbol><symbol viewBox="0 0 24 24" id="ICO_CC_CARD" xmlns="http://www.w3.org/2000/svg"><path d="M22 4H2v16h20zM4 8V6h16v2zm0 4h16v6H4z"/></symbol><symbol viewBox="0 0 24 24" id="ICO_CELL_PHONE" xmlns="http://www.w3.org/2000/svg"><path d="M5 2h14v20H5zm2 2v16h10V4zm4 12h2v2h-2z"/></symbol><symbol viewBox="0 0 24 24" id="ICO_CHART_AREA" xmlns="http://www.w3.org/2000/svg"><path d="m12.3 4.4-2.9 2L4 4.3V2H2v20h20V6.2zM20 20H4v-4.9l6.1 3 4.5-3 3.6 2.1 1.8-1.8zm0-7.4-2.2 2.2-3.4-1.9-4.5 3-5.9-3v-.6l6.1 1.3 5.6-2.5H20zM20 9h-4.7l-5.4 2.5L4 10.2V6.5l5.6 2.2 3.1-2.1L20 7.8z"/></symbol><symbol viewBox="0 0 24 24" id="ICO_CHART_AREA_STACK" xmlns="http://www.w3.org/2000/svg"><path fill-rule="evenodd" d="M16.071 1.776 22 6.52V22H2V3.234l5.99 3.593zm-.143 9.447-7.917 4.95L4 13.766V20h16v-5.52zm0-7-7.917 4.95L4 6.766v4.667l3.99 2.394 8.081-5.05L20 11.918V7.48z"/></symbol><symbol viewBox="0 0 24 24" id="ICO_CHART_AUTO" xmlns="http://www.w3.org/2000/svg"><path fill-rule="evenodd" d="m13.172 6.586 4.242 4.242-4.242 4.244-7.344 7.342-4.242-4.242 8.757-8.758zM20 16v2h2v2h-2v2h-2v-2h-2v-2h2v-2zm-9.657-3.758-5.929 5.929 1.414 1.414 5.929-5.929zm2.828-2.828-1.414 1.413 1.414 1.415 1.414-1.414zM6 2v2h2v2H6v2H4V6H2V4h2V2zm14 0v2h2v2h-2v2h-2V6h-2V4h2V2z"/></symbol><symbol viewBox="0 0 24 24" id="ICO_CHART_AXIS_X" xmlns="http://www.w3.org/2000/svg"><path fill-rule="evenodd" d="M4 15v5h16v-5h2v7H2v-7zM16.293 2l1.414 1.415-4.293 4.292 4.293 4.294-1.414 1.414L12 9.121l-4.293 4.294-1.414-1.414 4.293-4.294-4.293-4.292L7.707 2 12 6.293z"/></symbol><symbol viewBox="0 0 24 24" id="ICO_CHART_AXIS_Y" xmlns="http://www.w3.org/2000/svg"><path fill-rule="evenodd" d="M6 2v2H4v16h2v2H2V2zm11.293 3.293 1.414 1.414L14 11.414V19h-2v-7.586L7.293 6.707l1.414-1.414L13 9.586z"/></symbol><symbol viewBox="0 0 24 24" id="ICO_CHART_BAR_H" xmlns="http://www.w3.org/2000/svg"><path d="M4 20v-2h13v-2H4v-2h8v-2H4v-2h16V8H4V6h6V4H4V2H2v20h20v-2z"/></symbol><symbol xml:space="preserve" viewBox="0 0 24 24" id="ICO_CHART_BAR_STACKED_100_V" xmlns="http://www.w3.org/2000/svg"><path d="M20 20v-6h-2v6h-2v-9h-2v9h-2v-5h-2v5H8v-7H6v7H4V2H2v20h20v-2z" class="bqst0"/><path d="M6 8h2v4H6zm0-6h2v5H6zm8 0h2v8h-2zm-4 0h2v12h-2zm8 0h2v2h-2zm0 3h2v8h-2z" class="bqst0"/></symbol><symbol xml:space="preserve" viewBox="0 0 24 24" id="ICO_CHART_BAR_STACKED_H" xmlns="http://www.w3.org/2000/svg"><path d="M4 20v-2h5v-2H4v-2h8v-2H4v-2h4V8H4V6h6V4H4V2H2v20h20v-2z" class="brst0"/><path d="M11 4h5v2h-5zm2 8h3v2h-3zM9 8h12v2H9zm1 8h9v2h-9z" class="brst0"/></symbol><symbol viewBox="0 0 24 24" id="ICO_CHART_BAR_V" xmlns="http://www.w3.org/2000/svg"><path d="M20 20V7h-2v13h-2v-9h-2v9h-2V4h-2v16H8v-7H6v7H4V2H2v20h20v-2z"/></symbol><symbol viewBox="0 0 24 24" id="ICO_CHART_BUBBLE" xmlns="http://www.w3.org/2000/svg"><path fill-rule="evenodd" d="M4.001 2v18H22v2H2V2zm7 9c2.205 0 4 1.794 4 4s-1.795 4-4 4c-2.207 0-4-1.794-4-4s1.793-4 4-4M19 11c1.654 0 3 1.346 3 3s-1.346 3-3 3-3-1.346-3-3 1.346-3 3-3m-8 2c-1.103 0-2 .897-2 2s.897 2 2 2 2-.897 2-2-.897-2-2-2m8 0a1.001 1.001 0 0 0 0 2 1.001 1.001 0 0 0 0-2M8 5c1.654 0 3 1.346 3 3s-1.346 3-3 3-3-1.346-3-3 1.346-3 3-3m9-3c2.206 0 4 1.794 4 4s-1.794 4-4 4-4-1.794-4-4 1.794-4 4-4M8 7a1.001 1.001 0 0 0 0 2 1.001 1.001 0 0 0 0-2m9-3c-1.103 0-2 .897-2 2s.897 2 2 2 2-.897 2-2-.897-2-2-2"/></symbol><symbol viewBox="0 0 24 24" id="ICO_CHART_GAUGE_ODOMETER" xmlns="http://www.w3.org/2000/svg"><path fill-rule="evenodd" d="M12 3c5.515 0 10 4.441 10 9.9 0 3.141-1.464 6.027-4.016 7.92l-.243.18H6.26l-.243-.18C3.465 18.927 2 16.041 2 12.9 2 7.442 6.486 3 12 3m0 2c-4.41 0-8 3.533-8 7.875 0 2.403 1.085 4.62 2.988 6.125h10.025C18.916 17.493 20 15.278 20 12.875 20 8.533 16.412 5 12 5m3.711 2.933 1.414 1.414-2.414 2.368c.186.39.29.826.29 1.285 0 1.654-1.347 3-3 3s-3-1.346-3-3a3.004 3.004 0 0 1 4.3-2.703zM12.001 12a1.001 1.001 0 0 0 0 2 1.001 1.001 0 0 0 0-2"/></symbol><symbol viewBox="0 0 24 24" id="ICO_CHART_LINE" xmlns="http://www.w3.org/2000/svg"><path d="M4 20v-1.3l6-2.1 5.4 1.9 5.7-.5-.2-2-5.3.5-5.6-2.1-6 2.2v-3.7l1.9 1.2 5.8-2.6 9.2 1 .2-2-9.8-1-5.2 2.4L4 10.5V6.8l4.1 2.4 3.1-2.5 3.3 1.4 6.9-2.7-.8-1.8-6.1 2.3-3.7-1.6-2.9 2.5L4 4.4V2H2v20h20v-2z"/></symbol><symbol viewBox="0 0 24 24" id="ICO_CHECK" xmlns="http://www.w3.org/2000/svg"><path d="M21.207 6.707 9 18.914l-6.707-6.707 1.414-1.414L9 16.086 19.793 5.293z"/></symbol><symbol viewBox="0 0 24 24" id="ICO_CHECKBOX_CHECKED" xmlns="http://www.w3.org/2000/svg"><path d="m19.307 7.907-9 9-.707.707-.707-.707-4.2-4.2 1.414-1.414L9.6 14.786l8.293-8.293z"/></symbol><symbol viewBox="0 0 24 24" id="ICO_CHECKBOX_PARTIAL" xmlns="http://www.w3.org/2000/svg"><path d="M5.889 11H18.11v2H5.89v-2z"/></symbol><symbol viewBox="0 0 24 24" id="ICO_CHEVRON_DOUBLE_DOWN" xmlns="http://www.w3.org/2000/svg"><path fill-rule="evenodd" d="M17.65 11 19 12.739 12 19l-7-6.261L6.35 11 12 16.054zm0-6L19 6.739 12 13 5 6.739 6.35 5 12 10.054z"/></symbol><symbol viewBox="0 0 24 24" id="ICO_CHEVRON_DOUBLE_LEFT" xmlns="http://www.w3.org/2000/svg"><path fill-rule="evenodd" d="M13 17.65 11.261 19 5 12l6.261-7L13 6.35 7.946 12zm6 0L17.261 19 11 12l6.261-7L19 6.35 13.946 12z"/></symbol><symbol viewBox="0 0 24 24" id="ICO_CHEVRON_DOUBLE_RIGHT" xmlns="http://www.w3.org/2000/svg"><path fill-rule="evenodd" d="M11 17.65 12.739 19 19 12l-6.261-7L11 6.35 16.054 12zm-6 0L6.739 19 13 12 6.739 5 5 6.35 10.054 12z"/></symbol><symbol viewBox="0 0 24 24" id="ICO_CHEVRON_DOUBLE_UP" xmlns="http://www.w3.org/2000/svg"><path fill-rule="evenodd" d="M17.65 13 19 11.261 12 5l-7 6.261L6.35 13 12 7.946zm0 6L19 17.261 12 11l-7 6.261L6.35 19 12 13.946z"/></symbol><symbol viewBox="0 0 24 24" id="ICO_CHEVRON_DOWN" xmlns="http://www.w3.org/2000/svg"><path fill-rule="evenodd" d="M6.35 8 5 9.739 12 16l7-6.261L17.65 8 12 13.054z"/></symbol><symbol viewBox="0 0 24 24" id="ICO_CHEVRON_DOWN_END" xmlns="http://www.w3.org/2000/svg"><path fill-rule="evenodd" d="M19 16v2H5v-2zM17.65 6 19 7.739 12 14 5 7.739 6.35 6 12 11.054z"/></symbol><symbol viewBox="0 0 24 24" id="ICO_CHEVRON_LEFT" xmlns="http://www.w3.org/2000/svg"><path fill-rule="evenodd" d="M16 17.65 14.261 19 8 12l6.261-7L16 6.35 10.946 12z"/></symbol><symbol viewBox="0 0 24 24" id="ICO_CHEVRON_LEFT_END" xmlns="http://www.w3.org/2000/svg"><path fill-rule="evenodd" d="M16.261 5 10 12l6.261 7L18 17.65 12.946 12 18 6.35zM6 5v14h2V5z"/></symbol><symbol viewBox="0 0 24 24" id="ICO_CHEVRON_RIGHT" xmlns="http://www.w3.org/2000/svg"><path fill-rule="evenodd" d="M8 17.65 9.739 19 16 12 9.739 5 8 6.35 13.054 12z"/></symbol><symbol viewBox="0 0 24 24" id="ICO_CHEVRON_RIGHT_END" xmlns="http://www.w3.org/2000/svg"><path fill-rule="evenodd" d="M7.739 5 14 12l-6.261 7L6 17.65 11.054 12 6 6.35zM18 5v14h-2V5z"/></symbol><symbol viewBox="0 0 24 24" id="ICO_CHEVRON_UP" xmlns="http://www.w3.org/2000/svg"><path fill-rule="evenodd" d="M6.35 16 5 14.261 12 8l7 6.261L17.65 16 12 10.946z"/></symbol><symbol viewBox="0 0 24 24" id="ICO_CHEVRON_UP_DOWN" xmlns="http://www.w3.org/2000/svg"><path fill-rule="evenodd" d="M17.65 10 19 8.261 12 2 5 8.261 6.35 10 12 4.946zM12 22l7-6.261L17.65 14 12 19.054 6.35 14 5 15.739z"/></symbol><symbol viewBox="0 0 24 24" id="ICO_CHEVRON_UP_END" xmlns="http://www.w3.org/2000/svg"><path fill-rule="evenodd" d="M19 8V6H5v2zm-1.35 10L19 16.261 12 10l-7 6.261L6.35 18 12 12.946z"/></symbol><symbol viewBox="0 0 24 24" id="ICO_CIRCLE" xmlns="http://www.w3.org/2000/svg"><path fill-rule="evenodd" d="M12 4c-4.412 0-8 3.59-8 8s3.588 8 8 8 8-3.59 8-8-3.588-8-8-8m0 18C6.486 22 2 17.514 2 12S6.486 2 12 2s10 4.486 10 10-4.486 10-10 10"/></symbol><symbol viewBox="0 0 24 24" id="ICO_CIRCLE_S" xmlns="http://www.w3.org/2000/svg"><path fill-rule="evenodd" d="M12 22C6.486 22 2 17.514 2 12S6.486 2 12 2s10 4.486 10 10-4.486 10-10 10"/></symbol><symbol viewBox="0 0 24 24" id="ICO_CIRCULAR_PROGRESS" xmlns="http://www.w3.org/2000/svg"><path fill-rule="evenodd" d="M12 22c5.523 0 10-4.477 10-10S17.523 2 12 2 2 6.477 2 12s4.477 10 10 10m0-2a8 8 0 1 1 0-16 8 8 0 0 1 0 16"/></symbol><symbol viewBox="0 0 24 24" id="ICO_CLOCK" xmlns="http://www.w3.org/2000/svg"><path fill-rule="evenodd" d="M12 2c5.514 0 10 4.486 10 10s-4.486 10-10 10S2 17.514 2 12 6.486 2 12 2m0 2c-4.41 0-8 3.59-8 8s3.59 8 8 8 8-3.59 8-8-3.59-8-8-8m1 2v5.382l3.447 1.723-.894 1.79L11 12.618V6z"/></symbol><symbol viewBox="0 0 24 24" id="ICO_CLOCK_HISTORY" xmlns="http://www.w3.org/2000/svg"><path fill-rule="evenodd" d="M4 6V4H2v6h6V8H5.07A8 8 0 1 1 4 12H2c0 5.523 4.477 10 10 10s10-4.477 10-10S17.523 2 12 2a9.98 9.98 0 0 0-8 4m7 5V6h2v7H8v-2z" clip-rule="evenodd"/></symbol><symbol viewBox="0 0 24 24" id="ICO_CLOSE" xmlns="http://www.w3.org/2000/svg"><path d="M10.586 12 4.929 6.343l1.414-1.414L12 10.586l5.657-5.657 1.414 1.414L13.414 12l5.657 5.657-1.414 1.414L12 13.414l-5.657 5.657-1.414-1.414z"/></symbol><symbol viewBox="0 0 24 24" id="ICO_CLOSE_CIRCLE_S" xmlns="http://www.w3.org/2000/svg"><path fill-rule="evenodd" d="M12 1c6.065 0 11 4.935 11 11s-4.935 11-11 11S1 18.065 1 12 5.935 1 12 1m3.498 6L12 10.498 8.502 7 7 8.502 10.498 12 7 15.498 8.502 17 12 13.502 15.498 17 17 15.498 13.502 12 17 8.502z"/></symbol><symbol viewBox="0 0 24 24" id="ICO_COLLAPSE" xmlns="http://www.w3.org/2000/svg"><path fill-rule="evenodd" d="M11 13v9H9v-5.586l-6.293 6.293-1.414-1.414L7.586 15H2v-2zM21.293 1.293l1.414 1.414L16.414 9H22v2h-9V2h2v5.586z"/></symbol><symbol viewBox="0 0 24 24" id="ICO_COLLECTION_ALT" xmlns="http://www.w3.org/2000/svg"><path d="M2 2h12v3h-2V4H4v8h1v2H2zm4 4h12v3h-2V8H8v8h1v2H6zm4 4h12v12H10zm2 2v8h8v-8z"/></symbol><symbol viewBox="0 0 24 24" id="ICO_COLOR_PALETTE" xmlns="http://www.w3.org/2000/svg"><path fill-rule="evenodd" d="M12 2c5.514 0 10 4.485 10 10s-4.486 10-10 10c-1.42 0-2.805-.3-4.113-.892l-1.068-.482.733-.914c.53-.663.812-1.444.812-2.257a3.64 3.64 0 0 0-3.637-3.637c-.47 0-.933.092-1.377.274l-1.086.447-.16-1.164A10 10 0 0 1 2 12C2 6.485 6.485 2 12 2m0 2c-4.412 0-8 3.588-8 8v.076a5.34 5.34 0 0 1 6.222 5.258c0 .81-.186 1.596-.544 2.318A7.9 7.9 0 0 0 12 20c4.41 0 8-3.59 8-8 0-4.412-3.59-8-8-8m2 10a2 2 0 1 1-.002 4A2 2 0 0 1 14 14m2-6a2 2 0 1 1-.002 4A2 2 0 0 1 16 8m-6-2a2 2 0 1 1-.002 4A2 2 0 0 1 10 6"/></symbol><symbol viewBox="0 0 24 24" id="ICO_COLUMNS" xmlns="http://www.w3.org/2000/svg"><path d="M2 2h20v20H2zm2 2v16h4V4zm6 0v16h4V4zm10 16V4h-4v16z"/></symbol><symbol xml:space="preserve" viewBox="0 0 24 24" id="ICO_COMMENT_ADD" xmlns="http://www.w3.org/2000/svg"><path d="M11 14h2v-3h3V9h-3V6h-2v3H8v2h3z" class="cxst0"/><path d="M2 2v20h3.5l3-4H22V2zm18 14H7.5l-3 4H4V4h16z" class="cxst0"/></symbol><symbol viewBox="0 0 24 24" id="ICO_CONTACT_CHECK" xmlns="http://www.w3.org/2000/svg"><path fill-rule="evenodd" d="M10 14c5.306 0 8 2.917 8 7v1h-2v-1c0-2.86-1.709-5-6-5s-6 2.14-6 5v1H2v-1c0-4.083 2.694-7 8-7m11.293-5.707 1.414 1.414L18 14.414l-2.707-2.707 1.414-1.414L18 11.586zM10 2a5 5 0 1 1 0 10 5 5 0 0 1 0-10m0 2a3 3 0 1 0 0 6 3 3 0 0 0 0-6"/></symbol><symbol viewBox="0 0 24 24" id="ICO_CONTACT_GROUP" xmlns="http://www.w3.org/2000/svg"><path fill-rule="evenodd" d="M9 14c4.244 0 6.888 2.775 6.997 6.745L16 21v1h-2v-1c0-3.036-1.809-5-5-5-3.107 0-4.904 1.862-4.996 4.763L4 21v1H2v-1c0-4.105 2.666-7 7-7m9.496 1.132c2.118 1.21 3.41 3.272 3.499 5.607L22 21v1h-2v-1c0-1.634-.832-3.088-2.285-4.005l-.211-.127zM16 4a5 5 0 0 1 0 10 4.94 4.94 0 0 1-2.25-.539l-.255-.14 1.011-1.725c.45.264.96.404 1.494.404a3 3 0 0 0 .177-5.995L15.999 6zM9 2a5 5 0 1 1 0 10A5 5 0 0 1 9 2m0 2a3 3 0 1 0 0 6 3 3 0 0 0 0-6"/></symbol><symbol viewBox="0 0 24 24" id="ICO_COPY" xmlns="http://www.w3.org/2000/svg"><path fill-rule="evenodd" d="M21.999 8v14H8V8zM20 10H10v10h10zm-2-8v4h-2V4H4v11.999h2v2H2V2z"/></symbol><symbol viewBox="0 0 24 24" id="ICO_CURRENCY_MONEY" xmlns="http://www.w3.org/2000/svg"><path fill-rule="evenodd" d="M23 4v16H1V4zM3 16.171V18h1.83A3.02 3.02 0 0 0 3 16.171m14.101-10.17H6.9A5.01 5.01 0 0 1 3 9.899v4.202A5.01 5.01 0 0 1 6.9 18h10.2a5.01 5.01 0 0 1 3.9-3.9V9.899a5.01 5.01 0 0 1-3.9-3.898zM21 16c-.851.302-1.526 1.148-1.828 2H21zm-9-8c2.206 0 4 1.794 4 4s-1.794 4-4 4-4-1.794-4-4 1.794-4 4-4m0 2c-1.103 0-2 .897-2 2s.897 2 2 2 2-.897 2-2-.897-2-2-2m9-4h-1.828c.302.852.977 1.698 1.828 2zM4.83 6H3v1.829A3.02 3.02 0 0 0 4.83 6"/></symbol><symbol viewBox="0 0 24 24" id="ICO_DATABASE" xmlns="http://www.w3.org/2000/svg"><path fill-rule="evenodd" d="M22 18c0 2.748-5.184 4-10 4S2 20.748 2 18V6c0-2.748 5.184-4 10-4 4.723 0 9.8 1.204 9.994 3.843L22 6zM4 14.529V18c0 .514 2.751 2 8 2s8-1.486 8-2v-3.286C18.325 15.587 15.768 16 13 16q-.25 0-.506-.004L12 16c-2.956 0-6.051-.471-8-1.471m15.785-5.895-.104.05a10 10 0 0 1-1.298.485 15 15 0 0 1-.979.262l-.06.014-.188.042-.11.023-.123.026a20 20 0 0 1-.797.146q-.528.085-1.073.148l-.098.01-.368.039-.065.006a31 31 0 0 1-.76.06l-.115.006q-.352.021-.707.033l-.164.005-.171.004-.171.004L12 10c-2.956 0-6.05-.472-8-1.471v3.47c0 .515 2.751 2 8 2s8-1.485 8-2V8.53l-.04.02-.1.05-.018.008L20 8.53zM12 4C6.873 4 4.13 5.418 4.004 5.963L4 6c0 .514 2.751 2 8 2s8-1.486 8-2-2.751-2-8-2"/></symbol><symbol viewBox="0 0 24 24" id="ICO_DATE" xmlns="http://www.w3.org/2000/svg"><path d="M7 2v2H2v18h20V4h-5V2h-2v2H9V2zM4 6h3v2h2V6h6v2h2V6h3v14H4zm7.747 5.64V18h1.884V9.396H12.3l-2.544 1.812v1.104l1.992-.672z"/></symbol><symbol viewBox="0 0 24 24" id="ICO_DATE_RANGE_INPUT" xmlns="http://www.w3.org/2000/svg"><path fill-rule="evenodd" d="M9.001 1v2H15V1h2.001v2H23v20H1V3h6.001V1zm-6 4L3 21h18V5h-3.999v1.999H15V5H9.001v1.999h-2V5zm13.597 5.55 2.65 2.698L20 14l-.007.006.007.006-.697.684-2.717 2.718L15.172 16l.999-1H7.855l1 1-1.415 1.414-2.7-2.702-.714-.7.006-.007L4.026 14l.737-.738 2.665-2.712 1.426 1.402L7.825 13h8.376l-1.03-1.047z"/></symbol><symbol viewBox="0 0 8 8" id="ICO_DIAMOND_8" xmlns="http://www.w3.org/2000/svg"><path fill-rule="evenodd" d="M4 8 0 4l4-4 4 4z"/></symbol><symbol viewBox="0 0 24 24" id="ICO_DIVIDER_ROWS" xmlns="http://www.w3.org/2000/svg"><path fill-rule="evenodd" d="M22 2v20H2V2zm-9 14v2h-2v-2zm4 0v2h-2v-2zM4 20h16v-2h-1v-2h1v-3h-1v-2h1V8h-1V6h1V4H4v2h1v2H4v3h1v2H4v3h1v2H4zm5-4v2H7v-2zm4-5v2h-2v-2zm4 0v2h-2v-2zm-8 0v2H7v-2zm4-5v2h-2V6zm4 0v2h-2V6zM9 6v2H7V6z"/></symbol><symbol viewBox="0 0 24 24" id="ICO_DOCUMENTS" xmlns="http://www.w3.org/2000/svg"><path fill-rule="evenodd" d="M13.414 2 17 5.586V7h.414L21 10.586V22H7v-4H3V2zM17 9.414V18H9v2h10v-8.586zm-2-3L12.586 4H5v12h10zM13 11v2H7v-2zm-2-4v2H7V7z"/></symbol><symbol viewBox="0 0 24 24" id="ICO_DOCUMENT_LINK" xmlns="http://www.w3.org/2000/svg"><path d="M4 2h10.414L20 7.586V13h-2V9h-5V4H6v16h2v2H4zm11 3.414V7h1.586z"/><path d="M10 19a4 4 0 0 1 4-4h2v2h-2a2 2 0 1 0 0 4h2v2h-2a4 4 0 0 1-4-4m13 0a4 4 0 0 1-4 4h-2v-2h2a2 2 0 1 0 0-4h-2v-2h2a4 4 0 0 1 4 4"/><path d="M19 20h-5v-2h5z"/></symbol><symbol viewBox="0 0 24 24" id="ICO_DOWNLOAD" xmlns="http://www.w3.org/2000/svg"><path fill-rule="evenodd" d="M4 15v5h16v-5h2v7H2v-7zm9-13v10.587l3.293-3.294 1.414 1.414L12 16.414l-5.707-5.707 1.414-1.414L11 12.585V2z"/></symbol><symbol viewBox="0 0 24 24" id="ICO_DOWN_PARENT" xmlns="http://www.w3.org/2000/svg"><path d="m6.291 13.707 5.707 5.707 5.707-5.707-1.414-1.414-3.293 3.293V6h-2v9.586l-3.293-3.293z"/></symbol><symbol viewBox="0 0 24 24" id="ICO_DO_NOT_ENTER" xmlns="http://www.w3.org/2000/svg"><path fill-rule="evenodd" d="M12 2c5.523 0 10 4.477 10 10s-4.477 10-10 10S2 17.523 2 12 6.477 2 12 2M5.68 7.095A8 8 0 0 0 16.904 18.32zM12 4c-1.848 0-3.55.627-4.905 1.68l11.226 11.225A8 8 0 0 0 12 4"/></symbol><symbol viewBox="0 0 24 24" id="ICO_DRAG_CORNER" xmlns="http://www.w3.org/2000/svg"><path d="m20.354 10.354-10 10-.708-.707 10-10zm0 4-6 6-.707-.707 6-6zm0 4-2 2-.707-.707 2-2z"/></symbol><symbol viewBox="0 0 24 24" id="ICO_DRAG_H" xmlns="http://www.w3.org/2000/svg"><path d="M9 18V6h2v12zm4 0V6h2v12z"/></symbol><symbol viewBox="0 0 24 24" id="ICO_DRAG_HANDLE" xmlns="http://www.w3.org/2000/svg"><path d="M6 9h12v2H6zm0 4h12v2H6z"/></symbol><symbol viewBox="0 0 24 24" id="ICO_DRAG_INDICATOR" xmlns="http://www.w3.org/2000/svg"><path fill-rule="evenodd" d="M7 13v2H5v-2zm6 0v2h-2v-2zm6 0v2h-2v-2zM7 9v2H5V9zm6 0v2h-2V9zm6 0v2h-2V9z"/></symbol><symbol viewBox="0 0 24 24" id="ICO_DYNAMIC_CONFIG" xmlns="http://www.w3.org/2000/svg"><path fill-rule="evenodd" d="M2 11.166 9.715 2 7.999 9.5 14 12 3.714 22l4.285-8.334zM18 16h4v-2h-4zm-2 3h6v-2h-6zm-4 3h10v-2H12z" clip-rule="evenodd"/></symbol><symbol viewBox="0 0 24 24" id="ICO_DYNAMIC_TABLE" xmlns="http://www.w3.org/2000/svg"><path fill-rule="evenodd" d="M3 2H2v20h13v-2h-5v-4h5v-2h-5v-4h12V2h-1zm5 14v4H4v-4zm0-2H4v-4h4zm1-6H4V4h16v4h-5zm7.167 8.583L19.917 12l-.834 3.75L22 17l-5 5 2.083-4.167z" clip-rule="evenodd"/></symbol><symbol viewBox="0 0 24 24" id="ICO_EDIT" xmlns="http://www.w3.org/2000/svg"><path fill-rule="evenodd" d="M17.667 2 22 6.333 6.333 22H2v-4.333zm-3.653 6.429L3.963 18.48v1.557H5.52L15.57 9.985zm3.653-3.653L15.43 7.014l1.556 1.556 2.239-2.237z"/></symbol><symbol viewBox="0 0 24 24" id="ICO_EDIT_COLUMN" xmlns="http://www.w3.org/2000/svg"><path d="M2 2h2v20H2zm4 0h2v20H6zm12 18h-6V4h6v2h2V2H10v20h10v-4h-2z"/><path d="m21.7 11.3-3-3c-.4-.4-1-.4-1.4 0l-3 3-.3.3V16h4.4l.3-.3 3-3c.4-.4.4-1 0-1.4M17.6 14H16v-1.6l2-2 1.6 1.6z"/></symbol><symbol viewBox="0 0 24 24" id="ICO_EDIT_INLINE" xmlns="http://www.w3.org/2000/svg"><path fill-rule="evenodd" d="m18.13 1.309 4.332 4.414L6.332 22H2v-3.994zM21 20v2H11v-2zM14.568 7.83 3.962 18.834V20h1.556L16.087 9.349zm3.562-3.692-2.173 2.25 1.539 1.54 2.19-2.205z"/></symbol><symbol viewBox="0 0 24 24" id="ICO_EDUCATION" xmlns="http://www.w3.org/2000/svg"><path fill-rule="evenodd" d="M12 2.882 22.236 8 19 9.618v9.103l-7 2.333-7-2.333V9.618L1.764 8zm5 7.736-5 2.5-5-2.5v6.661l5 1.667 5-1.667zm-5-5.5L6.237 8 12 10.881 17.763 8z"/></symbol><symbol viewBox="0 0 24 24" id="ICO_EMAIL" xmlns="http://www.w3.org/2000/svg"><path fill-rule="evenodd" d="M22 3v18H2V3zm-2 3.215-8 7.065-8-7.064V19h16zM18.384 5H5.614L12 10.72z"/></symbol><symbol viewBox="0 0 24 24" id="ICO_EMOJI_MEH" xmlns="http://www.w3.org/2000/svg"><path fill-rule="evenodd" d="M12 2c5.514 0 10 4.486 10 10s-4.486 10-10 10S2 17.514 2 12 6.486 2 12 2m0 2c-4.412 0-8 3.588-8 8s3.588 8 8 8 8-3.588 8-8-3.588-8-8-8m5 10v2H7v-2zm-6.99-6v2H8V8zM16 8v2h-2.01V8z"/></symbol><symbol viewBox="0 0 24 24" id="ICO_EMOJI_SAD" xmlns="http://www.w3.org/2000/svg"><path fill-rule="evenodd" d="M12 2c5.514 0 10 4.486 10 10s-4.486 10-10 10S2 17.514 2 12 6.486 2 12 2m0 2c-4.412 0-8 3.588-8 8s3.588 8 8 8 8-3.588 8-8-3.588-8-8-8m-.007 9c1.722 0 3.41.829 4.753 2.334l-1.492 1.332c-.973-1.09-2.1-1.666-3.26-1.666-1.164.002-2.284.577-3.245 1.663L7.25 15.337c1.332-1.504 3.012-2.333 4.732-2.337zM10.01 8v2H8V8zM16 8v2h-2.01V8z"/></symbol><symbol viewBox="0 0 24 24" id="ICO_EMOJI_SMILE" xmlns="http://www.w3.org/2000/svg"><path fill-rule="evenodd" d="M12 2c5.514 0 10 4.486 10 10s-4.486 10-10 10S2 17.514 2 12 6.486 2 12 2m0 2c-4.412 0-8 3.588-8 8s3.588 8 8 8 8-3.588 8-8-3.588-8-8-8m-3.254 9.334c.973 1.09 2.1 1.666 3.26 1.666h.008c1.157-.002 2.276-.577 3.237-1.663l1.498 1.326c-1.332 1.504-3.012 2.333-4.732 2.337h-.01c-1.722 0-3.41-.829-4.753-2.334zM10.01 8v2H8V8zM16 8v2h-2.01V8z"/></symbol><symbol viewBox="0 0 24 24" id="ICO_EMPLOYEE" xmlns="http://www.w3.org/2000/svg"><path d="M12 4a3 3 0 1 0 0 6 3 3 0 0 0 0-6M7 7a5 5 0 1 1 10 0A5 5 0 0 1 7 7m-.498 10.52C5.48 18.385 5 19.585 5 21v1H3v-1c0-1.9.664-3.7 2.212-5.008C6.739 14.703 9 14 12 14s5.261.704 6.788 1.992C20.336 17.3 21 19.1 21 21v1h-2v-1c0-1.416-.48-2.616-1.502-3.48C16.453 16.64 14.714 16 12 16s-4.453.639-5.498 1.52M16 20h-4v-2h4z"/></symbol><symbol viewBox="0 0 24 24" id="ICO_EMPLOYEE_STATUS" xmlns="http://www.w3.org/2000/svg"><path d="M10 4a3 3 0 1 0 0 6 3 3 0 0 0 0-6M5 7a5 5 0 1 1 10 0A5 5 0 0 1 5 7m17.707 2.707L18 14.414l-2.707-2.707 1.414-1.414L18 11.586l3.293-3.293zM5.32 17.477C4.436 18.327 4 19.54 4 21v1H2v-1c0-1.857.564-3.644 1.93-4.963C5.296 14.72 7.327 14 10 14s4.705.72 6.07 2.037C17.435 17.356 18 19.143 18 21v1h-2v-1c0-1.459-.436-2.672-1.32-3.524C13.796 16.622 12.327 16 10 16s-3.795.622-4.68 1.476zM14 20h-4v-2h4z"/></symbol><symbol viewBox="0 0 24 24" id="ICO_END_NODE" xmlns="http://www.w3.org/2000/svg"><path d="M9 2H8v8h3v1H5v3H2v8h8v-8H7v-1h10v1h-3v8h8v-8h-3v-3h-6v-1h3V2zm1 6V4h4v4zM4 20v-4h4v4z"/></symbol><symbol viewBox="0 0 24 24" id="ICO_ENTER_IDENTIFIER" xmlns="http://www.w3.org/2000/svg"><path d="M2 2v20h12v-2H4V4h2v2h12V4h2v10h2V2z"/><path d="M18 16v2h-2v2h2v2h2v-2h2v-2h-2v-2z"/></symbol><symbol viewBox="0 0 24 24" id="ICO_ERROR" xmlns="http://www.w3.org/2000/svg"><path fill-rule="evenodd" d="m7.293 8.707 8 8 1.414-1.414-8-8zM12 22C6.477 22 2 17.523 2 12S6.477 2 12 2s10 4.477 10 10-4.477 10-10 10m0-2a8 8 0 1 0 0-16 8 8 0 0 0 0 16"/></symbol><symbol viewBox="0 0 24 24" id="ICO_ERROR_S" xmlns="http://www.w3.org/2000/svg"><path d="M2 12c0 5.523 4.477 10 10 10s10-4.477 10-10S17.523 2 12 2 2 6.477 2 12m5.293-3.293 1.414-1.414 8 8-1.414 1.414z"/></symbol><symbol viewBox="0 0 24 24" id="ICO_EVENT_AVAILABLE" xmlns="http://www.w3.org/2000/svg"><path fill-rule="evenodd" d="M9 2v1.999h6V2h2v1.999h5V22H2V4l5-.001V2zM7 5.999H4v14h16V6h-3v2h-2V6H9v2H7zm9.336 3.254 1.328 1.494-7.704 6.627-3.667-3.667 1.414-1.414 2.333 2.333z"/></symbol><symbol viewBox="0 0 24 24" id="ICO_EXPAND" xmlns="http://www.w3.org/2000/svg"><path fill-rule="evenodd" d="m10.293 12.293 1.414 1.414L5.414 20H11v2H2v-9h2v5.584zM22 2v9h-2V5.414l-6.293 6.293-1.414-1.414L18.584 4H13V2z"/></symbol><symbol viewBox="0 0 24 24" id="ICO_EXPORT" xmlns="http://www.w3.org/2000/svg"><path d="M2 2v20h20V2zm18 18H5.4l7.6-7.6V17h2V9H7v2h4.6L4 18.6V4h16z"/></symbol><symbol viewBox="0 0 24 24" id="ICO_EXTENDABLE_ITEM" xmlns="http://www.w3.org/2000/svg"><path fill-rule="evenodd" d="m6.22 12.375-.066.091A1 1 0 0 0 7 14h2.718L8.03 20.757c-.26 1.036 1.068 1.703 1.744.876l9-11 .067-.09A1 1 0 0 0 18 9h-2.848l.838-5.859c.144-1.008-1.135-1.56-1.77-.766zm7.272-5.891-.482 3.375-.01.112A1 1 0 0 0 14 11h1.889l-4.836 5.911.917-3.668.021-.112A1 1 0 0 0 11 12H9.079z"/></symbol><symbol viewBox="0 0 24 24" id="ICO_FILE" xmlns="http://www.w3.org/2000/svg"><path d="M4 2h10.414L20 7.586V22H4zm2 2v16h12V9h-5V4zm9 1.414V7h1.586z"/></symbol><symbol viewBox="0 0 24 24" id="ICO_FILE_CSV" xmlns="http://www.w3.org/2000/svg"><path d="M4 2h10.414L20 7.586V10h-2V9h-5V4H6v16h12v-1h2v3H4zm11 3.414V7h1.586z"/><path d="M13.111 15.935v.87a3 3 0 0 1-.61.202 3 3 0 0 1-.756.087q-1.173 0-1.776-.664-.603-.67-.603-1.922 0-.771.295-1.32.295-.557.838-.851.542-.302 1.293-.302.354 0 .656.074c.302.074.378.112.53.188v.884a4 4 0 0 0-.617-.188 2.4 2.4 0 0 0-.496-.053q-.69 0-1.058.408c-.368.408-.369.66-.369 1.16q0 .81.362 1.252.361.436 1.065.436.282 0 .57-.06.294-.067.677-.201zm.593.891v-.931a4.2 4.2 0 0 0 1.481.288q.423 0 .663-.141c.24-.141.242-.223.242-.389a.35.35 0 0 0-.154-.288q-.154-.12-.597-.268l-.509-.174q-.623-.214-.911-.55-.282-.34-.281-.87 0-.456.227-.784.236-.33.657-.503.422-.18 1.005-.18.369 0 .724.073.36.067.63.188v.93a4 4 0 0 0-.697-.2 3.3 3.3 0 0 0-.657-.074q-.83 0-.83.49 0 .187.153.307.16.114.597.262l.509.174q.656.228.931.556.275.321.275.878 0 .683-.49 1.079-.482.395-1.366.395a5.7 5.7 0 0 1-1.18-.128 2 2 0 0 1-.421-.14zm5.441.174-1.796-4.87h1.18l1.138 3.584 1.153-3.585h1.132L20.156 17z"/></symbol><symbol viewBox="0 0 24 24" id="ICO_FILE_EXCEL" xmlns="http://www.w3.org/2000/svg"><path d="M4 2v6H1v9h3v5h16V7.586L14.414 2zm2 15h4V8H6V4h7v5h5v11H6zM16.586 7H15V5.414zM3.26 15l1.501-2.526-1.427-2.345h1.2l1.004 1.682.979-1.682h1.152l-1.434 2.365L7.743 15h-1.2l-1.085-1.843L4.413 15z"/></symbol><symbol viewBox="0 0 24 24" id="ICO_FILE_PDF" xmlns="http://www.w3.org/2000/svg"><path d="M4 2h10.414L20 7.586V10h-2V9h-5V4H6v16h12v-1h2v3H4zm11 3.414V7h1.586z"/><path d="M9.651 17v-4.87h1.742q.898 0 1.354.415.462.414.462 1.232 0 .81-.462 1.233-.456.415-1.353.415h-.704V17zm1.528-4.02h-.489v1.595h.49q.535 0 .756-.181.228-.187.228-.617 0-.435-.228-.616-.221-.18-.757-.181M13.852 17v-4.87h1.635q1.193 0 1.802.616.61.616.61 1.822 0 1.192-.61 1.816-.603.615-1.802.616zm1.621-4.02h-.576v3.17h.576q.678 0 1.005-.383.336-.389.335-1.2c-.001-.811-.109-.94-.328-1.198q-.329-.39-1.011-.389zM18.642 17v-4.87h3.108v.884h-2.063v1.226h1.829v.884h-1.83V17z"/></symbol><symbol viewBox="0 0 24 24" id="ICO_FILTER_ALT" xmlns="http://www.w3.org/2000/svg"><path d="m15 21.6-6-3v-6.3L1 2h22l-8 10.3zm-4-4.2 2 1v-6.7L19 4H5l6 7.7z"/></symbol><symbol viewBox="0 0 24 24" id="ICO_FIT_HEIGHT" xmlns="http://www.w3.org/2000/svg"><path fill-rule="evenodd" d="m16.231 14.36 1.537 1.28L14.135 20H20v2H4v-2h5.864l-3.632-4.36 1.537-1.28 4.23 5.077zM20 2v2h-5.865l3.634 4.36-1.537 1.28L12 4.563 7.768 9.641 6.231 8.36 9.864 4H4V2z"/></symbol><symbol viewBox="0 0 24 24" id="ICO_FIT_SIZE" xmlns="http://www.w3.org/2000/svg"><path fill-rule="evenodd" d="m15.293 16.293 1.414 1.414L14.414 20H19v2H5v-2h4.586l-2.293-2.293 1.414-1.414L12 19.587zM22 5v14h-2v-4.586l-2.293 2.293-1.414-1.414L19.586 12l-3.293-3.293 1.414-1.414L20 9.586V5zM4 5v4.586l2.293-2.293 1.414 1.414L4.414 12l3.293 3.293-1.414 1.414L4 14.414V19H2V5zm15-3v2h-4.586l2.293 2.293-1.414 1.414L12 4.414 8.707 7.707 7.293 6.293 9.586 4H5V2z"/></symbol><symbol viewBox="0 0 24 24" id="ICO_FIT_WIDTH" xmlns="http://www.w3.org/2000/svg"><path fill-rule="evenodd" d="M22 4v16h-2v-5.865l-4.36 3.634-1.28-1.537L19.437 12 14.36 7.769l1.28-1.537L20 9.865V4zM4 4v5.864l4.36-3.632 1.28 1.537L4.562 12l5.078 4.232-1.28 1.537L4 14.135V20H2V4z"/></symbol><symbol viewBox="0 0 24 24" id="ICO_FLAGGED" xmlns="http://www.w3.org/2000/svg"><path fill-rule="evenodd" d="M4 2v2h18l-5.238 7L22 18H4v4H2V2zm14.3 4H4v10h14.3l-3.929-5z"/></symbol><symbol viewBox="0 0 24 24" id="ICO_FOLDER" xmlns="http://www.w3.org/2000/svg"><path fill-rule="evenodd" d="M2 2v20h20V6h-9.382l-2.001-4zm2 2h5.382l2.001 3.999H20V20H4z"/></symbol><symbol viewBox="0 0 24 24" id="ICO_FUNCTION" xmlns="http://www.w3.org/2000/svg"><path fill-rule="evenodd" d="m13.586 12-10 10H20v-2H8.414l8-8-8-8H20V2H3.586z"/></symbol><symbol viewBox="0 0 24 24" id="ICO_FUNCTION_ALT" xmlns="http://www.w3.org/2000/svg"><path fill-rule="evenodd" d="m2 20.756.69-.746q.69-.746 1.047-1.492c.357-.746.425-1.108.563-1.831l1.932-7.7H4.254l.23-1.199 2.047-.475.322-1.56Q7.613 2 11.108 2q.736 0 1.288.068l-.299 1.583h-.759q-1.125 0-1.679.565-.552.566-.805 1.74l-.253 1.357h2.806l-.322 1.674H8.256l-1.932 7.88a9.5 9.5 0 0 1-.483 1.753q-.3.757-.759 1.402-.46.644-1.15 1.368l-.598.61zm9.165-3.64 4.383-5.195-1.945-4.608h2.186l1.23 3.432 2.704-3.432H22l-3.968 4.743 2.22 5.06h-2.185l-1.53-3.861-3.048 3.861z" clip-rule="evenodd"/></symbol><symbol viewBox="0 0 24 24" id="ICO_FUTURE_READY" xmlns="http://www.w3.org/2000/svg"><path fill-rule="evenodd" d="M12.046 5.004c.137-.012 5.527-.207 6.762 3.96.237.8.255 1.696.052 2.66-.438 2.088-1.373 3.336-2.858 5.663L16 22H8v-4.709l-.089-.14c-1.434-2.24-2.342-3.479-2.771-5.527-.202-.965-.185-1.86.052-2.66 1.237-4.168 6.626-3.97 6.854-3.96M4.928 17.657l1.415 1.414-1.636 1.636-1.415-1.414zm14.144 0 1.636 1.636-1.415 1.414-1.636-1.636zM14 18h-4v2h4zM12.046 7.002h-.161c-.776.005-4.068.146-4.775 2.53-.142.479-.146 1.044-.013 1.68.376 1.794 1.182 2.69 2.459 4.788L11 15.999V12h2v3.999h1.444c1.278-2.097 2.083-2.994 2.459-4.785.133-.637.129-1.202-.013-1.681-.795-2.685-4.804-2.54-4.844-2.531M22 11v2h-2v-2zM4 11v2H2v-2zm15.292-7.707 1.415 1.414-1.636 1.636-1.415-1.414zm-14.584 0L6.344 4.93 4.929 6.343 3.293 4.707zM13 2v2h-2V2z"/></symbol><symbol viewBox="0 0 24 24" id="ICO_GRID_CONTAINER_H" xmlns="http://www.w3.org/2000/svg"><path fill-rule="evenodd" d="M22 22H2V2h20zm-2-2V4H4v16zm-2-3H6v-2h12zm0-4H6v-2h12zm0-4H6V7h12z"/></symbol><symbol viewBox="0 0 24 24" id="ICO_GRID_VIEW_LARGE" xmlns="http://www.w3.org/2000/svg"><path fill-rule="evenodd" d="M11 13v9H2v-9zm11 0v9h-9v-9zM9 15H4v5h5zm11 0h-5v5h5zM11 2v9H2V2zm11 0v9h-9V2zM9 4H4v5h5zm11 0h-5v5h5z"/></symbol><symbol viewBox="0 0 24 24" id="ICO_HAPPY_FILLED" xmlns="http://www.w3.org/2000/svg"><path d="M12 22c5.523 0 10-4.477 10-10S17.523 2 12 2 2 6.477 2 12s4.477 10 10 10M8 10V8h2v2zm6 0V8h2v2zm1.21 3.398 1.58 1.228c-.693.89-1.991 1.963-3.694 2.282-1.775.331-3.805-.19-5.803-2.189l1.414-1.414c1.602 1.602 2.988 1.83 4.022 1.637 1.106-.207 2.007-.934 2.482-1.544z"/></symbol><symbol viewBox="0 0 24 24" id="ICO_HASHTAG" xmlns="http://www.w3.org/2000/svg"><path d="m8.438 8 .568-5h1.988l-.543 5h3.987l.568-5h1.988l-.543 5H21l-.23 2h-4.542l-.444 4H21l-.23 2h-5.208l-.568 5h-1.988l.543-5H9.562l-.568 5H7.006l.543-5H3l.23-2h4.542l.444-4H3l.23-2zm1.79 2-.444 4h3.988l.444-4z"/></symbol><symbol viewBox="0 0 24 24" id="ICO_HEART" xmlns="http://www.w3.org/2000/svg"><path fill-rule="evenodd" d="M15.994 3.006a5.7 5.7 0 0 0-3.795 1.707L12 4.916l-.199-.202a5.676 5.676 0 0 0-8.128 0c-2.231 2.275-2.231 5.953 0 8.228L12 21.428l8.326-8.486A5.87 5.87 0 0 0 22 8.828a5.87 5.87 0 0 0-1.675-4.115A5.7 5.7 0 0 0 16.262 3zM16.262 5c.988 0 1.936.4 2.636 1.114C19.603 6.832 20 7.81 20 8.828s-.397 1.996-1.101 2.713l-6.9 7.031-6.898-7.03a3.894 3.894 0 0 1 0-5.428 3.676 3.676 0 0 1 5.272 0L12 7.775l1.626-1.66A3.7 3.7 0 0 1 16.262 5"/></symbol><symbol viewBox="0 0 24 24" id="ICO_HEART_S" xmlns="http://www.w3.org/2000/svg"><path fill-rule="evenodd" d="M15.994 3.006a5.7 5.7 0 0 0-3.795 1.707L12 4.916l-.199-.202a5.676 5.676 0 0 0-8.128 0c-2.231 2.275-2.231 5.953 0 8.228L12 21.428l8.326-8.486A5.87 5.87 0 0 0 22 8.828a5.87 5.87 0 0 0-1.675-4.115A5.7 5.7 0 0 0 16.262 3z"/></symbol><symbol viewBox="0 0 24 24" id="ICO_HELP" xmlns="http://www.w3.org/2000/svg"><path fill-rule="evenodd" d="M12 2c5.523 0 10 4.477 10 10s-4.477 10-10 10S2 17.523 2 12 6.477 2 12 2m0 2a8 8 0 1 0 0 16 8 8 0 0 0 0-16m1 12v2h-2v-2zM12 6c3.401 0 4 1.757 4 2.925 0 1.47-.627 1.88-1.4 2.38-.774.485-1.438 1.061-1.6 1.954l-.072.741H11v-.846c.108-1.32.681-1.716 1.4-2.186.703-.469 1.6-1.013 1.6-1.83 0-.925-1.046-1.454-2-1.454-1.296 0-1.982 1.03-2 2.105H8C8.054 7.623 9.372 6 12 6"/></symbol><symbol viewBox="0 0 24 24" id="ICO_HIGHLIGHT_COLOR" xmlns="http://www.w3.org/2000/svg"><path fill-rule="evenodd" d="M12 22c5.523 0 10-4.477 10-10S17.523 2 12 2 2 6.477 2 12s4.477 10 10 10"/></symbol><symbol viewBox="0 0 24 24" id="ICO_HIGHLIGHT_COLUMNS" xmlns="http://www.w3.org/2000/svg"><path d="M3 2H2v20h10V4h6v4h2V2zm1 2h6v16H4zm9.623 13.77.078 1.2.09 1.399-.237.631-.475 1.267-.274.733h2.527l.961-1.187 1.257-.621 1.077-.533.434-.905 3.635-7.587L18.943 10l-4.753 6.942-.566.828zm3.7.981-1.396-.806 3.62-5.287.545.315z"/></symbol><symbol viewBox="0 0 24 24" id="ICO_HIGHLIGHT_ROWS" xmlns="http://www.w3.org/2000/svg"><path d="M2 3v18h10v-2H4v-6h11v-2H4V5h16v3h2V3z"/><path d="m13.623 17.77.168 2.599L12.805 23h2.527l.961-1.187 2.334-1.154 4.07-8.492L18.942 10zm3.7.981-1.396-.806 3.62-5.287.545.315z"/></symbol><symbol viewBox="0 0 24 24" id="ICO_HOME" xmlns="http://www.w3.org/2000/svg"><path fill-rule="evenodd" d="M11.982 2 2 8.686V22h20V8.686zM4 9.727l8-5.3 8 5.3V20H4z"/></symbol><symbol viewBox="0 0 24 24" id="ICO_INFORMATION" xmlns="http://www.w3.org/2000/svg"><path fill-rule="evenodd" d="M12 2c5.523 0 10 4.477 10 10s-4.477 10-10 10S2 17.523 2 12 6.477 2 12 2m0 2a8 8 0 1 0 0 16 8 8 0 0 0 0-16m-1 6h2v8.024h-2zm2-4v2h-2V6z"/></symbol><symbol viewBox="0 0 24 24" id="ICO_INFORMATION_S" xmlns="http://www.w3.org/2000/svg"><path d="M22 12c0 5.523-4.477 10-10 10S2 17.523 2 12 6.477 2 12 2s10 4.477 10 10m-9-4V6h-2v2zm0 10v-8h-2v8z"/></symbol><symbol viewBox="0 0 24 24" id="ICO_INPUT_NUMBER" xmlns="http://www.w3.org/2000/svg"><path fill-rule="evenodd" d="M3 5H2v14h20V5h-1zm1 12V7h16v10zm5.84-2.84V15h3.785v-1.016h-2.16l.808-.888q.495-.552.784-.944.295-.4.424-.72.128-.32.128-.64 0-.784-.512-1.208-.513-.424-1.44-.424-.417 0-.856.112-.433.105-.808.296v1.072q.825-.44 1.472-.44.92 0 .92.728a.9.9 0 0 1-.096.384 2.7 2.7 0 0 1-.336.496q-.232.288-.656.752zm-2.512-3.4V15h1.256V9.264h-.888L6 10.472v.736z" clip-rule="evenodd"/></symbol><symbol viewBox="0 0 24 24" id="ICO_INVENTORY_COST_REVALUATION" xmlns="http://www.w3.org/2000/svg"><path d="m10.75 1.82 8.75 5.47V9h-.963l-6.787 4.242v5.391l1.72-1.075 1.06 1.696-3.78 2.363L2 16.148V7.29zm-1 16.813v-5.391L4 9.648v5.392zM4.887 7.843l5.863 3.665 5.863-3.664-5.863-3.665zM17.5 12v-1h2v1H22v2h-2.5v2h.75c1.64 0 2.75 1.473 2.75 3s-1.11 3-2.75 3h-.75v1h-2v-1H15v-2h2.5v-2h-.75C15.11 18 14 16.527 14 15s1.11-3 2.75-3zm0 2h-.75c-.293 0-.75.318-.75 1s.457 1 .75 1h.75zm2 4v2h.75c.293 0 .75-.318.75-1s-.457-1-.75-1z"/></symbol><symbol viewBox="0 0 24 24" id="ICO_ITEM_OVERVIEW" xmlns="http://www.w3.org/2000/svg"><path fill-rule="evenodd" d="M22 2v20H2V2zM8 4H4v16h4zm12 0H10v16h10zM7 14v2H5v-2zm0-4v2H5v-2zm0-4v2H5V6z"/></symbol><symbol viewBox="0 0 24 24" id="ICO_KEY" xmlns="http://www.w3.org/2000/svg"><path d="m17 3.586 4.207 4.207-1.414 1.414L17 6.414 15.414 8l2.293 2.293-1.414 1.414L14 9.414l-1.555 1.555a6 6 0 1 1-1.584-1.245zM8 11a4 4 0 1 0 0 8 4 4 0 0 0 0-8"/></symbol><symbol viewBox="0 0 24 24" id="ICO_LAYOUT_1_COL_2_ROW" xmlns="http://www.w3.org/2000/svg"><path fill-rule="evenodd" d="M2 22V2h20v20zm9-18H4v16h7zm9 9h-7v7h7zm0-9h-7v7h7z"/></symbol><symbol viewBox="0 0 24 24" id="ICO_LINK" xmlns="http://www.w3.org/2000/svg"><path fill-rule="evenodd" d="M12.707 2.808a4 4 0 0 1 5.512-.138l.145.138 2.828 2.828a4 4 0 0 1 .138 5.512l-.138.145-4.242 4.243a4 4 0 0 1-5.512.137l-.145-.137-2.121-2.122a1 1 0 0 1 1.327-1.492l.087.078 2.121 2.121a2 2 0 0 0 2.72.102l.109-.102 4.242-4.242a2 2 0 0 0 .102-2.72l-.102-.109-2.828-2.828a2 2 0 0 0-2.72-.102l-.109.102-1.414 1.414a1 1 0 0 1-1.492-1.327l.078-.087zM7.05 8.464a4 4 0 0 1 5.512-.137l.145.137 2.121 2.122a1 1 0 0 1-1.327 1.492L13.414 12l-2.121-2.121a2 2 0 0 0-2.72-.102l-.109.102-4.242 4.242a2 2 0 0 0-.102 2.72l.102.109 2.828 2.828a2 2 0 0 0 2.72.102l.109-.102 1.414-1.414a1 1 0 0 1 1.492 1.327l-.078.087-1.414 1.414a4 4 0 0 1-5.512.138l-.145-.138-2.828-2.828a4 4 0 0 1-.138-5.512l.138-.145z"/></symbol><symbol viewBox="0 0 24 24" id="ICO_LOCATION_PIN" xmlns="http://www.w3.org/2000/svg"><path fill-rule="evenodd" d="M12 2c3.874 0 6.994 3.28 6.99 7.214l.011.285c.008.927-.202 2.23-.787 3.837-.96 2.639-2.73 5.452-5.49 8.353L12 22.45l-.724-.761c-2.76-2.901-4.53-5.714-5.49-8.353-.627-1.722-.823-3.095-.782-4.03l.006-.252C5.134 5.147 8.205 2 12 2m0 2C9.254 4 7.006 6.362 7.002 9.386L7 9.529c-.004.694.168 1.753.667 3.123.741 2.036 2.038 4.221 4.014 6.507l.32.365.32-.365c1.867-2.159 3.127-4.228 3.886-6.166l.128-.34c.535-1.469.694-2.58.664-3.259l-.008-.32C16.879 6.244 14.676 4 12 4m0 2a3 3 0 1 1-.001 6A3 3 0 0 1 12 6m0 2a1 1 0 1 0 .001 2A1 1 0 0 0 12 8"/></symbol><symbol viewBox="0 0 24 24" id="ICO_LOCK" xmlns="http://www.w3.org/2000/svg"><path d="M12 4a3 3 0 0 1 3 3v3H9V7a3 3 0 0 1 3-3m5 6V7A5 5 0 0 0 7 7v3H4v12h16V10zM6 12h12v8H6z"/><path d="M11 14h2v4h-2z"/></symbol><symbol viewBox="0 0 24 24" id="ICO_LOG_IN" xmlns="http://www.w3.org/2000/svg"><path fill-rule="evenodd" d="M22 2v20h-8v-2h6V4h-6V2zM10.708 6.293 16.415 12l-5.707 5.707-1.415-1.414L12.586 13H2v-2h10.586L9.293 7.707z"/></symbol><symbol viewBox="0 0 24 24" id="ICO_LOG_OUT" xmlns="http://www.w3.org/2000/svg"><path fill-rule="evenodd" d="M10 2v2H4v16h6v2H2V2zm6.707 4.293L22.415 12l-5.708 5.707-1.414-1.414L18.586 13H8v-2h10.586l-3.293-3.293z"/></symbol><symbol viewBox="0 0 24 24" id="ICO_MALE" xmlns="http://www.w3.org/2000/svg"><path d="M12 4a1 1 0 1 0 0 2 1 1 0 0 0 0-2M9 5a3 3 0 1 1 6 0 3 3 0 0 1-6 0m3 6a3 3 0 0 1 3 3v2h-2v4h-2v-4H9v-2a3 3 0 0 1 3-3m3 7h2v-4a5 5 0 0 0-10 0v4h2v4h6z"/></symbol><symbol viewBox="0 0 24 24" id="ICO_MEMO_PRESENT" xmlns="http://www.w3.org/2000/svg"><path d="M22 22v-6l-6 6z"/></symbol><symbol viewBox="0 0 24 24" id="ICO_MEMO_PRESENT_1" xmlns="http://www.w3.org/2000/svg"><path d="M22 22V12L12 22z"/></symbol><symbol viewBox="0 0 24 24" id="ICO_MEMO_PRESENT_2" xmlns="http://www.w3.org/2000/svg"><path d="M22 2v20H2zm-6 12v2h-2v2h2v2h2v-2h2v-2h-2v-2z"/></symbol><symbol viewBox="0 0 24 24" id="ICO_MENU_OVERFLOW" xmlns="http://www.w3.org/2000/svg"><path fill-rule="evenodd" d="m19 17-14 .001v2h14zM5 11.001v2h14v-2zm0-6v2h14V5z"/></symbol><symbol xml:space="preserve" viewBox="0 0 24 24" id="ICO_MESSAGE_ALT" xmlns="http://www.w3.org/2000/svg"><path d="M15 9h2v2h-2zm-4 0h2v2h-2zM7 9h2v2H7z" class="fzst0"/><path d="M2 2v20h3.5l3-4H22V2zm18 14H7.5l-3 4H4V4h16z" class="fzst0"/></symbol><symbol viewBox="0 0 24 24" id="ICO_MINUS" xmlns="http://www.w3.org/2000/svg"><path d="M2 11h20v2H2z"/></symbol><symbol viewBox="0 0 24 24" id="ICO_MINUS_SQUARE" xmlns="http://www.w3.org/2000/svg"><path fill-rule="evenodd" d="M22 2v20H2V2zm-2 2H4v16h16zm-3 7v2H7v-2z"/></symbol><symbol viewBox="0 0 24 24" id="ICO_MOVE_TOGETHER" xmlns="http://www.w3.org/2000/svg"><path d="m5.414 10 1.793 1.793-1.414 1.414L1.586 9l4.207-4.207 1.414 1.414L5.414 8H11v2zm12.793-5.207L22.414 9l-3.207 3.207-1.414-1.414.793-.793H13V8h5.586l-1.793-1.793zm-5.914 7.5a1 1 0 0 1 .982-.254l7 2a1 1 0 0 1 .28 1.793l-1.985 1.323 3.137 3.138-1.414 1.414-3.138-3.137-1.323 1.985a1 1 0 0 1-1.793-.28l-2-7a1 1 0 0 1 .254-.982m2.163 2.163.911 3.19.8-1.2a1 1 0 0 1 .278-.278l1.201-.8z"/></symbol><symbol viewBox="0 0 24 24" id="ICO_NETWORKING" xmlns="http://www.w3.org/2000/svg"><path fill-rule="evenodd" d="M16 2v8h-3v1h6v3h3v8h-8v-8h3v-1H7v1h3v8H2v-8h3v-3h6v-1H8V2zM8 16H4v4h4zm12 0h-4v4h4zM14 4h-4v4h4z"/></symbol><symbol viewBox="0 0 24 24" id="ICO_NEUTRAL_FILLED" xmlns="http://www.w3.org/2000/svg"><path d="M12 22c5.523 0 10-4.477 10-10S17.523 2 12 2 2 6.477 2 12s4.477 10 10 10M8 10V8h2v2zm6 0V8h2v2zm-7 4h10v2H7z"/></symbol><symbol viewBox="0 0 24 24" id="ICO_NOTE" xmlns="http://www.w3.org/2000/svg"><path d="M2 2h20v11.518L12.378 22H2zm2 2v16h7v-8h9V4zm14.429 10H13v4.785z"/></symbol><symbol viewBox="0 0 24 24" id="ICO_NOTES_ADD" xmlns="http://www.w3.org/2000/svg"><path fill-rule="evenodd" d="M21 2v20H3V2zm-2 2H5v16h14zm-6 4v3h3v2h-3v3h-2v-3H8v-2h3V8z"/></symbol><symbol viewBox="0 0 24 24" id="ICO_NULL_VALUE" xmlns="http://www.w3.org/2000/svg"><path d="M12 4c-3.094 0-6 3.333-6 8 0 1.427.272 2.729.737 3.849l9.5-9.5C15.117 4.872 13.583 4 12 4m5.662.924 2.63-2.631 1.415 1.414-2.946 2.946C19.553 8.228 20 10.077 20 12c0 5.274-3.362 10-8 10-2.277 0-4.247-1.14-5.662-2.924l-2.63 2.631-1.415-1.414 2.946-2.946C4.447 15.772 4 13.923 4 12 4 6.726 7.362 2 12 2c2.277 0 4.247 1.14 5.662 2.924m-.399 3.227-9.5 9.5C8.883 19.128 10.417 20 12 20c3.094 0 6-3.333 6-8 0-1.427-.271-2.729-.737-3.849"/></symbol><symbol viewBox="0 0 24 24" id="ICO_ORACLE_CHAT_OUTLINE" xmlns="http://www.w3.org/2000/svg"><path d="M3.6 21H3c-.6 0-1-.4-1-1V5c0-1.1.9-2 2-2h16c1.1 0 2 .9 2 2v10c0 1.1-.9 2-2 2H8.8c-.5 0-1 .2-1.4.6l-3.1 3.1c-.2.2-.4.3-.7.3M4 5v13.2l2-2c.8-.8 1.8-1.2 2.8-1.2H20V5z"/></symbol><symbol viewBox="0 0 24 24" id="ICO_OVERFLOW_H" xmlns="http://www.w3.org/2000/svg"><path d="M6 12a2 2 0 1 1-4 0 2 2 0 0 1 4 0m8 0a2 2 0 1 1-4 0 2 2 0 0 1 4 0m8 0a2 2 0 1 1-4 0 2 2 0 0 1 4 0"/></symbol><symbol viewBox="0 0 24 24" id="ICO_OVERFLOW_VERT" xmlns="http://www.w3.org/2000/svg"><path fill-rule="evenodd" d="M12 18a2 2 0 1 1 0 4 2 2 0 0 1 0-4m0-8a2 2 0 1 1 0 4 2 2 0 0 1 0-4m0-8a2 2 0 1 1 0 4 2 2 0 0 1 0-4"/></symbol><symbol viewBox="0 0 24 24" id="ICO_PAGINATION" xmlns="http://www.w3.org/2000/svg"><path d="M13.414 2H7v12h10V5.586zM9 12V4h3.586L15 6.414V12zm-2.293 3.707L4.414 18l2.293 2.293-1.414 1.414L1.586 18l3.707-3.707zM22.414 18l-3.707-3.707-1.414 1.414L19.586 18l-2.293 2.293 1.414 1.414zM8 19a1 1 0 1 0 0-2 1 1 0 0 0 0 2m9-1a1 1 0 1 1-2 0 1 1 0 0 1 2 0m-5 1a1 1 0 1 0 0-2 1 1 0 0 0 0 2"/></symbol><symbol viewBox="0 0 24 24" id="ICO_PARTNERS" xmlns="http://www.w3.org/2000/svg"><path d="M6 4a1 1 0 1 0 0 2 1 1 0 0 0 0-2M3 5a3 3 0 1 1 6 0 3 3 0 0 1-6 0m15-1a1 1 0 1 0 0 2 1 1 0 0 0 0-2m-3 1a3 3 0 1 1 6 0 3 3 0 0 1-6 0M3 9h5.414L12 12.586 15.586 9H21v13h-2v-4h-2v4h-2v-9.586l-3 3-3-3V22H7v-4H5v4H3zm2 7h2v-5H5zm12-5v5h2v-5z"/></symbol><symbol viewBox="0 0 24 24" id="ICO_PAUSE" xmlns="http://www.w3.org/2000/svg"><path fill-rule="evenodd" d="M11 3v18H5V3zm8 0v18h-6V3zM9 5H7v14h2zm8 0h-2v14h2z"/></symbol><symbol viewBox="0 0 24 24" id="ICO_PIN" xmlns="http://www.w3.org/2000/svg"><path d="m13.5 1.1-3.1 3.2.6 2.1-2.8 2.7H4.1l-2.3 2.4 4.1 4.1-4.1 4.1 1.4 1.4L7.3 17l4.1 4.1 2.4-2.4v-4l2.8-2.8 2.1.7 3.2-3.2zm4.5 9.2-2-.7-4.2 4.3v4l-.4.4-6.8-6.8.4-.4h4l4.2-4.2-.7-2.1 1-.8L19 9.5z"/></symbol><symbol viewBox="0 0 24 24" id="ICO_PIN_COLUMNS" xmlns="http://www.w3.org/2000/svg"><path d="M2 2h18v8h-2V4h-6v11h-2V4H4v16h7v2H2z"/><path d="M17.836 13.182 19 12l4 4.002-1.186 1.173-1.205-.391-2.027 2.056v2.346l-.805.814-1.68-1.682-2.39 2.39-1.414-1.415 2.39-2.39L13 17.222l.782-.8h2.4l2.036-2.02-.382-1.219z"/></symbol><symbol viewBox="0 0 24 24" id="ICO_PIN_ROWS" xmlns="http://www.w3.org/2000/svg"><path d="M2 3h20v7h-2V5H4v6h12v2H4v6h7v2H2z"/><path d="M17.836 13.182 19 12l4 4.002-1.186 1.173-1.205-.391-2.027 2.056v2.346l-.805.814-1.68-1.682-2.39 2.39-1.414-1.415 2.39-2.39L13 17.222l.782-.8h2.4l2.036-2.02-.382-1.219z"/></symbol><symbol viewBox="0 0 24 24" id="ICO_PLAY" xmlns="http://www.w3.org/2000/svg"><path d="M5 22V2l17 10zM7 5.5v13L18 12z"/></symbol><symbol viewBox="0 0 24 24" id="ICO_PLAYLIST_ADD_CHECK" xmlns="http://www.w3.org/2000/svg"><path fill-rule="evenodd" d="M18 11v4h4v2h-4v4h-2v-4h-4v-2h4v-4zm-8 4v2l-8 .001V15zm0-4v2l-8 .001V11zm12-3.999v2H2v-2zM22 3v2L2 5.001V3z"/></symbol><symbol viewBox="0 0 24 24" id="ICO_PLUS" xmlns="http://www.w3.org/2000/svg"><path d="M13 11V2h-2v9H2v2h9v9h2v-9h9v-2z"/></symbol><symbol viewBox="0 0 24 24" id="ICO_PLUS_SQUARE" xmlns="http://www.w3.org/2000/svg"><path fill-rule="evenodd" d="M22 2v20H2V2zm-2 2H4v16h16zm-7 3v4h4v2h-4v4h-2v-4H7v-2h4V7z"/></symbol><symbol viewBox="0 0 24 24" id="ICO_POLYMORPH" xmlns="http://www.w3.org/2000/svg"><path d="M17 2.197 22.869 11H11.132zM5 6.586l4.293-4.293 1.414 1.414L6.414 8H9v2H3V4h2zM14.868 9h4.263L17 5.803zM2 14h8v8H2zm2 2v4h4v-4zm13.586 0H15v-2h6v6h-2v-2.586l-4.293 4.293-1.414-1.414z"/></symbol><symbol viewBox="0 0 24 24" id="ICO_PRINT" xmlns="http://www.w3.org/2000/svg"><path fill-rule="evenodd" d="M18 2v5.999L22 8v10l-4-.001V22H6v-4.001H2V8l4-.001V2zM8 20h8v-6H8zm10-4h2v-6l-2-.001V10H6v-.001L4 10v6h2v-4h12zM16 4H8v3.999h8z"/></symbol><symbol viewBox="0 0 24 24" id="ICO_PRODUCT_CATEGORY" xmlns="http://www.w3.org/2000/svg"><path d="M8 2h8v7H8zM2 13h20v-2H2zm1 2H2v7h8v-7zm1 5v-3h4v3zm11-5h-1v7h8v-7zm1 5v-3h4v3z"/></symbol><symbol viewBox="0 0 24 24" id="ICO_PURCHASE_ORDER" xmlns="http://www.w3.org/2000/svg"><path d="M6 2h10.414L22 7.586V22h-9v-2h7V9h-5V4H8v5H6zm11 3.414V7h1.586zM7 10.821l5 3.125v5.608L7 22.68l-5-3.125v-5.608zm-3 5.483v2.142l2 1.25v-2.142zm4 3.392 2-1.25v-2.142l-2 1.25zM7 15.82l2.113-1.32L7 13.18 4.887 14.5z"/></symbol><symbol viewBox="0 0 24 24" id="ICO_PUZZLE" xmlns="http://www.w3.org/2000/svg"><path fill-rule="evenodd" d="M11.8 3.005a4 4 0 0 0-3.63 2.84L8.125 6H4v16h16v-6h-1a2 2 0 1 1 0-4h1V6h-4.127l-.042-.155A4 4 0 0 0 12 3zM12 5a2 2 0 0 1 2 2v1h4v2.126l-.155.043A4 4 0 0 0 15 14l.005.2a4 4 0 0 0 2.84 3.63l.155.043V20H6V8h4V7a2 2 0 0 1 2-2"/></symbol><symbol viewBox="0 0 24 24" id="ICO_RANK_1_FILLED" xmlns="http://www.w3.org/2000/svg"><path d="M12 22c5.523 0 10-4.477 10-10S17.523 2 12 2 2 6.477 2 12s4.477 10 10 10m-.27-11.715-1.66.56v-.92l2.12-1.51h1.11v7.17h-1.57z"/></symbol><symbol viewBox="0 0 24 24" id="ICO_RANK_1_OUTLINE" xmlns="http://www.w3.org/2000/svg"><path d="M12 4a8 8 0 1 0 0 16 8 8 0 0 0 0-16M2 12C2 6.477 6.477 2 12 2s10 4.477 10 10-4.477 10-10 10S2 17.523 2 12"/><path d="M11.71 15.585v-5.3l-1.66.56v-.92l2.12-1.51h1.11v7.17z"/></symbol><symbol viewBox="0 0 24 24" id="ICO_RANK_2_FILLED" xmlns="http://www.w3.org/2000/svg"><path d="M12 22c5.523 0 10-4.477 10-10S17.523 2 12 2 2 6.477 2 12s4.477 10 10 10m-2.365-7.4 1.82-2q.53-.58.82-.94.3-.37.42-.62.12-.26.12-.48 0-.91-1.15-.91-.81 0-1.84.55V8.86q.47-.24 1.01-.37a4.3 4.3 0 0 1 1.07-.14q1.16 0 1.8.53t.64 1.51q0 .4-.16.8a4.2 4.2 0 0 1-.53.9q-.36.49-.98 1.18l-1.01 1.11h2.7v1.27h-4.73z"/></symbol><symbol viewBox="0 0 24 24" id="ICO_RANK_2_OUTLINE" xmlns="http://www.w3.org/2000/svg"><path d="M12 4a8 8 0 1 0 0 16 8 8 0 0 0 0-16M2 12C2 6.477 6.477 2 12 2s10 4.477 10 10-4.477 10-10 10S2 17.523 2 12"/><path d="M9.635 15.65V14.6l1.82-2q.53-.58.82-.94.3-.37.42-.62.12-.26.12-.48 0-.91-1.15-.91-.81 0-1.84.55V8.86q.47-.24 1.01-.37a4.3 4.3 0 0 1 1.07-.14q1.16 0 1.8.53t.64 1.51q0 .4-.16.8a4.2 4.2 0 0 1-.53.9q-.36.49-.98 1.18l-1.01 1.11h2.7v1.27z"/></symbol><symbol viewBox="0 0 24 24" id="ICO_RANK_3_FILLED" xmlns="http://www.w3.org/2000/svg"><path d="M12 22c5.523 0 10-4.477 10-10S17.523 2 12 2 2 6.477 2 12s4.477 10 10 10m-2.43-8.13q.41.22.95.35.54.12 1.03.12.71 0 1.09-.29t.38-.83q0-.51-.3-.79-.29-.28-.86-.28a2.8 2.8 0 0 0-1.02.19l-.49-.82 1.8-1.9H9.7V8.35h4.43v1.03l-1.72 1.76q.97.11 1.49.68.53.56.53 1.41 0 .75-.34 1.3a2.2 2.2 0 0 1-.98.83q-.63.29-1.5.29-.57 0-1.1-.12a3.5 3.5 0 0 1-.94-.33z"/></symbol><symbol viewBox="0 0 24 24" id="ICO_RANK_3_OUTLINE" xmlns="http://www.w3.org/2000/svg"><path d="M12 4a8 8 0 1 0 0 16 8 8 0 0 0 0-16M2 12C2 6.477 6.477 2 12 2s10 4.477 10 10-4.477 10-10 10S2 17.523 2 12"/><path d="M9.57 15.2v-1.33q.41.22.95.35.54.12 1.03.12.71 0 1.09-.29t.38-.83q0-.51-.3-.79-.29-.28-.86-.28a2.8 2.8 0 0 0-1.02.19l-.49-.82 1.8-1.9H9.7V8.35h4.43v1.03l-1.72 1.76q.97.11 1.49.68.53.56.53 1.41 0 .75-.34 1.3a2.2 2.2 0 0 1-.98.83q-.63.29-1.5.29-.57 0-1.1-.12a3.5 3.5 0 0 1-.94-.33"/></symbol><symbol viewBox="0 0 24 24" id="ICO_RANK_4_FILLED" xmlns="http://www.w3.org/2000/svg"><path d="M12.475 10.485v2.06l-.03.38h-1.75z"/><path d="M12 22c5.523 0 10-4.477 10-10S17.523 2 12 2 2 6.477 2 12s4.477 10 10 10m-2.915-8.975 3.44-4.61h1.39v4.51h1v1.3h-1v1.36h-1.48v-1.36h-3.35z"/></symbol><symbol viewBox="0 0 24 24" id="ICO_RANK_4_OUTLINE" xmlns="http://www.w3.org/2000/svg"><path d="M12 4a8 8 0 1 0 0 16 8 8 0 0 0 0-16M2 12C2 6.477 6.477 2 12 2s10 4.477 10 10-4.477 10-10 10S2 17.523 2 12"/><path d="M9.085 14.225v-1.2l3.44-4.61h1.39v4.51h1v1.3h-1v1.36h-1.48v-1.36zm3.39-1.68v-2.06l-1.78 2.44h1.75z"/></symbol><symbol viewBox="0 0 24 24" id="ICO_RANK_5_FILLED" xmlns="http://www.w3.org/2000/svg"><path d="M12 22c5.523 0 10-4.477 10-10S17.523 2 12 2 2 6.477 2 12s4.477 10 10 10m-2.415-8.13a4.6 4.6 0 0 0 2.04.47q.64 0 1.01-.3t.37-.82q0-.5-.31-.78-.3-.28-.86-.28-.65 0-1.33.3l-.88-.69.42-3.42h3.95v1.27h-2.83l-.18 1.56q.51-.18 1.04-.18 1.11 0 1.75.6.64.59.64 1.63 0 .73-.33 1.28-.33.54-.94.84-.6.3-1.41.3-.62 0-1.19-.12a3.8 3.8 0 0 1-.96-.33z"/></symbol><symbol viewBox="0 0 24 24" id="ICO_RANK_5_OUTLINE" xmlns="http://www.w3.org/2000/svg"><path d="M12 4a8 8 0 1 0 0 16 8 8 0 0 0 0-16M2 12C2 6.477 6.477 2 12 2s10 4.477 10 10-4.477 10-10 10S2 17.523 2 12"/><path d="M9.585 15.2v-1.33a4.6 4.6 0 0 0 2.04.47q.64 0 1.01-.3t.37-.82q0-.5-.31-.78-.3-.28-.86-.28-.65 0-1.33.3l-.88-.69.42-3.42h3.95v1.27h-2.83l-.18 1.56q.51-.18 1.04-.18 1.11 0 1.75.6.64.59.64 1.63 0 .73-.33 1.28-.33.54-.94.84-.6.3-1.41.3-.62 0-1.19-.12a3.8 3.8 0 0 1-.96-.33"/></symbol><symbol viewBox="0 0 24 24" id="ICO_REDO" xmlns="http://www.w3.org/2000/svg"><path fill-rule="evenodd" d="M7.996 5c1.603 0 3.11.624 4.243 1.757l7.757 7.816V9h2v9h-9v-2l5.597-.001-7.77-7.83a4.004 4.004 0 0 0-5.655.002 4.005 4.005 0 0 0 0 5.658l2.525 2.454L6.3 17.717l-2.536-2.464c-2.35-2.35-2.35-6.156-.01-8.496A5.96 5.96 0 0 1 7.996 5"/></symbol><symbol viewBox="0 0 24 24" id="ICO_REFRESH" xmlns="http://www.w3.org/2000/svg"><path fill-rule="evenodd" d="M10.364 4c4.665 0 8.492 3.29 8.632 7.747L19 12v1.585l1.293-1.292 1.414 1.414L18 17.414l-3.707-3.707 1.414-1.414L17 13.585V12c0-3.419-2.935-6-6.636-6C6.853 6 4 8.906 4 12.5S6.853 19 10.364 19a6.24 6.24 0 0 0 3.764-1.258l.228-.18 1.272 1.544A8.25 8.25 0 0 1 10.364 21C5.74 21 2 17.19 2 12.5S5.74 4 10.364 4"/></symbol><symbol viewBox="0 0 24 24" id="ICO_REMOVE_COLUMN" xmlns="http://www.w3.org/2000/svg"><path d="M3 2h18v14h-2V4h-6v16h1v2H3zm8 18V4H5v16zm5 0v-2h6v2z"/></symbol><symbol viewBox="0 0 24 24" id="ICO_REMOVE_ROW" xmlns="http://www.w3.org/2000/svg"><path d="M2 3h20v13h-2v-3H4v6h10v2H2zm2 8h16V5H4zm12 7h6v2h-6z"/></symbol><symbol viewBox="0 0 24 24" id="ICO_RESIZE" xmlns="http://www.w3.org/2000/svg"><path fill-rule="evenodd" d="M2 12v10h10v-2H4v-8zm6.638 1.948L7.31 15.275l1.414 1.414 1.327-1.327zm3.319-3.32-1.328 1.33 1.415 1.413 1.327-1.328zM12 2v2h8v8h2V2zm3.276 5.31-1.328 1.327 1.414 1.414 1.328-1.327z"/></symbol><symbol viewBox="0 0 24 24" id="ICO_ROWS" xmlns="http://www.w3.org/2000/svg"><path d="M2 22V2h20v20zm2-2h16v-4H4zm0-6h16v-4H4zM20 4H4v4h16z"/></symbol><symbol viewBox="0 0 24 24" id="ICO_SAVE" xmlns="http://www.w3.org/2000/svg"><path d="M2 2h14.414L22 7.586V22H2zm2 2v16h2v-7h12v7h2V8.414l-4-4V10H7V4zm5 0v4h5V4zm7 16v-5H8v5z"/></symbol><symbol viewBox="0 0 24 24" id="ICO_SAVE_AS" xmlns="http://www.w3.org/2000/svg"><path d="M18.7 12.3c-.4-.4-1-.4-1.4 0l-5 5-.3.3V22h4.4l.3-.3 5-5c.4-.4.4-1 0-1.4zM15.6 20H14v-1.6l4-4 1.6 1.6z"/><path d="m21.7 7.3-5-5-.3-.3H2v20h8v-2H4V4h3v6h9V4.4l4 4V11h2V7.6zM14 8H9V4h5z"/></symbol><symbol viewBox="0 0 24 24" id="ICO_SEARCH" xmlns="http://www.w3.org/2000/svg"><path fill-rule="evenodd" d="M10 2a8 8 0 0 1 6.317 12.91l5.383 5.384-1.414 1.414-5.386-5.384A8 8 0 1 1 10 2m0 2a6 6 0 1 0 0 12 6 6 0 0 0 0-12"/></symbol><symbol viewBox="0 0 24 24" id="ICO_SEPARATOR" xmlns="http://www.w3.org/2000/svg"><path fill-rule="evenodd" d="M4 9V2H2v9h20V2h-2v7zm-2 4h20v9h-2v-7H4v7H2z" clip-rule="evenodd"/></symbol><symbol viewBox="0 0 24 24" id="ICO_SET_DATA" xmlns="http://www.w3.org/2000/svg"><path fill-rule="evenodd" d="m21.293 16.293 1.414 1.414L18 22.414l-2.707-2.707 1.414-1.414L18 19.585zM11 2l.307.002C16.105 2.064 20 3.575 20 6v6c0 2.425-3.895 3.936-8.693 3.998L11 16q-.195 0-.386-.003L11 16a24 24 0 0 1-1.723-.064 21 21 0 0 1-1.672-.197 17 17 0 0 1-1.092-.216 14 14 0 0 1-.672-.176l.056.016a12 12 0 0 1-.359-.107l-.024-.008a11 11 0 0 1-.865-.319 9 9 0 0 1-.583-.273L4 14.62V18c0 .816 2.944 1.94 6.702 1.998L11 20c.828 0 1.635-.05 2.397-.144l.453-.063.3 1.978c-.994.15-2.057.229-3.15.229-4.835 0-8.83-1.46-8.995-3.846L2 18V6l.005-.154C2.17 3.46 6.165 2 11 2m7 6.619-.066.037a8 8 0 0 1-.583.273 9 9 0 0 1-.865.319l-.024.008a12 12 0 0 1-.36.107l.057-.016a14 14 0 0 1-1.107.272 16 16 0 0 1-.802.143 19 19 0 0 1-1.552.176A22 22 0 0 1 11 10l.386-.003a24 24 0 0 1-2.11-.061 21 21 0 0 1-1.671-.197 17 17 0 0 1-1.092-.216 14 14 0 0 1-.672-.176l.056.016a12 12 0 0 1-.359-.107l-.024-.008a11 11 0 0 1-.865-.319 9 9 0 0 1-.583-.273l.228.113a8 8 0 0 1-.228-.113L4 8.62V12a.46.46 0 0 0 .098.27l-.018-.027a1 1 0 0 0 .097.124 1.4 1.4 0 0 0 .151.142l-.034-.029q.043.038.091.074l-.057-.045q.05.04.107.082l-.05-.037.061.045-.01-.008a3 3 0 0 0 .262.167 4 4 0 0 0 .263.139l-.035-.018q.07.036.145.07l-.11-.052.141.066-.031-.014a7 7 0 0 0 .56.228l-.114-.042a9 9 0 0 0 .748.247l-.05-.014a12 12 0 0 0 .513.139l-.119-.03.248.061-.13-.031.194.046-.064-.015q.12.03.245.057l-.181-.042.23.052-.049-.01.193.04-.143-.03q.134.03.273.057l-.13-.026a16 16 0 0 0 .902.16l.203.029a18 18 0 0 0 1.628.15A20 20 0 0 0 11 14l.298-.002a20 20 0 0 0 1.182-.054l-.073.005.177-.013-.104.008.274-.023-.17.015.253-.023-.083.008a19 19 0 0 0 .671-.073l-.116.014.298-.038.196-.028a17 17 0 0 0 1.16-.216l-.13.029.21-.047-.08.018.212-.05-.132.032q.135-.031.264-.064l-.132.033.186-.047-.054.014.21-.055-.156.041.217-.057-.06.016a12 12 0 0 0 .486-.142l-.087.027.223-.072-.136.045.18-.06-.044.015a9 9 0 0 0 .428-.154l-.073.028q.076-.028.147-.058l-.074.03.154-.063-.08.033.153-.063-.073.03q.085-.035.164-.07l-.091.04.18-.081-.089.04q.069-.03.133-.062l-.044.022.115-.056-.07.034a5 5 0 0 0 .378-.205l-.096.057a4 4 0 0 0 .318-.208l-.044.033a2 2 0 0 0 .105-.082l-.061.049q.045-.034.084-.068l-.023.019a1.5 1.5 0 0 0 .204-.208l.04-.06A.45.45 0 0 0 18 12zM11 4C7.101 4 4 5.163 4 6s3.101 2 7 2l.298-.002C15.056 7.94 18 6.816 18 6c0-.837-3.101-2-7-2"/></symbol><symbol viewBox="0 0 24 24" id="ICO_SHARE" xmlns="http://www.w3.org/2000/svg"><path fill-rule="evenodd" d="M18 2a4 4 0 1 1-2.917 6.737l-5.206 2.274a4 4 0 0 1 0 1.977l5.209 2.272a4 4 0 1 1-.962 1.748l-5.207-2.27a4 4 0 1 1 0-5.474l5.206-2.275A4 4 0 0 1 18 2m0 14c-.695 0-1.308.355-1.666.894l-.05.1a1 1 0 0 1-.065.097l-.033.066A2 2 0 1 0 18 16M6 10a2 2 0 1 0 1.716 3.027l.01-.02.024-.038c.16-.287.25-.618.25-.969a2 2 0 0 0-.254-.976l-.02-.03A1.99 1.99 0 0 0 6 10m12-6a2 2 0 0 0-1.75 2.969l.024.037.01.017A2 2 0 1 0 18 4"/></symbol><symbol viewBox="0 0 24 24" id="ICO_SHUFFLE" xmlns="http://www.w3.org/2000/svg"><path fill-rule="evenodd" d="M22 2v7h-2l-.019-3.502-16.548 17.21L2 21.292 18.628 4H15V2zm-6.391 12.293 4.372 4.304L20 15h2v7h-7v-2h3.535l-4.36-4.293zm-12.176-13 7.095 7-1.434 1.414-7.094-7z"/></symbol><symbol viewBox="0 0 24 24" id="ICO_SLIDERS" xmlns="http://www.w3.org/2000/svg"><path d="M2 11h12v2H2zm6 7H2v2h6v2h2v-6H8zm2-10h2V2h-2v2H2v2h8zm8 1h-2v6h2v-2h4v-2h-4zm-4-5h8v2h-8zm-2 14h10v2H12z"/></symbol><symbol viewBox="0 0 24 24" id="ICO_SORT" xmlns="http://www.w3.org/2000/svg"><path fill-rule="evenodd" d="m8 2 5.707 5.707-1.414 1.414L9 5.828V22H7V5.828L3.707 9.121 2.293 7.707zm9 0v16.173l3.293-3.294 1.414 1.414L16 22l-5.707-5.707 1.414-1.414L15 18.173V2z"/></symbol><symbol viewBox="0 0 24 24" id="ICO_SORT_RELEVANCE_HIGH" xmlns="http://www.w3.org/2000/svg"><path fill-rule="evenodd" d="m6 2 4 3.553L8.474 7 7 5.602v12.796L8.474 17 10 18.447 6 22l-4-3.553L3.526 17 5 18.398V5.601L3.526 7 2 5.553zm8 14v2h-2v-2zm4-5v2h-6v-2zm4-5v2H12V6z"/></symbol><symbol viewBox="0 0 24 24" id="ICO_SORT_RELEVANCE_LOW" xmlns="http://www.w3.org/2000/svg"><path fill-rule="evenodd" d="m6 2 4 3.553L8.474 7 7 5.602v12.796L8.474 17 10 18.447 6 22l-4-3.553L3.526 17 5 18.398V5.601L3.526 7 2 5.553zm16 14v2H12v-2zm-4-5v2h-6v-2zm-4-5v2h-2V6z"/></symbol><symbol viewBox="0 0 24 24" id="ICO_SPELL_CHECK" xmlns="http://www.w3.org/2000/svg"><path fill-rule="evenodd" d="m21.293 9.397 1.414 1.414L18 15.518l-2.707-2.707 1.414-1.414L18 12.689zM4 10.68q.833 0 1.268.38t.436 1.091v2.857h-.792l-.16-.592-.092.122a1.6 1.6 0 0 1-.472.382 1.63 1.63 0 0 1-.772.184q-.656 0-1.036-.36c-.38-.36-.38-.57-.38-.992q0-.665.504-1.049c.504-.384.789-.384 1.36-.384h.696v-.15l-.005-.112q-.024-.258-.171-.346-.175-.103-.552-.104-.672 0-1.448.304v-.92l.167-.064q.26-.094.581-.159.428-.088.868-.088M7.612 9v2.08l.132-.106q.405-.294.94-.294.816 0 1.26.556t.444 1.58q0 .704-.28 1.22c-.28.516-.453.608-.8.792s-.763.276-1.248.276q-.408 0-.872-.088c-.464-.088-.573-.13-.792-.216V9zm5.276 1.68q.552 0 1.08.184v.936l-.16-.072a1.9 1.9 0 0 0-.704-.128q-.561 0-.864.308-.304.308-.304.94 0 .608.268.964c.268.356.441.356.788.356q.257 0 .528-.064c.271-.064.371-.102.568-.176v.952l-.175.06a3.6 3.6 0 0 1-1.097.164q-2.104 0-2.104-2.256 0-1.008.58-1.588t1.596-.58m-8.304 2.344h-.568l-.159.006a.97.97 0 0 0-.485.154.52.52 0 0 0-.228.456q0 .575.584.576a.9.9 0 0 0 .488-.137q.224-.135.368-.368zm3.788-1.472q-.449 0-.776.407v2.153l.086.028q.08.024.142.032.091.012.22.012 1.12 0 1.12-1.376 0-.6-.208-.928c-.208-.328-.333-.328-.584-.328"/></symbol><symbol viewBox="0 0 24 24" id="ICO_SQUARE" xmlns="http://www.w3.org/2000/svg"><path fill-rule="evenodd" d="M4 20h16V4H4zm-2 2h20V2H2z"/></symbol><symbol viewBox="0 0 24 24" id="ICO_STAR" xmlns="http://www.w3.org/2000/svg"><path d="m12.146 1.965 3.641 6.453 6.611 1.374-5.006 4.62 1.054 7.314-6.3-3.238-6.3 3.238 1.053-7.315-5.006-4.62 6.611-1.373zm0 4.07L9.8 10.19l-3.693.768 2.921 2.696-.65 4.521 3.768-1.936 3.768 1.936-.651-4.521 2.921-2.696-3.693-.768-2.345-4.156z"/></symbol><symbol viewBox="0 0 24 24" id="ICO_STAR_FULL" xmlns="http://www.w3.org/2000/svg"><path fill-rule="evenodd" d="m8.246 7.346 2.857-5.789a1 1 0 0 1 1.794 0l2.857 5.79 6.39.934a1 1 0 0 1 .554 1.705l-4.623 4.503 1.09 6.362a1 1 0 0 1-1.45 1.054L12 18.9l-5.715 3.005a1 1 0 0 1-1.45-1.054l1.09-6.362-4.623-4.503a1 1 0 0 1 .553-1.705z"/></symbol><symbol viewBox="0 0 24 24" id="ICO_STOP" xmlns="http://www.w3.org/2000/svg"><path fill-rule="evenodd" d="M3 3h18v18H3zm2 2v14h14V5z"/></symbol><symbol viewBox="0 0 24 24" id="ICO_STOPWATCH" xmlns="http://www.w3.org/2000/svg"><path fill-rule="evenodd" d="m19.293 5.293 1.414 1.414-2.386 2.388a8 8 0 1 1-1.416-1.416zM12 8a6 6 0 1 0 0 12 6 6 0 0 0 0-12m-2.293 2.293L12.415 13H16v2h-4.414l-3.293-3.293zM16 2v2H8V2z"/></symbol><symbol viewBox="0 0 24 24" id="ICO_SUBDIRECTORY_ARROW_UP_RIGHT" xmlns="http://www.w3.org/2000/svg"><path fill-rule="evenodd" d="M16.258 5 22 11l-5.742 6L15 15.7l3.529-3.7H4v3H2v-5h16.531L15 6.3z"/></symbol><symbol viewBox="0 0 24 24" id="ICO_SUBSIDIARY" xmlns="http://www.w3.org/2000/svg"><path d="M12 4a1 1 0 1 0 0 2 1 1 0 0 0 0-2M9 5a3 3 0 1 1 4 2.83v2.732l4.298 3.968a3 3 0 1 1-1.18 1.633L13 13.284v2.887a3.001 3.001 0 1 1-2 0v-2.947L7.84 16.03a3 3 0 1 1-1.244-1.57L11 10.55V7.83A3 3 0 0 1 9 5M5 16a1 1 0 1 0 0 2 1 1 0 0 0 0-2m14 0a1 1 0 0 0-1 1 1 1 0 1 0 1-1m-7 2a1 1 0 1 0 0 2 1 1 0 0 0 0-2"/></symbol><symbol viewBox="0 0 24 24" id="ICO_SUCCESS" xmlns="http://www.w3.org/2000/svg"><path d="M12 4a8 8 0 1 0 0 16 8 8 0 0 0 0-16M2 12C2 6.477 6.477 2 12 2s10 4.477 10 10-4.477 10-10 10S2 17.523 2 12m15.207-2.793L10 16.414l-3.707-3.707 1.414-1.414L10 13.586l5.793-5.793z"/></symbol><symbol viewBox="0 0 24 24" id="ICO_SUCCESS_S" xmlns="http://www.w3.org/2000/svg"><path d="M2 12C2 6.477 6.477 2 12 2s10 4.477 10 10-4.477 10-10 10S2 17.523 2 12m15.207-2.793-1.414-1.414L10 13.586l-2.293-2.293-1.414 1.414L10 16.414z"/></symbol><symbol viewBox="0 0 24 24" id="ICO_SWITCH_OFF" xmlns="http://www.w3.org/2000/svg"><path d="M19 4a3 3 0 0 1 3 3v10a3 3 0 0 1-3 3H5a3 3 0 0 1-3-3V7a3 3 0 0 1 3-3zm0 2H5a1 1 0 0 0-1 1v10a1 1 0 0 0 1 1h14a1 1 0 0 0 1-1V7a1 1 0 0 0-1-1m-7 2a2 2 0 0 1 2 2v4a2 2 0 0 1-2 2H8a2 2 0 0 1-2-2v-4a2 2 0 0 1 2-2z"/></symbol><symbol viewBox="0 0 24 24" id="ICO_SWITCH_ON" xmlns="http://www.w3.org/2000/svg"><path d="M5 4a3 3 0 0 0-3 3v10a3 3 0 0 0 3 3h14a3 3 0 0 0 3-3V7a3 3 0 0 0-3-3zm0 2h14a1 1 0 0 1 1 1v10a1 1 0 0 1-1 1H5a1 1 0 0 1-1-1V7a1 1 0 0 1 1-1m7 2a2 2 0 0 0-2 2v4a2 2 0 0 0 2 2h4a2 2 0 0 0 2-2v-4a2 2 0 0 0-2-2z"/></symbol><symbol viewBox="0 0 24 24" id="ICO_SYNC" xmlns="http://www.w3.org/2000/svg"><path fill-rule="evenodd" d="M10 13v2l-5.297-.001c1.246 1.919 3.922 5 8.297 5a7.96 7.96 0 0 0 7.169-4.444l1.791.89A9.95 9.95 0 0 1 13 22c-4.387 0-7.302-2.466-9-4.573V21H2v-8zm1-11c4.387 0 7.302 2.466 9 4.572V3h2v8h-8V9l5.297.001C18.05 7.082 15.375 4 11 4a7.96 7.96 0 0 0-7.17 4.445l-1.79-.89A9.95 9.95 0 0 1 11 2"/></symbol><symbol viewBox="0 0 24 24" id="ICO_TABLES" xmlns="http://www.w3.org/2000/svg"><path d="M22 22H2v-6h1-1V2h20v14h-1 1zm-6-2h4v-3h-4zm-6 0h4v-3h-4zm-6 0h4v-3H4zm12-5h4v-2.5h-4zm-6 0h4v-2.5h-4zm-6 0h4v-2.5H4zm12-4.5h4V8h-4zm-6 0h4V8h-4zm-6 0h4V8H4zM16 6h4V4h-4zm-6 0h4V4h-4zM4 6h4V4H4z"/></symbol><symbol viewBox="0 0 24 24" id="ICO_TABLES_PIVOT" xmlns="http://www.w3.org/2000/svg"><path d="M2 2v20h20V2zm8 2h4v4h-4zM8 20H4v-2h4zm0-4H4v-2h4zm0-4H4v-2h4zm0-4H4V4h4zm12 12H10V10h10zm0-12h-4V4h4z"/></symbol><symbol viewBox="0 0 24 24" id="ICO_TAG" xmlns="http://www.w3.org/2000/svg"><path fill-rule="evenodd" d="M13.222 2 22 10.76 11.867 22 2 13.23V2zm-.815 1.964h-8.44v8.398l7.76 6.859 7.564-8.389zM8 6.037V8H6.034V6.037z"/></symbol><symbol viewBox="0 0 24 24" id="ICO_TEXT" xmlns="http://www.w3.org/2000/svg"><path fill-rule="evenodd" d="M21 3v4h-2V5h-6v14h2.999v2H8v-2h3V5H5v2H3V3z"/></symbol><symbol viewBox="0 0 24 24" id="ICO_THEMATIC_MAP" xmlns="http://www.w3.org/2000/svg"><path fill-rule="evenodd" d="M2.106 14.554a1 1 0 0 0 .026.944l4 6A1 1 0 0 0 7 22h14a1 1 0 0 0 .868-1.496l-3.734-5.535 3.76-5.521a1 1 0 0 0-.026-.944l-4-6A1 1 0 0 0 17 2.001H3a1 1 0 0 0-.868 1.497l3.734 5.535zM19.16 8.001H7.517l-2.794-4H16.42zm.046 2-2.724 4H4.793l2.724-4zm.07 10H7.58l-2.739-4h11.643z"/></symbol><symbol viewBox="0 0 24 24" id="ICO_THUMBS_DOWN" xmlns="http://www.w3.org/2000/svg"><path fill-rule="evenodd" d="M22 2v11h-5.419l-3.766 9h-.65c-1.607 0-4-1.065-4-4v-3H2L4.308 2zm-7 2H6.023l-1.692 9H10v5c0 1.308.951 1.763 1.552 1.919L15 12zm5 0h-3v7h3z"/></symbol><symbol viewBox="0 0 24 24" id="ICO_THUMBS_DOWN_S" xmlns="http://www.w3.org/2000/svg"><path fill-rule="evenodd" d="M22 13V2h-4v11zm-9.412 9L16 15.859V2H4.166L1.802 15H8v3c0 2.935 2.392 4 4 4z"/></symbol><symbol viewBox="0 0 24 24" id="ICO_THUMBS_UP" xmlns="http://www.w3.org/2000/svg"><path fill-rule="evenodd" d="M22 22V11h-5.419l-3.766-9h-.65c-1.607 0-4 1.065-4 4v3H2l2.308 13zm-7-2H6.023l-1.692-9H10V6c0-1.308.951-1.763 1.552-1.919L15 12zm5 0h-3v-7h3z"/></symbol><symbol viewBox="0 0 24 24" id="ICO_THUMBS_UP_S" xmlns="http://www.w3.org/2000/svg"><path fill-rule="evenodd" d="M22 11v11h-4V11zm-9.412-9L16 8.141V22H4.166L1.802 9H8V6c0-2.935 2.392-4 4-4z"/></symbol><symbol viewBox="0 0 24 24" id="ICO_TIME_OFF" xmlns="http://www.w3.org/2000/svg"><path d="M7 4V2h2v2h6V2h2v2h5v18H2V4zm0 2H4v14h16V6h-3v2h-2V6H9v2H7zm3.586 8-2.293-2.293 1.414-1.414L12 12.586l2.293-2.293 1.414 1.414L13.414 14l2.293 2.293-1.414 1.414L12 15.414l-2.293 2.293-1.414-1.414z"/></symbol><symbol viewBox="0 0 24 24" id="ICO_TRANSFER_MONEY" xmlns="http://www.w3.org/2000/svg"><path d="M13.352 4.102a8 8 0 0 0-8.899 5.23l-1.886-.664A10 10 0 0 1 20 5.987V4h2v8.001L20 12v-.027a8 8 0 0 0-6.647-7.871zM11 7V6h2v1h3v2h-3v2h1a3 3 0 1 1 0 6h-1v1h-2v-1H8v-2h3v-2h-1a3 3 0 1 1 0-6zm0 2h-1a1 1 0 0 0 0 2h1zm2 4v2h1a1 1 0 1 0 0-2zm-9-.974a8 8 0 0 0 15.547 2.642l1.886.664A10 10 0 0 1 4 18.013V20H2v-8.002L4 12z"/></symbol><symbol viewBox="0 0 24 24" id="ICO_TRASH" xmlns="http://www.w3.org/2000/svg"><path fill-rule="evenodd" d="M6 8v12h12V8zm5 2v8H9v-8zm4 0v8h-2v-8zm0-6H9v2H7V2h10v4h5v2h-2v14H4V8H2V6h13z"/></symbol><symbol viewBox="0 0 24 24" id="ICO_UNDO" xmlns="http://www.w3.org/2000/svg"><path fill-rule="evenodd" d="M16 6c1.603 0 3.11.624 4.242 1.757a6.007 6.007 0 0 1 0 8.486l-2.545 2.474-1.394-1.434 2.535-2.465c1.55-1.549 1.55-4.087-.01-5.647a4.006 4.006 0 0 0-5.657 0l-7.769 7.828H11v2H2v-9h2v5.573l7.755-7.813A5.96 5.96 0 0 1 16 6"/></symbol><symbol viewBox="0 0 24 24" id="ICO_UNDO_ALT" xmlns="http://www.w3.org/2000/svg"><path fill-rule="evenodd" d="M20.243 9.758A5.96 5.96 0 0 1 22 14c0 3.31-2.691 6-6 6h-3v-2h3.014C18.206 18 20 16.206 20 14s-1.794-4-4-4H5.83l3.95 3.95-1.415 1.414L2 9l6.364-6.364L9.778 4.05 5.828 8h10.17c1.605 0 3.111.625 4.245 1.758"/></symbol><symbol viewBox="0 0 24 24" id="ICO_UNGROUP" xmlns="http://www.w3.org/2000/svg"><path fill-rule="evenodd" d="M10 14v8H2v-8zm10 0v8h-8v-8zM8 16H4v4h4zm10 0h-4v4h4zM10 4v8H2V4zM8 6H4v4h4zm14-4v8h-8V2zm-2 2h-4v4h4z"/></symbol><symbol viewBox="0 0 24 24" id="ICO_UNHAPPY_FILLED" xmlns="http://www.w3.org/2000/svg"><path d="M12 22c5.523 0 10-4.477 10-10S17.523 2 12 2 2 6.477 2 12s4.477 10 10 10M8 10V8h2v2zm6 0V8h2v2zm-5.21 6.614-1.58-1.228c.693-.89 1.991-1.963 3.694-2.281 1.775-.332 3.805.19 5.803 2.188l-1.414 1.414c-1.602-1.602-2.988-1.83-4.022-1.637-1.106.207-2.007.934-2.482 1.544z"/></symbol><symbol viewBox="0 0 24 24" id="ICO_UNLINK" xmlns="http://www.w3.org/2000/svg"><path fill-rule="evenodd" d="m17.657 16.243 2.828 2.828-1.414 1.414-2.828-2.828zm2.121-2.122.707.707-1.414 1.415-.707-.707zm-4.242 4.243.707.707-1.415 1.414-.707-.707zm-9.9-8.485a1 1 0 0 1 1.492 1.327l-.078.087-2.828 2.828a2 2 0 0 0-.102 2.72l.102.109 2.828 2.828a2 2 0 0 0 2.72.102l.109-.102 2.828-2.828a1 1 0 0 1 1.492 1.327l-.078.087-2.828 2.828a4 4 0 0 1-5.512.138l-.145-.138-2.828-2.828a4 4 0 0 1-.138-5.512l.138-.145zm7.071-7.071.145-.138a4 4 0 0 1 5.512.138l2.828 2.828.138.145a4 4 0 0 1-.138 5.512l-2.828 2.828-.087.078a1 1 0 0 1-1.327-1.492l2.828-2.828.102-.11a2 2 0 0 0-.102-2.719L16.95 4.222l-.11-.102a2 2 0 0 0-2.719.102L11.293 7.05l-.087.078a1 1 0 0 1-1.327-1.492zm-7.778.707 2.828 2.828-1.414 1.414L3.515 4.93zm4.243 0 .707.707-1.415 1.414-.707-.707zM4.929 7.757l.707.707L4.222 9.88l-.707-.707z"/></symbol><symbol viewBox="0 0 24 24" id="ICO_UPLOAD" xmlns="http://www.w3.org/2000/svg"><path fill-rule="evenodd" d="M4 15v5h16v-5h2v7H2v-7zm8-13 5.707 5.707-1.414 1.414-3.294-3.293L13 16.414h-2l-.001-10.586-3.292 3.293-1.414-1.414z"/></symbol><symbol viewBox="0 0 24 24" id="ICO_UP_PARENT" xmlns="http://www.w3.org/2000/svg"><path fill-rule="evenodd" d="m12 5 .999 1H13v.001l4.707 4.706-1.414 1.414L13 8.829V18h-2V8.827l-3.293 3.294-1.414-1.414z"/></symbol><symbol viewBox="0 0 24 24" id="ICO_VERYHAPPY_FILLED" xmlns="http://www.w3.org/2000/svg"><path d="M22 12c0 5.523-4.477 10-10 10S2 17.523 2 12 6.477 2 12 2s10 4.477 10 10m-12-2V8H8v2zm6 0V8h-2v2zm-4 7c3 0 4-1.79 4-4H8c0 2.21 1 4 4 4"/></symbol><symbol viewBox="0 0 24 24" id="ICO_VERYUNHAPPY_FILLED" xmlns="http://www.w3.org/2000/svg"><path d="M22 12c0 5.523-4.477 10-10 10S2 17.523 2 12 6.477 2 12 2s10 4.477 10 10m-12-2V8H8v2zm6 0V8h-2v2zm-7.014 6.666c.121-.72.41-1.389.873-1.865.443-.454 1.108-.801 2.149-.801s1.706.347 2.148.8c.464.477.752 1.145.873 1.866l1.973-.332c-.17-1.005-.592-2.086-1.413-2.929C14.746 12.54 13.553 12 12.008 12s-2.738.54-3.581 1.405c-.821.843-1.244 1.925-1.413 2.929z"/></symbol><symbol viewBox="0 0 24 24" id="ICO_VIEW" xmlns="http://www.w3.org/2000/svg"><path fill-rule="evenodd" d="M12 4q6.416 0 10 8-3.584 8-10 8c-6.416 0-7.61-2.667-10-8q3.584-8 10-8m0 2c-4.41 0-6.707 4.479-7.699 5.999C5.295 13.518 7.604 18 12 18c4.41 0 6.707-4.479 7.699-5.999C18.705 10.482 16.396 6 12 6m0 2c2.176 0 3.945 1.794 3.945 4s-1.77 4-3.945 4c-2.176 0-3.945-1.794-3.945-4S9.825 8 12 8m0 2c-1.088 0-1.973.897-1.973 2s.885 2 1.973 2 1.973-.897 1.973-2-.885-2-1.973-2"/></symbol><symbol viewBox="0 0 24 24" id="ICO_VIEW_HIDE" xmlns="http://www.w3.org/2000/svg"><path fill-rule="evenodd" d="m2.707 1.293 7.17 7.17.002.002 1.504 1.504 7.21 7.21-.001-.001 4.115 4.115-1.414 1.414-4.297-4.296C15.485 19.434 13.82 20 12 20c-2.959 0-5.461-1.46-7.51-3.85a16.6 16.6 0 0 1-1.796-2.56 13 13 0 0 1-.613-1.197L1.91 12l.17-.395c.11-.252.315-.668.618-1.195.5-.872 1.1-1.743 1.803-2.56q.45-.524.94-.993l-4.15-4.149zM6.856 8.27l-.256.252q-.299.3-.581.63a14.7 14.7 0 0 0-1.843 2.718l-.069.13.145.275.179.322c.439.768.966 1.538 1.578 2.252C7.711 16.835 9.71 18 12 18c1.222 0 2.358-.334 3.426-.962l.123-.076-1.517-1.516A4 4 0 0 1 8.553 9.97zM12 4c2.959 0 5.461 1.46 7.51 3.849a16.6 16.6 0 0 1 1.796 2.56l.208.375q.189.352.306.603l.1.219.169.395-.17.395a13 13 0 0 1-.548 1.073c-.37.655-.8 1.318-1.292 1.963l-.302.385-1.553-1.26a15 15 0 0 0 1.404-2.07l.16-.289.104-.201-.144-.273-.178-.322a14.6 14.6 0 0 0-1.58-2.252C16.289 7.165 14.291 6 12.001 6q-.716 0-1.395.151l-.337.085-.537-1.927A8.4 8.4 0 0 1 12 4m-1.933 7.482-.036.166a2 2 0 0 0 2.321 2.321l.164-.038z"/></symbol><symbol viewBox="0 0 24 24" id="ICO_VIEW_PARTIAL" xmlns="http://www.w3.org/2000/svg"><path d="M14.606 6.617a9 9 0 0 0-.65-.249l.64-1.895a11 11 0 0 1 1.895.849l-.984 1.74a9 9 0 0 0-.901-.445m3.929 3.105a10.5 10.5 0 0 0-1.386-1.488l1.323-1.5a12.6 12.6 0 0 1 1.65 1.77zm1.36 2.258q-.126-.27-.259-.524l1.772-.927q.27.514.511 1.077l.176.411-.189.406c-.153.328-.34.69-.557 1.07l-1.736-.993q.155-.271.282-.52m-2.838 3.851a14 14 0 0 0 1.387-1.57l1.59 1.214c-.466.61-.997 1.224-1.589 1.795zm-2.462 1.726q.441-.196.867-.463l1.058 1.697a9 9 0 0 1-1.115.594 8 8 0 0 1-.824.313l-.601-1.908q.31-.098.615-.233M11 4.07V2h2v20h-2v-2.09a9 9 0 0 1-1.319-.337c-2.358-.793-5.423-2.821-7.575-7.126L1.882 12l.224-.447c.53-1.063 1.478-2.54 2.747-3.903C6.116 6.293 7.76 4.984 9.696 4.367A8 8 0 0 1 11 4.069zm0 2.025a6 6 0 0 0-.696.177c-1.488.474-2.853 1.522-3.988 2.741a16 16 0 0 0-2.187 2.992c1.887 3.5 4.394 5.068 6.19 5.672q.365.122.681.193v-1.996a4.002 4.002 0 0 1 0-7.748zm0 4.173a2 2 0 0 0 0 3.464z"/></symbol><symbol viewBox="0 0 24 24" id="ICO_WARNING" xmlns="http://www.w3.org/2000/svg"><path d="M12 1.764 22.118 22H1.882zM5.118 20h13.764L12 6.236zM11 15v-4h2v4zm0 4v-2h2v2z"/></symbol><symbol viewBox="0 0 24 24" id="ICO_WARNING_S" xmlns="http://www.w3.org/2000/svg"><path d="M2 22 12 2l10 20zm9-11v4h2v-4zm0 6v2h2v-2z"/></symbol><symbol viewBox="0 0 24 24" id="ICO_WRAP_LINE" xmlns="http://www.w3.org/2000/svg"><path d="M22 4H2V2h20zM2 6h13.933C19.271 6 22 8.674 22 12s-2.729 6-6.067 6H5.341l2.21 2.309-1.445 1.382L1.616 17l4.49-4.691 1.445 1.382L5.34 16h10.592C18.192 16 20 14.197 20 12s-1.808-4-4.067-4H2z"/></symbol><symbol viewBox="0 0 24 24" id="ICO_WRENCH" xmlns="http://www.w3.org/2000/svg"><path d="M5 22c-.8 0-1.6-.3-2.1-.9-.6-.5-.9-1.3-.9-2.1s.3-1.6.9-2.1l5.5-5.5C8.1 10.6 8 9.8 8 9c0-3.9 3.1-7 7-7 1 0 2 .2 2.9.6l1.2.6L15 7.9V9h1.1l4.3-4.7.7 1.2c.6 1.1.9 2.3.9 3.5 0 3.9-3.1 7-7 7-.8 0-1.6-.1-2.4-.4l-5.5 5.5c-.5.6-1.3.9-2.1.9m4.4-8.8-5.1 5.1c-.2.2-.3.4-.3.7s.1.5.3.7c.4.4 1 .4 1.4 0l5.1-5.1c-.5-.4-1-.9-1.4-1.4M15 4c-2.8 0-5 2.2-5 5s2.2 5 5 5 5-2.2 5-5c0-.4 0-.8-.1-1.2l-3 3.2H13V7.1L15.7 4z"/></symbol><symbol viewBox="0 0 24 24" id="ICO_ZOOM_IN" xmlns="http://www.w3.org/2000/svg"><path fill-rule="evenodd" d="M11 2a9 9 0 0 1 7.032 14.617l3.675 3.676-1.414 1.414-3.676-3.675A9 9 0 1 1 11 2m0 2a7 7 0 1 0 0 14 7 7 0 0 0 0-14m1 3v3h3v2h-3v3h-2v-3H7v-2h3V7z"/></symbol><symbol viewBox="0 0 24 24" id="ICO_ZOOM_OUT" xmlns="http://www.w3.org/2000/svg"><path fill-rule="evenodd" d="M11 2a9 9 0 0 1 7.032 14.617l3.675 3.676-1.414 1.414-3.676-3.675A9 9 0 1 1 11 2m0 2a7 7 0 1 0 0 14 7 7 0 0 0 0-14m4 6v2H7v-2z"/></symbol></svg>