<svg xmlns="http://www.w3.org/2000/svg" xmlns:xlink="http://www.w3.org/1999/xlink"><symbol viewBox="0 0 24 24" id="ACTUAL_SIZE" xmlns="http://www.w3.org/2000/svg"><path fill-rule="evenodd" d="M12.25 16a1.5 1.5 0 1 1 1.5-1.5 1.5 1.5 0 0 1-1.5 1.5M16 7h2v10h-2V9h-1zm-3.75 4a1.5 1.5 0 1 1 1.5-1.5 1.5 1.5 0 0 1-1.5 1.5M7 7h2v10H7V9H6z"/></symbol><symbol viewBox="0 0 24 24" id="ADD" xmlns="http://www.w3.org/2000/svg"><path fill-rule="evenodd" d="M11 5v6H5v2h6v6h2v-6h6v-2h-6V5z"/></symbol><symbol viewBox="0 0 24 24" id="ADD_COLUMN" xmlns="http://www.w3.org/2000/svg"><path d="M4 4v13h6V4zm4.5 11.5h-3v-10h3z"/><path d="M10 16a4 4 0 0 1 0-.5v-10h3v5.31a5.6 5.6 0 0 1 1.5-.61V4h-6v13h1.59a7 7 0 0 1-.09-1m7-4h-2v3h-3v2h3v3h2v-3h3v-2h-3z"/></symbol><symbol viewBox="0 0 24 24" id="ADD_COMMENT" xmlns="http://www.w3.org/2000/svg"><path d="M17.47 12c-.25 2.66-3 4.74-6.41 4.74h-.21L6.38 18v-2.84L6 14.73a4.45 4.45 0 0 1-1.34-3.11c0-2.82 2.89-5.12 6.44-5.12h.9V5h-.94c-4.39 0-7.94 3-7.94 6.62a6 6 0 0 0 1.76 4.15V20l6.18-1.76c4.21 0 7.64-2.73 7.91-6.18V12zM19 2h-2v3h-3v2h3v3h2V7h3V5h-3z"/></symbol><symbol viewBox="0 0 24 24" id="ADD_LEVEL" xmlns="http://www.w3.org/2000/svg"><path d="M4.5 8.5h12v-2h-12zM4 10c-.55 0-1-.45-1-1V6c0-.55.45-1 1-1h13c.55 0 1 .45 1 1v3c0 .55-.45 1-1 1zm0 7c-.55 0-1-.45-1-1v-3c0-.55.45-1 1-1h10v1.5H4.5v2H11V17zm9 0v-2h3v-3h2v3h3v2h-3v3h-2v-3z"/></symbol><symbol viewBox="0 0 24 24" id="ADD_MENU" xmlns="http://www.w3.org/2000/svg"><path d="M4 8V6h11v2zm0 5v-2h11v2zm0 5v-2h7v2zm12-5h2v3h3v2h-3v3h-2v-3h-3v-2h3z"/></symbol><symbol viewBox="0 0 24 24" id="ADD_NODE" xmlns="http://www.w3.org/2000/svg"><path d="M16 12h2v3h3v2h-3v3h-2v-3h-3v-2h3zm-7 3c.55 0 1 .45 1 1v1c0 .55-.45 1-1 1H4c-.55 0-1-.45-1-1v-1c0-.55.45-1 1-1h2v-4h4V8H8c-.55 0-1-.45-1-1V6c0-.55.45-1 1-1h5c.55 0 1 .45 1 1v1c0 .55-.45 1-1 1h-2v3h3v1H7v3z"/></symbol><symbol viewBox="0 0 24 24" id="ADD_RECORD" xmlns="http://www.w3.org/2000/svg"><path d="M19 19h-6v-1.5h4.5V9.62L13.38 5.5H8.5V10H7V4h7l5 5zm-7-4H9v-3H7v3H4v2h3v3h2v-3h3z"/></symbol><symbol viewBox="0 0 24 24" id="ADD_ROW" xmlns="http://www.w3.org/2000/svg"><path d="M10.81 13H5.5v-3h10a4 4 0 0 1 .5 0 7 7 0 0 1 1 .09V4H4v10.5h6.2a5.6 5.6 0 0 1 .61-1.5M5.5 5.5h10v3h-10zM17 12h-2v3h-3v2h3v3h2v-3h3v-2h-3z"/></symbol><symbol viewBox="0 0 24 24" id="AI_SPARKLE" xmlns="http://www.w3.org/2000/svg"><path d="M16.506 2.795a3 3 0 0 1-.106.536c-.183.591-.738.942-1.852 1.169-.11.022-.112.027-.081.211.039.237.04.384.002.596l-.029.167.23.045c.353.069.768.198.978.305.468.237.702.673.851 1.584l.024.149.469-.024c.257-.013.473-.028.479-.033s.037-.167.068-.361c.123-.761.356-1.147.816-1.353.26-.117.796-.266.961-.267.181-.001.193-.032.192-.528v-.47l-.144-.022c-.805-.123-1.155-.235-1.404-.448-.268-.23-.399-.581-.461-1.241l-.027-.29h-.941zm-6.57 1.234-.164.015-.025.498c-.089 1.745-.694 2.736-2.087 3.417-.637.312-1.77.653-2.604.783l-.163.026.056.306c.052.288.049.539-.012.972l-.027.185.295.049c1.91.316 3.047.858 3.645 1.735.422.621.737 1.63.891 2.855l.027.21h.49c.27 0 .599-.011.733-.025l.242-.026.027-.244c.173-1.594.507-2.568 1.096-3.199.596-.639 1.751-1.087 3.375-1.31l.35-.048-.03-.144a6 6 0 0 1-.027-.731l.004-.587-.244-.026c-2.613-.282-3.756-.908-4.224-2.314-.174-.522-.319-1.521-.32-2.196V4l-.57.007c-.313.004-.644.014-.734.022M1.76 13v8.72l1.57-.002 1.57-.002 1.237-1.738 1.237-1.738H19.48v-1.48l-6.43.001-6.43.001-1.254 1.759-1.254 1.759H3.24V5.72h3.24V4.28H1.76zm16.296-2.969c-.024.016-.054.164-.067.329-.046.626-.317 1.042-.845 1.3-.275.135-.957.34-1.129.34-.08 0-.082.011-.047.19.02.105.026.326.012.493l-.024.302.272.05c.403.074.837.23 1.068.385.351.234.57.665.672 1.321l.046.299H19v-.122c0-.178.114-.698.208-.95.095-.253.296-.492.529-.628.192-.112.752-.28 1.063-.319l.22-.028V12h-.114c-.214 0-.926-.165-1.156-.268-.471-.211-.689-.613-.738-1.362l-.024-.37-.444.001c-.244 0-.464.013-.488.03"/></symbol><symbol viewBox="0 0 24 24" id="ALERT" xmlns="http://www.w3.org/2000/svg"><path fill-rule="evenodd" d="M12.75 9v4.5h-1.5V9zm0 6v1.5h-1.5V15zM12 5.5a1.51 1.51 0 0 0-1.33.82l-5 10A1.48 1.48 0 0 0 7 18.5h10a1.5 1.5 0 0 0 1.5-1.5 1.5 1.5 0 0 0-.18-.68l-5-10A1.48 1.48 0 0 0 12 5.5M12 4a3 3 0 0 1 2.66 1.65l5 10A2.94 2.94 0 0 1 20 17a3 3 0 0 1-3 3H7a3 3 0 0 1-3-3 3.06 3.06 0 0 1 .33-1.35l5-10A3 3 0 0 1 12 4"/></symbol><symbol viewBox="0 0 24 24" id="API" xmlns="http://www.w3.org/2000/svg"><path d="m20.61 4.39-1.06-1.06-2.18 2.17a5 5 0 0 0-6.49.5 1 1 0 0 0 0 1.42l5.66 5.65a1 1 0 0 0 1.41 0 5 5 0 0 0 .48-6.48zm-3.39 7.22-4.9-4.9a3.5 3.5 0 0 1 4.9 4.9m-3.75 1.11-2.12 2.12-2.12-2.12 2.12-2.13a.75.75 0 1 0-1.06-1.06l-2.12 2.12-.71-.65a1 1 0 0 0-1.41 0 5 5 0 0 0-.48 6.48l-2.18 2.13 1.06 1.06 2.18-2.17a5 5 0 0 0 6.49-.5 1 1 0 0 0 0-1.42l-.71-.7 2.12-2.12a.75.75 0 0 0 0-1.06.74.74 0 0 0-1.06.02M7.11 17a3.49 3.49 0 0 1-.33-4.57l4.9 4.9A3.52 3.52 0 0 1 7.11 17"/></symbol><symbol viewBox="0 0 24 24" id="APPLICATION" xmlns="http://www.w3.org/2000/svg"><path fill-rule="evenodd" d="M5 5v14h14V5zm12.5 7H12V7h5.5zm-11-5H11v10.5H6.5zM12 17.5V13h5.5v4.5z"/></symbol><symbol viewBox="0 0 24 24" id="APPOINTMENT" xmlns="http://www.w3.org/2000/svg"><path d="m15.47 10.5-4.17 4.1-2.24-2.23L8 13.43l3.3 3.3 5.24-5.16z"/><rect width="1" height="3" x="15" y="3" rx=".5"/><rect width="1" height="3" x="8" y="3" rx=".5"/><path d="M17.5 5v.5a2 2 0 0 1-4 0V5h-3v.5a2 2 0 0 1-4 0V5H5v15h14V5zm0 13.5h-11V9h11z"/></symbol><symbol viewBox="0 0 24 24" id="ARROW_DIAGONAL_DOWN" xmlns="http://www.w3.org/2000/svg"><path d="M17 9.93V17H9.93l2.83-2.83-6.37-6.36 1.42-1.42 6.36 6.37Z"/></symbol><symbol viewBox="0 0 24 24" id="ARROW_DIAGONAL_UP" xmlns="http://www.w3.org/2000/svg"><path d="M17 14.07V7H9.93l2.83 2.83-6.37 6.36 1.42 1.42 6.36-6.37Z"/></symbol><symbol viewBox="0 0 24 24" id="ARROW_DOWN" xmlns="http://www.w3.org/2000/svg"><path d="m18 12.75-1.209-1.259-3.934 4.09V5h-1.714v10.58l-3.934-4.098L6 12.75 12 19z"/></symbol><symbol viewBox="0 0 24 24" id="ARROW_LEFT" xmlns="http://www.w3.org/2000/svg"><path d="m11.25 18 1.259-1.209-4.09-3.934H19v-1.714H8.42l4.098-3.934L11.25 6 5 12z"/></symbol><symbol viewBox="0 0 24 24" id="ARROW_PARENT" xmlns="http://www.w3.org/2000/svg"><path fill-rule="evenodd" d="M5.608 12.509 4.4 11.25l6-6.25 6 6.25-1.209 1.268-3.934-4.098v8.88h8.293V19H9.543V8.42z" clip-rule="evenodd"/></symbol><symbol viewBox="0 0 24 24" id="ARROW_RIGHT" xmlns="http://www.w3.org/2000/svg"><path d="m12.75 6-1.259 1.209 4.09 3.934H5v1.714h10.58l-4.098 3.934L12.75 18 19 12z"/></symbol><symbol viewBox="0 0 24 24" id="ARROW_UP" xmlns="http://www.w3.org/2000/svg"><path d="m6 11.25 1.209 1.259 3.934-4.09V19h1.714V8.42l3.934 4.098L18 11.25 12 5z"/></symbol><symbol viewBox="0 0 24 24" id="ATTRIBUTES" xmlns="http://www.w3.org/2000/svg"><path fill-rule="evenodd" d="M19.14 5.59 21.71 3l-.77-.77-4.84 5a1.5 1.5 0 1 0 .9 1.3 1.55 1.55 0 0 0-.13-.61l1.22-1.25.41.38v3.8a.67.67 0 0 1-.19.45L13.7 16l-2.3 2.35-5.73-5.82 6.85-6.9a.57.57 0 0 1 .31-.1h3.59l1.27-1.32A1 1 0 0 0 17 4h-4a2 2 0 0 0-1.49.49L6.92 9.15l-2.61 2.63a1.07 1.07 0 0 0 0 1.5l6.35 6.45a1 1 0 0 0 1.41.08.6.6 0 0 1 .08-.08L14.77 17l4.61-4.69a2.2 2.2 0 0 0 .62-1.5v-4a1.1 1.1 0 0 0-.31-.74z"/><path fill-rule="evenodd" d="M19.14 5.59 21.71 3l-.77-.77-4.84 5a1.5 1.5 0 1 0 .9 1.3 1.55 1.55 0 0 0-.13-.61l1.22-1.25.41.38v3.8a.67.67 0 0 1-.19.45L13.7 16l-2.3 2.35-5.73-5.82 6.85-6.9a.57.57 0 0 1 .31-.1h3.59l1.27-1.32A1 1 0 0 0 17 4h-4a2 2 0 0 0-1.49.49L6.92 9.15l-2.61 2.63a1.07 1.07 0 0 0 0 1.5l6.35 6.45a1 1 0 0 0 1.41.08.6.6 0 0 1 .08-.08L14.77 17l4.61-4.69a2.2 2.2 0 0 0 .62-1.5v-4a1.1 1.1 0 0 0-.31-.74z"/></symbol><symbol viewBox="0 0 24 24" id="AUTO_CALCULATE" xmlns="http://www.w3.org/2000/svg"><path d="m13 12-8.59 9L3 19.59 12 11zm3-2.59-1.26.85-1-1L14.59 8zm1.44-2.14 2.85-2.85a8 8 0 0 0-.71-.71l-2.85 2.85a2.7 2.7 0 0 1 .71.71m-4.59-.35L10 4.16a8 8 0 0 0-.64.77l3 2.82a2.8 2.8 0 0 1 .49-.83M15 6V2a6.6 6.6 0 0 0-1 .08v4.1A3 3 0 0 1 15 6m-3 3H8a6.6 6.6 0 0 0 .08 1h4.1A3 3 0 0 1 12 9m6 0a3 3 0 0 1-.18 1h4.1A6.6 6.6 0 0 0 22 9zm-1.75 2.72 2.82 3a8 8 0 0 0 .77-.64l-2.76-2.9a2.8 2.8 0 0 1-.83.54M14 15.92a6.6 6.6 0 0 0 1 .08v-4a3 3 0 0 1-1-.18z"/></symbol><symbol viewBox="0 0 24 24" id="AVAILABLE" xmlns="http://www.w3.org/2000/svg"><path d="M12 4a8 8 0 1 0 8 8 8 8 0 0 0-8-8"/></symbol><symbol viewBox="0 0 24 24" id="BANK_ACCOUNT" xmlns="http://www.w3.org/2000/svg"><path fill-rule="evenodd" d="M21 7v2H3V7l9-4zM7 11H5v5h2zm10 0h2v5h-2zm-6 0H9v5h2zm2 0h2v5h-2zm8 9v-2H3v2z" clip-rule="evenodd"/></symbol><symbol viewBox="0 0 24 24" id="BLANK" xmlns="http://www.w3.org/2000/svg"/><symbol viewBox="0 0 24 24" id="BLOCKED" xmlns="http://www.w3.org/2000/svg"><path d="M5.93 5A1 1 0 0 0 5 6v12a1 1 0 0 0 .93 1h12.14a1 1 0 0 0 .93-1V6a1 1 0 0 0-.93-1Z" class="bacls-3"/></symbol><symbol viewBox="0 0 24 24" id="BLOCKER" xmlns="http://www.w3.org/2000/svg"><path d="M12 20a8 8 0 1 0 0-16 8 8 0 0 0 0 16M8 10h8v4H8z"/></symbol><symbol viewBox="0 0 24 24" id="BREAK_LINK" xmlns="http://www.w3.org/2000/svg"><path d="m20.47 15-2.08-2.09a2.45 2.45 0 0 0-3.28-.15l1.06 1.06a1 1 0 0 1 1.18.13L19.43 16a1 1 0 0 1 0 1.38l-2.08 2.12a1 1 0 0 1-1.39 0l-2.08-2.08a1 1 0 0 1-.14-1.17l-1.06-1.06a2.44 2.44 0 0 0 .16 3.27l2.08 2.09a2.47 2.47 0 0 0 3.47 0l2.08-2.09a2.46 2.46 0 0 0 0-3.46M8.2 10.7a1 1 0 0 1-1.2-.13L4.94 8.49a1 1 0 0 1 0-1.39L7 5a1 1 0 0 1 1.41 0l2.08 2.1a1 1 0 0 1 .14 1.18l1.06 1.06a2.45 2.45 0 0 0-.16-3.28L9.45 4A2.45 2.45 0 0 0 6 4L3.9 6.06a2.47 2.47 0 0 0 0 3.47L6 11.61a2.45 2.45 0 0 0 3.28.15zM14.7 3h-.3a1.5 1.5 0 0 0-.4.43v3.4c.1.17.23.3.4.17h.3c.17.13.3 0 .3-.17v-3.4c0-.17-.13-.3-.3-.43m6 6h-3.4c-.17.13-.3.26-.3.43v.3a.26.26 0 0 0 .3.27h3.4a.26.26 0 0 0 .3-.27v-.3c0-.17-.13-.3-.3-.43m-14 6.13a.29.29 0 0 0 .3-.3v-.3c0-.17-.13-.3-.3-.53H3.3c-.17.23-.3.36-.3.53v.3c0 .17.13.3.3.17h3.4zM9.3 17c-.17.13-.3.26-.3.43v3.4a.24.24 0 0 0 .3.17h.3c.17 0 .3-.1.4-.27v-3.3a1.5 1.5 0 0 0-.4-.43zm-1.05-1a.38.38 0 0 0-.53 0l-3.47 3.44a.38.38 0 0 0 0 .53h.1a.37.37 0 0 0 .52 0l3.45-3.44a.4.4 0 0 0 0-.54zM19.78 4.52a.37.37 0 0 0 0-.52h-.1a.37.37 0 0 0-.52 0l-3.51 3.44a.38.38 0 0 0 0 .53h.1a.37.37 0 0 0 .52 0l3.45-3.44z"/></symbol><symbol viewBox="0 0 24 24" id="BUILDER" xmlns="http://www.w3.org/2000/svg"><path d="M18 18h3v2h-3zm-4 0h3v2h-3zm1-3h2v2h-2zm3 0h2v2h-2z"/><path d="M20 6h-9V5a2 2 0 0 0-4 0v1H4a1 1 0 0 0-1 1v1.7a.29.29 0 0 0 .3.3h2.4a.29.29 0 0 0 .3-.3V7.5h1V20h4V7.5h6V11h-1v2h3v-2h-1V7.5h3V7a1 1 0 0 0-1-1M9.5 18.5h-1V5a.5.5 0 0 1 1 0z"/></symbol><symbol viewBox="0 0 24 24" id="CALCULATE_DURATION" xmlns="http://www.w3.org/2000/svg"><path d="M18 5a1 1 0 0 1 1 1v13a1 1 0 0 1-1 1H6a1 1 0 0 1-1-1V6a1 1 0 0 1 1-1zM6.5 18.5h11v-12h-11zM8 11V8h8v3zm0 3v-2h2v2zm3 0v-2h2v2zm3 0v-2h2v2zm-6 3v-2h2v2zm3 0v-2h2v2zm3 0v-2h2v2z"/></symbol><symbol viewBox="0 0 24 24" id="CALENDAR" xmlns="http://www.w3.org/2000/svg"><path d="M5 5v14h14V5zm3.75 12.5H6.5V15h2.25zm0-3H6.5V12h2.25zm0-3H6.5V9h2.25zm3 6h-2.5V15h2.5zm0-3h-2.5V12h2.5zm0-3h-2.5V9h2.5zm3 6h-2.5V15h2.5zm0-3h-2.5V12h2.5zm0-3h-2.5V9h2.5zm2.75 6h-2.25V15h2.25zm0-3h-2.25V12h2.25zm0-3h-2.25V9h2.25z"/></symbol><symbol viewBox="0 0 24 24" id="CALL" xmlns="http://www.w3.org/2000/svg"><path d="M19.14 15s-1.29-1.19-1.46-1.33a4 4 0 0 0-2.42-1.2 2.13 2.13 0 0 0-1.75.92 9 9 0 0 1-.69.69l-.26-.15-.48-.3a8 8 0 0 1-.9-.76 6 6 0 0 1-1.26-1.71 8 8 0 0 1 .64-.64A2.3 2.3 0 0 0 11.51 9a3.7 3.7 0 0 0-1.19-2.66C10.18 6.15 9 4.86 9 4.86A2.7 2.7 0 0 0 7.09 4a2.59 2.59 0 0 0-2.27 1.56 8 8 0 0 0-.57 5.55A11.3 11.3 0 0 0 6.77 16a12.1 12.1 0 0 0 4.65 3.32A9.7 9.7 0 0 0 15 20a8 8 0 0 0 2-.24 7.2 7.2 0 0 0 1.5-.58 2.66 2.66 0 0 0 1.5-1.93 2.6 2.6 0 0 0-.86-2.25m-1.39 2.84a6 6 0 0 1-1.19.46 6.3 6.3 0 0 1-1.56.2 8.2 8.2 0 0 1-3-.6A10.7 10.7 0 0 1 7.9 15a9.75 9.75 0 0 1-2.19-4.21 6.5 6.5 0 0 1 .44-4.52c.14-.28.46-.75.94-.75a1.28 1.28 0 0 1 .84.42S9 7.08 9.13 7.24c.46.55.94 1.13.89 1.56 0 .08 0 .27-.37.53l-.85.84-.69.75.46.92A8.1 8.1 0 0 0 10.13 14a10 10 0 0 0 1.09.91l.59.37.27.16.95.53.8-.73a10 10 0 0 0 .8-.8l.07-.09a.68.68 0 0 1 .56-.33 3.07 3.07 0 0 1 1.46.85c.22.18 1.36 1.24 1.36 1.24a1.17 1.17 0 0 1 .41.95 1.32 1.32 0 0 1-.74.79z"/></symbol><symbol viewBox="0 0 24 24" id="CARD_VIEW" xmlns="http://www.w3.org/2000/svg"><path d="M10.61 5H4.39a.38.38 0 0 0-.39.37v5.26a.38.38 0 0 0 .39.37h6.22a.38.38 0 0 0 .39-.37V5.37a.38.38 0 0 0-.39-.37M9.5 9.5h-4v-3h4ZM19.61 5h-6.22a.38.38 0 0 0-.39.37v5.26a.38.38 0 0 0 .39.37h6.22a.38.38 0 0 0 .39-.37V5.37a.38.38 0 0 0-.39-.37M18.5 9.5h-4v-3h4ZM10.61 13H4.39a.38.38 0 0 0-.39.37v5.26a.38.38 0 0 0 .39.37h6.22a.38.38 0 0 0 .39-.37v-5.26a.38.38 0 0 0-.39-.37M9.5 17.5h-4v-3h4ZM19.61 13h-6.22a.38.38 0 0 0-.39.37v5.26a.38.38 0 0 0 .39.37h6.22a.38.38 0 0 0 .39-.37v-5.26a.38.38 0 0 0-.39-.37m-1.11 4.5h-4v-3h4Z"/></symbol><symbol viewBox="0 0 24 24" id="CARET_DOWN_REDWOOD" xmlns="http://www.w3.org/2000/svg"><path fill-rule="evenodd" d="m2 7 9.958 10L22 7z" clip-rule="evenodd"/></symbol><symbol viewBox="0 0 24 24" id="CASH_IN_TRANSIT" xmlns="http://www.w3.org/2000/svg"><path d="M14 10.75a1.7 1.7 0 0 0-.7.15v2.3h2.3a1.7 1.7 0 0 0 .15-.7H14z"/><path d="M7 6 4 19h17l3-13zm12.81 11.5H5.89l2.31-10h13.91zM0 12h4v1H0zm0 4h3v1H0zm1.5-8H5v1H1.5z"/><path d="M14 8.5a4 4 0 1 0 4 4 4 4 0 0 0-4-4m0 7a3 3 0 1 1 3-3 3 3 0 0 1-3 3"/></symbol><symbol viewBox="0 0 24 24" id="CHART" xmlns="http://www.w3.org/2000/svg"><path d="M5 13h2v7H5zm12-8h2v15h-2zm-4 6h2v9h-2zM9 9h2v11H9z"/></symbol><symbol viewBox="0 0 24 24" id="CHART_AREA" xmlns="http://www.w3.org/2000/svg"><path d="m18 6-6 6-1.42-1.43L7 14.17V17h11z"/><path d="M5 19V5H4v15h16v-1z"/></symbol><symbol viewBox="0 0 24 24" id="CHART_AREA_STACKED" xmlns="http://www.w3.org/2000/svg"><path d="m10.57 10.99 1.42 1.42 3.92-3.92L18 10.58V4l-6.01 6.03-1.42-1.42L7 12.2v2.38z" opacity=".5"/><path d="m18 13-2.09-2.09L12 14.83l-1.42-1.42L7 17h11z"/><path d="M5 19V5H4v15h16v-1z"/></symbol><symbol viewBox="0 0 24 24" id="CHART_BAR" xmlns="http://www.w3.org/2000/svg"><path d="M7 15h7v2H7zm0-4h9v2H7zm0-4h11v2H7z"/><path d="M5 19V5H4v15h16v-1z"/></symbol><symbol viewBox="0 0 24 24" id="CHART_BAR_STACKED" xmlns="http://www.w3.org/2000/svg"><path d="M11 11h5v2h-5zm3 4h4v2h-4zm-1-8h4v2h-4z" opacity=".5"/><path d="M7 11h4v2H7zm0-4h6v2H7zm0 8h7v2H7z"/><path d="M5 19V5H4v15h16v-1z"/></symbol><symbol viewBox="0 0 24 24" id="CHART_BUBBLE" xmlns="http://www.w3.org/2000/svg"><circle cx="15" cy="9" r="3"/><circle cx="9" cy="12" r="2"/><circle cx="14.5" cy="15.5" r="1.5"/><path d="M5 19V5H4v15h16v-1z"/></symbol><symbol viewBox="0 0 24 24" id="CHART_COLUMN" xmlns="http://www.w3.org/2000/svg"><path d="M15 10h2v7h-2zm-4-2h2v9h-2zM7 6h2v11H7z"/><path d="M5 19V5H4v15h16v-1z"/></symbol><symbol viewBox="0 0 24 24" id="CHART_COLUMN_STACKED" xmlns="http://www.w3.org/2000/svg"><path d="M11 13h2v4h-2zm4-2h2v6h-2zm-8-1h2v7H7z"/><path d="M5 19V5H4v15h16v-1z"/><path d="M11 8h2v5h-2zm4-1h2v4h-2zM7 6h2v4H7z" opacity=".5"/></symbol><symbol viewBox="0 0 24 24" id="CHART_LINE" xmlns="http://www.w3.org/2000/svg"><path d="m11.99 14.8 3.92-3.93L18 12.96v-2.83l-2.09-2.1-3.92 3.93-1.42-1.42L7 14.13v2.84l3.57-3.59z"/><path d="M5 19V5H4v15h16v-1z"/></symbol><symbol viewBox="0 0 24 24" id="CHECK" xmlns="http://www.w3.org/2000/svg"><path d="m10 15-4.5-4.51L4 12l6 6L21 7l-1.48-1.51z"/></symbol><symbol viewBox="0 0 24 24" id="CHECKBOX_CHECKED" xmlns="http://www.w3.org/2000/svg"><path d="M10.56 12.44 16 7l2.121 2.121-7.516 7.517-.033-.033-.044.044L6 12.121 8.121 10z"/></symbol><symbol viewBox="0 0 24 24" id="CHECKBOX_PARTIAL" xmlns="http://www.w3.org/2000/svg"><path d="M8 10h8v4H8z"/></symbol><symbol viewBox="0 0 24 24" id="CHECK_SMALL" xmlns="http://www.w3.org/2000/svg"><path d="m10.23 13.96-3.17-3.24L6 11.8l4.23 4.33L18 8.21l-1.06-1.08z"/></symbol><symbol viewBox="0 0 24 24" id="CHECK_SPELLING" xmlns="http://www.w3.org/2000/svg"><path d="m20 12-8 8-1-.93L6.7 15h2.71l2.38 2.37L20 9.16zm-7-8v10h-2v-2H7.46l-1.15 2H4L9.77 4zm-2 6V5.88L8.62 10z"/></symbol><symbol viewBox="0 0 24 24" id="CHEVRON_DOWN" xmlns="http://www.w3.org/2000/svg"><path d="M7.5 9.5 6 11l6 5 6-5-1.5-1.5L12 13z"/></symbol><symbol viewBox="0 0 24 24" id="CHEVRON_LEFT" xmlns="http://www.w3.org/2000/svg"><path d="M15 7.5 13.5 6l-5 6 5 6 1.5-1.5-3.5-4.5z"/></symbol><symbol viewBox="0 0 24 24" id="CHEVRON_RIGHT" xmlns="http://www.w3.org/2000/svg"><path d="M9.5 7.5 11 6l5 6-5 6-1.5-1.5L13 12z"/></symbol><symbol viewBox="0 0 24 24" id="CHEVRON_UP" xmlns="http://www.w3.org/2000/svg"><path d="M7.5 14.5 6 13l6-5 6 5-1.5 1.5L12 11z"/></symbol><symbol viewBox="0 0 24 24" id="CHEVRON_UP_DOWN" xmlns="http://www.w3.org/2000/svg"><path d="M7.5 13.5 6 15l6 5 6-5-1.5-1.5L12 17zm0-3L6 9l6-5 6 5-1.5 1.5L12 7z"/></symbol><symbol viewBox="0 0 24 24" id="CLOCK" xmlns="http://www.w3.org/2000/svg"><path d="M12 4a8 8 0 1 1 0 16 8 8 0 0 1 0-16m0 14.5c3.584 0 6.5-2.916 6.5-6.5S15.584 5.5 12 5.5A6.51 6.51 0 0 0 5.5 12c0 3.584 2.916 6.5 6.5 6.5m4-6.5v2h-5V8h2v4z"/></symbol><symbol viewBox="0 0 24 24" id="CLOSE" xmlns="http://www.w3.org/2000/svg"><path d="M19 17.59 13.41 12 19 6.41 17.59 5 12 10.59 6.41 5 5 6.41 10.59 12 5 17.59 6.41 19 12 13.41 17.59 19z"/></symbol><symbol viewBox="0 0 24 24" id="COLLAPSE" xmlns="http://www.w3.org/2000/svg"><path d="M6 7.33C6 6.595 6.595 6 7.33 6h9.34c.735 0 1.33.595 1.33 1.33v9.34A1.33 1.33 0 0 1 16.67 18H7.33A1.33 1.33 0 0 1 6 16.67zM9 11v2h6v-2z"/></symbol><symbol viewBox="0 0 24 24" id="COLLECTION" xmlns="http://www.w3.org/2000/svg"><path d="M8 11H4v9h11v-9zm1 1.5h1V14H9zm4.5 0v6h-8v-6H8V15h3v-2.5z"/><path d="M7 9.5h9.5V17H18V8H7z"/><path d="M10 5v1.5h9.5V14H21V5z"/></symbol><symbol viewBox="0 0 24 24" id="COLOR_PALETTE" xmlns="http://www.w3.org/2000/svg"><path d="M17.22 5.6c-.75-.84-2.59-.9-2.54.49 0 1.08.32 3.31.33 4.36a1.51 1.51 0 0 1-1.18 1.47A2 2 0 0 1 12 10.84a8.5 8.5 0 0 0-1.44-2 4 4 0 0 0-5.84.95c-1 1.58-.77 3.82-.07 5.48a7.76 7.76 0 0 0 3.32 3.68A8.4 8.4 0 0 0 12 20a7.76 7.76 0 0 0 8-7.54 11 11 0 0 0-2.78-6.86m-9.59 8.89a2.11 2.11 0 1 1 2.1-2.11 2.11 2.11 0 0 1-2.1 2.11m3.28 3.73a2 2 0 1 1 2-2 2 2 0 0 1-2 2m4.84-1a2 2 0 1 1 2-2 2 2 0 0 1-2 1.95zm1.59-4.55a1.44 1.44 0 1 1 1.43-1.44 1.44 1.44 0 0 1-1.43 1.39z"/></symbol><symbol viewBox="0 0 24 24" id="COMPONENTS" xmlns="http://www.w3.org/2000/svg"><path fill-rule="evenodd" d="M14.5 7v-.36a3 3 0 1 0-5 0V7H5v5.25h2.39a1.5 1.5 0 1 1 0 2H5V20h14V7zm3 11.5h-11v-2.75h.36a3 3 0 1 0 0-5H6.5V8.5H11V6.11a1.5 1.5 0 1 1 2 0V8.5h4.5z"/></symbol><symbol viewBox="0 0 24 24" id="COMPRESS" xmlns="http://www.w3.org/2000/svg"><path d="M5 11H0v2h5v3l5-4-5-4zm14 0V8l-5 4 5 4v-3h5v-2zm-8-7h2v16h-2z"/></symbol><symbol viewBox="0 0 24 24" id="CONDITIONAL_DATASET" xmlns="http://www.w3.org/2000/svg"><path d="M17 6c-2.21 0-4 .9-4 2v.91h-1.26l-1.13-1.12a2.5 2.5 0 1 0-3.89.48 2.48 2.48 0 0 0 3.22.25l1.38 1.38H13v1.5H9a2.5 2.5 0 0 0-5 .49 2.5 2.5 0 0 0 4.95.5H13v1.5h-1.68l-1.49 1.52a2.5 2.5 0 0 0-3.12 3.86 2.52 2.52 0 0 0 3.54 0 2.49 2.49 0 0 0 .3-3.16l1.19-1.2H13V16c0 1.1 1.8 2 4 2s4-.9 4-2V8c0-1.11-1.79-2-4-2M7.77 7.21a1 1 0 0 1 1.41-1.42 1 1 0 0 1-1.41 1.42m-1.29 5.7a1 1 0 1 1 1-1 1 1 0 0 1-1 1m2.71 5.3a1 1 0 0 1-1.41 0 1 1 0 1 1 1.42 0Zm10.31-4.75A5.26 5.26 0 0 1 17 14a5.26 5.26 0 0 1-2.5-.54v-1.41a7.17 7.17 0 0 0 5 0Zm0-2.5a5.26 5.26 0 0 1-2.5.54 5.26 5.26 0 0 1-2.5-.5V9.55a7.17 7.17 0 0 0 5 0ZM17 7.5a4.7 4.7 0 0 1 2.29.5 4.7 4.7 0 0 1-2.29.5 4.7 4.7 0 0 1-2.29-.5A4.7 4.7 0 0 1 17 7.5m-1.79 8.73-.34-.14a2.6 2.6 0 0 1-.37-.2v-1.34a7.17 7.17 0 0 0 5 0v1.32a3 3 0 0 1-.41.22l-.34.14c-.17.05-.34.08-.51.12a5.8 5.8 0 0 1-3-.12 5.6 5.6 0 0 0 1.76.28 5.7 5.7 0 0 1-1.79-.28"/></symbol><symbol viewBox="0 0 24 24" id="CONDITIONAL_FORMATTING" xmlns="http://www.w3.org/2000/svg"><path d="M19.94 18c0-1.1-2-3-2-3s-2 1.9-2 3a2 2 0 1 0 4 0M10.35 4 8.94 5.41l.65.66-5.65 5.65 6.3 6.28 5.7-5.64.05.05.59.59 2.12-.71Zm-3.57 7 3.87-3.87L14.53 11Z"/></symbol><symbol viewBox="0 0 24 24" id="CONSOLIDATE" xmlns="http://www.w3.org/2000/svg"><path d="M6.38 8.71H4.72a8 8 0 0 1 14.56 0H21l-2 3.76-2.5-3.76h1.12a6.44 6.44 0 0 0-11.24 0M12 18.59a6.48 6.48 0 0 1-5.62-3.3H7.5L5 11.53l-2 3.76h1.72a8 8 0 0 0 14.56 0h-1.66a6.48 6.48 0 0 1-5.62 3.3m2.5-8.46c0-.58-.8-1.22-2-1.36v2.79c1.69.17 3 1.14 3 2.32s-1.31 2.16-3 2.32v1h-1v-1c-1.69-.16-3-1.13-3-2.32a1.5 1.5 0 0 1 .07-.47h1.1a.85.85 0 0 0-.17.47c0 .59.8 1.24 2 1.38v-2.79c-2-.16-3-1.14-3-2.32s1.31-2.15 3-2.33v-1h1v1c1.69.17 3 1.13 3 2.31 0 .17 0 .46-.07.46h-1.1c.11 0 .17-.3.17-.46m-3-1.36c-1.2.15-2 .79-2 1.38s1 1.24 2 1.38zm1 3.73v2.76c1.2-.14 2-.79 2-1.38s-.8-1.23-2-1.38"/></symbol><symbol viewBox="0 0 24 24" id="CONTEXTUAL_MENU" xmlns="http://www.w3.org/2000/svg"><path d="M12 7a2 2 0 1 1 0-4 2 2 0 0 1 0 4m0 7a2 2 0 1 1 0-4 2 2 0 0 1 0 4m0 7a2 2 0 1 1 0-4 2 2 0 0 1 0 4"/></symbol><symbol viewBox="0 0 24 24" id="COPY" xmlns="http://www.w3.org/2000/svg"><path d="M20 7v9h-5v-1.5h3.5V7.62L16.38 5.5H11.5V7H10V4h7zm-9 1 3 3v9H4V8zm1.5 3.62L10.38 9.5H5.5v9h7z"/></symbol><symbol viewBox="0 0 24 24" id="CREDENTIALS" xmlns="http://www.w3.org/2000/svg"><circle cx="9.5" cy="14.5" r="1.5"/><path d="M19 4h-3l-5.17 5.17A5.3 5.3 0 0 0 9.5 9a5.5 5.5 0 1 0 5.5 5.5 5.1 5.1 0 0 0-.19-1.31L15 13h2v-2l1-1h2V5a1 1 0 0 0-1-1m-.5 4.5h-1.12l-1.88 1.88v1.11h-1.11l-1.25 1.26.22.83a3.6 3.6 0 0 1 .14.93 4 4 0 1 1-4-4 4.2 4.2 0 0 1 1 .12l.82.21 5.3-5.34h1.88z"/></symbol><symbol viewBox="0 0 24 24" id="CREDIT_CARD" xmlns="http://www.w3.org/2000/svg"><path d="M21 5H3.009L3 19h18zm-2 12H5v-5h14zm0-8H5V6.875h14z"/></symbol><symbol viewBox="0 0 24 24" id="CUSTOM" xmlns="http://www.w3.org/2000/svg"><path fill-rule="evenodd" d="m15.31 11.77 2-2 .82-.12.69-.65.88-2-.7-.71-1.94.89-.71.71-.11.82-2 2-2.7-2.82a3.44 3.44 0 0 1 2-.85l2.25-2.33-2.69-.54a6.5 6.5 0 0 0-6.53 2l-.13.13-.51.88-.13.14h-.68L3 9.56l4.07 4.25 2-2.07L10.18 13l-3.46 3.49a2.09 2.09 0 0 0-.31 2.66 2 2 0 0 0 3.05.26L12.81 16l2.08 2.38a2.32 2.32 0 0 0 3.39 0 2.57 2.57 0 0 0 0-3.54zM8.4 18.35a.48.48 0 0 1-.4.14.51.51 0 0 1-.37-.21.62.62 0 0 1 .15-.73l3.39-3.4.65.76zm8.86-1a.94.94 0 0 1-1.36 0L9.11 9.56h-.68l-.68.71V11l-.68.7L5 9.56l.68-.71h.72l.34-.36.33-.35.51-.89a5.17 5.17 0 0 1 5.27-1.6l-.34.35a4.15 4.15 0 0 0-2.72 1.43l.34 1.06 4.42 4.61 2.71 2.84a1 1 0 0 1 0 1.42z"/></symbol><symbol viewBox="0 0 24 24" id="DATASET" xmlns="http://www.w3.org/2000/svg"><path d="M12 3.8c-4.4 0-8 1.6-8 3.5v9.2c0 2.2 3.6 4 8 4s8-1.8 8-4V7.2c0-1.9-3.6-3.4-8-3.4m0 1.4c4.3 0 6.5 1.5 6.5 2s-2.2 2-6.5 2-6.5-1.5-6.5-2 2.2-2 6.5-2m6.5 11.3c0 1-2.6 2.5-6.5 2.5s-6.5-1.5-6.5-2.5v-1.4a11.53 11.53 0 0 0 6.5 1.7 11.53 11.53 0 0 0 6.5-1.7zm0-2.7c-1 1.1-3.5 2-6.5 2s-5.5-.9-6.5-2v-1.7a11.53 11.53 0 0 0 6.5 1.7 11.53 11.53 0 0 0 6.5-1.7zm-6.5-1c-3 0-5.5-.9-6.5-2V9.3a13 13 0 0 0 6.5 1.5 13 13 0 0 0 6.5-1.5v1.5c-1 1-3.5 2-6.5 2"/></symbol><symbol viewBox="0 0 24 24" id="DATE" xmlns="http://www.w3.org/2000/svg"><path d="M13 16h1v-1h-1v-5h-3v1h1v4h-1v1z"/><path d="M16 5v2h-1V5H9v2H8V5H5v14h14V5zm1.5 12.5h-11v-9h11z"/></symbol><symbol viewBox="0 0 24 24" id="DELETE" xmlns="http://www.w3.org/2000/svg"><path d="M15 6V4H9v2H5v2h1v12h12V8h1V6zm-5-1h4v1h-4zm6.5 13.5h-9v-11h9z"/></symbol><symbol viewBox="0 0 202 175" id="DELTA_LOGO" xmlns="http://www.w3.org/2000/svg"><path d="M84.97 63.486 20.21 172.75h162.77l15.457-25.834H68.33a1.5 1.5 0 0 1-1.297-2.256L99.48 89Z"/><path d="M84.98 3.998 2.318 145.414l15.264 25.889L83.707 59.734a1.5 1.5 0 0 1 2.594.024l31.275 54.992h30.67z"/><path d="m87.58 2.5 64.553 113.006a1.5 1.5 0 0 1-1.303 2.244H86.193L70.94 143.916h127.543L116.962 2.5Z"/></symbol><symbol viewBox="0 0 24 24" id="DEPARTMENTS" xmlns="http://www.w3.org/2000/svg"><path d="M19 15v-3h-6.5v-2H15V3H9v7h2.5v2H5v3H3v5h5v-5H6v-2h5.5v2h-2v5h5v-5h-2v-2H18v2h-2v5h5v-5zM10.5 4.5h3v4h-3zm-4 14h-2v-2h2zm6.5 0h-2v-2h2zm6.5 0h-2v-2h2z"/></symbol><symbol viewBox="0 0 24 24" id="DISMISS" xmlns="http://www.w3.org/2000/svg"><path fill-rule="evenodd" d="M12 6a6 6 0 1 0 .001 12.001A6 6 0 0 0 12 6m2.78 7.833-1.827-1.826 1.834-1.834a3.35 3.35 0 0 0-.94-.946l-1.84 1.84-1.84-1.847c-.38.247-.7.567-.947.947l1.847 1.846-1.84 1.84c.246.374.573.694.946.94l1.834-1.833 1.826 1.827c.38-.254.7-.574.947-.954"/></symbol><symbol viewBox="0 0 24 24" id="DOCUMENTS" xmlns="http://www.w3.org/2000/svg"><path d="M10 8.5h5V10h-5z"/><path fill-rule="evenodd" d="M7.5 4A2.5 2.5 0 0 0 5 6.5v11A2.5 2.5 0 0 0 7.5 20H19V4zm10 14.5h-10a1 1 0 0 1 0-2h10zm0-3.5h-10a2.4 2.4 0 0 0-1 .21V6.5a1 1 0 0 1 1-1h10z"/></symbol><symbol viewBox="0 0 24 24" id="DOUBLE_CHEVRON_DOWN" xmlns="http://www.w3.org/2000/svg"><path d="M12 12 7 7l1.5-1.5L12 9l3.5-3.5L17 7zm4.5-.5L12 16l-4.5-4.5L6 13l6 6 6-6z"/></symbol><symbol viewBox="0 0 24 24" id="DOUBLE_CHEVRON_LEFT" xmlns="http://www.w3.org/2000/svg"><path fill-rule="evenodd" d="m8.83 12 4.24 4.25-1.41 1.45L6 12l5.66-5.65 1.41 1.45zm6 0 4.24 4.25-1.41 1.45L12 12l5.66-5.65 1.41 1.45z"/></symbol><symbol viewBox="0 0 24 24" id="DOUBLE_CHEVRON_RIGHT" xmlns="http://www.w3.org/2000/svg"><path fill-rule="evenodd" d="m11 7.8 1.41-1.41L18.07 12l-5.66 5.7L11 16.29 15.24 12zm-6 0 1.41-1.41L12.07 12l-5.66 5.7L5 16.29 9.24 12z"/></symbol><symbol viewBox="0 0 24 24" id="DOUBLE_CHEVRON_UP" xmlns="http://www.w3.org/2000/svg"><path d="m17 17-1.5 1.5L12 15l-3.5 3.5L7 17l5-5zm1-6-6-6-6 6 1.5 1.5L12 8l4.5 4.5z"/></symbol><symbol viewBox="0 0 24 24" id="DOWNLOAD_DOCUMENT" xmlns="http://www.w3.org/2000/svg"><path fill-rule="evenodd" d="M5 4h8.167l2.916 2.5L19 9v11H5V4m10.5 9h-2.625V8h-1.75v5H8.5l3.5 4z" clip-rule="evenodd"/></symbol><symbol viewBox="0 0 24 24" id="DRAGHANDLE" xmlns="http://www.w3.org/2000/svg"><path d="M13 15h2v2h-2zm0-4h2v2h-2zm0-4h2v2h-2zm-4 8h2v2H9zm0-4h2v2H9zm0-4h2v2H9z"/></symbol><symbol viewBox="0 0 24 24" id="DRAGHANDLE_SMALL" xmlns="http://www.w3.org/2000/svg"><path d="M14 8h3v3h-3zm0 5h3v3h-3zM8 8h3v3H8zm0 5h3v3H8z"/></symbol><symbol viewBox="0 0 24 24" id="DROPDOWN" xmlns="http://www.w3.org/2000/svg"><path fill-rule="evenodd" d="M8 10h8v2l-4 3-4-3z"/></symbol><symbol viewBox="0 0 24 24" id="DROPDOWN_UP" xmlns="http://www.w3.org/2000/svg"><path fill-rule="evenodd" d="M16 15H9v-2l3.5-3 3.5 3z" clip-rule="evenodd"/></symbol><symbol viewBox="0 0 24 24" id="EDIT" xmlns="http://www.w3.org/2000/svg"><path d="M18.56 7.63 16.44 5.5a1.51 1.51 0 0 0-2.12 0L11.84 8l-.7.71-4.95 5L4 20l6.43-2.12 8.13-8.13a1.49 1.49 0 0 0 0-2.12m-3.18-1.07 2.12 2.13-2.5 2.47L12.91 9zM6.44 17.63l1.06-3.18 4.7-4.7 2.12 2.12-4.7 4.7z"/></symbol><symbol viewBox="0 0 24 24" id="EDIT_LOG" xmlns="http://www.w3.org/2000/svg"><path d="m17.3 4.58 2.12 2.12-4.24 4.24L12 12l1.06-3.18zm3.54-.71-.71-.71a1 1 0 0 0-1.41 0l-.72.71L20.13 6l.71-.71a1 1 0 0 0 0-1.42M8 16h7v-1H8zm7-3H8v1h7zm-7-1h3v-1H8zm8.5-.26v6.76h-10v-11h5.76l1.5-1.5H5v14h13v-9.76z"/></symbol><symbol viewBox="0 0 24 24" id="EMAIL" xmlns="http://www.w3.org/2000/svg"><path d="M4 5v14h16V5zm14.5 12.5h-13V9.73L12 13l6.5-3.23zM12 12 5.5 8.75V6.5h13v2.25z"/></symbol><symbol viewBox="0 0 24 24" id="EMPLOYEE" xmlns="http://www.w3.org/2000/svg"><path d="M12 3a3 3 0 0 0-3 3v1a3 3 0 0 0 6 0V6a3 3 0 0 0-3-3m1.5 4a1.5 1.5 0 0 1-3 0V6a1.5 1.5 0 0 1 3 0zM16 17h-4v-2h4zm-.38-6.57a5 5 0 0 1-7.24 0C6.36 11 5 11.91 5 13v7h14v-7c0-1.09-1.36-2-3.38-2.57m1.88 8.07h-11V13a3.26 3.26 0 0 1 1.5-.88 6.46 6.46 0 0 0 8 0 3 3 0 0 1 1.52.93z"/></symbol><symbol viewBox="0 0 24 24" id="EMPLOYEE_STATUS" xmlns="http://www.w3.org/2000/svg"><path d="M9.5 3A2.5 2.5 0 0 0 7 5.5v.83a2.5 2.5 0 0 0 5 0V5.5A2.5 2.5 0 0 0 9.5 3m1 3.33a1 1 0 0 1-2 0V5.5a1 1 0 0 1 2 0zm2.2 4.38a2 2 0 0 1 .8.52v1.57a2 2 0 0 1 .31.18A2.8 2.8 0 0 1 15 11.82v-.67c0-.92-1.07-1.71-2.66-2.15a3.73 3.73 0 0 1-5.68 0C5.07 9.44 4 10.23 4 11.15V17h1.5v-5.77a2 2 0 0 1 .8-.52 5.2 5.2 0 0 0 6.4 0M14.25 21a.76.76 0 0 1-.7-.47l-1.22-3.07a.75.75 0 0 1-.7.46h-1.38a.75.75 0 0 1 0-1.5h.84l.45-1.4a.74.74 0 0 1 .68-.52.75.75 0 0 1 .78.5l1.24 3.1 1.3-4.1a.75.75 0 0 1 1.33-.18l1.78 2.67h.6a.75.75 0 0 1 0 1.5h-1a.75.75 0 0 1-.62-.33l-1.15-1.73L15 20.49a.74.74 0 0 1-.69.51z"/></symbol><symbol viewBox="0 0 24 24" id="END_DATE" xmlns="http://www.w3.org/2000/svg"><path d="m20 12.75-4-3V12H9v1.5h7v2.25z"/><path d="M16 18.5H6.5v-12H16V5H5v15h11z"/></symbol><symbol viewBox="0 0 24 24" id="END_NODE" xmlns="http://www.w3.org/2000/svg"><path d="M20 15h-2.5v-3h-5V9H15a1 1 0 0 0 1-1V5a1 1 0 0 0-1-1H9a1 1 0 0 0-1 1v3a1 1 0 0 0 1 1h2.5v3h-5v3H4a1 1 0 0 0-1 1v3a1 1 0 0 0 1 1h6a1 1 0 0 0 1-1v-3a1 1 0 0 0-1-1H7.5v-2h9v2H14a1 1 0 0 0-1 1v3a1 1 0 0 0 1 1h6a1 1 0 0 0 1-1v-3a1 1 0 0 0-1-1M9.5 7.5v-2h5v2zm0 9v2h-5v-2z"/></symbol><symbol viewBox="0 0 24 24" id="ENTER_IDENTIFIER" xmlns="http://www.w3.org/2000/svg"><path d="M19 15v-3h-2v3h-3v2h3v3h2v-3h3v-2z"/><path d="M5.5 5.51H9v1.5h5v-1.5h3.5v4.99H19V4.01H4v13h8.5v-1.5h-7z"/></symbol><symbol viewBox="0 0 24 24" id="ERROR" xmlns="http://www.w3.org/2000/svg"><path fill-rule="evenodd" d="m19.67 15.65-5-10a3 3 0 0 0-5.32 0l-5 10A2.94 2.94 0 0 0 4 17a3 3 0 0 0 3 3h10a3 3 0 0 0 3-3 3.06 3.06 0 0 0-.33-1.35M13 17h-2v-2h2zm0-4h-2V8h2z"/></symbol><symbol viewBox="0 0 24 24" id="EXPAND" xmlns="http://www.w3.org/2000/svg"><path fill-rule="evenodd" d="M13 11V9h-2v2H9v2h2v2h2v-2h2v-2zM6 7.33C6 6.595 6.595 6 7.33 6h9.34c.735 0 1.33.595 1.33 1.33v9.34A1.33 1.33 0 0 1 16.67 18H7.33A1.33 1.33 0 0 1 6 16.67z"/></symbol><symbol viewBox="0 0 24 24" id="EXPORT" xmlns="http://www.w3.org/2000/svg"><path d="M9 19H5V4h7l5 5v5l-1.5-1.5V9.62L11.38 5.5H6.5v12H9zm7-4v3h-5v2h5v3l4-4z"/></symbol><symbol viewBox="0 0 24 24" id="EXTEND_HANDLE" xmlns="http://www.w3.org/2000/svg"><path d="M5 10.5V9h14v1.5zm0 3V12h14v1.5z"/></symbol><symbol viewBox="0 0 24 24" id="FAILED" xmlns="http://www.w3.org/2000/svg"><path fill-rule="evenodd" d="M12 4a8 8 0 1 1 0 16 8 8 0 0 1 0-16m0 14.5c3.584 0 6.5-2.916 6.5-6.5S15.584 5.5 12 5.5A6.51 6.51 0 0 0 5.5 12c0 3.584 2.916 6.5 6.5 6.5m4.377-9.816-3.306 3.306 3.315 3.315a5.6 5.6 0 0 1-1.058 1.064l-3.317-3.32-3.327 3.328a5.5 5.5 0 0 1-1.061-1.06l3.327-3.327-3.318-3.318a5.5 5.5 0 0 1 1.063-1.057l3.316 3.314 3.305-3.306q.603.458 1.061 1.06z"/></symbol><symbol viewBox="0 0 24 24" id="FEEDBACK_NEGATIVE" xmlns="http://www.w3.org/2000/svg"><path d="M2.61 4v10h5v-1.15h.84a1.7 1.7 0 0 1 .15.3l.2.35.4.6a7.5 7.5 0 0 1 .9 1.2 6.4 6.4 0 0 1 .51 2.7v2H12c.79 0 4.17-.75 2.7-5 0 0-.5-1 .95-1h3c2 0 3-2 2-4l-2-4a2.78 2.78 0 0 0-3-2h-5.5C8.92 4 8.33 5 7.61 5.36V4zm5 2.93A3.8 3.8 0 0 0 9.27 6c.43-.36.63-.51.88-.51h5.46c1.15 0 1.43.49 1.55.91v.14s2 3.94 2.06 4.12a1.5 1.5 0 0 1 .09 1.47.79.79 0 0 1-.74.36h-3a2.41 2.41 0 0 0-2.23 1.05 2.17 2.17 0 0 0-.12 2 2.8 2.8 0 0 1 0 2.27 1.88 1.88 0 0 1-1.18.66V18a7.64 7.64 0 0 0-.75-3.51 8.4 8.4 0 0 0-1-1.31l-.3-.47.01-.21a2.4 2.4 0 0 0-.3-.5l-.44-.68H7.61zM4.11 5.5h2v7h-2z"/></symbol><symbol viewBox="0 0 24 24" id="FEEDBACK_NEGATIVE_FILLED" xmlns="http://www.w3.org/2000/svg"><path d="M2.61 4v10h5v-1.15h.84q.09.143.15.3l.2.35.4.6q.51.554.9 1.2c.363.853.537 1.774.51 2.7v2H12c.79 0 4.17-.75 2.7-5 0 0-.5-1 .95-1h3c2 0 3-2 2-4l-2-4a2.78 2.78 0 0 0-3-2h-5.5C8.92 4 8.33 5 7.61 5.36V4z"/></symbol><symbol viewBox="0 0 24 24" id="FEEDBACK_POSITIVE" xmlns="http://www.w3.org/2000/svg"><path d="M16 10v1.15h-.84a1.7 1.7 0 0 1-.15-.3l-.2-.35-.4-.6a7.5 7.5 0 0 1-.9-1.2A6.4 6.4 0 0 1 13 6V4h-1.35c-.8 0-4.17.75-2.7 5 0 0 .5 1-.95 1H5c-2 0-3 2-2 4l2 4a2.78 2.78 0 0 0 3 2h5.46c1.23 0 1.82-1 2.54-1.36V20h5V10zm0 7.07a3.8 3.8 0 0 0-1.66.92c-.43.36-.63.51-.88.51H8c-1.15 0-1.44-.49-1.56-.91v-.13l-2.1-4.13a1.55 1.55 0 0 1-.09-1.47.82.82 0 0 1 .75-.36h3a2.42 2.42 0 0 0 2.23-1.05 2.2 2.2 0 0 0 .12-2 2.73 2.73 0 0 1 0-2.27 1.88 1.88 0 0 1 1.18-.66V6a7.64 7.64 0 0 0 .75 3.51 9 9 0 0 0 1 1.31l.31.47.12.21a3 3 0 0 0 .26.47l.44.68H16zm3.5 1.43h-2v-7h2z"/></symbol><symbol viewBox="0 0 24 24" id="FEEDBACK_POSITIVE_FILLED" xmlns="http://www.w3.org/2000/svg"><path d="M16 11.15V10h5v10h-5v-1.36C15.28 19 14.69 20 13.46 20H8a2.78 2.78 0 0 1-3-2l-2-4c-1-2 0-4 2-4h3c1.45 0 .95-1 .95-1-1.47-4.25 1.9-5 2.7-5H13v2a6.4 6.4 0 0 0 .51 2.7q.39.645.9 1.2l.4.6.2.35q.06.157.15.3z"/></symbol><symbol viewBox="0 0 24 24" id="FILE_CSV" xmlns="http://www.w3.org/2000/svg"><path fill-rule="evenodd" d="m18 8-4-4H6v4H3v9h3v3h12v-3h3V8zM7.5 5.5h5.88l2.5 2.5H7.5zM13 12a1 1 0 0 1 1 1v1a1 1 0 0 1-1 1h-3v-1h2.5a.5.5 0 0 0 0-1H11a1 1 0 0 1-1-1v-1a1 1 0 0 1 1-1h3v1h-3v1zm-8 2v-3a1 1 0 0 1 1-1h3v1H6.5a.5.5 0 0 0-.5.5v2a.5.5 0 0 0 .5.5H9v1H6a1 1 0 0 1-1-1m2.5 4.5h9V17h-9zm10.66-4.3a1 1 0 0 1-1 .8h-.36a1 1 0 0 1-1-.8L15 10h1l1 4 1-4h1z"/></symbol><symbol viewBox="0 0 24 24" id="FILE_EXCEL" xmlns="http://www.w3.org/2000/svg"><path fill-rule="evenodd" d="M16 4H8v3H5a1 1 0 0 0-1 1v8a1 1 0 0 0 1 1h3v3h12V8zM7.8 15H6l2.05-3L6 9h1.74L9 11l1.31-2H12l-2.18 3L12 15h-1.8L9 12.6zm10.7 3.5h-9V17H13a1 1 0 0 0 1-1V8a1 1 0 0 0-1-1H9.5V5.5h5.88l3.12 3.12z"/></symbol><symbol viewBox="0 0 24 24" id="FILE_PDF" xmlns="http://www.w3.org/2000/svg"><path d="M11.74 14.71s-1.52 3.17-2.66 2.85c-.76-.21-.76-.95-.09-1.69a5.4 5.4 0 0 1 2-1l1.33-3.59a4.5 4.5 0 0 1-.47-2.86c.09-.95 1.52-.84 1.52.53a9.3 9.3 0 0 1-.37 2.7 11 11 0 0 0 1.33 2 12.4 12.4 0 0 1 2.47 0 .82.82 0 0 1 .57 1.27 1.49 1.49 0 0 1-1.9.11 6.5 6.5 0 0 1-1.24-.95 9.7 9.7 0 0 0-2.47.63" clip-rule="evenodd"/><path fill-rule="evenodd" d="M16 4H6v3H3v3h3v10h14V8zm2.5 14.5h-11V10H14V7H7.5V5.5h7.88l3.12 3.12z"/></symbol><symbol viewBox="0 0 24 24" id="FILTER" xmlns="http://www.w3.org/2000/svg"><path d="M4 4v2l5 5 1 9h4l1-9 5-5V4zm9.58 6.3-.9 8.2h-1.36l-.9-8.2-4.8-4.8h12.76z"/></symbol><symbol viewBox="0 0 24 24" id="FILTERS_LEFT" xmlns="http://www.w3.org/2000/svg"><path d="m15 7-4 4 4 4v-3h5v-2h-5zM5 7h2a1 1 0 0 1 1 1 1 1 0 0 1-1 1H5a1 1 0 0 1-1-1 1 1 0 0 1 1-1m0 3h4a1 1 0 0 1 1 1 1 1 0 0 1-1 1H5a1 1 0 0 1-1-1 1 1 0 0 1 1-1m0-6h4a1 1 0 0 1 1 1 1 1 0 0 1-1 1H5a1 1 0 0 1-1-1 1 1 0 0 1 1-1m0 9h3a1 1 0 0 1 1 1 1 1 0 0 1-1 1H5a1 1 0 0 1-1-1 1 1 0 0 1 1-1m0 3h4a1 1 0 0 1 1 1 1 1 0 0 1-1 1H5a1 1 0 0 1-1-1 1 1 0 0 1 1-1"/></symbol><symbol viewBox="0 0 24 24" id="FILTERS_TOP" xmlns="http://www.w3.org/2000/svg"><path d="m16 14-4-4-4 4h3v5h2v-5zM6 6h1a1 1 0 0 1 1 1 1 1 0 0 1-1 1H6a1 1 0 0 1-1-1 1 1 0 0 1 1-1m4 0h3a1 1 0 0 1 1 1 1 1 0 0 1-1 1h-3a1 1 0 0 1-1-1 1 1 0 0 1 1-1m6 0h2a1 1 0 0 1 1 1 1 1 0 0 1-1 1h-2a1 1 0 0 1-1-1 1 1 0 0 1 1-1"/></symbol><symbol viewBox="0 0 24 24" id="FLAG" xmlns="http://www.w3.org/2000/svg"><path d="m15 9 4-5H5v16h2v-6h12ZM7 5.5h8.9L13.1 9l2.8 3.5H7Z"/></symbol><symbol viewBox="0 0 24 24" id="FOLDER" xmlns="http://www.w3.org/2000/svg"><path d="M19 7h-6a2 2 0 0 1-1.41-.59l-.83-.82A2 2 0 0 0 9.34 5H5a1 1 0 0 0-1 1v13h16V8a1 1 0 0 0-1-1m-.5 10.5h-13v-11h3.84a.5.5 0 0 1 .36.15l.83.82A3.44 3.44 0 0 0 13 8.5h5.5z"/></symbol><symbol viewBox="0 0 24 24" id="FORMAT" xmlns="http://www.w3.org/2000/svg"><path d="m11.66 11.628-2.985-1.615V21l4.883-8.03L16 14.896V3.91z"/></symbol><symbol viewBox="0 0 24 24" id="FORMAT_NUMBER" xmlns="http://www.w3.org/2000/svg"><path fill-rule="evenodd" d="M18.562 18.393c.11.233.167.506.167.808 0 .308-.055.599-.163.864a2 2 0 0 1-.481.693 2.2 2.2 0 0 1-.75.45 2.7 2.7 0 0 1-.966.163c-.55 0-1.03-.123-1.425-.363a2.6 2.6 0 0 1-.9-.857l-.093-.154.767-.915.185.28c.149.225.353.413.605.554q.372.214.843.213c.372 0 .65-.09.852-.27.193-.174.287-.413.287-.73q-.002-.25-.083-.428a.7.7 0 0 0-.222-.267 1.2 1.2 0 0 0-.385-.173 2.2 2.2 0 0 0-.538-.06h-.365q-.153-.001-.213.005l-.286.042v-1.336l.286.042q.06.006.217.005h.36q.248 0 .468-.056a1 1 0 0 0 .356-.16.8.8 0 0 0 .226-.256.8.8 0 0 0 .08-.376.8.8 0 0 0-.08-.377.9.9 0 0 0-.22-.277 1 1 0 0 0-.337-.172 1.5 1.5 0 0 0-.44-.066c-.281 0-.531.06-.742.175-.22.12-.432.305-.63.546l-.197.238-.72-.912.11-.153a2.9 2.9 0 0 1 .906-.803c.375-.22.822-.33 1.328-.33q.47 0 .874.133.414.133.72.39.308.26.489.647c.119.256.178.546.178.859q0 .415-.141.733a1.8 1.8 0 0 1-.688.8q.192.114.362.279.235.23.399.572m-8.05.981q-.318.311-.672.636h2.52v1.24H7.771v-1.022l.084-.077a62 62 0 0 0 1.411-1.279c.403-.378.744-.729 1.012-1.049a4.4 4.4 0 0 0 .6-.88 1.7 1.7 0 0 0 .187-.754 1.1 1.1 0 0 0-.083-.445.9.9 0 0 0-.218-.297.9.9 0 0 0-.308-.17 1.3 1.3 0 0 0-.379-.057c-.31 0-.587.065-.82.198a1.7 1.7 0 0 0-.584.531l-.183.272-.79-.921.104-.158c.25-.376.581-.668.983-.868a2.9 2.9 0 0 1 1.29-.295c.278 0 .551.045.811.132q.402.137.721.409c.215.181.391.416.522.693.133.279.2.607.2.976 0 .374-.083.747-.243 1.108-.154.348-.37.698-.64 1.043a12 12 0 0 1-.937 1.034zM5.224 14.08h1.014v7.17H5v-5.137l-.7.83-.78-.892zM19 1v9l-2.026-1.441L13 15V6l2.315 1.44z"/></symbol><symbol viewBox="0 0 24 24" id="FORMAT_TABLE" xmlns="http://www.w3.org/2000/svg"><path fill-rule="evenodd" d="M4 9h8v10.5h3.5v-1.25L17 16v5H4zm16-6v9l-2.17-1.441L14 17V8l2.171 1.441L20.001 3zM9 13h2v-2.5H9zm-3.5 0h2.499v-2.5H5.5zM9 16h2v-2H9zm-3.5 0h2.499v-2H5.5zM9 19.5h2V17H9zm-3.5 0h2.499V17H5.5z"/></symbol><symbol viewBox="0 0 24 24" id="FORMAT_TEXT" xmlns="http://www.w3.org/2000/svg"><path fill-rule="evenodd" d="M18.748 20.91a3.1 3.1 0 0 1-1.204-.238 2.9 2.9 0 0 1-.967-.666 3 3 0 0 1-.648-1.026 3.6 3.6 0 0 1-.235-1.32c0-.482.079-.927.234-1.32.154-.397.372-.742.648-1.027.274-.285.6-.508.97-.666a3.1 3.1 0 0 1 1.202-.238q.392 0 .729.096.334.094.616.264.28.171.508.398.217.218.39.471l-.618.363a2.1 2.1 0 0 0-.691-.659 1.76 1.76 0 0 0-.934-.259c-.323 0-.627.062-.903.187-.275.124-.52.302-.726.531a2.5 2.5 0 0 0-.484.813 3 3 0 0 0-.175 1.045 3 3 0 0 0 .175 1.04c.117.318.28.595.485.82.204.227.44.4.723.53q.42.186.905.186a1.8 1.8 0 0 0 .934-.253q.434-.259.692-.665l.626.363c-.248.35-.553.644-.906.873-.367.236-.82.356-1.346.356zm-8.748 0v-6.5h2.644c.254 0 .489.04.697.121q.31.122.525.342.214.22.327.525.115.304.115.665c0 .207-.027.398-.083.564a1.5 1.5 0 0 1-.23.44 1.4 1.4 0 0 1-.28.274l-.283.207.288.202q.208.144.364.36a1.84 1.84 0 0 1 .34 1.049q0 .387-.114.709-.115.317-.337.553a1.5 1.5 0 0 1-.54.363 2 2 0 0 1-.726.126zm.739-3.68h1.78q.506 0 .764-.297.26-.302.26-.753c0-.297-.085-.543-.26-.752q-.261-.308-.764-.308h-1.78zm0 2.968h1.816q.525 0 .814-.299c.195-.2.29-.473.29-.829q0-.226-.071-.433c-.05-.137-.12-.26-.212-.36a1 1 0 0 0-.342-.244 1.2 1.2 0 0 0-.48-.091H10.74zm-2.891.71-.526-1.444H4.37l-.526 1.445H3l2.38-6.5h.92l2.392 6.5h-.844zM4.58 18.756h2.524l-1.26-3.515zM17.445 7.232 21 .91v9l-2-1.578-4 6.578v-9l2.445 1.323z"/></symbol><symbol viewBox="0 0 24 24" id="FORMULA" xmlns="http://www.w3.org/2000/svg"><path d="M6.49 17.1a4 4 0 0 0 3.78-2.74l1.3-3.58h2.37v-2h-1.65l.51-1.41A2 2 0 0 1 14.69 6a2 2 0 0 1 1.06.31l.19.13 1.25-1.56-.19-.15a4 4 0 0 0-6 2l-.75 2H7.44v2h2l-1.07 3a2 2 0 0 1-1.88 1.37 2 2 0 0 1-1.06-.31l-.19-.13L4 16.21l.22.16a3.9 3.9 0 0 0 2.27.73m7.13-4.6-1.25 1.25 2.5 2.49-2.5 2.5 1.25 1.24 2.5-2.49 2.49 2.49 1.25-1.24-2.5-2.5 2.5-2.49-1.25-1.25-2.49 2.49z"/></symbol><symbol viewBox="0 0 24 24" id="GROUPS" xmlns="http://www.w3.org/2000/svg"><path fill-rule="evenodd" d="M14.5 19.5h-5V15c0-.427.103-.724.345-.945a5.44 5.44 0 0 0 4.31 0c.242.221.345.518.345.945zm-.332-7.147C15.338 12.8 16 13.676 16 15v6H8v-6c0-1.324.662-2.2 1.832-2.647A3.97 3.97 0 0 0 12 13c.8 0 1.542-.241 2.168-.647M14 9a2 2 0 1 1-4.001-.001A2 2 0 0 1 14 9m5-3.5a1.5 1.5 0 1 1-3 0 1.5 1.5 0 0 1 3 0m-11 0a1.5 1.5 0 1 1-3 0 1.5 1.5 0 0 1 3 0m11.502 2.863C20.406 8.724 21 9.321 21 10v6h-3v-1c0-.172-.019-.335-.034-.5H19.5v-4.408l-.009-.009a5 5 0 0 1-1.991.417 4.9 4.9 0 0 1-1.697-.323C15.919 9.802 16 9.412 16 9c0-.124-.025-.24-.037-.363.464.231.985.363 1.537.363.745 0 1.434-.239 2.002-.637M6 15v1H3v-6c0-.679.594-1.275 1.498-1.637a3.45 3.45 0 0 0 3.539.275C8.025 8.759 8 8.876 8 9c0 .412.081.803.197 1.178A5 5 0 0 1 6.5 10.5c-.69 0-1.365-.143-1.991-.417l-.009.01V14.5h1.534c-.014.165-.034.328-.034.5"/></symbol><symbol viewBox="0 0 24 24" id="HAMBURGER" xmlns="http://www.w3.org/2000/svg"><path d="M4 8V6h16v2zm0 5v-2h16v2zm0 5v-2h16v2z"/></symbol><symbol viewBox="0 0 24 24" id="HAPPY_FILLED" xmlns="http://www.w3.org/2000/svg"><path d="M12 3a9 9 0 1 0 9 9 9 9 0 0 0-9-9M9 8.5A1.5 1.5 0 1 1 7.5 10 1.5 1.5 0 0 1 9 8.5m7 6.15a5.73 5.73 0 0 1-4 1.87 5.73 5.73 0 0 1-4-1.87.75.75 0 0 1 0-1.06.74.74 0 0 1 1.06 0 3.82 3.82 0 0 0 5.94 0 .74.74 0 0 1 1.06 0 .75.75 0 0 1-.06 1.06m-1-3.15a1.5 1.5 0 1 1 1.5-1.5 1.5 1.5 0 0 1-1.5 1.5"/></symbol><symbol viewBox="0 0 24 24" id="HAPPY_OUTLINE" xmlns="http://www.w3.org/2000/svg"><path d="M12 3a9 9 0 1 0 9 9 9 9 0 0 0-9-9m0 16.5a7.5 7.5 0 1 1 7.5-7.5 7.5 7.5 0 0 1-7.5 7.5"/><circle cx="9" cy="10" r="1.5"/><circle cx="15" cy="10" r="1.5"/><path d="M15 13.59a3.82 3.82 0 0 1-5.94 0 .74.74 0 0 0-1.06 0 .75.75 0 0 0 0 1.06 5.73 5.73 0 0 0 4 1.87 5.73 5.73 0 0 0 4-1.87.75.75 0 0 0 0-1.06.74.74 0 0 0-1 0"/></symbol><symbol viewBox="0 0 24 24" id="HEART_FILLED" xmlns="http://www.w3.org/2000/svg"><path d="M15.657 4C18.04 4 20 5.726 20 7.898c-.01 4.23-2.567 8.169-7.595 11.809L12 20l-.405-.293C6.567 16.067 4.01 12.128 4 7.897 4 5.726 5.961 4 8.343 4 9.87 4 11.225 4.71 12 5.792 12.775 4.71 14.13 4 15.657 4"/></symbol><symbol viewBox="0 0 24 24" id="HEART_OUTLINE" xmlns="http://www.w3.org/2000/svg"><path d="M15.66 4.005A4.5 4.5 0 0 0 12 5.795a4.5 4.5 0 0 0-3.66-1.79A4.14 4.14 0 0 0 4 7.904c0 4.229 2.57 8.167 7.6 11.806l.4.29.4-.29c5-3.639 7.59-7.577 7.6-11.806a4.14 4.14 0 0 0-4.34-3.899M12 18.141C7.69 14.9 5.51 11.453 5.5 7.894a2.66 2.66 0 0 1 2.84-2.39 3 3 0 0 1 2.44 1.17l1.22 1.7 1.22-1.7a3 3 0 0 1 2.44-1.17 2.66 2.66 0 0 1 2.84 2.4c-.01 3.549-2.19 6.998-6.5 10.237"/></symbol><symbol viewBox="0 0 24 24" id="HEIGHT" xmlns="http://www.w3.org/2000/svg"><path fill-rule="evenodd" d="m12 3 5 5h-4v3h-2V8H7zm0 18 5-5h-4v-3h-2v3H7z" clip-rule="evenodd"/></symbol><symbol viewBox="0 0 24 24" id="HELP" xmlns="http://www.w3.org/2000/svg"><path fill-rule="evenodd" d="M12 4a8 8 0 1 1 0 16 8 8 0 0 1 0-16m0 14.5c3.584 0 6.5-2.916 6.5-6.5S15.584 5.5 12 5.5A6.51 6.51 0 0 0 5.5 12c0 3.584 2.916 6.5 6.5 6.5m-.916-5.271v-.462q0-.527.215-.89.216-.361.763-.706.435-.273.626-.494a.75.75 0 0 0 .19-.505q0-.226-.204-.357t-.531-.131q-.812 0-1.896.574L9.5 8.798q1.338-.764 2.793-.763 1.197 0 1.88.526t.682 1.434q0 .65-.303 1.125-.304.476-.97.9-.564.366-.706.534a.6.6 0 0 0-.143.4v.275zm-.23 1.88q0-.495.287-.763.287-.27.846-.269.537 0 .824.271.288.272.288.76 0 .49-.298.758-.299.268-.814.268-.532 0-.833-.266-.3-.265-.3-.76z"/></symbol><symbol viewBox="0 0 24 24" id="HIDE" xmlns="http://www.w3.org/2000/svg"><path d="M9 12a2.5 2.5 0 0 0 .09.68l2.05-3.54A3 3 0 0 0 9 12m6 0a2.9 2.9 0 0 0-.23-1.15L12.39 15A3 3 0 0 0 15 12" opacity=".5"/><path d="m17.23 6.61-.76 1.31A10.74 10.74 0 0 1 19.34 12c-1.13 2.4-2.75 5.5-7.4 5.5a8 8 0 0 1-1-.06l-.81 1.4a10 10 0 0 0 1.8.16c6.07 0 7.88-4.5 9.07-7-.73-1.54-1.71-3.85-3.77-5.39m-5.29-.11h.71l.82-1.41A10.4 10.4 0 0 0 11.94 5C6.09 5 4.19 9.5 3 12a14.16 14.16 0 0 0 3.5 5.15l.76-1.31A11.8 11.8 0 0 1 4.66 12c1.16-2.43 2.82-5.5 7.28-5.5" opacity=".5"/><path d="m6 20 1.73 1 9.86-17-1.74-1z"/></symbol><symbol viewBox="0 0 24 24" id="HIDE_FILTERS" xmlns="http://www.w3.org/2000/svg"><path d="M8 12.43v-1h1.72L11.12 9H7a3 3 0 0 0 0 6h.65l1.49-2.57zm-1 0H6v-1h1zM17 9h-.11l-1.4 2.43H16v1h-1.09L13.43 15H17a3 3 0 0 0 0-6m1 3.43h-1v-1h1zM7.15 18.87l8.5-14.722 1.732 1-8.5 14.722z"/></symbol><symbol viewBox="0 0 24 24" id="HIERARCHICAL" xmlns="http://www.w3.org/2000/svg"><path d="M17 14.68V13.5a2 2 0 0 0-2-2h-2.25V9.89a3 3 0 1 0-1.5 0v1.61H9a2 2 0 0 0-2 2v1.18a3 3 0 1 0 1.5-.13V13.5A.51.51 0 0 1 9 13h6a.51.51 0 0 1 .5.5v1.05a3 3 0 1 0 1.5.13M10.5 7A1.5 1.5 0 1 1 12 8.5 1.5 1.5 0 0 1 10.5 7m-1 10.5A1.5 1.5 0 1 1 8 16a1.5 1.5 0 0 1 1.5 1.5M16 19a1.5 1.5 0 1 1 1.5-1.5A1.5 1.5 0 0 1 16 19"/></symbol><symbol viewBox="0 0 24 24" id="HIERARCHY" xmlns="http://www.w3.org/2000/svg"><path fill-rule="evenodd" d="M4 3v5h3v11h5v2h8v-5h-8v2H8v-6h4v2h8V9h-8v2H8V8h4V3zm1.5 3.5h4.999v-2H5.5zm8 6.001h4.999V10.5H13.5zm0 6.999h4.999v-2H13.5z"/></symbol><symbol viewBox="0 0 24 24" id="HIGHLIGHT" xmlns="http://www.w3.org/2000/svg"><path fill-rule="evenodd" d="m8.571 12.408 4.242-4.242 2.122 2.121-4.243 4.243a.5.5 0 0 1-.707 0l-1.414-1.414a.5.5 0 0 1 0-.708m6.717-6.717 2.115 2.114-.347.361-1.414 1.414-2.12-2.12zm-6.363 9.9L7.51 14.177a2.007 2.007 0 0 1 0-2.83l4.243-4.242.707-.707.707-.707.707-.707.682-.682a1.04 1.04 0 0 1 1.464 0l2.604 2.603a1.283 1.283 0 0 1 0 1.814l-.507.507-1.415 1.414-.707.707-4.242 4.244a2 2 0 0 1-2.828 0M4 20v-1h16v1zm4.606-3.606L7.5 17H5l1.622-2.622c.05.059.091.122.146.177z"/></symbol><symbol viewBox="0 0 24 24" id="HIGHLIGHT_COLUMNS" xmlns="http://www.w3.org/2000/svg"><path d="m19.71 12.22-1.41-1.41a1 1 0 0 0-1.41 0l-.71.7L19 14.34l.7-.7a1 1 0 0 0 .01-1.42m-7.77 3.54a1 1 0 0 0 0 1.41l1.41 1.42a1 1 0 0 0 1.42 0l3.53-3.54-2.83-2.83zm-2.13 3.53 2.13.71.7-.71-1.41-1.41zM4 4v13h6V4zm4.5 11.5h-3v-10h3z"/><path d="M9.66 16.62v-.16a3 3 0 0 1 .37-1.4V5.5h3v6.36l.34-.35 1.16-1.15V4h-6v13h.77z"/></symbol><symbol viewBox="0 0 24 24" id="HIGHLIGHT_ROWS" xmlns="http://www.w3.org/2000/svg"><path d="M10.77 14.09 11.86 13H5.5v-3h9.36l.85-.86A3 3 0 0 1 17 8.4V4H4v10.5h6.43a3 3 0 0 1 .34-.41M5.5 5.5h10v3h-10zM20 12l-1.42-1.41a1 1 0 0 0-1.41 0l-.71.7 2.83 2.83.71-.7A1 1 0 0 0 20 12m-7.82 3.51a1 1 0 0 0 0 1.41l1.41 1.42a1 1 0 0 0 1.42 0l3.53-3.54-2.83-2.8zm-2.12 3.53 2.12.71.71-.71-1.42-1.41z"/></symbol><symbol viewBox="0 0 24 24" id="HISTORY" xmlns="http://www.w3.org/2000/svg"><path d="M13 8v4h3v2h-5V8zm-1-4a8 8 0 0 0-7.93 7H2l3 3 3-3H5.59A6.53 6.53 0 1 1 7 16.05l-1.12 1.07A8 8 0 1 0 12 4"/></symbol><symbol viewBox="0 0 24 24" id="HOME" xmlns="http://www.w3.org/2000/svg"><path d="M17 4h-2v2l2 1zm-5 1L4 9.62V11h2v8h12v-8h2V9.62zm4.5 12.5H13V14h-2v3.5H7.5V9.33l4.5-2.6 4.5 2.6z"/></symbol><symbol viewBox="0 0 24 24" id="INDICATOR_BOTTOM" xmlns="http://www.w3.org/2000/svg"><path d="m12 19 8 5H4z"/></symbol><symbol viewBox="0 0 24 24" id="INDICATOR_DOWN" xmlns="http://www.w3.org/2000/svg"><path d="m12 17 7-6V8H5v3ZM6.5 9.5h11v.8L12 15l-5.5-4.7Z"/></symbol><symbol viewBox="0 0 24 24" id="INDICATOR_UP" xmlns="http://www.w3.org/2000/svg"><path d="m12 6-7 6v3h14v-3Zm5.5 7.5h-11v-.8L12 8l5.5 4.7Z"/></symbol><symbol viewBox="0 0 24 24" id="INFO" xmlns="http://www.w3.org/2000/svg"><path fill-rule="evenodd" d="M12.75 8v1.5h-1.5V8zm0 3v5h-1.5v-5zM12 5.5a6.5 6.5 0 1 0 6.5 6.5A6.51 6.51 0 0 0 12 5.5M12 4a8 8 0 1 1-8 8 8 8 0 0 1 8-8"/></symbol><symbol viewBox="0 0 24 24" id="INSERT" xmlns="http://www.w3.org/2000/svg"><path d="m19 9-5-5v4H8a3 3 0 0 0-3 3v8h2v-8a1 1 0 0 1 1-1h6v4z"/></symbol><symbol viewBox="0 0 24 24" id="INSIGHT" xmlns="http://www.w3.org/2000/svg"><path d="m12.56 10-3.04 1.86 2.93-.09-.01 1.08 3.04-1.86-2.99-.01zm8.91 1h-2a4.2 4.2 0 0 1 0 1h2v-.5c0-.17.01-.33 0-.5m-1.14-3.91a7.5 7.5 0 0 0-.54-.84l-1.68 1.07a7.5 7.5 0 0 1 .54.84zM17.48 4a9 9 0 0 0-.87-.51l-1 1.73a7 7 0 0 1 .86.5zM13 4.53v-2h-1v2a4.2 4.2 0 0 1 1 0m-3.57.69-1-1.73a9 9 0 0 0-.87.5l1 1.72a7.5 7.5 0 0 1 .87-.49M6.9 7.31 5.22 6.23a7.5 7.5 0 0 0-.54.84l1.68 1.07a6.6 6.6 0 0 1 .54-.83M5.5 11.5a4 4 0 0 1 0-.5h-2v1h2a4 4 0 0 1 0-.5m-.82 4.43a7.5 7.5 0 0 0 .54.84l1.68-1.08a6.6 6.6 0 0 1-.54-.83zm13.43-.25 1.68 1.07a9 9 0 0 0 .55-.84l-1.69-1.07a7.5 7.5 0 0 1-.54.84"/><path d="M11.77 5.54a6 6 0 0 0-5.21 5.12 6 6 0 0 0 1.62 5c.89.92 1.32 3.21 1.32 4.5V20l2 2h2l2-2a9 9 0 0 1 1.72-4.78 6 6 0 0 0-5.45-9.66zM14 19.38l-.12.12h-2.76l-.12-.13a8.4 8.4 0 0 0-.17-1.37h3.34a8 8 0 0 0-.17 1.38m3-7.29a4.7 4.7 0 0 1-1.18 2.49A7.1 7.1 0 0 0 14.44 17h-3.87a6.2 6.2 0 0 0-1.31-2.38A4.5 4.5 0 0 1 12 7a5 5 0 0 1 .55 0A4.5 4.5 0 0 1 17 12.09"/></symbol><symbol viewBox="0 0 24 24" id="INVENTORY" xmlns="http://www.w3.org/2000/svg"><path d="m10.75 1.939 8.65 5.406V9h-1.052l-6.698 4.186v5.628l1.873-1.17.954 1.526-3.727 2.329-8.65-5.406V7.345zm-.9 16.875v-5.628L3.9 9.468v5.627zM4.698 7.844l6.052 3.782 6.052-3.782L10.75 4.06zM17.6 12.1V11h1.8v1.1H22v1.8h-2.6v2.2h.85c1.573 0 2.65 1.415 2.65 2.9s-1.077 2.9-2.65 2.9h-.85V23h-1.8v-1.1H15v-1.8h2.6v-2.2h-.85c-1.573 0-2.65-1.415-2.65-2.9s1.077-2.9 2.65-2.9zm0 1.8h-.85c-.36 0-.85.376-.85 1.1s.49 1.1.85 1.1h.85zm1.8 4v2.2h.85c.36 0 .85-.376.85-1.1s-.49-1.1-.85-1.1z"/></symbol><symbol viewBox="0 0 24 24" id="JOIN_DOCUMENT" xmlns="http://www.w3.org/2000/svg"><path d="M14.335 14.386 15.75 15.8a2.51 2.51 0 0 1 0 3.536l-1.415 1.414a2.507 2.507 0 0 1-3.535 0l-1.415-1.414a2.51 2.51 0 0 1-.317-3.146l1.137 1.136c-.08.331-.012.696.241.95l1.414 1.413a1.01 1.01 0 0 0 1.414 0l1.415-1.414a1.014 1.014 0 0 0 0-1.414l-1.415-1.414c-.252-.253-.617-.323-.948-.242l-1.137-1.137a2.51 2.51 0 0 1 3.146.318m-7.07-2.121a.5.5 0 0 1 .707 0l4.242 4.243a.5.5 0 0 1-.707.707l-4.242-4.243a.5.5 0 0 1 0-.707m-1.061 1.768c.252.252.617.322.948.24l1.137 1.138a2.51 2.51 0 0 1-3.146-.317l-1.414-1.415a2.507 2.507 0 0 1 0-3.535l1.414-1.415a2.51 2.51 0 0 1 3.536 0l1.414 1.415a2.51 2.51 0 0 1 .318 3.146l-1.137-1.137c.08-.331.011-.696-.242-.95L7.618 9.79a1.014 1.014 0 0 0-1.414 0l-1.415 1.414a1.014 1.014 0 0 0 0 1.414zm13.503-5.326c.187.187.293.442.293.707V17a1 1 0 0 1-1 1h-.541a4 4 0 0 0-.121-1.5h.162V9.621L14.379 5.5H9.5v1.587A4 4 0 0 0 8 6.555V5a1 1 0 0 1 1-1h5.586a1 1 0 0 1 .707.293z"/></symbol><symbol viewBox="0 0 24 24" id="LINK" xmlns="http://www.w3.org/2000/svg"><path d="m14.47 15.54-6-6a.77.77 0 0 1 0-1.07.77.77 0 0 1 1.07 0l6 6a.77.77 0 0 1 0 1.07.77.77 0 0 1-1.07 0m4.81-1.81-2.08-2.08a2.44 2.44 0 0 0-3.27-.15L15 12.56a1 1 0 0 1 1.18.13l2.08 2.09a1 1 0 0 1 0 1.38l-2.08 2.08a1 1 0 0 1-1.38 0l-2.09-2.08a1 1 0 0 1-.15-1.16l-1.06-1.07a2.44 2.44 0 0 0 .15 3.27l2.08 2.08a2.45 2.45 0 0 0 3.47 0l2.08-2.08a2.45 2.45 0 0 0 0-3.47M9 11.44a1 1 0 0 1-1.18-.13L5.76 9.22a1 1 0 0 1 0-1.38l2.08-2.08a1 1 0 0 1 1.38 0l2.09 2.08A1 1 0 0 1 11.44 9l1.06 1.05a2.44 2.44 0 0 0-.15-3.27l-2.08-2.06a2.45 2.45 0 0 0-3.47 0L4.72 6.8a2.45 2.45 0 0 0 0 3.47l2.08 2.08a2.44 2.44 0 0 0 3.27.15z"/></symbol><symbol viewBox="0 0 24 24" id="LIST" xmlns="http://www.w3.org/2000/svg"><path d="M16 9.5H8V8h8zm0 1.5H8v1.5h8zm0 3H8v1.5h8zm3 6H5V4h14zM17.5 5.5h-11v13h11z"/></symbol><symbol viewBox="0 0 24 24" id="LOADING" xmlns="http://www.w3.org/2000/svg"><path d="M6.327 11.915h2.588l-3.437 3.437L2 11.915h2.588a6.73 6.73 0 0 1 .952-3.478 6.7 6.7 0 0 1 2.485-2.485A6.73 6.73 0 0 1 11.503 5a6.8 6.8 0 0 1 1.936.28 6.4 6.4 0 0 1 1.75.817L13.924 7.34q-1.097-.6-2.422-.6a5.07 5.07 0 0 0-2.598.693A5.14 5.14 0 0 0 7.02 9.317a5.07 5.07 0 0 0-.694 2.598zm11.2-3.437 3.479 3.437h-2.588a6.73 6.73 0 0 1-.952 3.478 6.7 6.7 0 0 1-2.485 2.485 6.73 6.73 0 0 1-5.403.662 7 7 0 0 1-1.76-.807L9.08 16.49q1.097.6 2.422.6a5.07 5.07 0 0 0 2.598-.693 5.14 5.14 0 0 0 1.884-1.884 5.07 5.07 0 0 0 .694-2.598H14.09z"/></symbol><symbol viewBox="0 0 24 24" id="LOCALIZE" xmlns="http://www.w3.org/2000/svg"><path d="M12 4a8 8 0 1 0 8 8 8 8 0 0 0-8-8m6.48 7.65H16.1v-.12a14.3 14.3 0 0 0-.28-2.41v-.11h.11a9 9 0 0 0 1.48-.59 6.4 6.4 0 0 1 1.07 3.23M15.76 8.3h-.12v-.12a8.7 8.7 0 0 0-.91-2.13A6.4 6.4 0 0 1 17 7.83a10 10 0 0 1-1.24.47m-3.41 3.35V9.51h.12a14.3 14.3 0 0 0 2.53-.3h.12v.12a14 14 0 0 1 .25 2.23v.12zm3.06.7v.12a14 14 0 0 1-.25 2.23v.12h-.12a14.3 14.3 0 0 0-2.54-.3h-.12v-2.17zM13.57 5.7a7 7 0 0 1 1.36 2.68v.13h-.13a13 13 0 0 1-2.37.27h-.12V5.52a6.3 6.3 0 0 1 1.26.18m-3.14 12.6a7 7 0 0 1-1.36-2.68v-.13h.13a13 13 0 0 1 2.37-.27h.12v3.3a6.3 6.3 0 0 1-1.26-.22m1.22-6v2.14h-.12a14.3 14.3 0 0 0-2.54.3h-.12v-.12a14 14 0 0 1-.25-2.23v-.12zm-3.06-.7v-.12a14 14 0 0 1 .25-2.18v-.12h.12a14.3 14.3 0 0 0 2.54.3h.12v2.14zm2.94-2.84a13 13 0 0 1-2.37-.27L9 8.51v-.13a6.9 6.9 0 0 1 1.38-2.69 7 7 0 0 1 1.2-.17v3.3zM9.31 6.09a8.7 8.7 0 0 0-.91 2.13v.12h-.12A10 10 0 0 1 7 7.83a6.4 6.4 0 0 1 2.31-1.74M8.09 9h.11v.11a14.4 14.4 0 0 0-.28 2.41v.12h-2.4a6.4 6.4 0 0 1 1.09-3.26A9 9 0 0 0 8.09 9m-2.57 3.35H7.9v.12a14.4 14.4 0 0 0 .28 2.41v.11h-.11a9 9 0 0 0-1.48.59 6.4 6.4 0 0 1-1.07-3.23m2.72 3.35h.12v.12a8.7 8.7 0 0 0 .91 2.13A6.4 6.4 0 0 1 7 16.17a10 10 0 0 1 1.24-.47m4.11-.52h.12a13 13 0 0 1 2.37.27h.13v.13a6.9 6.9 0 0 1-1.38 2.69 7 7 0 0 1-1.2.17zm2.34 2.73a8.7 8.7 0 0 0 .91-2.13v-.12h.12a10 10 0 0 1 1.22.47 6.4 6.4 0 0 1-2.25 1.78M15.91 15h-.11v-.11a14.3 14.3 0 0 0 .28-2.41v-.12h2.38a6.4 6.4 0 0 1-1.09 3.27 9 9 0 0 0-1.46-.63"/></symbol><symbol viewBox="0 0 24 24" id="LOCK" xmlns="http://www.w3.org/2000/svg"><path d="M17 11V9A5 5 0 0 0 7 9v2a1 1 0 0 0-1 1v7a1 1 0 0 0 1 1h10a1 1 0 0 0 1-1v-7a1 1 0 0 0-1-1M8.48 9a3.5 3.5 0 0 1 7 0v2h-7zm8 9.5h-9v-6h9z"/></symbol><symbol viewBox="0 0 24 24" id="LOCKED_TASK" xmlns="http://www.w3.org/2000/svg"><path d="M12 7.5A1.5 1.5 0 0 0 10.5 9v2h3V9A1.5 1.5 0 0 0 12 7.5"/><path d="M12 4a8 8 0 1 0 8 8 8 8 0 0 0-8-8m4 12a1 1 0 0 1-1 1H9a1 1 0 0 1-1-1v-4a1 1 0 0 1 1-1V9a3 3 0 0 1 6 0v2a1 1 0 0 1 1 1z"/></symbol><symbol viewBox="0 0 24 24" id="LOG_OUT" xmlns="http://www.w3.org/2000/svg"><path d="M17 11V9A5 5 0 0 0 7 9v2a1 1 0 0 0-1 1v7a1 1 0 0 0 1 1h10a1 1 0 0 0 1-1v-7a1 1 0 0 0-1-1M8.48 9a3.5 3.5 0 0 1 7 0v2h-7zm8 9.5h-9v-6h9z"/></symbol><symbol viewBox="0 0 24 24" id="MANUFACTURING" xmlns="http://www.w3.org/2000/svg"><path fill-rule="evenodd" d="M7.699 2.281c-1.047.106-2.053.599-3.079 1.508-.652.578-1.466 1.594-2.005 2.502C2.396 6.661 1.501 8.4 1.53 8.4c.005 0 .442-.154.97-.342 1.489-.531 2.205-.692 3.24-.726.743-.025 1.158.034 1.561.222.512.24.775.619.863 1.243a4.2 4.2 0 0 1-.077 1.423c-.052.193-.802 1.732-2.404 4.936-1.379 2.756-2.312 4.666-2.288 4.681.069.043 6.884 2.097 6.898 2.08.007-.01.621-2.24 1.365-4.957.909-3.318 1.396-5.032 1.484-5.22.181-.385.496-.696.914-.902.289-.142.696-.26.741-.215.009.01-.093.372-.228.806-.134.434-.237.797-.227.806s1.128.354 2.487.766c2.152.652 2.475.74 2.502.684.045-.093 2.627-8.381 2.615-8.393-.033-.032-4.924-1.493-4.96-1.481-.025.009-.129.284-.232.612-.137.438-.202.594-.245.586-.033-.005-1.657-.587-3.61-1.292-1.952-.704-3.696-1.315-3.875-1.356a4.4 4.4 0 0 0-1.325-.08m.949 1.524c.219.046 7.392 2.619 7.437 2.668.015.015-.157.612-.381 1.327l-.407 1.3-.46.025c-.722.04-1.298.229-1.877.618-.313.21-.758.658-.94.947-.066.104-.144.19-.173.19-.03 0-.536-.146-1.125-.325l-1.071-.325.019-.725c.016-.631.007-.778-.067-1.136-.107-.516-.203-.775-.405-1.087-.568-.878-1.504-1.356-2.818-1.437-.432-.027-1.363.007-1.597.059l-.119.026.178-.215A9.3 9.3 0 0 1 6.07 4.531c.402-.301.966-.585 1.37-.689.342-.088.887-.105 1.208-.037m10.365 2.152c.568.173 1.04.323 1.049.332.015.015-1.695 5.551-1.727 5.587-.017.019-2.063-.596-2.105-.633-.029-.026 1.692-5.604 1.73-5.602.011 0 .485.143 1.053.316m-8.927 5.964c.514.155 1.016.308 1.117.341l.183.06-1.058 3.849a381 381 0 0 1-1.074 3.867c-.013.014-2.049-.587-3.395-1.004l-.374-.116 1.808-3.637c.994-2.001 1.819-3.638 1.833-3.639s.446.125.96.279"/></symbol><symbol viewBox="0 0 24 24" id="MAP" xmlns="http://www.w3.org/2000/svg"><path d="M18.47 8.61A6.55 6.55 0 0 0 12.33 3h-.68a6.53 6.53 0 0 0-6.12 5.61A6.13 6.13 0 0 0 6 11.74c.61 1.42 1.81 2.52 2.59 3.83a37 37 0 0 1 2.43 4.6c.21.43.39.88.56 1.33h.8a5 5 0 0 1 .53-1.33 38 38 0 0 1 2.41-4.6c.79-1.31 2-2.42 2.6-3.83a6.23 6.23 0 0 0 .55-3.13m-1.79 2.56a10.2 10.2 0 0 1-1.32 2 18 18 0 0 0-1.21 1.69 39 39 0 0 0-2.16 4 38 38 0 0 0-2.18-4 17 17 0 0 0-1.19-1.67 9.8 9.8 0 0 1-1.31-2 4.85 4.85 0 0 1-.39-2.46 5.13 5.13 0 0 1 4.81-4.36h.6a5.13 5.13 0 0 1 4.76 4.41 4.85 4.85 0 0 1-.41 2.39"/><circle cx="12" cy="9.5" r="2"/></symbol><symbol viewBox="0 0 24 24" id="MASTER_DETAIL" xmlns="http://www.w3.org/2000/svg"><path d="M4 5h7v2H4zm0 4h7v2H4zm0 4h7v2H4zm0 4h7v2H4zm9-12v14h7V5zm5.5 12.5h-4v-11h4z"/></symbol><symbol viewBox="0 0 24 24" id="MAXIMIZE" xmlns="http://www.w3.org/2000/svg"><path d="M8.54 16.88 10.66 19H5v-5.66l2.12 2.12 1.78-1.77 1.33-1.34 1.42 1.42-1.34 1.33zM13.34 5l2.12 2.12-3.11 3.11 1.42 1.42 3.11-3.11L19 10.66V5z"/></symbol><symbol viewBox="0 0 24 24" id="MEMO_ADD" xmlns="http://www.w3.org/2000/svg"><path fill-rule="evenodd" d="M20 18v-2h-2v2h-2v2h2v2h2v-2h2v-2zm4-10v16H8z"/></symbol><symbol viewBox="0 0 24 24" id="MEMO_HOVER" xmlns="http://www.w3.org/2000/svg"><path d="M24 14v10H14z"/></symbol><symbol viewBox="0 0 24 24" id="MEMO_PRESENT" xmlns="http://www.w3.org/2000/svg"><path d="M24 16v8h-8z"/></symbol><symbol viewBox="0 0 24 24" id="MESSAGE" xmlns="http://www.w3.org/2000/svg"><path d="M12 4c-5 0-9 3.36-9 7.5a6.75 6.75 0 0 0 2 4.71V21l7-2c5 0 9-3.36 9-7.5S17 4 12 4m0 13.5h-.21L6.5 19v-3.4l-.42-.44A5.23 5.23 0 0 1 4.5 11.5c0-3.31 3.36-6 7.5-6s7.5 2.69 7.5 6-3.36 6-7.5 6"/><circle cx="8" cy="11.75" r="1.25"/><circle cx="12" cy="11.75" r="1.25"/><circle cx="16" cy="11.75" r="1.25"/></symbol><symbol viewBox="0 0 24 24" id="MINIMIZE" xmlns="http://www.w3.org/2000/svg"><path d="M16.54 8.88 18.66 11H13V5.34l2.12 2.12 1.78-1.77 1.59-1.59 1.41 1.41-1.59 1.59zM5.34 13l2.12 2.12-3.36 3.37 1.41 1.41 3.37-3.36L11 18.66V13z"/></symbol><symbol viewBox="0 0 24 24" id="MINI_MAP" xmlns="http://www.w3.org/2000/svg"><path d="m16 4-4 3-4-3-4 3v13l4-3 4 3 4-3 4 3V7zM7.5 15.5l-2 1.5V7.75l2-1.5zm1-9.25 3 2.25v9.25l-3-2.25zm4 2.25 3-2.25v9.25l-3 2.25zm6 8.5-2-1.5V6.25l2 1.5z"/></symbol><symbol viewBox="0 0 24 24" id="MINUS" xmlns="http://www.w3.org/2000/svg"><path d="M5 13h14v-2H5z"/></symbol><symbol viewBox="0 0 24 24" id="MOBILE" xmlns="http://www.w3.org/2000/svg"><path d="M17 4H7a1 1 0 0 0-1 1v15a1 1 0 0 0 1 1h10a1 1 0 0 0 1-1V5a1 1 0 0 0-1-1m-5 16.5a1 1 0 1 1 1-1 1 1 0 0 1-1 1m4.5-2.5h-9V5.5h9z"/></symbol><symbol viewBox="0 0 24 24" id="MONEY" xmlns="http://www.w3.org/2000/svg"><path d="M12 4s-2 0-4 3a10.76 10.76 0 0 1-5 4l5.66 5.55a20.4 20.4 0 0 0 5-5 10.25 10.25 0 0 1 4-3zm.41 6.72a18.3 18.3 0 0 1-3.62 3.86L5.54 11.4a12.3 12.3 0 0 0 3.71-3.57 5.6 5.6 0 0 1 2.37-2.21L15 8.31a9.1 9.1 0 0 0-2.59 2.41"/><path d="m10.6 8.23-.31.43a12.8 12.8 0 0 1-1.78 2.13l1.05 1A6.2 6.2 0 0 0 11 10.35c.21-.32.44-.76.69-1.17zM17.5 12c-1.93 0-3.5 1.12-3.5 2.5s1.57 2.5 3.5 2.5 3.5-1.12 3.5-2.5-1.57-2.5-3.5-2.5m0 3.5c-1.24 0-2-.65-2-1s.76-1 2-1 2 .65 2 1-.76 1-2 1m-5 .5v-1a22 22 0 0 1-3.29 2.82l-.68.46L3 12.86v1.24L8.66 20a21 21 0 0 0 3.84-3.48zm5 2.5c-1.24 0-2-.65-2-1H14c0 1.38 1.57 2.5 3.5 2.5s3.5-1.12 3.5-2.5h-1.5c0 .35-.76 1-2 1"/></symbol><symbol viewBox="0 0 24 24" id="MOVE_BOTTOM" xmlns="http://www.w3.org/2000/svg"><path d="M7 18h10v2H7zm5-1 5-5h-4V4h-2v8H7z"/></symbol><symbol viewBox="0 0 24 24" id="MOVE_DOWN" xmlns="http://www.w3.org/2000/svg"><path d="m17 14-5 5-5-5h4V5h2v9z"/></symbol><symbol viewBox="0 0 24 24" id="MOVE_FIRST" xmlns="http://www.w3.org/2000/svg"><path d="M7 7v10H5V7zm6 10-5-5 5-5v4h6v2h-6z"/></symbol><symbol viewBox="0 0 24 24" id="MOVE_LAST" xmlns="http://www.w3.org/2000/svg"><path d="M19 7v10h-2V7zm-8 6H5v-2h6V7l5 5-5 5z"/></symbol><symbol viewBox="0 0 24 24" id="MOVE_LEFT" xmlns="http://www.w3.org/2000/svg"><path d="M10 11h9v2h-9v4l-5-5 5-5z"/></symbol><symbol viewBox="0 0 24 24" id="MOVE_RIGHT" xmlns="http://www.w3.org/2000/svg"><path d="M14 11H5v2h9v4l5-5-5-5z"/></symbol><symbol viewBox="0 0 24 24" id="MOVE_TOGETHER" xmlns="http://www.w3.org/2000/svg"><path d="M12.3 6.25H18V4l3 3-3 3V7.75h-4zm-1.8 0H6V4L3 6.75 6 10V7.75h4.5zm6.56 15 1.37-.61L16 15.13 18.61 14 12 8v8.9l2.61-1.16z"/></symbol><symbol viewBox="0 0 24 24" id="MOVE_TOP" xmlns="http://www.w3.org/2000/svg"><path d="M17 4v2H7V4zm-5 3-5 5h4v8h2v-8h4z"/></symbol><symbol viewBox="0 0 24 24" id="MOVE_UP" xmlns="http://www.w3.org/2000/svg"><path d="m17 10-5-5-5 5h4v9h2v-9z"/></symbol><symbol viewBox="0 0 24 24" id="NEUTRAL_FILLED" xmlns="http://www.w3.org/2000/svg"><path d="M12 3a9 9 0 1 0 9 9 9 9 0 0 0-9-9m-4.5 7A1.5 1.5 0 1 1 9 11.5 1.5 1.5 0 0 1 7.5 10m7.62 4.74-6 1H9a.75.75 0 0 1-.12-1.49l6-1a.75.75 0 1 1 .24 1.48zM15 11.5a1.5 1.5 0 1 1 1.5-1.5 1.5 1.5 0 0 1-1.5 1.5"/></symbol><symbol viewBox="0 0 24 24" id="NEUTRAL_OUTLINE" xmlns="http://www.w3.org/2000/svg"><path d="M12 3a9 9 0 1 0 9 9 9 9 0 0 0-9-9m0 16.5a7.5 7.5 0 1 1 7.5-7.5 7.5 7.5 0 0 1-7.5 7.5"/><circle cx="9" cy="10" r="1.5"/><circle cx="15" cy="10" r="1.5"/><path d="m14.88 13.26-6 1A.75.75 0 0 0 9 15.75h.12l6-1a.75.75 0 1 0-.24-1.48z"/></symbol><symbol viewBox="0 0 24 24" id="NOTE" xmlns="http://www.w3.org/2000/svg"><path d="M20 5H4v15h9l7-7zm-6.5 12.38V13.5h3.88zm5-5.38H12v6.5H5.5v-12h13z"/></symbol><symbol viewBox="0 0 24 24" id="NULL_VALUE" xmlns="http://www.w3.org/2000/svg"><path d="M16.351 11.951c0 3.032-2.019 5.5-4.5 5.5-1.159 0-2.214-.543-3.013-1.426l6.877-6.878a6.4 6.4 0 0 1 .636 2.804m-9 0c0-3.032 2.02-5.5 4.5-5.5 1.16 0 2.214.544 3.013 1.427l-6.877 6.877a6.4 6.4 0 0 1-.636-2.804m12.351-6.79a11 11 0 0 0-.96-1.16l-2.82 2.818c-1.07-1.155-2.497-1.868-4.07-1.868-3.314 0-6 3.134-6 7a7.8 7.8 0 0 0 1.024 3.914L4 18.742q.443.619.96 1.16l2.82-2.819c1.07 1.156 2.498 1.868 4.071 1.868 3.314 0 6-3.134 6-7a7.8 7.8 0 0 0-1.025-3.914z"/></symbol><symbol viewBox="0 0 24 24" id="NUMBERS" xmlns="http://www.w3.org/2000/svg"><path d="M20.77 10.08a2.15 2.15 0 0 1-.46 1.4 2.28 2.28 0 0 1-1.27.79 2.36 2.36 0 0 1 1.46.73 1.9 1.9 0 0 1 .5 1.38 2.46 2.46 0 0 1-.83 2 3.6 3.6 0 0 1-2.38.7 5.4 5.4 0 0 1-2.3-.47V15a5.2 5.2 0 0 0 1 .42 3.8 3.8 0 0 0 1.1.16 2 2 0 0 0 1.23-.31 1.21 1.21 0 0 0 .4-1 .92.92 0 0 0-.46-.87 3.14 3.14 0 0 0-1.46-.26h-.61v-1.47h.62a2.6 2.6 0 0 0 1.35-.27 1 1 0 0 0 .43-.91c0-.66-.38-1-1.13-1a2.3 2.3 0 0 0-.8.14 3.8 3.8 0 0 0-.9.5l-.76-1.27A4.07 4.07 0 0 1 18.1 8a3.12 3.12 0 0 1 1.95.55 1.82 1.82 0 0 1 .72 1.53m-6.68 6.8H8.52v-1.29l2-2.22c.59-.67 1-1.13 1.16-1.38a3.2 3.2 0 0 0 .39-.72 2 2 0 0 0 .12-.68 1 1 0 0 0-.26-.79 1 1 0 0 0-.71-.26 1.9 1.9 0 0 0-.9.24 4.5 4.5 0 0 0-.9.66L8.5 9.25a5.6 5.6 0 0 1 1-.78 3.2 3.2 0 0 1 .84-.35 4 4 0 0 1 1-.12 2.8 2.8 0 0 1 1.32.3 2.2 2.2 0 0 1 .89.84 2.4 2.4 0 0 1 .32 1.23 3.3 3.3 0 0 1-.2 1.14 4.5 4.5 0 0 1-.6 1.08 15 15 0 0 1-1.43 1.59l-1 1.06v.08h3.47zM5.32 8.13 3 10.18l.78 1.09L5 10.07l.02 1.74v5.07H6.7V8.13z"/></symbol><symbol viewBox="0 0 24 24" id="NUMERIC" xmlns="http://www.w3.org/2000/svg"><path d="m18.8 10.5.27-1.5h-3L17 5h-1.52l-.91 4h-3.78l.9-4h-1.52l-.91 4h-3.2l-.27 1.5h3.13l-.67 3h-3L5 15h2.91L7 19h1.52l.91-4h3.78l-.9 4h1.52l.91-4H18l.27-1.5h-3.19l.67-3zm-5.25 3H9.77l.68-3h3.78z"/></symbol><symbol viewBox="0 0 24 24" id="OPEN_NEW" xmlns="http://www.w3.org/2000/svg"><path d="M19 5v6l-2.29-2.29-6.3 6.29L9 13.59l6.29-6.3L13 5zm-1.5 9v4.5h-12v-12H11V5H5a1 1 0 0 0-1 1v13a1 1 0 0 0 1 1h13a1 1 0 0 0 1-1v-5z"/></symbol><symbol viewBox="0 0 24 24" id="OVERFLOW" xmlns="http://www.w3.org/2000/svg"><path d="M19 14a2 2 0 1 1 0-4 2 2 0 0 1 0 4m-7 0a2 2 0 1 1 0-4 2 2 0 0 1 0 4m-7 0a2 2 0 1 1 0-4 2 2 0 0 1 0 4"/></symbol><symbol viewBox="0 0 24 24" id="OVERVIEW" xmlns="http://www.w3.org/2000/svg"><path d="M11 20H4V4h7zm2 0h7v-7h-7zm7-9V4h-7v7z"/></symbol><symbol viewBox="0 0 24 24" id="PAGINATION" xmlns="http://www.w3.org/2000/svg"><path d="M3.92 16h2.31l-1.44 2.5L6.23 21H3.92L2.5 18.5zm16.16 0h-2.31l1.44 2.5-1.44 2.5h2.31l1.42-2.5zm-2.58 2.5A1.5 1.5 0 1 1 16 17a1.5 1.5 0 0 1 1.5 1.5m-4 0A1.5 1.5 0 1 1 12 17a1.5 1.5 0 0 1 1.5 1.5m-4 0A1.5 1.5 0 1 1 8 17a1.5 1.5 0 0 1 1.5 1.5M13 3H7v12h10V7zM8.5 13.5v-9H12V8h3.5v5.5z"/></symbol><symbol viewBox="0 0 24 24" id="PARENT_RECORD" xmlns="http://www.w3.org/2000/svg"><path d="M7 11.5h8v.5H7zM7 16h8v.5H7zm0-9h8v.5H7zm9 0h1v.5h-1zm0 9h1v.5h-1zm0-4.5h1v.5h-1z"/><path d="M4 4v15.5h16V4zm14.5 13.5a.5.5 0 0 1-.5.5H6a.5.5 0 0 1-.5-.5V15a.5.5 0 0 1 .5-.5h12a.5.5 0 0 1 .5.5zm0-4.5a.5.5 0 0 1-.5.5H6a.5.5 0 0 1-.5-.5v-2.5A.5.5 0 0 1 6 10h12a.5.5 0 0 1 .5.5zm0-4.5a.5.5 0 0 1-.5.5H6a.5.5 0 0 1-.5-.5V6a.5.5 0 0 1 .5-.5h12a.5.5 0 0 1 .5.5z"/></symbol><symbol viewBox="0 0 24 24" id="PARTNERS" xmlns="http://www.w3.org/2000/svg"><path d="M6.5 8.83A2.5 2.5 0 0 0 9 6.33V5.5a2.5 2.5 0 0 0-5 0v.83a2.5 2.5 0 0 0 2.5 2.5M5.25 5.5a1.25 1.25 0 0 1 2.5 0v.83a1.25 1.25 0 0 1-2.5 0zM12 13.4c-2-1.22-6.57-3.9-7-3.9a2 2 0 0 0-2 2V20h7v-6l2 1zm-3.5 5.1h-4v-7.05a.51.51 0 0 1 .35-.45c.49.22 1.71.87 3.65 2zM20 6.33V5.5a2.5 2.5 0 0 0-5 0v.83a2.5 2.5 0 0 0 5 0m-1.25 0a1.25 1.25 0 0 1-2.5 0V5.5a1.25 1.25 0 0 1 2.5 0zM12 15l2-1v6h7v-8.5a2 2 0 0 0-2-2c-.43 0-5 2.68-7 3.9zm3.5-2c1.94-1.11 3.16-1.76 3.65-2a.51.51 0 0 1 .35.43v7.07h-4z"/></symbol><symbol viewBox="0 0 24 24" id="PAUSE" xmlns="http://www.w3.org/2000/svg"><path fill-rule="evenodd" d="M5 12v8h6V4H5zm8 0v8h6V4h-6zm-4 0v6H7V6h2zm8 0v6h-2V6h2z"/></symbol><symbol viewBox="0 0 24 24" id="PAYABLES" xmlns="http://www.w3.org/2000/svg"><path fill-rule="evenodd" d="M5 20h17.5V8h-2v10H5zm-3-3.5h17V4H2zM7 10h2.625v4h1.75v-4H14l-3.5-3.5z" clip-rule="evenodd"/></symbol><symbol viewBox="0 0 24 24" id="PERFORMANCE" xmlns="http://www.w3.org/2000/svg"><path d="M15.31 15.29a3.5 3.5 0 0 1 .23 1.25 3.4 3.4 0 0 1 0 .46H19v-5l-.83-1.67z" opacity=".3"/><path d="M18.27 7.16 17 6.41l-4.71 8.15h-.22a2 2 0 1 0 2 2 2 2 0 0 0-.46-1.26zm.43 2.25-.86 1.48a5.5 5.5 0 0 1 .66 2.61v3h-3a3.4 3.4 0 0 1-.29 1.5H19a1 1 0 0 0 1-1v-3.5a7.13 7.13 0 0 0-1.3-4.09"/><path d="M8.54 16.54H5.5v-3a6.27 6.27 0 0 1 6.5-6 6.8 6.8 0 0 1 2.36.42l.77-1.32A8.3 8.3 0 0 0 12 6a7.76 7.76 0 0 0-8 7.5V17a1 1 0 0 0 1 1h3.87a3.4 3.4 0 0 1-.33-1.46"/></symbol><symbol viewBox="0 0 24 24" id="PERSON" xmlns="http://www.w3.org/2000/svg"><path d="M12 10a3 3 0 0 0 3-3V6a3 3 0 0 0-6 0v1a3 3 0 0 0 3 3m-1.5-4a1.5 1.5 0 0 1 3 0v1a1.5 1.5 0 0 1-3 0zm5.12 4.43a5 5 0 0 1-7.24 0C6.36 11 5 11.91 5 13v8h14v-8c0-1.09-1.36-2-3.38-2.57m1.88 9.07h-11V13a3.26 3.26 0 0 1 1.5-.88 6.46 6.46 0 0 0 8 0 3 3 0 0 1 1.52.93z"/></symbol><symbol viewBox="0 0 24 24" id="PIN" xmlns="http://www.w3.org/2000/svg"><path d="m15.519 9.926-2.478 2.479.387.928c.374.896.059 1.952-.417 2.86l-5.88-5.88c.73-.381 1.413-.583 1.997-.583.312 0 .595.054.864.167l.927.386 2.478-2.478.071-.495c.1-.697.198-1.247.291-1.682l3.937 3.937a25 25 0 0 1-1.682.29zm4.805.146-2.828-2.83-.707-.707-.708-.707L13.253 3c-.707.707-1.034 2.448-1.269 4.098l-1.415 1.414c-1.995-.832-4.212.32-5.801 1.56l3.535 3.535L3 19.617l.707.707 6.01-5.302 3.536 3.535c1.239-1.59 2.391-3.806 1.559-5.802l1.415-1.414c1.649-.236 3.39-.562 4.097-1.27z"/></symbol><symbol viewBox="0 0 24 24" id="PIN_COLUMNS" xmlns="http://www.w3.org/2000/svg"><path d="M10 17h.29l1-.95-.55-.55H10v-10h3v5.79a4 4 0 0 1 .6 0 5 5 0 0 1 .9.09V4H4v13zM5.5 5.5h3v10h-3z"/><path d="m21.14 13.22-1.41-1.41-.73-.71-1.39-1.41c-.08.37-.25 1.91-.25 1.91l-2.1 2.11s-1.9-1.2-3.31.22l2.12 2.12-4.24 4.24.71.71 4.24-4.24 2.12 2.12c1.41-1.42.21-3.31.21-3.31l2.11-2.11s1.55-.16 1.92-.24"/></symbol><symbol viewBox="0 0 24 24" id="PIN_ROWS" xmlns="http://www.w3.org/2000/svg"><path d="M10.21 13.68a2 2 0 0 1 .12-.68H5.51v-3h10v.64l.2-.2c.06-.55.14-1.14.2-1.42A2 2 0 0 1 17 7.65V4H4v10.5h6.38a1.9 1.9 0 0 1-.17-.82M5.51 5.5h10v3h-10zM21.4 13 20 11.56l-.71-.71-1.43-1.41c-.07.37-.24 1.91-.24 1.91l-2.11 2.11s-1.89-1.2-3.3.22l2.12 2.12-4.24 4.2.7.71 4.21-4.2 2.12 2.12c1.41-1.42.21-3.31.21-3.31l2.11-2.11S21 13.05 21.4 13"/></symbol><symbol viewBox="0 0 24 24" id="PIVOT_TABLE" xmlns="http://www.w3.org/2000/svg"><path d="M8 4h12v2H8zm9.23 4-2.77 3.69h1.85v.93a2.78 2.78 0 0 1-2.77 2.77h-1.85V13.5L8 16.27 11.69 19v-1.81h1.85a4.6 4.6 0 0 0 4.61-4.59v-.95H20zM6 8v12H4V8z"/></symbol><symbol viewBox="0 0 24 24" id="PLAY" xmlns="http://www.w3.org/2000/svg"><path fill-rule="evenodd" d="M5 12.5c0 6.503.01 8.145.05 8.129.178-.071 14.957-8.103 14.957-8.129S5.228 4.442 5.05 4.371C5.01 4.355 5 5.997 5 12.5m6.498-2.403 4.424 2.397-.111.068c-.159.097-8.773 4.758-8.794 4.758-.009 0-.017-2.17-.017-4.823 0-2.901.015-4.818.037-4.81.02.007 2.027 1.092 4.461 2.41"/></symbol><symbol viewBox="0 0 24 24" id="POLYMORPH" xmlns="http://www.w3.org/2000/svg"><path d="m5 10 1 1 3-3 2 2V5H6l2 2zm16 4-1-1-3 3-2-2v5h5l-2-2zM5 13v7h7v-7zm5.5 5.5h-4v-4h4zm7-14.5L13 11h9zm0 2.31 2.21 3.44h-4.42z"/></symbol><symbol viewBox="0 0 24 24" id="PREVIEW" xmlns="http://www.w3.org/2000/svg"><path fill-rule="evenodd" d="M11.94 5c6.066 0 7.874 4.502 9.06 7-1.186 2.498-2.994 7-9.06 7-5.853 0-7.75-4.502-8.94-7 1.19-2.498 3.087-7 8.94-7m0 12.5c4.65 0 6.27-3.098 7.403-5.5-1.134-2.402-2.753-5.5-7.403-5.5-4.464 0-6.124 3.075-7.28 5.5 1.155 2.425 2.816 5.5 7.28 5.5M12 9a3 3 0 1 1 0 6 3 3 0 0 1 0-6"/></symbol><symbol viewBox="0 0 24 24" id="PRINT" xmlns="http://www.w3.org/2000/svg"><path d="M19 10h-2V7l-3-3H7v6H5a1 1 0 0 0-1 1v4h2v5h12v-5h2v-4a1 1 0 0 0-1-1M8.5 5.5h4.88l2.12 2.12V10h-7zm8 13h-9V13h9zM15 17H9v-1h6zm0-2H9v-1h6z"/></symbol><symbol viewBox="0 0 24 24" id="PRODUCT_CATEGORY" xmlns="http://www.w3.org/2000/svg"><path d="M9 3h6v6H9zM4 14v6h6v-6zm4.5 4.5h-3v-3h3zM14 14v6h6v-6zm4.5 4.5h-3v-3h3zM4 11h16v1H4z"/></symbol><symbol viewBox="0 0 24 24" id="PURCHASE" xmlns="http://www.w3.org/2000/svg"><path fill-rule="evenodd" d="M6.1 2.1h10.273L21.9 7.627V21.9H13v-1.8h7.1V8.9h-5v-5H7.9V9H6.1zm10.8 3.073L18.827 7.1H16.9zM7 10.939 11.9 14v5.5L7 22.56 2.1 19.5V14zm-3.1 5.185 2.2 1.375v2.377l-2.2-1.375zm4 3.752 2.2-1.375v-2.377l-2.2 1.375zM7 15.94l2.302-1.44L7 13.061 4.698 14.5z" clip-rule="evenodd"/></symbol><symbol viewBox="0 0 24 24" id="RADIUS" xmlns="http://www.w3.org/2000/svg"><path fill-rule="evenodd" d="M7 4v14h14v2H5V4zm10.3 9c-1-2.4-2.9-4.3-5.3-5.3V9L8 7l4-2v1.6c3 1.1 5.3 3.4 6.4 6.4H20l-2 4-2-4z" clip-rule="evenodd"/></symbol><symbol viewBox="0 0 24 24" id="RANKING_FILLED" xmlns="http://www.w3.org/2000/svg"><path d="M12 4a8 8 0 1 0 8 8 8 8 0 0 0-8-8"/></symbol><symbol viewBox="0 0 24 24" id="RANKING_OUTLINE" xmlns="http://www.w3.org/2000/svg"><path d="M12 4a8 8 0 1 0 8 8 8 8 0 0 0-8-8m0 15a7 7 0 1 1 7-7 7 7 0 0 1-7 7"/></symbol><symbol viewBox="0 0 24 24" id="RANK_1_FILLED" xmlns="http://www.w3.org/2000/svg"><path d="M12 4a8 8 0 1 0 0 16 8 8 0 0 0 0-16m1.248 11.556h-1.475v-4.04l.015-.663.023-.726a8 8 0 0 1-.51.482l-.803.645-.71-.888 2.248-1.79h1.212z"/></symbol><symbol viewBox="0 0 24 24" id="RANK_1_OUTLINE" xmlns="http://www.w3.org/2000/svg"><path d="M12 4a8 8 0 1 1 0 16 8 8 0 0 1 0-16m0 14.667a6.667 6.667 0 1 0 0-13.334 6.667 6.667 0 0 0 0 13.334m1.248-3.111h-1.475v-4.04l.015-.663.023-.726a8 8 0 0 1-.51.482l-.803.645-.71-.888 2.248-1.79h1.212z"/></symbol><symbol viewBox="0 0 24 24" id="RANK_2_FILLED" xmlns="http://www.w3.org/2000/svg"><path d="M12 4a8 8 0 1 1 0 16 8 8 0 0 1 0-16m2.48 11.556v-1.242h-3.04v-.067l.898-.845q.897-.82 1.253-1.265t.525-.866q.17-.423.17-.905 0-.554-.277-.984a1.84 1.84 0 0 0-.779-.668 2.66 2.66 0 0 0-1.155-.239q-.496 0-.898.098a3.1 3.1 0 0 0-.74.28q-.338.18-.854.62l.802.95q.416-.344.797-.53a1.8 1.8 0 0 1 .788-.186q.387 0 .618.205.232.206.232.626 0 .282-.105.544a2.4 2.4 0 0 1-.344.57q-.24.309-1.017 1.106l-1.752 1.771v1.027h4.88z"/></symbol><symbol viewBox="0 0 24 24" id="RANK_2_OUTLINE" xmlns="http://www.w3.org/2000/svg"><path d="M12 4a8 8 0 1 1 0 16 8 8 0 0 1 0-16m0 14.667a6.667 6.667 0 1 0 0-13.334 6.667 6.667 0 0 0 0 13.334m2.48-3.111H9.6v-1.027l1.753-1.771q.779-.798 1.017-1.105a2.4 2.4 0 0 0 .344-.571 1.5 1.5 0 0 0 .105-.544q0-.42-.232-.626-.231-.205-.618-.205-.405 0-.788.186-.381.186-.797.53l-.802-.95q.515-.44.854-.62.34-.183.74-.28.402-.098.898-.098.654 0 1.155.239.502.24.779.668.277.43.277.984 0 .482-.17.905-.17.422-.525.866-.356.444-1.253 1.265l-.898.845v.067h3.041z"/></symbol><symbol viewBox="0 0 24 24" id="RANK_3_FILLED" xmlns="http://www.w3.org/2000/svg"><path d="M12 4a8 8 0 1 1 0 16 8 8 0 0 1 0-16m2.208 6.137q0-.783-.628-1.223-.627-.439-1.711-.439-1.323 0-2.278.688l.683 1.017q.435-.282.79-.397.355-.114.7-.114.993 0 .993.792 0 .516-.375.728-.375.213-1.186.213h-.54v1.131h.53q.879 0 1.28.206.4.205.4.697 0 .55-.348.797-.348.248-1.079.248a3.8 3.8 0 0 1-.964-.129 4.6 4.6 0 0 1-.893-.334v1.256q.878.377 2.015.377 1.356 0 2.086-.56.73-.562.73-1.57 0-.691-.434-1.1-.434-.408-1.28-.513v-.029q.717-.171 1.113-.63t.396-1.112"/></symbol><symbol viewBox="0 0 24 24" id="RANK_3_OUTLINE" xmlns="http://www.w3.org/2000/svg"><path d="M12 4a8 8 0 1 1 0 16 8 8 0 0 1 0-16m0 14.667a6.667 6.667 0 1 0 0-13.334 6.667 6.667 0 0 0 0 13.334m2.208-8.53q0 .654-.396 1.112t-1.113.63v.029q.846.105 1.28.513t.434 1.1q0 1.008-.73 1.57-.73.56-2.086.56-1.137 0-2.015-.377v-1.256q.405.205.893.334.486.13.964.13.73 0 1.079-.249.348-.248.349-.797 0-.492-.402-.697-.4-.206-1.279-.206h-.53v-1.131h.54q.81 0 1.186-.213.375-.212.375-.728 0-.792-.993-.792-.345 0-.7.114-.355.115-.79.397l-.683-1.017q.955-.688 2.278-.688 1.083 0 1.711.44.628.438.628 1.222"/></symbol><symbol viewBox="0 0 24 24" id="RANK_4_FILLED" xmlns="http://www.w3.org/2000/svg"><path d="M12 4a8 8 0 1 1 0 16 8 8 0 0 1 0-16m2.638 10.109v-1.146h-.84V8.576h-1.361l-3.06 4.506v1.027h2.979v1.447h1.442v-1.447zm-2.282-1.146h-1.68l1.279-1.933a5.4 5.4 0 0 0 .425-.764h.038q-.015.09-.038.654-.024.563-.024.86z"/></symbol><symbol viewBox="0 0 24 24" id="RANK_4_OUTLINE" xmlns="http://www.w3.org/2000/svg"><path d="M12 4a8 8 0 1 1 0 16 8 8 0 0 1 0-16m0 14.667a6.667 6.667 0 1 0 0-13.334 6.667 6.667 0 0 0 0 13.334m2.638-4.558h-.84v1.447h-1.442v-1.447h-2.98v-1.027l3.06-4.506h1.362v4.387h.84zm-2.282-1.146V11.78q0-.296.024-.86.023-.563.038-.653h-.038q-.177.39-.425.764l-1.28 1.933h1.68z"/></symbol><symbol viewBox="0 0 24 24" id="RANK_5_FILLED" xmlns="http://www.w3.org/2000/svg"><path d="M12 4a8 8 0 1 1 0 16 8 8 0 0 1 0-16m.14 7.096q-.429 0-.72.067l-.167.034.129-1.37h2.492V8.575h-3.786l-.263 3.556.588.315q.19-.057.496-.107t.559-.05q1.399 0 1.399 1.055 0 1.108-1.352 1.108-.448 0-.95-.127A4 4 0 0 1 9.687 14v1.275q.716.377 1.88.377 1.343 0 2.063-.63t.721-1.8q0-.989-.599-1.557-.6-.568-1.611-.568z"/></symbol><symbol viewBox="0 0 24 24" id="RANK_5_OUTLINE" xmlns="http://www.w3.org/2000/svg"><path d="M12 4a8 8 0 1 1 0 16 8 8 0 0 1 0-16m0 14.667a6.667 6.667 0 1 0 0-13.334 6.667 6.667 0 0 0 0 13.334m.14-7.57q1.014 0 1.612.567.6.57.6 1.557 0 1.17-.722 1.8-.72.63-2.062.63-1.165 0-1.881-.377v-1.275q.377.201.878.327.502.127.95.127 1.352 0 1.352-1.108 0-1.055-1.4-1.055-.252 0-.558.05t-.496.107l-.588-.315.263-3.556h3.786v1.25h-2.492l-.13 1.37.168-.033q.291-.066.72-.067z"/></symbol><symbol viewBox="0 0 24 24" id="RECORD" xmlns="http://www.w3.org/2000/svg"><path d="M13.25 4H6v16h13V9.74zm4.25 6H13V5.5zm-10 8.5v-13H12V11h5.5v7.5z"/></symbol><symbol viewBox="0 0 24 24" id="REDO" xmlns="http://www.w3.org/2000/svg"><path d="M10.29 7.17h5V3.92l5 4-5 4V8.67h-5a4.5 4.5 0 1 0 0 9h5v1.5h-5a6 6 0 0 1 0-12"/></symbol><symbol viewBox="0 0 24 24" id="REFRESH" xmlns="http://www.w3.org/2000/svg"><path d="m17.31 14.78 1.51.3A7.54 7.54 0 1 1 18.28 8l2.35-2 .15 6.41-6.28-1.25L17.12 9A6 6 0 1 0 12 18a6 6 0 0 0 5.31-3.22"/></symbol><symbol viewBox="0 0 24 24" id="REJECTED" xmlns="http://www.w3.org/2000/svg"><path d="M17.09 16.03 7.97 6.91A6.47 6.47 0 0 1 12 5.5c3.584 0 6.5 2.916 6.5 6.5 0 1.522-.53 2.921-1.41 4.03M5.5 12a6.46 6.46 0 0 1 1.41-4.03l9.12 9.121a6.47 6.47 0 0 1-4.03 1.41A6.51 6.51 0 0 1 5.5 12M12 4a8 8 0 0 0-8 8 8 8 0 1 0 16 0 8 8 0 0 0-8-8"/></symbol><symbol viewBox="0 0 24 24" id="REMOVE_COLUMN" xmlns="http://www.w3.org/2000/svg"><path d="M4 4v13h6V4zm4.5 11.5h-3v-10h3z"/><path d="M11 16a4 4 0 0 1 0-.5h-1v-10h3v6a6 6 0 0 1 1.5-1V4h-6v13h2.59a7 7 0 0 1-.09-1m3-1h6v2h-6z"/></symbol><symbol viewBox="0 0 24 24" id="REMOVE_ROW" xmlns="http://www.w3.org/2000/svg"><path d="M11.82 13H5.51v-3h10a4 4 0 0 1 .5 0H17V4H4v10.5h7.2a6 6 0 0 1 .62-1.5M5.51 5.5h10v3h-10zm8.5 9.5h6v2h-6z"/></symbol><symbol viewBox="0 0 24 24" id="RESIZE" xmlns="http://www.w3.org/2000/svg"><path d="m11 23 12-12v2.5L13.5 23zm5 0h2.5l4.5-4.5V16z"/></symbol><symbol viewBox="0 0 24 24" id="ROLES" xmlns="http://www.w3.org/2000/svg"><path d="M12 3a3 3 0 0 0-3 3v1a3 3 0 0 0 6 0V6a3 3 0 0 0-3-3m1.5 4a1.5 1.5 0 0 1-3 0V6a1.5 1.5 0 0 1 3 0zm-.33 13H5v-7c0-.87.87-1.64 2.24-2.19l.2-.08c.3-.11.61-.21.94-.3a5 5 0 0 0 7.24 0c.33.09.64.19.94.3l.2.08C18.13 11.36 19 12.13 19 13v.34l-1.5 1.5V13a2.7 2.7 0 0 0-1.07-.7l-.43-.18a6.45 6.45 0 0 1-8 0l-.44.18a2.7 2.7 0 0 0-1.06.7v5.5h5.17zM23 15l-6 6-3.5-3.5L15 16l2 2.15 4.59-4.6z"/></symbol><symbol viewBox="0 0 24 24" id="SAVE" xmlns="http://www.w3.org/2000/svg"><path d="M18 5H6a1 1 0 0 0-1 1v13a1 1 0 0 0 1 1h12a1 1 0 0 0 1-1V6a1 1 0 0 0-1-1m-7 1.5h3V9h-3zm4 12H9V14h6zm2.25 0H16V13H8v5.5H6.75a.25.25 0 0 1-.25-.25V6.75a.25.25 0 0 1 .25-.25H9V10h6V6.5h2.25a.25.25 0 0 1 .25.25v11.5a.25.25 0 0 1-.25.25"/></symbol><symbol viewBox="0 0 24 24" id="SAVE_AS" xmlns="http://www.w3.org/2000/svg"><path d="m18.17 4.71 2.12 2.12-4.24 4.24-3.18 1.06L13.93 9zm-.67 6.75L19 9.9V19a1 1 0 0 1-1 1H6a1 1 0 0 1-1-1V6a1 1 0 0 1 1-1h9.45L14 6.5h-4V9h2.19l-.32 1H9V6.5H6.5v12H8V13h8v5.5h1.5zM15 14H9v4.5h6zm6.71-10L21 3.29a1 1 0 0 0-1.41 0l-.71.71L21 6.12l.71-.71a1 1 0 0 0 0-1.41"/></symbol><symbol viewBox="0 0 24 24" id="SCALE" xmlns="http://www.w3.org/2000/svg"><path d="M6 11.7v7h7.1l-2.9-2.8 2.2-2.1-1.5-1.4-2.1 2.1zM11.7 6h7v7.1l-2.8-2.9-2.1 2.2-1.4-1.5 2.1-2.1z"/></symbol><symbol viewBox="0 0 24 24" id="SCHEDULE" xmlns="http://www.w3.org/2000/svg"><path d="M15 15h3v1h-4v-5h1zm6-.5a6.5 6.5 0 0 1-12.92 1H4V4h11v4a6.48 6.48 0 0 1 6 6.5m-13.25-3H5.5V14h2.25zm0-3H5.5V11h2.25zm0-3H5.5V8h2.25zm3.5 2.5h2.25V5.5h-2.25zm0 .88A7 7 0 0 1 12 8.5h-.75zm-3-.88h2.5V5.5h-2.5zm.49 3.5h-.49v1.23a6 6 0 0 1 .49-1.23M9 11a6.4 6.4 0 0 1 1.72-1.8v-.7H8.25V11zm10.5 3.5a5 5 0 1 0-5 5 5 5 0 0 0 5-5"/></symbol><symbol viewBox="0 0 24 24" id="SEARCH" xmlns="http://www.w3.org/2000/svg"><path d="m19.71 18.29-3.79-3.79a6 6 0 1 0-1.43 1.41l3.8 3.8a1 1 0 0 0 1.42-1.42M11.05 15a4 4 0 1 1 4-4 4 4 0 0 1-4 4"/></symbol><symbol viewBox="0 0 24 24" id="SEPARATOR" xmlns="http://www.w3.org/2000/svg"><path d="M12 0h1v24h-1z"/></symbol><symbol viewBox="0 0 24 24" id="SETTINGS" xmlns="http://www.w3.org/2000/svg"><path d="M20 12.5a2.5 2.5 0 0 1-4.95.5H4v-1h11.05a2.5 2.5 0 0 1 4.95.5M9 7a2.5 2.5 0 1 0 0 1h11V7zm.55 8a2.5 2.5 0 0 0-2.45 2H4v1h3.05A2.5 2.5 0 0 0 12 18h8v-1h-8a2.5 2.5 0 0 0-2.5-2z"/></symbol><symbol viewBox="0 0 24 24" id="SHAPE_DIAMOND" xmlns="http://www.w3.org/2000/svg"><path d="m20 12-8 8-8-8 8-8Z"/></symbol><symbol viewBox="0 0 24 24" id="SHARE" xmlns="http://www.w3.org/2000/svg"><path d="M20 17.22a3 3 0 0 1-6 0 3.2 3.2 0 0 1 .09-.7L9.23 14.2a3 3 0 1 1 0-4l4.86-2.31a3.3 3.3 0 0 1-.09-.7 3 3 0 1 1 .48 1.62l-4.71 2.27a2.92 2.92 0 0 1 0 2.27l4.71 2.25A3 3 0 0 1 20 17.22"/></symbol><symbol viewBox="0 0 24 24" id="SNAPSHOT" xmlns="http://www.w3.org/2000/svg"><circle cx="12" cy="12" r="3"/><path fill-rule="evenodd" d="M15.33 6 15 5H9l-.33 1H4v13h16V6zm3.17 11.5h-13v-10h4.25l.33-1h3.84l.33 1h4.25z"/></symbol><symbol viewBox="0 0 24 24" id="SORT" xmlns="http://www.w3.org/2000/svg"><path d="M12 9H9v10H7V9H4l4-5zm5 6V5h-2v10h-3l4 5 4-5z"/></symbol><symbol viewBox="0 0 24 24" id="SORT_ASCENDING" xmlns="http://www.w3.org/2000/svg"><path d="M4 8V6h5.999v2zm0 5v-2h10v2zm0 5v-2h16v2z"/></symbol><symbol viewBox="0 0 24 24" id="SORT_DESCENDING" xmlns="http://www.w3.org/2000/svg"><path d="M4 8V6h16v2zm6 5v-2h10v2zm4 5v-2h5.999v2z"/></symbol><symbol viewBox="0 0 24 24" id="SPINNER" xmlns="http://www.w3.org/2000/svg"><path d="M12.771 17.594a5.44 5.44 0 0 0 2.468-.579 5.5 5.5 0 0 0 1.91-1.523l2.101 1.234a8 8 0 0 1-2.777 2.391 7.95 7.95 0 0 1-3.702.887 7.85 7.85 0 0 1-4.049-1.1 7.9 7.9 0 0 1-2.873-2.872 7.85 7.85 0 0 1-1.099-4.05q0-2.063.964-3.836a7.95 7.95 0 0 1 2.603-2.844A7.84 7.84 0 0 1 11.981 4v2.41q-1.35.174-2.45.964A5.7 5.7 0 0 0 7.798 9.36a5.64 5.64 0 0 0-.637 2.623q0 1.542.752 2.834a5.66 5.66 0 0 0 2.025 2.025 5.53 5.53 0 0 0 2.834.752z"/></symbol><symbol viewBox="0 0 24 24" id="START_DATE" xmlns="http://www.w3.org/2000/svg"><path d="M13 12V9.75l-4 3 4 3V13.5h7V12z"/><path d="M16 18.5H6.5v-12H16V5H5v15h11z"/></symbol><symbol viewBox="0 0 24 24" id="STAR_FILLED" xmlns="http://www.w3.org/2000/svg"><path d="M21 9h-6l-3-6-3 6H3l4.5 4.93L5 21l7-4 7 4-2.5-7.07z"/></symbol><symbol viewBox="0 0 24 24" id="STAR_OUTLINE" xmlns="http://www.w3.org/2000/svg"><path d="M21 9h-6l-3-6-3 6H3l4.5 4.93L5 21l7-4 7 4-2.5-7.07zm-9 6.2-4.22 2.45 1.43-4.06-2.84-3.16h3.56L12 6.28l2.07 4.15h3.56l-2.84 3.16 1.43 4z"/></symbol><symbol viewBox="0 0 24 24" id="STATUS_ERROR" xmlns="http://www.w3.org/2000/svg"><path fill-rule="evenodd" d="M11.46 4.057c-.643.127-1.084.365-1.566.844l-.366.364-2.685 5.378c-1.645 3.294-2.709 5.47-2.747 5.617-.1.382-.116.915-.041 1.288.128.631.39 1.124.831 1.566.435.434.929.7 1.535.825.437.09 10.731.091 11.159.001 1.413-.298 2.416-1.515 2.419-2.935.002-.698.072-.539-2.768-6.222-1.428-2.858-2.66-5.294-2.736-5.414a3.13 3.13 0 0 0-1.201-1.063c-.503-.253-1.282-.358-1.834-.249m1.21 1.62c.138.074.322.212.409.306.12.131.788 1.431 2.77 5.395l2.611 5.223v.409c0 .365-.012.434-.109.631-.215.439-.649.76-1.133.84-.316.051-10.115.052-10.431 0-.839-.137-1.351-.809-1.264-1.661.022-.216.285-.76 2.631-5.45 1.819-3.637 2.65-5.259 2.753-5.372.307-.341.661-.484 1.153-.467.319.011.389.028.61.146m-1.42 5.573.01 2.25h1.48l.01-2.25.011-2.25h-1.522zm-.001 4.5.011.75h1.48l.011-.75.011-.75h-1.524z"/></symbol><symbol viewBox="0 0 24 24" id="STATUS_ERROR_FILLED" xmlns="http://www.w3.org/2000/svg"><path fill-rule="evenodd" d="M11.46 4.057c-.643.127-1.084.365-1.566.844l-.366.364-2.685 5.378c-1.645 3.294-2.709 5.47-2.747 5.617-.1.382-.116.915-.041 1.288.128.631.39 1.124.831 1.566.435.434.929.7 1.535.825.437.09 10.731.091 11.159.001 1.413-.298 2.416-1.515 2.419-2.935.002-.698.072-.539-2.768-6.222-1.428-2.858-2.66-5.294-2.736-5.414a3.13 3.13 0 0 0-1.201-1.063c-.503-.253-1.282-.358-1.834-.249m1.29 7.193-.01 2.25h-1.48l-.01-2.25L11.239 9h1.522zm.001 4.5-.011.75h-1.48l-.011-.75-.011-.75h1.524z"/></symbol><symbol viewBox="0 0 24 24" id="STATUS_INFO" xmlns="http://www.w3.org/2000/svg"><path fill-rule="evenodd" d="M11.42 4.023c-.066.009-.291.037-.5.061a8.7 8.7 0 0 0-1.8.457 7.8 7.8 0 0 0-2.671 1.716A7.6 7.6 0 0 0 4.817 8.5c-1.339 2.722-1.008 5.957.857 8.4.26.339.932 1.025 1.286 1.311a7.98 7.98 0 0 0 4.76 1.777 8.02 8.02 0 0 0 5.18-1.662c.339-.259 1.025-.932 1.311-1.286a8 8 0 0 0 .989-8.511 7.5 7.5 0 0 0-1.439-2.065A8 8 0 0 0 13.24 4.1c-.368-.06-1.577-.111-1.82-.077m1.874 1.612c2.584.557 4.496 2.469 5.074 5.071.074.335.087.523.09 1.254.002.925-.022 1.122-.224 1.84-.918 3.252-4.28 5.269-7.59 4.554-2.248-.485-4.116-2.168-4.819-4.343-.205-.634-.271-1.053-.294-1.851-.017-.598-.007-.776.068-1.22A6.5 6.5 0 0 1 8.58 6.479c.667-.41 1.612-.769 2.3-.873.165-.025.345-.053.4-.063.055-.009.442-.011.86-.005.591.009.848.031 1.154.097M11.249 8.75l.011.75h1.48l.011-.75.011-.75h-1.524zm-.009 4.75V16h1.52v-5h-1.52z"/></symbol><symbol viewBox="0 0 24 24" id="STATUS_INFO_FILLED" xmlns="http://www.w3.org/2000/svg"><path fill-rule="evenodd" d="M11.42 4.023c-.066.009-.291.037-.5.061a8.7 8.7 0 0 0-1.8.457 7.8 7.8 0 0 0-2.671 1.716A7.6 7.6 0 0 0 4.817 8.5c-1.339 2.722-1.008 5.957.857 8.4.26.339.932 1.025 1.286 1.311a7.98 7.98 0 0 0 4.76 1.777 8.02 8.02 0 0 0 5.18-1.662c.339-.259 1.025-.932 1.311-1.286a8 8 0 0 0 .989-8.511 7.5 7.5 0 0 0-1.439-2.065A8 8 0 0 0 13.24 4.1c-.368-.06-1.577-.111-1.82-.077m1.331 4.727-.011.75h-1.48l-.011-.75-.011-.75h1.524zm.009 4.75V16h-1.52v-5h1.52z"/></symbol><symbol viewBox="0 0 24 24" id="STATUS_SUCCESS" xmlns="http://www.w3.org/2000/svg"><path d="M12 4a8 8 0 1 0 8 8 8 8 0 0 0-8-8m0 14.5a6.5 6.5 0 1 1 6.5-6.5 6.49 6.49 0 0 1-6.5 6.5"/><path d="m11 12.8-1.6-1.6L8 12.6l3 3 5-5-1.4-1.4z"/></symbol><symbol viewBox="0 0 24 24" id="STATUS_SUCCESS_FILLED" xmlns="http://www.w3.org/2000/svg"><path fill-rule="evenodd" d="M11.4 4.045c-1.633.111-3.153.725-4.504 1.818-1.504 1.218-2.522 3.065-2.82 5.117-.073.503-.064 1.624.017 2.126.297 1.841 1.02 3.285 2.268 4.533 1.367 1.367 3.06 2.145 5.059 2.324 2.461.22 5.149-.923 6.711-2.852 1.122-1.386 1.715-2.876 1.825-4.584a7.95 7.95 0 0 0-2.315-6.168c-1.648-1.648-3.88-2.476-6.241-2.314m2.12 9.055-2.5 2.5-1.49-1.49c-.819-.819-1.49-1.506-1.49-1.525s.301-.34.669-.711l.668-.676.812.811.811.811 1.81-1.81 1.81-1.81.7.7.7.7z"/></symbol><symbol viewBox="0 0 24 24" id="STATUS_WARNING" xmlns="http://www.w3.org/2000/svg"><path d="M12 20a8 8 0 1 1 8-8 8 8 0 0 1-8 8m0-1.5A6.5 6.5 0 1 0 5.5 12a6.51 6.51 0 0 0 6.5 6.5M12.75 8h-1.5v5h1.5Zm0 6.5h-1.5V16h1.5Z"/></symbol><symbol viewBox="0 0 24 24" id="STATUS_WARNING_FILLED" xmlns="http://www.w3.org/2000/svg"><path fill-rule="evenodd" d="M11.42 4.023c-.066.009-.291.037-.5.061-1.013.117-2.194.539-3.13 1.12A8.6 8.6 0 0 0 5.789 6.96 8.1 8.1 0 0 0 4.001 12a8.1 8.1 0 0 0 1.788 5.04c.286.354.972 1.027 1.311 1.286a8.02 8.02 0 0 0 5.18 1.662c1.184-.044 2.138-.283 3.22-.807a7.88 7.88 0 0 0 3.681-3.681c.524-1.082.763-2.036.807-3.22a7.8 7.8 0 0 0-.788-3.751 7.4 7.4 0 0 0-1.439-2.064 7.96 7.96 0 0 0-4.543-2.366c-.389-.06-1.559-.11-1.798-.076m1.34 6.477V13h-1.52V8h1.52zm0 4.76V16h-1.52v-1.48h1.52z"/></symbol><symbol viewBox="0 0 24 24" id="STOP" xmlns="http://www.w3.org/2000/svg"><path fill-rule="evenodd" d="M4 12v8h16V4H4zm14 0v6H6V6h12z"/></symbol><symbol viewBox="0 0 24 24" id="SUBSIDIARIES" xmlns="http://www.w3.org/2000/svg"><path d="M20.27 13.73a2.5 2.5 0 0 0-3.4-.11l-4.37-2.53V9h-1v2.09l-4.37 2.53a2.51 2.51 0 1 0 .61.8l3.76-2.17v2.8a2.55 2.55 0 0 0-1.27.68 2.5 2.5 0 1 0 3.54 0 2.55 2.55 0 0 0-1.27-.68v-2.8l3.76 2.17a2.49 2.49 0 0 0 .47 2.85 2.5 2.5 0 0 0 3.54-3.54M6.21 16.21a1 1 0 0 1-1.42 0 1 1 0 0 1 0-1.42 1 1 0 0 1 1.42 0 1 1 0 0 1 0 1.42m6.5 2a1 1 0 0 1-1.42 0 1 1 0 0 1 0-1.42 1 1 0 0 1 1.42 0 1 1 0 0 1 0 1.42m6.5-2a1 1 0 0 1-1.42 0 1 1 0 0 1 0-1.42 1 1 0 0 1 1.42 0 1 1 0 0 1 0 1.42M15 6a3 3 0 1 0-3 3 3 3 0 0 0 3-3m-3 1.5A1.5 1.5 0 1 1 13.5 6 1.5 1.5 0 0 1 12 7.5"/></symbol><symbol viewBox="0 0 24 24" id="SUM" xmlns="http://www.w3.org/2000/svg"><path d="M7 6v2h.071l4.5 3.999L7.071 16H7v2h10v-2H9.9l4.5-4.001L9.9 8H17V6z"/></symbol><symbol viewBox="0 0 24 24" id="SUMMARIZE" xmlns="http://www.w3.org/2000/svg"><path d="M8 17v-2h7v2zm0-4v-2h9v2zm0-4V7h11.001v2zM5 5h1v14h13v1H5z"/></symbol><symbol viewBox="0 0 24 24" id="SWITCH" xmlns="http://www.w3.org/2000/svg"><path d="M15.5 13h-7a3.5 3.5 0 0 0 0 7h7a3.5 3.5 0 0 0 0-7m0 5.83a2.33 2.33 0 1 1 2.33-2.33 2.33 2.33 0 0 1-2.33 2.33M5 7.5A3.5 3.5 0 0 0 8.5 11h7a3.5 3.5 0 0 0 0-7h-7A3.5 3.5 0 0 0 5 7.5m1.17 0A2.33 2.33 0 1 1 8.5 9.83 2.33 2.33 0 0 1 6.17 7.5"/></symbol><symbol viewBox="0 0 24 24" id="SWITCH_OFF" xmlns="http://www.w3.org/2000/svg"><path d="M14 8h-4c-2.21 0-4 1.79-4 4s1.79 4 4 4h4c2.21 0 4-1.79 4-4s-1.79-4-4-4m-4 7a3 3 0 1 1 0-6 3 3 0 0 1 0 6"/></symbol><symbol viewBox="0 0 24 24" id="SWITCH_ON" xmlns="http://www.w3.org/2000/svg"><path d="M14 9c1.7 0 3 1.3 3 3s-1.3 3-3 3-3-1.3-3-3 1.3-3 3-3m-4 7h4c2.2 0 4-1.8 4-4s-1.8-4-4-4h-4c-2.2 0-4 1.8-4 4s1.8 4 4 4"/></symbol><symbol viewBox="0 0 24 24" id="TABLE_COLUMNS" xmlns="http://www.w3.org/2000/svg"><path d="M5 19h14V5H5zM6.5 9h2v8.5h-2zm5 8.5h-2V9h2zm1-8.5h2v8.5h-2zm3 8.5V9h2v8.5zm2-11V8h-11V6.5z"/></symbol><symbol viewBox="0 0 24 24" id="TABLE_ROWS" xmlns="http://www.w3.org/2000/svg"><path d="M5 5v14h14V5zm12.5 3.5H9v-2h8.5zm-8.5 3v-2h8.5v2zm8.5 1v2H9v-2zm-11-6H8v11H6.5zm2.5 11v-2h8.5v2z"/></symbol><symbol viewBox="0 0 24 24" id="TABLE_VALUES" xmlns="http://www.w3.org/2000/svg"><path d="M4 4v16h16V4zm14.5 14.5h-13v-13h13z"/><path d="M13 7h4v2h-4zM7 7h4v2H7zm6 4h4v2h-4zm-6 0h4v2H7zm6 4h4v2h-4zm-6 0h4v2H7z"/></symbol><symbol viewBox="0 0 24 24" id="TEXT" xmlns="http://www.w3.org/2000/svg"><path d="M6 6v3h2V8h3v8H9v2h6v-2h-2V8h3v1h2V6z"/></symbol><symbol viewBox="0 0 24 24" id="TIMER" xmlns="http://www.w3.org/2000/svg"><path d="M11 8h2v5h-2zm9 4a8 8 0 1 1-9-7.93V3h-1V1h4v2h-1v1.07A8 8 0 0 1 20 12m-1.5 0a6.5 6.5 0 1 0-6.5 6.5 6.51 6.51 0 0 0 6.5-6.5"/></symbol><symbol viewBox="0 0 24 24" id="TIME_OFF" xmlns="http://www.w3.org/2000/svg"><path d="M15.5 6a.5.5 0 0 0 .5-.5v-2a.5.5 0 0 0-.5-.5.5.5 0 0 0-.5.5v2a.51.51 0 0 0 .5.5m-7 0a.5.5 0 0 0 .5-.5v-2a.5.5 0 0 0-.5-.5.5.5 0 0 0-.5.5v2a.51.51 0 0 0 .5.5"/><path d="M17.5 5v.5a2 2 0 0 1-4 0V5h-3v.5a2 2 0 0 1-4 0V5H5v15h14V5zm0 13.5h-11V9h11z"/><path d="M9.35 17.43 12 14.77l2.65 2.66 1.06-1.07-2.65-2.65 2.65-2.65L14.65 10 12 12.65 9.35 10l-1.06 1.06 2.65 2.65-2.65 2.65z"/></symbol><symbol viewBox="0 0 24 24" id="TRANSPOSE" xmlns="http://www.w3.org/2000/svg"><path d="M15 9c-1.654 0-3 1.346-3 3v1a5 5 0 0 1-5 5H4v-2h3c1.654 0 3-1.346 3-3v-1a5 5 0 0 1 5-5h1V5l4 3-4 3V9zm-6.07.722A2.97 2.97 0 0 0 7 9H4V7h3c1.1 0 2.107.365 2.932.966A6.5 6.5 0 0 0 8.93 9.722M16 16v-2l4 3-4 3v-2h-1a4.9 4.9 0 0 1-2.912-.968c.416-.523.75-1.113.99-1.748.522.44 1.187.716 1.922.716z"/></symbol><symbol viewBox="0 0 24 24" id="UNDO" xmlns="http://www.w3.org/2000/svg"><path d="M20 13a6 6 0 0 1-6 6H9v-1.5h5a4.5 4.5 0 0 0 0-9H9v3.25l-5-4 5-4V7h5a6 6 0 0 1 6 6"/></symbol><symbol viewBox="0 0 24 24" id="UNGROUP" xmlns="http://www.w3.org/2000/svg"><path d="M19.95 2 18 3.94 16.05 2l-1.06 1.06L16.94 5l-1.95 1.95 1.06 1.06L18 6.07l1.95 1.94L21 6.95 19.06 5 21 3.06zM19 10a1 1 0 0 0-1-1h-6c-.47 0-.87-.47-1.2-.79l-.74-.71A1.87 1.87 0 0 0 8.78 7H5a1 1 0 0 0-1 1v11h15zm-1.5 7.5h-12V8.75a.25.25 0 0 1 .25-.25h3a.35.35 0 0 1 .25.08l.86.83A3 3 0 0 0 12 10.5h5.26a.25.25 0 0 1 .25.25z"/></symbol><symbol viewBox="0 0 24 24" id="UNHAPPY_FILLED" xmlns="http://www.w3.org/2000/svg"><path d="M12 3a9 9 0 1 0 9 9 9 9 0 0 0-9-9m-4.5 7A1.5 1.5 0 1 1 9 11.5 1.5 1.5 0 0 1 7.5 10m7.57 6.71a.8.8 0 0 1-.25 0 .75.75 0 0 1-.71-.5 2.23 2.23 0 0 0-4.22 0 .75.75 0 1 1-1.41-.5 3.73 3.73 0 0 1 7 0 .75.75 0 0 1-.41 1M15 11.5a1.5 1.5 0 1 1 1.5-1.5 1.5 1.5 0 0 1-1.5 1.5"/></symbol><symbol viewBox="0 0 24 24" id="UNHAPPY_OUTLINE" xmlns="http://www.w3.org/2000/svg"><path d="M12 3a9 9 0 1 0 9 9 9 9 0 0 0-9-9m0 16.5a7.5 7.5 0 1 1 7.5-7.5 7.5 7.5 0 0 1-7.5 7.5"/><circle cx="9" cy="10" r="1.5"/><circle cx="15" cy="10" r="1.5"/><path d="M12 13.25a3.74 3.74 0 0 0-3.52 2.5.75.75 0 1 0 1.41.5 2.23 2.23 0 0 1 4.22 0 .75.75 0 0 0 .71.5.8.8 0 0 0 .25 0 .75.75 0 0 0 .45-1 3.74 3.74 0 0 0-3.52-2.5"/></symbol><symbol viewBox="0 0 24 24" id="UNIVERSITY" xmlns="http://www.w3.org/2000/svg"><path d="M7.49 13.44v-.23L6 12.38v1.12c0 1.38 2.69 3.5 6 3.5a8 8 0 0 0 2.54-.42 2.4 2.4 0 0 1 .46-1.06v-.77a6.4 6.4 0 0 1-3 .75c-2.56 0-4.37-1.5-4.51-2.06"/><path d="M17.5 16.15v-5.21L21 9l-9-4-9 4 9 5 4.5-2.5v4.65a1 1 0 0 0-.5.85v3h2v-3a1 1 0 0 0-.5-.85m-11.14-7L12 6.64l5.64 2.51-1.57.85-2.83-1.44a.51.51 0 0 0-.68.21.49.49 0 0 0 .22.67L15 10.61l-3 1.67z"/></symbol><symbol viewBox="0 0 24 24" id="UNKNOWN" xmlns="http://www.w3.org/2000/svg"><path d="M11.183 14.484V13a2.4 2.4 0 0 1 .607-1.584 1.96 1.96 0 0 1 .801-.543c.117-.051.241-.103.283-.127q.214-.133.38-.33.16-.194.25-.423.085-.226.086-.453c0-.744-.714-1.35-1.59-1.35s-1.59.606-1.59 1.35v.539H8.777v-.54c0-1.685 1.446-3.056 3.223-3.056s3.223 1.37 3.223 3.057c0 1.218-.762 2.318-1.94 2.803l-.003-.006c-.157.09-.194.12-.2.125a.6.6 0 0 0-.126.133.65.65 0 0 0-.137.372v1.516h-1.634zm-.006 3v-1.6h1.6v1.6zM18 5c1.1 0 2 .9 2 2v10c0 1.1-.9 2-2 2h-1v-1h1a1 1 0 0 0 1-1V7a1 1 0 0 0-1-1h-1V5zM7 18v1H6c-1.1 0-2-.9-2-2V7c0-1.1.9-2 2-2h1v1H6a1 1 0 0 0-1 1v10a1 1 0 0 0 1 1z"/></symbol><symbol viewBox="0 0 24 24" id="UPLOAD_DOCUMENT" xmlns="http://www.w3.org/2000/svg"><path fill-rule="evenodd" d="M5 4h8.167l2.916 2.5L19 9v11H5V4m3.5 8h2.625v5h1.75v-5H15.5L12 8z" clip-rule="evenodd"/></symbol><symbol viewBox="0 0 24 24" id="VERY_HAPPY_FILLED" xmlns="http://www.w3.org/2000/svg"><path d="M12 16.5a3.51 3.51 0 0 0 3.17-2H8.83a3.51 3.51 0 0 0 3.17 2"/><path d="M12 3a9 9 0 1 0 9 9 9 9 0 0 0-9-9m3 5.5a1.5 1.5 0 1 1-1.5 1.5A1.5 1.5 0 0 1 15 8.5m-6 0A1.5 1.5 0 1 1 7.5 10 1.5 1.5 0 0 1 9 8.5m3 9.5a5 5 0 0 1-5-4.42.51.51 0 0 1 .5-.58h8.94a.51.51 0 0 1 .5.58A5 5 0 0 1 12 18"/></symbol><symbol viewBox="0 0 24 24" id="VERY_HAPPY_OUTLINE" xmlns="http://www.w3.org/2000/svg"><path d="M12 3a9 9 0 1 0 9 9 9 9 0 0 0-9-9m0 16.5a7.5 7.5 0 1 1 7.5-7.5 7.5 7.5 0 0 1-7.5 7.5"/><path d="M16.44 13H7.5a.51.51 0 0 0-.5.58 5 5 0 0 0 9.94 0 .51.51 0 0 0-.5-.58M12 16.5a3.49 3.49 0 0 1-3.16-2h6.33a3.51 3.51 0 0 1-3.17 2"/><circle cx="9" cy="10" r="1.5"/><circle cx="15" cy="10" r="1.5"/></symbol><symbol viewBox="0 0 24 24" id="VERY_UNHAPPY_FILLED" xmlns="http://www.w3.org/2000/svg"><path d="M12 3a9 9 0 1 0 9 9 9 9 0 0 0-9-9m.66 4.42A3.48 3.48 0 0 1 15 6.5a.5.5 0 0 1 0 1 2.46 2.46 0 0 0-1.66.65.49.49 0 0 1-.71 0 .49.49 0 0 1 .03-.73M9 6.5a3.48 3.48 0 0 1 2.34.92.49.49 0 0 1 0 .7.49.49 0 0 1-.71 0A2.46 2.46 0 0 0 9 7.5a.5.5 0 0 1 0-1M7.5 10A1.5 1.5 0 1 1 9 11.5 1.5 1.5 0 0 1 7.5 10m4.5 8.25A3 3 0 0 1 9.25 15 3 3 0 0 1 12 11.75 3 3 0 0 1 14.75 15 3 3 0 0 1 12 18.25m3-6.75a1.5 1.5 0 1 1 1.5-1.5 1.5 1.5 0 0 1-1.5 1.5"/><ellipse cx="12" cy="15" rx="1.25" ry="1.75"/></symbol><symbol viewBox="0 0 24 24" id="VERY_UNHAPPY_OUTLINE" xmlns="http://www.w3.org/2000/svg"><path d="M12 3a9 9 0 1 0 9 9 9 9 0 0 0-9-9m0 16.5a7.5 7.5 0 1 1 7.5-7.5 7.5 7.5 0 0 1-7.5 7.5"/><circle cx="9" cy="10" r="1.5"/><circle cx="15" cy="10" r="1.5"/><path d="M12 11.75A3 3 0 0 0 9.25 15 3 3 0 0 0 12 18.25 3 3 0 0 0 14.75 15 3 3 0 0 0 12 11.75m0 5c-.68 0-1.25-.8-1.25-1.75s.57-1.75 1.25-1.75 1.25.8 1.25 1.75-.57 1.75-1.25 1.75m1-8.46a.5.5 0 0 0 .34-.14A2.46 2.46 0 0 1 15 7.5a.5.5 0 0 0 0-1 3.48 3.48 0 0 0-2.34.92.49.49 0 0 0 0 .7.5.5 0 0 0 .34.17M9 7.5a2.46 2.46 0 0 1 1.66.65.49.49 0 0 0 .71 0 .49.49 0 0 0 0-.7A3.48 3.48 0 0 0 9 6.5a.5.5 0 0 0 0 1"/></symbol><symbol viewBox="0 0 24 24" id="VIEW_BY_DATE" xmlns="http://www.w3.org/2000/svg"><path d="M9 7H7V5h2zm3-2h-2v2h2zm3 0h-2v2h2zm3 0h-2v2h2zM6 5H4v2h2zm3 3H7v2h2zM6 8H4v2h2zm0 3H4v2h2zm0 3H4v2h2zm2.68-3H7v2h.52zM12 9V8h-2v1.63A4.07 4.07 0 0 1 12 9m5.73 0H18V8h-2v1.34A4.8 4.8 0 0 1 17.73 9m-3.11.71.3.17.08-.05V8h-2v1.12a4.9 4.9 0 0 1 1.62.59M22 17a3 3 0 0 1-6 0 3.1 3.1 0 0 1 .26-1.22 2.4 2.4 0 0 0-1.26-.31 2.6 2.6 0 0 0-1.27.3 3 3 0 1 1-5.48 0h-.07l2.27-3.94a2.3 2.3 0 0 1 3.17-.48l-.75 1.3c-.53-.31-1-.22-1.12-.07L11 14a3 3 0 0 1 2.18.95 3.69 3.69 0 0 1 3.64 0 3 3 0 0 1 2.12-.95l-.79-1.37c-.09-.15-.59-.24-1.12.06l-.75-1.3a2.3 2.3 0 0 1 3.17.49l1.84 3.2A2.94 2.94 0 0 1 22 17m-9.5 0a1.5 1.5 0 1 0-1.5 1.5 1.5 1.5 0 0 0 1.5-1.5m8 0a1.5 1.5 0 1 0-1.5 1.5 1.5 1.5 0 0 0 1.5-1.5"/></symbol><symbol viewBox="0 0 24 24" id="VIEW_PARENT_RECORD" xmlns="http://www.w3.org/2000/svg"><path d="M7 7h8v.5H7zm9 0h1v.5h-1zm-9 9v.5h1.12a4 4 0 0 1 .16-.5z"/><path d="M8.05 18H6a.5.5 0 0 1-.5-.5V15a.5.5 0 0 1 .5-.5h3.06l.56-1H6a.5.5 0 0 1-.5-.5v-2.5A.5.5 0 0 1 6 10h13.23a4 4 0 0 1 .77.08V4H4v15.5h4.49a4.6 4.6 0 0 1-.44-1.5M5.5 6a.5.5 0 0 1 .5-.5h12a.5.5 0 0 1 .5.5v2.5a.5.5 0 0 1-.5.5H6a.5.5 0 0 1-.5-.5z"/><path d="M7 11.5v.5h3.47l.19-.33a1 1 0 0 1 .11-.17zm15.79 4.09L21 12.39a2.31 2.31 0 0 0-3.17-.49l.75 1.3c.53-.3 1-.21 1.12-.06l.79 1.37a3 3 0 0 0-2.12.94 3.69 3.69 0 0 0-3.64 0 3 3 0 0 0-2.18-.95l.76-1.33c.09-.15.59-.24 1.12.07l.75-1.3a2.31 2.31 0 0 0-3.17.48l-2.33 3.94.07-.05a3 3 0 0 0 5.48 2.44 3 3 0 0 0 0-2.44A2.57 2.57 0 0 1 16.5 16a2.4 2.4 0 0 1 1.26.31 3 3 0 0 0-.26 1.22 3 3 0 0 0 6 0 2.94 2.94 0 0 0-.71-1.94M12.5 19a1.5 1.5 0 1 1 1.5-1.5 1.5 1.5 0 0 1-1.5 1.5m8 0a1.5 1.5 0 1 1 1.5-1.5 1.5 1.5 0 0 1-1.5 1.5"/></symbol><symbol viewBox="0 0 24 24" id="VIEW_PARTIAL" xmlns="http://www.w3.org/2000/svg"><path d="M11 3v2.05c-5.12.45-6.88 4.59-8 7 1.12 2.36 2.88 6.5 8 7V21h2V3zm-6.34 9C5.73 9.75 7.24 7 11 6.55v2.63a3 3 0 0 0 0 5.64v2.63C7.24 17 5.73 14.25 4.66 12M13 5.05v1.5c3.76.41 5.27 3.2 6.34 5.45-1.07 2.25-2.58 5-6.34 5.45V19c5.12-.45 6.88-4.59 8-6.95-1.12-2.41-2.88-6.55-8-7"/><path d="M15 12a3 3 0 0 0-2-2.82v5.64A3 3 0 0 0 15 12"/></symbol><symbol viewBox="0 0 24 24" id="VIEW_SHOW" xmlns="http://www.w3.org/2000/svg"><path d="M11.94 17.5a8.3 8.3 0 0 1-1.67-.166l1.375-2.37c.117.015.232.036.356.036a3 3 0 0 0 3-3 2.97 2.97 0 0 0-.603-1.787l1.54-2.658c1.765 1.115 2.684 2.919 3.405 4.445-1.134 2.402-2.753 5.5-7.403 5.5M4.66 12c1.155-2.426 2.816-5.5 7.28-5.5.803 0 1.511.098 2.146.264l-1.354 2.337a3 3 0 0 0-.73-.101 3 3 0 0 0-3 3c0 .81.324 1.542.845 2.082l-1.478 2.549C6.443 15.544 5.436 13.628 4.66 12m12.032-5.748L18 3.996 16.268 3l-1.4 2.417C14.02 5.154 13.051 5 11.94 5 6.087 5 4.19 9.502 3 12c.829 1.739 2.003 4.446 4.614 5.933l-1.2 2.071L8.146 21l1.341-2.314A9.5 9.5 0 0 0 11.94 19c6.066 0 7.874-4.502 9.06-7-.794-1.67-1.872-4.23-4.308-5.748"/></symbol><symbol viewBox="0 0 24 24" id="WIDTH" xmlns="http://www.w3.org/2000/svg"><path d="m8 7-5 5 5 5v-4h3v-2H8zm8 0 5 5-5 5v-4h-3v-2h3z"/></symbol><symbol viewBox="0 0 24 24" id="WORKBOOK" xmlns="http://www.w3.org/2000/svg"><path d="M11.03 14.02h2v5.99h-2zm8-2h2v7.99h-2zm-4-2h2v9.99h-2z"/><path d="M18.72 4.41a.73.73 0 0 0-.67-.11L12 6.21 6 4.3a.73.73 0 0 0-.67.11A.75.75 0 0 0 5 5v10a.76.76 0 0 0 .53.72L9 16.84v-1.58l-2.53-.8V6l5.29 1.68a.86.86 0 0 0 .45 0L17.53 6v2H19V5a.72.72 0 0 0-.28-.59"/><path d="M4 16.28V6H3v11l6.03 2.01v-1.06zm7.51-5.75V9.47l-4-1.26v1.05zM10 13.05V12l-2.49-.79v1.05z"/></symbol><symbol viewBox="0 0 24 24" id="WRAP_LINE" xmlns="http://www.w3.org/2000/svg"><path d="M19 5v2H5V5zm-4 4H5v2h10a2.08 2.08 0 0 1 2 2 2.16 2.16 0 0 1-2 2H9v-2l-4 3 4 3v-2h6a4 4 0 0 0 0-8"/></symbol><symbol viewBox="0 0 24 24" id="XAXIS" xmlns="http://www.w3.org/2000/svg"><path d="M14.23 15h1.51L17 12.82 18.26 15h1.51l-2.01-3.49L19.79 8h-1.52L17 10.2 15.73 8h-1.52l2.03 3.51z"/><path d="M5 18V4H4v16h16v-2z"/></symbol><symbol viewBox="0 0 24 24" id="YAXIS" xmlns="http://www.w3.org/2000/svg"><path d="M6 19V4H4v16h16v-1z"/><path d="M11.34 11h1.32V8.11L15.03 4h-1.51L12 6.63 10.48 4H8.97l2.37 4.11z"/></symbol><symbol viewBox="0 0 24 24" id="ZOOM_FIT" xmlns="http://www.w3.org/2000/svg"><path d="M6.31 14h-1.5v5h5v-1.5h-3.5zm-1.5-4h1.5V6.5h3.5V5h-5zm12.5 7.5h-3.5V19h5v-5h-1.5zM13.81 5v1.5h3.5V10h1.5V5z"/></symbol><symbol viewBox="0 0 24 24" id="ZOOM_IN" xmlns="http://www.w3.org/2000/svg"><path fill-rule="evenodd" d="M12.25 8v2.75H15v1.5h-2.75V15h-1.5v-2.75H8v-1.5h2.75V8zm-.75-1.5a5 5 0 1 0 5 5 5 5 0 0 0-5-5m0-1.5a6.49 6.49 0 0 1 5.09 10.53l3.19 3.19a.75.75 0 0 1-1.06 1.06l-3.19-3.19A6.5 6.5 0 1 1 11.5 5"/></symbol><symbol viewBox="0 0 24 24" id="ZOOM_OUT" xmlns="http://www.w3.org/2000/svg"><path fill-rule="evenodd" d="M15 10.75v1.5H8v-1.5zM11.5 6.5a5 5 0 1 0 5 5 5 5 0 0 0-5-5m0-1.5a6.49 6.49 0 0 1 5.09 10.53l3.19 3.19a.75.75 0 0 1-1.06 1.06l-3.19-3.19-.22.17A6.5 6.5 0 1 1 11.5 5"/></symbol></svg>