<svg xmlns="http://www.w3.org/2000/svg" viewBox="0 0 30 30" xml:space="preserve"><path fill="#6EAD26" d="m10.766 10.749 1.061-1.061c.585-.585.586-1.535 0-2.121L8.998 4.738c-.586-.586-1.536-.585-2.121 0L5.816 5.799c-2.147 2.147-2.828 8.485 3.536 14.848 6.364 6.364 12.702 5.684 14.85 3.536l1.061-1.061c.586-.586.586-1.536 0-2.122l-2.828-2.828c-.586-.585-1.536-.585-2.121 0l-1.061 1.061c-.781.781-2.122.707-5.658-2.828s-3.61-4.875-2.829-5.656z"/>
	<path fill="#B6D692" d="m5.8172705 5.7989218.7074-.7069 4.9483 4.9518-.7074.7069zm13.434118 13.4348307.7071-.7071 4.9497 4.9497-.7071.7071z" />
	<path fill="none" d="M0 0h30v30H0z" /></svg>