<svg xmlns="http://www.w3.org/2000/svg" viewBox="0 0 30 30" xml:space="preserve"><path fill="#6386C0" d="M19.692 22.385c-2.308-.77-6.122-1.73-4.454-3.545 1.51-1.641 2.146-4.299 2.146-6.455C17.385 9.411 14.974 7 12 7s-5.385 2.411-5.385 5.385c0 2.156.637 4.814 2.146 6.455 1.668 1.814-2.146 2.775-4.454 3.545C3.099 22.787 2 23.418 2 24.692v1.153C2 26.483 2.517 27 3.154 27h17.692c.637 0 1.154-.517 1.154-1.154v-1.153c0-1.275-1.099-1.906-2.308-2.308z"/>
	<path opacity=".1" d="M6.018 21.826c.426.421 1.82 1.977 5.958 1.977 4.162 0 5.562-1.565 5.985-1.983-2.031-.688-4.011-1.579-2.724-2.979.072-.078.133-.169.201-.252-.918 1.037-2.126 1.67-3.451 1.67-1.259 0-2.411-.575-3.311-1.523.03.034.054.073.084.105 1.294 1.404-.703 2.297-2.742 2.985z" />
	<path fill="none" d="M0 0h30v30H0z" /></svg>