<svg xmlns="http://www.w3.org/2000/svg" viewBox="0 0 30 30" xml:space="preserve"><path fill="#6386C0" d="M15 23c0-3.562 2.341-6.584 5.563-7.618C21.556 13.414 22 11.037 22 9c0-3.866-3.134-7-7-7S8 5.134 8 9c0 2.803.828 6.258 2.791 8.393C12.958 19.75 8 21 5 22c-1.572.523-3 1.343-3 3v1.5c0 .828.671 1.5 1.5 1.5h13.265C15.663 26.629 15 24.892 15 23z"/>
	<circle fill="#6EAD26" cx="23" cy="23" r="7" />
	<path fill="#FFF" d="m26.369 19.369-4.145 4.37-1.593-1.592L19 23.778 22.224 27 28 21z" />
	<path opacity=".1" d="M15 23c0-1.404.366-2.724 1.005-3.872-.333.064-.672.106-1.02.106-1.637 0-3.134-.747-4.304-1.979.039.044.07.095.109.138 1.679 1.826-.917 2.986-3.567 3.882.553.547 2.366 2.569 7.746 2.569.026 0 .049-.002.076-.002-.029-.277-.045-.558-.045-.842z" />
	<path fill="none" d="M0 0h30v30H0z" /></svg>