<svg xmlns="http://www.w3.org/2000/svg" viewBox="0 0 30 30" xml:space="preserve"><path fill="#6386C0" d="M15 23c0-4.411 3.589-8 8-8 .691 0 1.359.098 2 .263V5.5c0-.829-.672-1.5-1.5-1.5h-3.601c-.463-2.282-2.48-4-4.899-4s-4.436 1.718-4.899 4H6.5C5.671 4 5 4.671 5 5.5v21c0 .828.671 1.5 1.5 1.5h10.265C15.663 26.629 15 24.892 15 23z"/>
	<path fill="#FFF" d="M21 6h-1.5c-.553 0-1-.448-1-1 0-1.933-1.567-3.5-3.5-3.5S11.5 3.067 11.5 5c0 .552-.448 1-1 1H9c-1.104 0-2 .896-2 2v1h16V8c0-1.104-.896-2-2-2zm-6 .5c-.828 0-1.5-.672-1.5-1.5s.672-1.5 1.5-1.5 1.5.672 1.5 1.5-.672 1.5-1.5 1.5z" />
	<circle fill="#6EAD26" cx="23" cy="23" r="7" />
	<path fill="#FFF" d="m26.369 19.369-4.145 4.37-1.593-1.592L19 23.778 22.224 27 28 21z" />
	<path fill="none" d="M0 0h30v30H0z" /></svg>