<svg xmlns="http://www.w3.org/2000/svg" viewBox="0 0 30 30" xml:space="preserve"><path fill="#6386C0" d="M15 23c0-4.411 3.589-8 8-8 .691 0 1.359.098 2 .263V12L15 2H6.5C5.671 2 5 2.671 5 3.5v23c0 .828.671 1.5 1.5 1.5h10.265C15.663 26.629 15 24.892 15 23z"/>
	<path opacity=".1" d="M23 15c.692 0 1.36.098 2.002.264V12h-10l4.051 4.051C20.219 15.385 21.564 15 23 15z" />
	<path fill="#B1C2DF" d="M15 2v10h10z" />
	<circle fill="#FFD43D" cx="23" cy="23" r="7" />
	<path fill="#FFE99E" d="M26.33 29.158c1.195-.647 2.181-1.633 2.828-2.828l-9.488-9.488c-1.195.647-2.181 1.633-2.828 2.828l9.488 9.488z" />
	<path fill="#EDA133" d="M21.164 22.016v-.869c.402-.018.684-.044.845-.08.256-.057.465-.17.626-.341.11-.116.193-.271.25-.466.032-.116.049-.203.049-.26H24v6.496h-1.309v-4.48h-1.527z" />
	<path fill="#EDA133" d="M23 18c2.757 0 5 2.243 5 5s-2.243 5-5 5-5-2.243-5-5 2.243-5 5-5m0-1c-3.313 0-6 2.687-6 6s2.687 6 6 6 6-2.687 6-6-2.687-6-6-6z" />
	<path fill="none" d="M0 0h30v30H0z" /></svg>