<svg viewBox="0 0 24 25" fill="none" xmlns="http://www.w3.org/2000/svg"><g clip-path="url(#a)" fill="#000"><path fill-rule="evenodd" clip-rule="evenodd" d="M11.4142 1.2002H1v20h6v-2H3v-16h7v5h5v1h2V6.78598L11.4142 1.2002Zm.5858 5V4.61441l1.5858 1.58579H12Z"/><path d="M16.2532 20.4004c-.6362 0-1.208-.1419-1.7153-.4256-.5073-.2837-.9071-.6706-1.1994-1.1607-.2923-.4901-.4385-1.0404-.4385-1.6508 0-.6191.1462-1.1736.4385-1.6637s.6921-.877 1.1994-1.1607c.5159-.2923 1.0877-.4385 1.7153-.4385.4901 0 .9415.0903 1.3542.2708.4127.1806.7695.4385 1.0704.7738l-1.0833 1.0963c-.1634-.1806-.3611-.3182-.5933-.4127-.2235-.0946-.4729-.1419-.748-.1419-.3095 0-.589.0731-.8383.2192-.2407.1376-.4342.3311-.5804.5804-.1375.2407-.2063.5288-.2063.8641 0 .3267.0688.619.2063.877.1462.2493.3397.4471.5804.5932.2493.1376.5288.2064.8383.2064.2837 0 .5374-.0473.7609-.1419.2322-.1032.4299-.2493.5933-.4385l1.0962 1.0963c-.3181.3439-.6835.6061-1.0962.7867-.4127.1805-.8641.2708-1.3542.2708Z"/><path fill-rule="evenodd" clip-rule="evenodd" d="M23 17.2002c0 3.866-3.134 7-7 7s-7-3.134-7-7 3.134-7 7-7 7 3.134 7 7Zm-2 0c0 2.7614-2.2386 5-5 5s-5-2.2386-5-5 2.2386-5 5-5 5 2.2386 5 5Z"/></g><defs><clipPath id="a"><path fill="#fff" transform="translate(0 .200195)" d="M0 0h24v24H0z"/></clipPath></defs></svg>