<svg viewBox="0 0 24 25" fill="none" xmlns="http://www.w3.org/2000/svg"><path d="M5 8.1001h2v2H5v-2Zm4 0v2h10v-2H9Zm-3.37833 5.7678c-.22885-.1224-.43661-.2549-.62167-.3968v2.3224c1.15236.5463 1.4446.8062 2.5.8062 1.96021 0 3.2467-.5053 6.4472-2.1056 1.8349-.9174 3.316-.3165 5.0528 1.4708v-2.5753c-2.0957-1.4055-3.6877-1.814-5.9472-.6843-3.19946 1.5997-4.10939 1.8944-5.55278 1.8944-.84517 0-.95678-.2389-1.87835-.7318Z" fill="#000"/><path fill-rule="evenodd" clip-rule="evenodd" d="M1 21.1001v-18h22v18H1Zm2-16h18v14H3v-14Z" fill="#000"/></svg>