<svg viewBox="0 0 24 25" fill="none" xmlns="http://www.w3.org/2000/svg"><path fill-rule="evenodd" clip-rule="evenodd" d="M24 18.7998c0-.6814-.0568-1.3496-.1659-2-.6534-3.8946-3.1827-7.15309-6.6271-8.81451-.0064-.0031-.0129-.00619-.0193-.00928C15.6176 7.22212 13.8581 6.7998 12 6.7998c-5.946 0-10.88194 4.3245-11.834086 10C.0567966 17.4502 0 18.1184 0 18.7998h7.63636C7.63636 16.39 9.59 14.4362 12 14.4362c.6784 0 1.3207.1548 1.8934.4311 1.4617.7051 2.4702 2.2011 2.4702 3.9325H24Zm-9.2387-5.7349c1.5418.7437 2.7378 2.0909 3.2817 3.7349H21.8c-.6288-3.0976-2.6894-5.6752-5.4608-7.01209l-1.5779 3.27719Z" fill="#161513"/></svg>