<svg viewBox="0 0 24 25" fill="none" xmlns="http://www.w3.org/2000/svg"><path d="m9.70547 4.80728-4.7071 4.70711-2.70711-2.70711 1.41421-1.41421 1.2929 1.29289 3.29289-3.29289 1.41421 1.41421ZM21.9984 6.10017h-10v-2h10v2ZM8.29126 9.39307l1.41421 1.41423-4.7071 4.7071-2.70711-2.7071 1.41421-1.4142 1.2929 1.2929 3.29289-3.29293ZM21.9984 12.1002h-10v-2h10v2ZM9.70547 16.8073l-4.7071 4.7071-2.70711-2.7071 1.41421-1.4142 1.2929 1.2929 3.29289-3.2929 1.41421 1.4142Zm12.29293 1.2929h-10v-2h10v2Z" fill="#161513"/></svg>