<svg viewBox="0 0 24 25" fill="none" xmlns="http://www.w3.org/2000/svg"><path d="M8.99829 2.2998h6.00001v2.58433c.0411.01652.0821.03337.1229.05056l1.8271-1.8271 4.2422 4.24221-1.8271 1.82711c.0172.04081.034.08178.0506.12289h2.5843v6h-2.5837c-.0165.041-.0333.0819-.0504.1227l1.8274 1.8274-4.2434 4.242-1.827-1.827c-.0408.0172-.0818.0341-.1229.0506v2.5843H8.99829v-2.5843c-.04111-.0165-.08208-.0334-.1229-.0506l-1.8271 1.8271-4.24221-4.2422 1.8271-1.8271c-.01719-.0408-.03405-.0818-.05056-.1229H1.99829v-6h2.58433c.01651-.04111.03337-.08208.05056-.12289L2.80608 7.3498l4.24221-4.24221 1.8271 1.8271c.04082-.01719.08179-.03404.1229-.05056V2.2998Zm2.00001 2v2.04034l-.7155.21234c-.40111.11904-.78255.27592-1.13816.46858l-.65594.35537-1.44041-1.44041L5.6345 7.3498l1.44041 1.44041-.35536.65595c-.19266.35561-.34955.73704-.46859 1.13814l-.21234.7155H3.99829v2h2.04033l.21234.7155c.11904.4011.27593.7825.46859 1.1382l.35536.6559-1.44041 1.4404 1.41379 1.4138 1.44041-1.4404.65594.3554c.35561.1926.73705.3495 1.13816.4685l.7155.2124v2.0403h2v-2.0403l.7155-.2124c.4011-.119.7825-.2759 1.1381-.4685l.656-.3554 1.4405 1.4405 1.4146-1.414-1.4403-1.4403.3553-.6559c.1921-.3546.3485-.7364.4692-1.1401l.2133-.7136h2.0378v-2H17.958l-.2124-.7155c-.119-.4011-.2759-.78254-.4686-1.13814l-.3553-.65595 1.4404-1.4404-1.4138-1.41379-1.4404 1.44041-.656-.35537c-.3556-.19266-.737-.34954-1.1381-.46858l-.7155-.21234V4.2998h-2Zm1 7c-.5523 0-1 .4477-1 1s.4477 1 1 1 1-.4477 1-1-.4477-1-1-1Zm-3.00001 1c0-1.6568 1.34311-3 3.00001-3 1.6568 0 3 1.3432 3 3 0 1.6569-1.3432 3-3 3-1.6569 0-3.00001-1.3431-3.00001-3Z" fill="#161513"/></svg>