<svg xmlns="http://www.w3.org/2000/svg" viewBox="0 0 24 24" width="24" height="24">
<path d="M4.199219 10.054688V7.945312c2.648437 0 3.777343-.5625 4.347656-1.113281.570313-.546875 1.195313-1.882812 1.195313-4.433593h2.113281c0 2.550781.628906 3.886718 1.199219 4.433593.570312.550781 1.695312 1.113281 4.34375 1.113281v2.109376c-2.648438 0-3.773438.5625-4.34375 1.113281-.570313.546875-1.199219 1.882812-1.199219 4.433593H9.742188c0-2.550781-.625-3.886718-1.195313-4.433593-.570313-.550781-1.699219-1.113281-4.347656-1.113281Zm15.347656-2.855469h-1.292969c0-.9375-.160156-1.488281-.480468-1.847657-.324219-.367187-.9375-.667968-2.171876-.792968V3.242188c1.234376-.125 1.847657-.429688 2.171876-.792969.320312-.359375.480468-.910157.480468-1.847657h1.292969c0 .933594.160156 1.488282.480469 1.847657.328125.363281.941406.667969 2.171875.792969v1.316406c-1.234375.125-1.847657.425781-2.171875.792968-.320313.359376-.480469.910157-.480469 1.847657Zm0 0"/>
<path d="M0 2.398438h6v2.402343H2.398438v16.800781h.585937l3-4.203124h16.214844v2.402343H7.21875L4.21875 24H0Zm20.449219 7.203124h1.101562c.101563.796876.347657 1.398438.699219 1.792969.34375.382813 1.050781.621094 1.75.621094v1.167969c-.699219 0-1.40625.238281-1.75.621094-.351562.394531-.597656.996093-.699219 1.796874h-1.101562c-.101563-.800781-.347657-1.402343-.699219-1.796874-.34375-.382813-1.050781-.621094-1.75-.621094v-1.167969c.699219 0 1.40625-.238281 1.75-.621094.351562-.394531.597656-.996093.699219-1.792969Zm0 0"/>
</svg>