<!--
  - Copyright © 2024, Oracle and/or its affiliates.
  -->

<svg viewBox="0 0 24 25" fill="none" xmlns="http://www.w3.org/2000/svg">
	<path d="M11.47 3.0447C11.7943 2.84203 12.2057 2.84203 12.53 3.0447L20.53 8.0447C20.8224 8.22744 21 8.54791 21 8.8927V16.8927C21 17.2375 20.8224 17.558 20.53 17.7407L12.53 22.7407C12.2057 22.9434 11.7943 22.9434 11.47 22.7407L3.47 17.7407C3.17762 17.558 3 17.2375 3 16.8927V8.8927C3 8.54791 3.17762 8.22744 3.47 8.0447L11.47 3.0447ZM5 10.6969V16.3385L11 20.0885V14.4469L5 10.6969ZM13 20.0885L19 16.3385V10.6969L13 14.4469V20.0885ZM12 12.7135L18.1132 8.8927L12 5.07195L5.8868 8.8927L12 12.7135Z" fill="#161513"/>
</svg>
