<svg viewBox="0 0 24 24" fill="none" xmlns="http://www.w3.org/2000/svg">
<path d="M10.9982 2H11.9982C17.5211 2 21.9982 6.47715 21.9982 12V13H10.9982V2ZM12.9982 4.06189V11H19.9363C19.4851 7.38128 16.6169 4.51314 12.9982 4.06189ZM8.44325 4.83106C5.80666 6.14134 3.99821 8.86041 3.99821 12C3.99821 16.4183 7.57994 20 11.9982 20C15.1378 20 17.8569 18.1916 19.1672 15.555L20.9582 16.4451C19.3231 19.7353 15.926 22 11.9982 22C6.47537 22 1.99821 17.5229 1.99821 12C1.99821 8.07221 4.2629 4.67516 7.55318 3.04003L8.44325 4.83106Z" fill="#161513"/>
</svg>
