<!--
  - Copyright © 2024, Oracle and/or its affiliates.
  -->

<svg viewBox="0 0 24 24" xmlns="http://www.w3.org/2000/svg">
	<path d="M11.9982 4C10.3413 4 8.99817 5.34315 8.99817 7C8.99817 8.65685 10.3413 10 11.9982 10C13.655 10 14.9982 8.65685 14.9982 7C14.9982 5.34315 13.655 4 11.9982 4ZM6.99817 7C6.99817 4.23858 9.23674 2 11.9982 2C14.7596 2 16.9982 4.23858 16.9982 7C16.9982 9.76142 14.7596 12 11.9982 12C9.23674 12 6.99817 9.76142 6.99817 7ZM6.50042 17.5206C5.47735 18.3843 4.99817 19.5835 4.99817 21V22H2.99817V21C2.99817 19.1005 3.66184 17.2997 5.21021 15.9924C6.73684 14.7035 8.99841 14 11.9982 14C14.9979 14 17.2595 14.7035 18.7861 15.9924C20.3345 17.2997 20.9982 19.1005 20.9982 21V22H18.9982V21C18.9982 19.5835 18.519 18.3843 17.4959 17.5206C16.4511 16.6385 14.7127 16 11.9982 16C9.28364 16 7.54521 16.6385 6.50042 17.5206Z"/>
</svg>
