<svg viewBox="0 0 24 24" xmlns="http://www.w3.org/2000/svg">
	<path d="M11.9983 6C10.8937 6 9.99829 5.10457 9.99829 4C9.99829 2.89543 10.8937 2 11.9983 2C13.1029 2 13.9983 2.89543 13.9983 4C13.9983 5.10457 13.1029 6 11.9983 6Z" />
	<path d="M11.9983 14C10.8937 14 9.99829 13.1046 9.99829 12C9.99829 10.8954 10.8937 10 11.9983 10C13.1029 10 13.9983 10.8954 13.9983 12C13.9983 13.1046 13.1029 14 11.9983 14Z" />
	<path d="M11.9983 22C10.8937 22 9.99829 21.1046 9.99829 20C9.99829 18.8954 10.8937 18 11.9983 18C13.1029 18 13.9983 18.8954 13.9983 20C13.9983 21.1046 13.1029 22 11.9983 22Z" />
</svg>
