<svg viewBox="0 0 24 24" xmlns="http://www.w3.org/2000/svg">
	<path fill-rule="evenodd" clip-rule="evenodd" d="M10.4982 6C6.90838 6 3.99823 8.91015 3.99823 12.5C3.99823 16.0899 6.90838 19 10.4982 19C11.963 19 13.3119 18.5167 14.3983 17.7005L15.5996 19.2995C14.1788 20.367 12.411 21 10.4982 21C5.80381 21 1.99823 17.1944 1.99823 12.5C1.99823 7.80558 5.80381 4 10.4982 4C15.0026 4 18.688 7.50314 18.9797 11.9343C18.992 12.1214 18.9982 12.3101 18.9982 12.5V13.5858L20.2911 12.2929L21.7053 13.7071L17.9982 17.4142L14.2911 13.7071L15.7053 12.2929L16.9982 13.5858V12.5C16.9982 12.3539 16.9934 12.2091 16.984 12.0657C16.7611 8.67882 13.9421 6 10.4982 6Z" />
</svg>
