<svg viewBox="0 0 24 24" xmlns="http://www.w3.org/2000/svg">
	<path fill-rule="evenodd" clip-rule="evenodd" d="M5.53656 6.95261 1.29108 2.70712l1.41421-1.41421L17.1407 15.7283c.0055-.0054.011-.0108.0166-.0163l1.4045 1.4238-.0068.0068 4.1503 4.1503-1.4142 1.4142L17.02 18.436c-1.4292 1.0104-3.1444 1.7025-5.068 1.5407-2.24137-.0222-6.90382-1.6618-9.84795-7.5404l-.22427-.4478.22427-.4478c.6159-1.2298 1.80761-3.04746 3.43251-4.58809Zm1.41477 1.41477C5.69618 9.54768 4.7165 10.9406 4.12767 11.9932c2.63408 4.8776 6.46903 5.9838 7.87053 5.9838h.0453l.0451.0041c1.2259.1112 2.4041-.28 3.4921-.9843l-1.5503-1.5503c-1.5339.9059-3.5427.6999-4.86066-.618-1.31795-1.318-1.52394-3.3268-.61798-4.86069L6.95133 8.36738Zm3.11477 3.11472c-.17825.6672-.0056 1.4087.5179 1.9322.5234.5234 1.2649.6961 1.9321.5179l-2.45-2.4501Zm1.9321-5.48209c-.5799 0-1.146.09643-1.6968.2717l-.60644-1.90583c.72784-.23162 1.49854-.36587 2.30324-.36587 2.3506 0 7.3427 1.5927 9.9189 7.59399l.1768.4119-.1898.4061c-.4405.9424-1.1675 2.1766-2.126 3.3711l-1.5599-1.2516c.7194-.8965 1.2889-1.8155 1.6751-2.5628-2.265-4.83058-6.2907-5.96869-7.8951-5.96869Z" />
</svg>