<svg width="128" height="40" viewBox="0 0 128 40" fill="none" xmlns="http://www.w3.org/2000/svg">
<line x1="0.5" y1="4" x2="0.5" y2="36" stroke="#161513" stroke-opacity="0.12"/>
<path d="M17.02 26.42V24.2C18.5133 24.7867 19.9533 25.08 21.34 25.08C22.3133 25.08 23.0733 24.9 23.62 24.54C24.18 24.18 24.46 23.6867 24.46 23.06C24.46 22.5933 24.2867 22.2133 23.94 21.92C23.5933 21.6133 22.9467 21.2933 22 20.96L20.48 20.4C19.1867 19.92 18.26 19.36 17.7 18.72C17.1533 18.0667 16.88 17.2733 16.88 16.34C16.88 15.06 17.36 14.0533 18.32 13.32C19.28 12.5733 20.5867 12.2 22.24 12.2C22.9333 12.2 23.6267 12.2733 24.32 12.42C25.0267 12.5667 25.64 12.7667 26.16 13.02V15.24C24.7867 14.6667 23.4867 14.38 22.26 14.38C20.3533 14.38 19.4 14.9933 19.4 16.22C19.4 16.66 19.5733 17.02 19.92 17.3C20.2667 17.58 20.9 17.8933 21.82 18.24L23.36 18.8C24.7067 19.2933 25.6467 19.86 26.18 20.5C26.7267 21.14 27 21.9667 27 22.98C27 24.3133 26.5267 25.36 25.58 26.12C24.6333 26.88 23.3067 27.26 21.6 27.26C21.0533 27.26 20.4867 27.22 19.9 27.14C19.3267 27.0733 18.7867 26.98 18.28 26.86C17.7733 26.7267 17.3533 26.58 17.02 26.42ZM27.8397 27L33.3997 12.46H35.8597L41.4597 27H38.6797L37.5597 23.72H31.6397L30.5197 27H27.8397ZM32.3597 21.6H36.8397L34.5797 15.02L32.3597 21.6ZM43.145 27V12.46H45.485L52.465 22.9V12.46H54.945V27H52.605L45.625 16.58V27H43.145ZM57.9888 27V12.46H62.6088C64.9688 12.46 66.7488 13.0733 67.9488 14.3C69.1621 15.5267 69.7688 17.34 69.7688 19.74C69.7688 22.1267 69.1621 23.9333 67.9488 25.16C66.7488 26.3867 64.9688 27 62.6088 27H57.9888ZM62.5688 14.52H60.4888V24.94H62.5688C64.1154 24.94 65.2688 24.5133 66.0288 23.66C66.8021 22.8067 67.1888 21.5 67.1888 19.74C67.1888 17.98 66.8088 16.6733 66.0488 15.82C65.2888 14.9533 64.1288 14.52 62.5688 14.52ZM72.1489 27V12.46H77.0289C78.8289 12.46 80.1489 12.7733 80.9889 13.4C81.8422 14.0267 82.2689 15.0133 82.2689 16.36C82.2689 17.0133 82.0889 17.6 81.7289 18.12C81.3822 18.6267 80.8956 19.0267 80.2689 19.32C82.0156 19.84 82.8889 21 82.8889 22.8C82.8889 25.6 80.9889 27 77.1889 27H72.1489ZM74.5489 18.62H76.5689C77.7289 18.62 78.5556 18.46 79.0489 18.14C79.5422 17.82 79.7889 17.28 79.7889 16.52C79.7889 15.7333 79.5489 15.1867 79.0689 14.88C78.5889 14.56 77.7556 14.4 76.5689 14.4H74.5489V18.62ZM74.5489 25.04H76.9489C78.1622 25.04 79.0356 24.86 79.5689 24.5C80.1022 24.14 80.3689 23.56 80.3689 22.76C80.3689 21.9733 80.0956 21.4 79.5489 21.04C79.0156 20.68 78.1489 20.5 76.9489 20.5H74.5489V25.04ZM91.0809 27.26C88.9476 27.26 87.3076 26.6067 86.1609 25.3C85.0143 23.9933 84.4409 22.1333 84.4409 19.72C84.4409 17.32 85.0143 15.4667 86.1609 14.16C87.3209 12.8533 88.9609 12.2 91.0809 12.2C93.2009 12.2 94.8343 12.8533 95.9809 14.16C97.1409 15.4667 97.7209 17.32 97.7209 19.72C97.7209 22.1333 97.1476 23.9933 96.0009 25.3C94.8543 26.6067 93.2143 27.26 91.0809 27.26ZM91.0809 25.12C93.8143 25.12 95.1809 23.32 95.1809 19.72C95.1809 17.9467 94.8343 16.6067 94.1409 15.7C93.4476 14.7933 92.4276 14.34 91.0809 14.34C89.7343 14.34 88.7143 14.7933 88.0209 15.7C87.3276 16.6067 86.9809 17.9467 86.9809 19.72C86.9809 23.32 88.3476 25.12 91.0809 25.12ZM98.5247 27L103.105 19.5L98.7447 12.46H101.565L104.905 17.98L108.245 12.46H110.965L106.605 19.56L111.185 27H108.365L104.785 21.06L101.245 27H98.5247Z" fill="#AC630C"/>
</svg>
