<svg width="24" height="24" viewBox="0 0 24 24" xmlns="http://www.w3.org/2000/svg">
	<path d="M2.99817 2H14.4124L20.9982 8.58579V12H18.9982V10H12.9982V4H4.99817V20H10.9982V22H2.99817V2ZM14.9982 5.41421V8H17.584L14.9982 5.41421ZM15.9982 15C14.8936 15 13.9982 15.8954 13.9982 17C13.9982 18.1046 14.8936 19 15.9982 19C17.1027 19 17.9982 18.1046 17.9982 17C17.9982 15.8954 17.1027 15 15.9982 15ZM11.9982 17C11.9982 14.7909 13.789 13 15.9982 13C18.2073 13 19.9982 14.7909 19.9982 17C19.9982 17.7418 19.7962 18.4365 19.4444 19.032L21.7053 21.2929L20.2911 22.7071L18.0301 20.4462C17.4346 20.7981 16.74 21 15.9982 21C13.789 21 11.9982 19.2091 11.9982 17Z" />
</svg>
