<svg width="24" height="24" viewBox="0 0 24 24" xmlns="http://www.w3.org/2000/svg">
	<path d="M12 3.77466L17 6.27466V10.2747L21 12.2747V17.5107L12 22.0107L3 17.5107V12.2747L7 10.2747V6.27466L12 3.77466ZM8 12.0107L6.23607 12.8927L8 13.7747L9.76393 12.8927L8 12.0107ZM12 14.0107L10.2361 14.8927L12 15.7747L13.7639 14.8927L12 14.0107ZM16 13.7747L17.7639 12.8927L16 12.0107L14.2361 12.8927L16 13.7747ZM15 16.5107L13 17.5107V19.2747L15 18.2747V16.5107ZM11 17.5107L9 16.5107V18.2747L11 19.2747V17.5107ZM7 17.2747V15.5107L5 14.5107V16.2747L7 17.2747ZM17 17.2747L19 16.2747V14.5107L17 15.5107V17.2747ZM15 10.2747V8.51073L13 9.51073V11.2747L15 10.2747ZM11 11.2747V9.51073L9 8.51073V10.2747L11 11.2747ZM10.2361 6.89269L12 7.77466L13.7639 6.89269L12 6.01073L10.2361 6.89269Z" />
</svg>
