<svg width="24" height="24" viewBox="0 0 24 24" xmlns="http://www.w3.org/2000/svg">
	<path d="M4.99817 3H13.9982C16.7596 3 18.9982 5.23858 18.9982 8C18.9982 9.43071 18.3973 10.7211 17.4341 11.6325C18.9639 12.4875 19.9982 14.123 19.9982 16C19.9982 18.7614 17.7596 21 14.9982 21H4.99817V3ZM6.99817 13V19H14.9982C16.655 19 17.9982 17.6569 17.9982 16C17.9982 14.3431 16.655 13 14.9982 13H6.99817ZM6.99817 11H13.9982C15.655 11 16.9982 9.65685 16.9982 8C16.9982 6.34315 15.655 5 13.9982 5H6.99817V11Z" />
</svg>
