<svg width="24" height="24" viewBox="0 0 24 24" xmlns="http://www.w3.org/2000/svg">
	<path fill-rule="evenodd" clip-rule="evenodd" d="M11.47 3.04458C11.7943 2.84191 12.2057 2.84191 12.53 3.04458L20.53 8.04458C20.8224 8.22732 21 8.54779 21 8.89258V13.3907C20.3766 13.1308 19.7039 12.9651 19 12.9115V10.6968L13 14.4468V15.9269C12.3666 16.93 12 18.1185 12 19.3926C12 20.5419 12.2983 21.6215 12.8217 22.5583L12.53 22.7406C12.2057 22.9432 11.7943 22.9432 11.47 22.7406L3.47 17.7406C3.17762 17.5578 3 17.2374 3 16.8926V8.89258C3 8.54779 3.17762 8.22732 3.47 8.04458L11.47 3.04458ZM5 10.6968V16.3383L11 20.0883V14.4468L5 10.6968ZM12 12.7133L18.1132 8.89258L12 5.07183L5.8868 8.89258L12 12.7133Z" />
	<path fill-rule="evenodd" clip-rule="evenodd" d="M17.5 14.8926V16.0375C17.2672 16.1068 17.0446 16.1996 16.8349 16.3133L16.0251 15.5035L14.6109 16.9177L15.4207 17.7275C15.3071 17.9372 15.2142 18.1598 15.1449 18.3926H14V20.3926H15.1449C15.2142 20.6253 15.3071 20.848 15.4207 21.0577L14.6109 21.8675L16.0251 23.2817L16.8349 22.4719C17.0446 22.5855 17.2672 22.6784 17.5 22.7476V23.8926H19.5V22.7476C19.7328 22.6784 19.9554 22.5855 20.1651 22.4719L20.9749 23.2817L22.3891 21.8675L21.5793 21.0577C21.6929 20.848 21.7858 20.6253 21.8551 20.3926H23V18.3926H21.8551C21.7858 18.1598 21.6929 17.9372 21.5793 17.7275L22.3891 16.9177L20.9749 15.5035L20.1651 16.3133C19.9554 16.1996 19.7328 16.1068 19.5 16.0375V14.8926H17.5ZM18.5 20.8926C17.6716 20.8926 17 20.221 17 19.3926C17 18.5642 17.6716 17.8926 18.5 17.8926C19.3284 17.8926 20 18.5642 20 19.3926C20 20.221 19.3284 20.8926 18.5 20.8926Z" />
</svg>
