<svg width="24" height="25" viewBox="0 0 24 25" xmlns="http://www.w3.org/2000/svg">
	<path d="M11.47 3.04458C11.7943 2.84191 12.2057 2.84191 12.53 3.04458L20.53 8.04458C20.8224 8.22732 21 8.54779 21 8.89258V16.8926C21 17.2374 20.8224 17.5578 20.53 17.7406L12.53 22.7406C12.2057 22.9432 11.7943 22.9432 11.47 22.7406L3.47 17.7406C3.17762 17.5578 3 17.2374 3 16.8926V8.89258C3 8.54779 3.17762 8.22732 3.47 8.04458L11.47 3.04458ZM5 10.6968V16.3383L11 20.0883V14.4468L5 10.6968ZM13 20.0883L19 16.3383V10.6968L13 14.4468V20.0883ZM12 12.7133L18.1132 8.89258L12 5.07183L5.8868 8.89258L12 12.7133Z" />
</svg>
