<svg width="24" height="24" viewBox="0 0 24 24" xmlns="http://www.w3.org/2000/svg">
	<path d="M22 1.48352V20.5166L14.9801 17.5081C14.8484 19.1573 14.0763 20.2973 13.0843 21.0116C12.0445 21.7603 10.8267 22.0001 10 22.0001C8.07408 22.0001 6.77386 21.1752 5.98847 20.0844C5.23978 19.0445 5 17.8267 5 17.0001V14.0001H2V8.00006H6.79474L22 1.48352ZM6 10.0001H4V12.0001H6V10.0001ZM7 14.088V17.0001C7 17.5067 7.16022 18.2889 7.61153 18.9158C8.02614 19.4916 8.72592 20.0001 10 20.0001C10.5066 20.0001 11.2889 19.8398 11.9157 19.3885C12.4915 18.9739 13 18.2741 13 17.0001V16.6595L7 14.088ZM8 12.3407L20 17.4835V4.5166L8 9.65946V12.3407Z"/>
</svg>
