<svg width="24" height="24" viewBox="0 0 24 24" xmlns="http://www.w3.org/2000/svg">
	<path d="M6.99821 2V4H2.99821H1.99821V5V21V22H2.99821H12.9982V20H3.99821V6H6.99821V8H8.99821V6H14.9982V8H16.9982V6H19.9982V14H21.9982V5V4H20.9982H16.9982V2H14.9982V4H8.99821V2H6.99821ZM4.99821 11H6.99821V9H4.99821V11ZM9.99821 11V9H7.99821V11H9.99821ZM10.9982 11H12.9982V9H10.9982V11ZM15.9982 11V9H13.9982V11H15.9982ZM16.9982 11H18.9982V9H16.9982V11ZM4.99821 14H6.99821V12H4.99821V14ZM9.99821 14V12H7.99821V14H9.99821ZM10.9982 14H12.9982V12H10.9982V14ZM15.9982 14V12H13.9982V14H15.9982ZM16.9982 14H18.9982V12H16.9982V14ZM4.99821 17H6.99821V15H4.99821V17ZM9.99821 17V15H7.99821V17H9.99821ZM10.9982 17H12.9982V15H10.9982V17ZM22.9982 19C22.9982 21.2091 21.2074 23 18.9982 23C16.7891 23 14.9982 21.2091 14.9982 19C14.9982 16.7909 16.7891 15 18.9982 15C21.2074 15 22.9982 16.7909 22.9982 19ZM18.4982 19V19.2071L18.6447 19.3536L19.6447 20.3536L20.3518 19.6464L19.4982 18.7929V17H18.4982V19Z" />
</svg>
