<svg width="24" height="24" viewBox="0 0 24 24" xmlns="http://www.w3.org/2000/svg">
	<path d="M9.99817 4C8.34131 4 6.99817 5.34315 6.99817 7C6.99817 8.65685 8.34131 10 9.99817 10C11.655 10 12.9982 8.65685 12.9982 7C12.9982 5.34315 11.655 4 9.99817 4ZM4.99817 7C4.99817 4.23858 7.23674 2 9.99817 2C12.7596 2 14.9982 4.23858 14.9982 7C14.9982 9.76142 12.7596 12 9.99817 12C7.23674 12 4.99817 9.76142 4.99817 7ZM5.31753 17.4761C4.43436 18.3283 3.99817 19.5412 3.99817 21V22H1.99817V21C1.99817 19.1428 2.56198 17.3557 3.92881 16.0369C5.29358 14.72 7.32422 14 9.99817 14H10.9982V16H9.99817C7.67212 16 6.20276 16.622 5.31753 17.4761Z" />
	<path d="M18.584 12L17.7911 11.2071L19.2053 9.7929L22.4124 13L19.2053 16.2071L17.7911 14.7929L18.584 14L14.9982 14V19H16.1689C16.5807 17.8348 17.6919 17 18.9982 17C20.655 17 21.9982 18.3431 21.9982 20C21.9982 21.6569 20.655 23 18.9982 23C17.6919 23 16.5807 22.1652 16.1689 21H12.9982V12L18.584 12ZM17.9982 20C17.9982 20.5523 18.4459 21 18.9982 21C19.5505 21 19.9982 20.5523 19.9982 20C19.9982 19.4477 19.5505 19 18.9982 19C18.4459 19 17.9982 19.4477 17.9982 20Z" />
</svg>
