<svg width="24" height="24" viewBox="0 0 24 24" xmlns="http://www.w3.org/2000/svg">
	<path d="M1.99817 2H19.9982V10H17.9982V4H3.99817V20H9.99817V22H1.99817V2ZM7.99817 9H5.99817V7H7.99817V9ZM15.9982 9H9.99817V7H15.9982V9ZM7.99817 13H5.99817V11H7.99817V13ZM13.9982 13H9.99817V11H13.9982V13ZM17.2911 12.2929C17.6816 11.9024 18.3148 11.9024 18.7053 12.2929L21.7053 15.2929C22.0958 15.6834 22.0958 16.3166 21.7053 16.7071L16.4124 22H11.9982V17.5858L17.2911 12.2929ZM13.9982 18.4142V20H15.584L19.584 16L17.9982 14.4142L13.9982 18.4142Z" />
</svg>
