<svg width="24" height="24" viewBox="0 0 24 24" xmlns="http://www.w3.org/2000/svg">
	<path d="M11.9982 4C7.57989 4 3.99817 7.58172 3.99817 12C3.99817 16.4183 7.57989 20 11.9982 20C16.4164 20 19.9982 16.4183 19.9982 12C19.9982 7.58172 16.4164 4 11.9982 4ZM1.99817 12C1.99817 6.47715 6.47532 2 11.9982 2C17.521 2 21.9982 6.47715 21.9982 12C21.9982 17.5228 17.521 22 11.9982 22C6.47532 22 1.99817 17.5228 1.99817 12ZM15.2911 16.7071L7.29106 8.70711L8.70528 7.29289L16.7053 15.2929L15.2911 16.7071Z" />
</svg>
