<svg width="24" height="24" viewBox="0 0 24 24" xmlns="http://www.w3.org/2000/svg">
	<path d="M3.99817 2H14.4124L19.9982 7.58579V10H17.9982V9H12.9982V4H5.99817V20H17.9982V19H19.9982V22H3.99817V2ZM14.9982 5.41421V7H16.584L14.9982 5.41421Z" />
	<path d="M11.8632 17V16.2563L14.1546 13.0135H11.9436V12.1291H15.4879V12.8527L13.1831 16.1156H15.575V17H11.8632Z" />
	<path d="M16.2777 17V12.1291H17.3229V17H16.2777Z" />
	<path d="M18.2733 17V12.1291H20.0153C20.6138 12.1291 21.0649 12.2676 21.3687 12.5445C21.6769 12.8214 21.831 13.2324 21.831 13.7773C21.831 14.3178 21.6769 14.7287 21.3687 15.0101C21.0649 15.287 20.6138 15.4255 20.0153 15.4255H19.3118V17H18.2733ZM19.8009 12.98H19.3118V14.5746H19.8009C20.1582 14.5746 20.4106 14.5143 20.558 14.3937C20.7099 14.2686 20.7858 14.0632 20.7858 13.7773C20.7858 13.487 20.7099 13.2815 20.558 13.1609C20.4106 13.0403 20.1582 12.98 19.8009 12.98Z" />
</svg>
