<svg width="24" height="24" viewBox="0 0 24 24" xmlns="http://www.w3.org/2000/svg">
	<path d="M3.99817 2H14.4124L19.9982 7.58579V10H17.9982V9H12.9982V4H5.99817V20H17.9982V19H19.9982V22H3.99817V2ZM14.9982 5.41421V7H16.584L14.9982 5.41421Z" />
	<path d="M9.64965 17V12.1291H11.3917C11.9902 12.1291 12.4413 12.2676 12.7451 12.5445C13.0533 12.8214 13.2074 13.2324 13.2074 13.7773C13.2074 14.3178 13.0533 14.7287 12.7451 15.0101C12.4413 15.287 11.9902 15.4255 11.3917 15.4255H10.6882V17H9.64965ZM11.1773 12.98H10.6882V14.5746H11.1773C11.5346 14.5746 11.787 14.5143 11.9344 14.3937C12.0862 14.2686 12.1622 14.0632 12.1622 13.7773C12.1622 13.487 12.0862 13.2815 11.9344 13.1609C11.787 13.0403 11.5346 12.98 11.1773 12.98Z" />
	<path d="M13.8502 17V12.1291H15.485C16.2801 12.1291 16.8809 12.3346 17.2873 12.7455C17.6938 13.1564 17.897 13.7639 17.897 14.5679C17.897 15.363 17.6938 15.9682 17.2873 16.3836C16.8853 16.7945 16.2846 17 15.485 17H13.8502ZM15.4716 12.98H14.8954V16.1491H15.4716C15.9228 16.1491 16.2578 16.0218 16.4766 15.7672C16.7 15.5081 16.8116 15.1084 16.8116 14.5679C16.8116 14.0274 16.7022 13.6277 16.4833 13.3686C16.2645 13.1095 15.9272 12.98 15.4716 12.98Z" />
	<path d="M18.6397 17V12.1291H21.7485V13.0135H19.6849V14.2396H21.514V15.124H19.6849V17H18.6397Z" />
</svg>
