<svg width="24" height="24" viewBox="0 0 24 24" xmlns="http://www.w3.org/2000/svg">
	<path d="M3.99817 2H14.4124L19.9982 7.58579V22H3.99817V2ZM5.99817 4V20H17.9982V9H12.9982V4H5.99817ZM14.9982 5.41421V7H16.584L14.9982 5.41421Z" />
	<path d="M11.1681 15.8611L10.9944 14.0806L11.7436 13.7223C12.6049 13.3025 13.0356 12.7994 13.0356 12.2131C13.0356 11.8802 12.9306 11.6269 12.7207 11.4531C12.518 11.2794 12.2249 11.1926 11.8413 11.1926C11.6097 11.1926 11.3418 11.2288 11.0378 11.3011C10.7411 11.3735 10.4335 11.4749 10.115 11.6051V10.5194C10.39 10.3964 10.6977 10.2987 11.0378 10.2263C11.378 10.1467 11.6965 10.1069 11.9933 10.1069C13.5278 10.1069 14.295 10.7691 14.295 12.0937C14.295 12.5859 14.1285 13.0383 13.7956 13.4509C13.4698 13.8634 12.9632 14.2326 12.2756 14.5583L12.1344 15.8611H11.1681ZM10.8858 18V16.6429H12.4276V18H10.8858Z" />
</svg>
