<svg width="24" height="24" viewBox="0 0 24 24" xmlns="http://www.w3.org/2000/svg">
	<path d="M8.11917 5C8.11917 3.34271 9.46188 2 11.1192 2C12.7765 2 14.1192 3.34272 14.1192 5V7.17059C14.4319 7.06011 14.7685 7 15.1191 7C16.7764 7 18.1191 8.34272 18.1191 10V11.1706C18.4319 11.0601 18.7685 11 19.1192 11C20.7765 11 22.1192 12.3427 22.1192 14V16.002C22.1192 19.3143 19.4335 22 16.1212 22C12.6554 22 9.36103 20.4856 7.10496 17.8528C7.10492 17.8528 7.10501 17.8529 7.10496 17.8528L4.38493 14.68L2.91206 13.2071C1.69354 11.9886 1.69354 10.0114 2.91206 8.79289C4.13059 7.57437 6.10775 7.57437 7.32628 8.79289L8.11917 9.58579V5ZM18.1191 14V15H16.1191V10C16.1191 9.44728 15.6719 9 15.1191 9C14.569 9 14.1233 9.44316 14.1192 9.99235L14.1191 13H12.1191V10C12.1191 9.99558 12.1192 9.99117 12.1192 9.98675V5C12.1192 4.44728 11.6719 4 11.1192 4C10.5665 4 10.1192 4.44729 10.1192 5V12C10.1192 12.4045 9.87553 12.7691 9.50185 12.9239C9.12818 13.0787 8.69806 12.9931 8.41206 12.7071L5.91206 10.2071C5.47459 9.76963 4.76375 9.76963 4.32628 10.2071C3.8888 10.6446 3.8888 11.3554 4.32628 11.7929L5.82628 13.2929C5.84436 13.311 5.86173 13.3297 5.87838 13.3491L8.62338 16.5511C10.4993 18.7403 13.239 20 16.1212 20C18.3289 20 20.1192 18.2097 20.1192 16.002V14C20.1192 13.4473 19.6719 13 19.1192 13C18.5665 13 18.1191 13.4473 18.1191 14Z" />
</svg>
