<svg width="24" height="24" viewBox="0 0 24 24" xmlns="http://www.w3.org/2000/svg">
	<path d="M11.9982 22C17.5211 22 21.9982 17.5228 21.9982 12C21.9982 6.47715 17.5211 2 11.9982 2C6.47538 2 1.99823 6.47715 1.99823 12C1.99823 17.5228 6.47538 22 11.9982 22ZM12.9982 18H10.9982V16H12.9982V18ZM9.99823 9.78947H7.99823C8.05223 7.62274 9.37023 6 11.9982 6C15.3992 6 15.9982 7.75747 15.9982 8.92547C15.9982 10.3958 15.3712 10.8051 14.5982 11.3053C13.8242 11.7903 13.1602 12.3663 12.9982 13.2589L12.9262 14H10.9982V13.1537C11.1062 11.8349 11.6792 11.4383 12.3982 10.9676C12.4384 10.9408 12.4792 10.9138 12.5205 10.8865C13.2009 10.4363 13.9982 9.90862 13.9982 9.13768C13.9982 8.21305 12.9522 7.68421 11.9982 7.68421C10.7022 7.68421 10.0162 8.71326 9.99823 9.78947Z" />
</svg>
