<svg width="24" height="24" viewBox="0 0 24 24" xmlns="http://www.w3.org/2000/svg">
	<path fill-rule="evenodd" clip-rule="evenodd" d="M11.47 3.04458C11.7943 2.84191 12.2057 2.84191 12.53 3.04458L20.53 8.04458C20.8224 8.22732 21 8.54779 21 8.89258V13.7179L19 15.5929V10.6968L13 14.4468V17.535L11 19.6684V14.4468L5 10.6968V16.3383L10.7517 19.9332L10.489 20.2134L12.9228 22.4951L12.53 22.7406C12.2057 22.9432 11.7943 22.9432 11.47 22.7406L3.47 17.7406C3.17762 17.5578 3 17.2374 3 16.8926V8.89258C3 8.54779 3.17762 8.22732 3.47 8.04458L11.47 3.04458ZM12 12.7133L18.1132 8.89258L12 5.07183L5.8868 8.89258L12 12.7133ZM16.6668 23.2634L22.684 17.6222L21.3162 16.1631L16.6668 20.5219L14.684 18.6631L13.3162 20.1222L16.6668 23.2634Z" />
</svg>
