<svg width="24" height="24" viewBox="0 0 24 24" xmlns="http://www.w3.org/2000/svg">
	<path fill-rule="evenodd" clip-rule="evenodd" d="M10.7546 11.4626L14.5748 15.2828L12.4033 17.4543L13.8175 18.8685L15.989 16.697L17.4535 18.1615L15.282 20.333L16.6962 21.7472L18.8677 19.5757L21.3024 22.0105L22.7166 20.5963L12.173 10.0526C12.7017 9.25971 13.0098 8.30719 13.0098 7.28271C13.0098 4.52129 10.7712 2.28271 8.00977 2.28271C5.24834 2.28271 3.00977 4.52129 3.00977 7.28272C3.00977 10.0441 5.24834 12.2827 8.00977 12.2827C9.02345 12.2827 9.96667 11.9811 10.7546 11.4626ZM5.00977 7.28271C5.00977 5.62586 6.35291 4.28272 8.00977 4.28271C9.66662 4.28271 11.0098 5.62586 11.0098 7.28271C11.0098 8.93957 9.66662 10.2827 8.00977 10.2827C6.35291 10.2827 5.00977 8.93957 5.00977 7.28271Z" />
</svg>
