<svg width="24" height="24" viewBox="0 0 24 24" xmlns="http://www.w3.org/2000/svg">
	<path fill-rule="evenodd" clip-rule="evenodd" d="M2 8.5C2 4.91015 4.91015 2 8.5 2C11.8226 2 14.6138 4.54904 15.0082 7.76096L13.0231 8.00467C12.9808 7.66013 12.8982 7.32631 12.7803 7.00814L7.5 9.60664V4.11151C5.49601 4.56624 4 6.35841 4 8.5C4 9.74936 4.50783 10.8783 5.33079 11.6947L3.92221 13.1145C2.73625 11.938 2 10.304 2 8.5ZM9.5 4.11432V6.39336L11.6821 5.31953C11.0859 4.73426 10.333 4.30721 9.5 4.11432ZM11.5858 9H16.4142L18.4142 11H22V22H6V11H9.58579L11.5858 9ZM12.4142 11L10.4142 13H8V20H20V13H17.5858L15.5858 11H12.4142ZM14 15C13.4477 15 13 15.4477 13 16C13 16.5523 13.4477 17 14 17C14.5523 17 15 16.5523 15 16C15 15.4477 14.5523 15 14 15ZM11 16C11 14.3431 12.3431 13 14 13C15.6569 13 17 14.3431 17 16C17 17.6569 15.6569 19 14 19C12.3431 19 11 17.6569 11 16Z" />
</svg>
