<svg width="24" height="24" viewBox="0 0 24 24" xmlns="http://www.w3.org/2000/svg">
	<path d="M5.49829 3V2H7.49829V3H9.99829V5H7.49829V7H8.24829C9.88833 7 10.9983 8.47275 10.9983 10C10.9983 11.5272 9.88833 13 8.24829 13H7.49829V14H5.49829V13L2.99829 13V11L5.49829 11V9H4.74829C3.10825 9 1.99829 7.52725 1.99829 6C1.99829 4.47275 3.10825 3 4.74829 3H5.49829ZM5.49829 5H4.74829C4.45533 5 3.99829 5.31811 3.99829 6C3.99829 6.68189 4.45533 7 4.74829 7H5.49829V5ZM7.49829 9V11H8.24829C8.54125 11 8.99829 10.6819 8.99829 10C8.99829 9.31811 8.54125 9 8.24829 9H7.49829ZM14.4983 5.83469L21.9983 10.3219V17.6781L14.4983 22.1653L6.99829 17.6781V16H8.99829V16.5441L13.4983 19.2364V15.3448L11.4849 14.1402L12.5117 12.4239L14.4983 13.6125L19.0506 10.8889L14.4983 8.16531L13.3867 8.83036L12.3599 7.11408L14.4983 5.83469ZM19.9983 12.6525L15.4983 15.3448V19.2364L19.9983 16.5441V12.6525Z"/>
</svg>
