<svg width="24" height="24" viewBox="0 0 24 24" xmlns="http://www.w3.org/2000/svg">
	<path fill-rule="evenodd" clip-rule="evenodd" d="M10.2072 6.18538L6.00008 1.97827L1.79297 6.18538L3.20718 7.59959L5.00008 5.8067V11.8925H11.0001V13.3382L7 15.8382V20.9467L12 24.0717L17 20.9467V15.8382L13.0001 13.3383V11.8925H19.0001V5.8067L20.793 7.59959L22.2072 6.18538L18.0001 1.97827L13.793 6.18538L15.2072 7.59959L17.0001 5.8067V9.89249H7.00008V5.8067L8.79297 7.59959L10.2072 6.18538ZM11 19.4467V21.0882L9 19.8382V18.1967L11 19.4467ZM15 19.8382L13 21.0882V19.4467L15 18.1967V19.8382ZM14.1132 16.3925L12 17.7132L9.8868 16.3925L12 15.0717L14.1132 16.3925Z" />
</svg>
