<svg width="24" height="24" viewBox="0 0 24 24" xmlns="http://www.w3.org/2000/svg">
	<path d="M3.99817 2H14.4124L19.9982 7.58579V11H17.9982V9H12.9982V4H5.99817V20H8.99817V22H3.99817V2ZM14.9982 5.41421V7H16.584L14.9982 5.41421ZM14.9982 14C13.3413 14 11.9982 15.3431 11.9982 17C11.9982 18.6569 13.3413 20 14.9982 20V22C12.2367 22 9.99817 19.7614 9.99817 17C9.99817 14.2386 12.2367 12 14.9982 12C17.7596 12 19.9982 14.2386 19.9982 17V17.5858L21.2911 16.2929L22.7053 17.7071L18.9982 21.4142L15.2911 17.7071L16.7053 16.2929L17.9982 17.5858V17C17.9982 15.3431 16.655 14 14.9982 14Z"/>
</svg>
