<svg width="24" height="24" viewBox="0 0 24 24" xmlns="http://www.w3.org/2000/svg">
	<path fill-rule="evenodd" clip-rule="evenodd" d="M4.12728 12.0047C6.76176 16.8923 10.5975 18 11.9982 18h.0454l.0452.0041c1.7873.1625 3.4734-.7445 4.9305-2.139 1.2882-1.233 2.288-2.7477 2.8744-3.8849C17.6284 7.1397 13.6019 6 11.9982 6c-1.8402 0-3.56455.98082-5.02821 2.35423-1.26803 1.18984-2.25357 2.59537-2.84271 3.65047Zm1.47418-5.10893C7.24613 5.35251 9.43842 4 11.9982 4c2.3516 0 7.3434 1.59585 9.9192 7.6061l.1762.4113-.1892.4055c-.6246 1.3385-1.8414 3.2974-3.5022 4.887-1.642 1.5716-3.8567 2.9083-6.4503 2.6899-2.24218-.0224-6.9044-1.6652-9.84811-7.5526L1.88019 12l.2236-.4472c.62773-1.2555 1.84455-3.10585 3.49767-4.65703ZM11.9982 10c-1.1045 0-1.99998.8954-1.99998 2s.89548 2 1.99998 2c1.1046 0 2-.8954 2-2s-.8954-2-2-2Zm-3.99998 2c0-2.20914 1.79086-4 3.99998-4 2.2092 0 4 1.79086 4 4 0 2.2091-1.7908 4-4 4-2.20912 0-3.99998-1.7909-3.99998-4Z" />
</svg>