<svg width="24" height="24" viewBox="0 0 24 24" xmlns="http://www.w3.org/2000/svg">
	<path fill-rule="evenodd" clip-rule="evenodd" d="M5.53656 6.95261L1.29108 2.70712L2.70529 1.29291L17.1407 15.7283C17.1462 15.7229 17.1517 15.7175 17.1573 15.712L18.5618 17.1358C18.5595 17.1381 18.5573 17.1403 18.555 17.1426L22.7053 21.2929L21.2911 22.7071L17.02 18.436C15.5908 19.4464 13.8756 20.1385 11.952 19.9767C9.71063 19.9545 5.04818 18.3149 2.10405 12.4363L1.87978 11.9885L2.10405 11.5407C2.71995 10.3109 3.91166 8.49324 5.53656 6.95261ZM6.95133 8.36738C5.69618 9.54768 4.7165 10.9406 4.12767 11.9932C6.76175 16.8708 10.5967 17.977 11.9982 17.977H12.0435L12.0886 17.9811C13.3145 18.0923 14.4927 17.7011 15.5807 16.9968L14.0304 15.4465C12.4965 16.3524 10.4877 16.1464 9.16974 14.8285C7.85179 13.5105 7.6458 11.5017 8.55176 9.96781L6.95133 8.36738ZM10.0661 11.4821C9.88785 12.1493 10.0605 12.8908 10.584 13.4143C11.1074 13.9377 11.8489 14.1104 12.5161 13.9322L10.0661 11.4821ZM11.9982 6.00001C11.4183 6.00001 10.8522 6.09644 10.3014 6.27171L9.69496 4.36588C10.4228 4.13426 11.1935 4.00001 11.9982 4.00001C14.3488 4.00001 19.3409 5.59271 21.9171 11.594L22.0939 12.0059L21.9041 12.412C21.4636 13.3544 20.7366 14.5886 19.7781 15.7831L18.2182 14.5315C18.9376 13.635 19.5071 12.716 19.8933 11.9687C17.6283 7.13812 13.6026 6.00001 11.9982 6.00001Z"/>
</svg>
