<svg width="24" height="24" viewBox="0 0 24 24" xmlns="http://www.w3.org/2000/svg">
	<path d="M14.9999 4C12.2385 4 9.99994 6.23858 9.99994 9C9.99994 11.7614 12.2385 14 14.9999 14C17.7614 14 19.9999 11.7614 19.9999 9C19.9999 8.59814 19.9527 8.2079 19.8636 7.83425L16.9374 11H12.9999V7.12113L15.7164 4.05082C15.4826 4.01734 15.2435 4 14.9999 4ZM7.99994 9C7.99994 5.13401 11.1339 2 14.9999 2C16.039 2 17.0278 2.22705 17.9171 2.6352L19.1419 3.19734L14.9999 7.87887V9H16.0625L20.3836 4.32511L21.0629 5.49927C21.659 6.5299 21.9999 7.72666 21.9999 9C21.9999 12.866 18.8659 16 14.9999 16C14.1747 16 13.3828 15.8572 12.6477 15.595L7.12132 21.1213C5.94975 22.2929 4.05025 22.2929 2.87868 21.1213C1.70711 19.9497 1.70711 18.0503 2.87868 16.8787L8.40501 11.3524C8.14275 10.6172 7.99994 9.82526 7.99994 9ZM9.39358 13.1922L4.29289 18.2929C3.90237 18.6834 3.90237 19.3166 4.29289 19.7071C4.68342 20.0976 5.31658 20.0976 5.70711 19.7071L10.8078 14.6064C10.2717 14.2049 9.7951 13.7283 9.39358 13.1922Z" />
</svg>
