<svg xmlns="http://www.w3.org/2000/svg" viewBox="0 0 24 24"><path d="M16.696 21.384c-2.434 0-5.682-1.025-9.37-4.712-3.686-3.688-4.712-6.936-4.712-9.37 0-1.201.251-2.163.509-2.833a6 6 0 0 1 .363-.785 4 4 0 0 1 .174-.286l.015-.021.005-.008.003-.004v-.001s.002-.002.815.58l-.813-.582.299-.418h5.624l.9 6.303-3.736 3.737c.527.72 1.175 1.48 1.969 2.273a19.6 19.6 0 0 0 2.273 1.97l3.737-3.737 6.304.9v5.625l-.42.299-.58-.814.58.815h-.002l-.003.003-.008.006-.022.014a4 4 0 0 1-.286.174 6 6 0 0 1-.784.363 7.9 7.9 0 0 1-2.834.509m2.359-2.477v-2.782l-3.596-.514-2.707 2.706c1.582.827 2.916 1.067 3.944 1.067.92 0 1.638-.192 2.116-.375q.134-.052.243-.102M5.68 11.247 8.387 8.54l-.513-3.596H5.09a5 5 0 0 0-.101.242 5.9 5.9 0 0 0-.376 2.116c0 1.028.24 2.363 1.067 3.944Z"/></svg>