<svg xmlns="http://www.w3.org/2000/svg" viewBox="0 0 24 24"><path d="M1 11v10h9v-2H3V3h7v5h5v1h2V6.58l-2.79-2.79L11.42 1H1zm11.8-5.78.779.78H12v-.78c0-.429.005-.78.01-.78.006 0 .361.351.79.78m-2.233 5.837c-.326.488-.534.986-.691 1.663-.105.447-.144 1.414-.079 1.945.246 2.019 1.488 4.109 3.617 6.09 1.835 1.706 3.605 2.6 5.478 2.767 1.26.112 2.658-.245 3.469-.886l.2-.158-.011-2.029-.01-2.029-2.26-.326-2.26-.326-1.22 1.216-1.22 1.216-.295-.241c-.708-.579-1.543-1.42-2.011-2.026l-.168-.219 1.212-1.212 1.212-1.213-.306-2.154a225 225 0 0 0-.328-2.265l-.022-.11h-4.108zm2.727 1.613c.011.038.08.498.152 1.021l.132.95-.719.72c-.395.395-.729.719-.743.719-.042 0-.314-.745-.406-1.114-.072-.286-.088-.464-.089-1.026-.001-.601.01-.719.095-1.01l.095-.33h.732c.663 0 .733.007.751.07m6.386 7.19c.534.077.987.14 1.005.14.019 0 .035.332.035.738v.739l-.27.079c-.929.272-1.997.173-3.06-.284l-.197-.085.733-.733c.403-.404.744-.734.758-.734s.462.063.996.14"/></svg>