<svg xmlns="http://www.w3.org/2000/svg" viewBox="0 0 24 24"><path fill-rule="evenodd" d="M11 5a2 2 0 1 1-4 0 2 2 0 0 1 4 0m2 0a4 4 0 1 1-8 0 4 4 0 0 1 8 0m-8.367 8.187C3.656 13.935 3 15.123 3 17H1c0-2.408.877-4.221 2.416-5.4C4.912 10.452 6.909 10 9 10c2.095 0 4.034.454 5.5 1.607q.122.096.239.197a7 7 0 0 0-1.672 1.23C12.09 12.353 10.721 12 9 12c-1.844 0-3.347.405-4.367 1.187M21 18a3 3 0 1 1-6 0 3 3 0 0 1 6 0m2 0a5 5 0 1 1-10 0 5 5 0 0 1 10 0M8 17h3v2H8l1.75 2L8 22l-4-4 4-4 1.75 1zm11-1h-2v4h2z"/></svg>