<svg xmlns="http://www.w3.org/2000/svg" viewBox="0 0 24 24"><path d="M11.7 2.048c-.084.03-8.069 4.983-8.215 5.096-.008.007.102.197.245.424l.259.412-.496.011-.495.011.011 4.129c.012 4.623-.01 4.279.302 4.572.109.102 5.729 3.642 8.016 5.049l.146.09.25-.401c.138-.22.262-.401.277-.401s.139.181.277.401l.25.401.146-.09c2.287-1.407 7.907-4.947 8.016-5.049.312-.293.29.051.302-4.572l.011-4.129-.495-.011-.496-.011.259-.412c.143-.227.253-.417.245-.424-.172-.133-8.136-5.066-8.231-5.098a1.03 1.03 0 0 0-.584.002m3.35 4.033C16.705 7.116 18.06 7.979 18.06 8c0 .041-5.995 3.8-6.06 3.8S5.94 8.041 5.94 8c0-.043 5.975-3.793 6.05-3.797.027-.002 1.404.844 3.06 1.878M8.334 11.88l2.663 1.66.001 2.83L11 19.2l-.336-.21-2.998-1.87-2.663-1.66-.001-2.83L5 9.8l.336.21zm10.664.75-.001 2.83-2.663 1.66-2.998 1.87-.336.21.002-2.83.001-2.83 2.989-1.867a949 949 0 0 1 2.998-1.87c.005-.002.009 1.27.008 2.827"/></svg>