<svg xmlns="http://www.w3.org/2000/svg" viewBox="0 0 24 24"><path fill-rule="evenodd" d="M11 5a2 2 0 1 1-4 0 2 2 0 0 1 4 0m2 0a4 4 0 1 1-8 0 4 4 0 0 1 8 0m-4 5c-2.091 0-4.088.453-5.584 1.6C1.876 12.778 1 14.591 1 17v1h2v-1c0-1.877.656-3.065 1.633-3.813C5.653 12.405 7.156 12 9 12c1.79 0 3.258.381 4.276 1.119a7.5 7.5 0 0 1 1.666-1.223 6 6 0 0 0-.358-.297C13.088 10.453 11.091 10 9 10m15 8.5a5.5 5.5 0 1 1-11 0 5.5 5.5 0 0 1 11 0m-6.173 1.826v-.364q0-.568.163-.949a2.3 2.3 0 0 1 .415-.645q.252-.265.51-.48.314-.26.55-.525.234-.264.235-.678a.92.92 0 0 0-.286-.69q-.286-.28-.836-.281-.627 0-.964.364-.336.358-.336.982H16q0-.8.325-1.374a2.2 2.2 0 0 1 .903-.877q.582-.309 1.35-.309.786 0 1.323.292.544.288.819.784.28.495.28 1.109 0 .48-.146.81a2 2 0 0 1-.37.564q-.224.232-.47.435a8 8 0 0 0-.438.398q-.207.198-.336.458-.123.258-.123.623v.353zm.65 2.174a.87.87 0 0 1-.885-.86q0-.348.252-.602a.86.86 0 0 1 .634-.26q.381 0 .633.26.252.255.252.601a.83.83 0 0 1-.252.607.86.86 0 0 1-.633.254"/></svg>