<svg xmlns="http://www.w3.org/2000/svg" viewBox="0 0 24 24"><path d="M1 11v10h9v-2H3V3h7v5h5v1h2V6.58l-2.79-2.79L11.42 1H1zm11.8-5.78.779.78H12v-.78c0-.429.005-.78.01-.78.006 0 .361.351.79.78m3.425 4.639a.9.9 0 0 0-.261.157c-.059.057-.357.587-.662 1.177l-.555 1.075-.343-.111c-1.521-.487-2.018-.637-2.113-.636-.411.003-.83.502-.75.892.024.117.693 2.26.721 2.309.007.012-.474.273-1.069.58-1.138.587-1.272.683-1.351.967a.7.7 0 0 0 0 .462c.079.284.213.38 1.351.967.595.307 1.076.568 1.069.58a81 81 0 0 0-.721 2.309c-.08.39.339.889.75.892.095.001.592-.149 2.113-.636l.343-.111.557 1.079c.585 1.133.681 1.268.965 1.347.19.052.272.052.462 0 .284-.079.38-.214.965-1.347l.557-1.079.343.111c1.521.487 2.018.637 2.113.636.411-.003.83-.502.75-.892a81 81 0 0 0-.721-2.309c-.007-.012.474-.273 1.069-.58 1.138-.587 1.272-.683 1.351-.967a.7.7 0 0 0 0-.462c-.079-.284-.213-.38-1.351-.967-.595-.307-1.076-.568-1.069-.58a81 81 0 0 0 .721-2.309c.08-.39-.339-.889-.75-.892-.095-.001-.592.149-2.113.636l-.343.111-.557-1.079c-.585-1.133-.681-1.268-.965-1.347a.72.72 0 0 0-.506.017m.782 3.433c.409.799.581.849 1.695.49.388-.125.714-.219.723-.21s-.083.33-.207.713c-.188.585-.221.731-.209.921.025.372.139.501.699.787.259.133.584.303.72.376l.248.134-.722.376c-.832.433-.918.516-.945.915-.012.19.021.336.209.921.124.383.217.703.209.712-.009.008-.329-.085-.712-.209-.585-.188-.731-.221-.921-.209-.372.025-.501.139-.787.699-.133.259-.303.584-.376.72l-.134.248-.376-.722c-.433-.832-.516-.918-.915-.945-.19-.012-.336.021-.921.209-.383.124-.703.217-.713.207-.009-.009.085-.335.21-.723.359-1.114.309-1.286-.49-1.695a58 58 0 0 1-.72-.376l-.248-.134.722-.376c.823-.428.914-.514.946-.901.015-.182-.018-.326-.21-.922-.125-.388-.219-.714-.21-.723s.33.083.713.207c.585.188.731.221.921.209.399-.027.482-.113.915-.945l.376-.722.134.248c.073.136.243.461.376.72"/></svg>