<svg xmlns="http://www.w3.org/2000/svg" viewBox="0 0 24 24"><path fill-rule="evenodd" d="M17 11a4 4 0 1 0 0-8 4 4 0 0 0 0 8m0-2a2 2 0 1 0 0-4 2 2 0 0 0 0 4"/><path d="M13.053 12.805C14.078 12.238 15.269 12 16.5 12c1.7 0 3.321.453 4.537 1.6C22.287 14.778 23 16.591 23 19v1h-1.963v-1c0-1.877-.195-3.065-.989-3.813C19.22 14.405 17.998 14 16.5 14c-.616 0-1.186.069-1.7.204a8.6 8.6 0 0 0-1.747-1.4"/><path fill-rule="evenodd" d="M9 8a2 2 0 1 1-4 0 2 2 0 0 1 4 0m2 0a4 4 0 1 1-8 0 4 4 0 0 1 8 0m-3 5c-1.83 0-3.577.453-4.886 1.6C1.767 15.778 1 17.591 1 20v1h2v-1c0-1.877.324-3.065 1.179-3.813C5.07 15.404 6.387 15 8 15s2.929.405 3.821 1.187C12.676 16.935 13 18.123 13 20v1h2v-1c0-2.408-.767-4.221-2.114-5.4C11.576 13.452 9.83 13 8 13" clip-rule="evenodd"/></svg>