<svg xmlns="http://www.w3.org/2000/svg" viewBox="0 0 24 24"><path d="M10.34 2.046c-.698.089-1.527.406-2.148.822a5.7 5.7 0 0 0-1.198 1.148c-.311.417-.685 1.18-.814 1.664a4.97 4.97 0 0 0 .337 3.5c.521 1.063 1.297 1.827 2.379 2.344 1.566.747 3.437.594 4.928-.405.405-.271 1.024-.89 1.295-1.295 1.164-1.739 1.164-3.909 0-5.648-.271-.405-.89-1.024-1.295-1.295a5.07 5.07 0 0 0-3.484-.835m1.241 2.016a3 3 0 0 1 2.357 2.357c.427 2.063-1.456 3.946-3.519 3.519a2.99 2.99 0 0 1-2.357-2.357c-.376-1.817 1.04-3.558 2.91-3.578.171-.002.445.025.609.059m5.159 7.794c-.192.086-.268.198-.701 1.037-.314.61-.424.789-.474.775-.036-.01-.446-.14-.912-.288-.961-.307-1.032-.311-1.295-.073-.171.154-.257.377-.215.562.013.061.14.474.281.917s.256.816.256.827-.355.203-.79.426c-.486.25-.839.458-.918.54a.61.61 0 0 0 0 .842c.079.082.432.29.918.54.435.223.79.415.79.426s-.115.383-.256.827-.268.856-.281.917c-.041.184.044.408.213.56.262.237.349.233 1.307-.074.46-.147.866-.275.902-.285.05-.014.159.165.472.775.434.844.576 1.029.82 1.075a.62.62 0 0 0 .564-.154c.082-.079.29-.433.542-.921.313-.61.422-.789.472-.775.036.01.442.138.902.285.958.307 1.045.311 1.307.074.169-.152.254-.376.213-.56-.013-.061-.14-.474-.281-.917a32 32 0 0 1-.256-.827c0-.011.356-.204.79-.428s.839-.453.899-.51a.63.63 0 0 0 .018-.87c-.078-.082-.433-.291-.917-.54-.434-.223-.79-.415-.79-.426s.115-.383.256-.827.268-.856.281-.917c.042-.185-.044-.408-.215-.562-.263-.238-.334-.234-1.295.073-.466.148-.876.278-.912.288-.05.014-.16-.165-.474-.775-.225-.436-.448-.836-.495-.888a.65.65 0 0 0-.726-.149m.318 2.134c.014.038.134.27.267.514.368.681.512.729 1.359.458.271-.087.498-.154.503-.149s-.062.232-.149.503c-.275.858-.228.989.498 1.382l.524.282q.04.02 0 .04l-.524.282c-.726.393-.778.54-.496 1.396.086.263.153.483.147.488a5 5 0 0 1-.503-.148c-.858-.275-.989-.228-1.382.498l-.282.524q-.02.04-.04 0l-.282-.524c-.393-.726-.524-.773-1.382-.498a6 6 0 0 1-.503.149 6 6 0 0 1 .149-.503c.275-.858.228-.989-.498-1.382l-.524-.282q-.04-.02 0-.04l.524-.282c.726-.393.773-.524.498-1.382a6 6 0 0 1-.149-.503c.005-.005.232.062.503.149.847.271.991.223 1.359-.458.133-.244.253-.476.267-.514s.041-.07.058-.07.043.032.058.07m-6.998.037a17 17 0 0 0-2.022.253c-2.638.529-4.46 1.8-5.394 3.761-.465.977-.644 1.896-.644 3.303V22h2v-.697c0-1.034.1-1.617.394-2.298.392-.909 1.199-1.704 2.225-2.19.991-.469 2.274-.744 3.751-.802l.63-.026V14l-.35.008a29 29 0 0 0-.59.019"/></svg>