<svg xmlns="http://www.w3.org/2000/svg" viewBox="0 0 24 24"><path d="M1 11v10h3.604c3.418 0 3.603-.004 3.575-.07a9 9 0 0 1-.427-1.44L7.66 19H3V3h7v5h5v2.514l.25.022c.138.012.403.032.59.045s.514.059.726.101c.213.043.397.078.41.078S17 9.819 17 8.67V6.58l-2.79-2.79L11.42 1H1zm11.8-5.78.779.78H12v-.78c0-.429.005-.78.01-.78.006 0 .361.351.79.78m1.54 7.261a5.51 5.51 0 0 0-4.805 4.481c-.092.507-.092 1.449 0 1.956.396 2.2 2.098 3.938 4.316 4.407.54.115 1.554.124 2.084.02a5.47 5.47 0 0 0 2.884-1.526 5.47 5.47 0 0 0 1.526-2.884c.104-.53.095-1.544-.02-2.084a5.51 5.51 0 0 0-3.683-4.133c-.646-.216-1.607-.315-2.302-.237m1.52 2.075c.593.168 1.043.43 1.509.876.472.454.778.963.961 1.602.128.443.128 1.369 0 1.812a3.3 3.3 0 0 1-.83 1.469 3.5 3.5 0 0 1-1.64 1.012c-.27.077-.415.091-.92.091-.643 0-.944-.057-1.433-.273-.704-.312-1.454-1.062-1.767-1.767a3.65 3.65 0 0 1-.057-2.726c.428-1.079 1.461-1.937 2.59-2.152.417-.079 1.209-.052 1.587.056m-1.34 3.184v1.74h.96V16h-.96z"/></svg>