<svg xmlns="http://www.w3.org/2000/svg" viewBox="0 0 24 24"><path fill-rule="evenodd" d="M10.445 1.106a1 1 0 0 0-.894 0l-8 5A1 1 0 0 0 1.998 8h16a1 1 0 0 0 .447-1.894zm-.447 2.012L14.762 6H5.234z"/><path d="M2.998 10v7h2v-7zm4 0v7h2v-7zm4 0v7h.018a7.473 7.473 0 0 1 1.982-5.597V10zm.428 9c.256.724.62 1.397 1.073 2H1v-2z"/><path fill-rule="evenodd" d="M18.5 22a5.5 5.5 0 1 0 0-11 5.5 5.5 0 0 0 0 11m.205-7.607 1.588 1.587H15v1h5.293l-1.588 1.588.772.643 2.377-2.377a.5.5 0 0 0 0-.707l-2.377-2.377z"/></svg>